G75*
%MOIN*%
%OFA0B0*%
%FSLAX25Y25*%
%IPPOS*%
%LPD*%
%AMOC8*
5,1,8,0,0,1.08239X$1,22.5*
%
%ADD10R,0.04737X0.05131*%
%ADD11R,0.05131X0.04737*%
%ADD12OC8,0.05600*%
%ADD13C,0.08200*%
%ADD14C,0.17800*%
%ADD15C,0.07200*%
%ADD16R,0.04400X0.07100*%
%ADD17C,0.00600*%
%ADD18C,0.03500*%
%ADD19C,0.05000*%
%ADD20C,0.01800*%
%ADD21R,0.11100X0.11100*%
%ADD22C,0.06800*%
%ADD23C,0.13800*%
D10*
X0060331Y0094071D03*
X0060331Y0100764D03*
X0075882Y0100882D03*
X0075882Y0094189D03*
X0131394Y0053756D03*
X0131394Y0047063D03*
X0182969Y0051354D03*
X0182969Y0058047D03*
X0166394Y0239937D03*
X0166394Y0246630D03*
X0165882Y0257024D03*
X0165882Y0263717D03*
X0166394Y0318244D03*
X0166394Y0324937D03*
X0166118Y0336394D03*
X0166118Y0343087D03*
D11*
X0134346Y0225882D03*
X0127654Y0225882D03*
X0086354Y0322496D03*
X0079661Y0322496D03*
X0064701Y0322614D03*
X0058008Y0322614D03*
X0037457Y0323362D03*
X0030764Y0323362D03*
X0030724Y0311354D03*
X0037417Y0311354D03*
X0035449Y0118756D03*
X0042142Y0118756D03*
X0054504Y0119071D03*
X0061197Y0119071D03*
X0070882Y0118874D03*
X0077575Y0118874D03*
X0117614Y0073323D03*
X0124307Y0073323D03*
X0146748Y0036000D03*
X0153441Y0036000D03*
X0169465Y0036276D03*
X0176157Y0036276D03*
X0160291Y0081236D03*
X0153598Y0081236D03*
X0022299Y0118677D03*
X0015606Y0118677D03*
D12*
X0159622Y0206827D03*
X0159622Y0226827D03*
X0160055Y0285528D03*
X0160055Y0305528D03*
D13*
X0149268Y0325567D03*
X0149268Y0335567D03*
X0148835Y0256315D03*
X0148835Y0246315D03*
X0146551Y0182102D03*
X0136551Y0182102D03*
X0156551Y0182102D03*
X0166551Y0182102D03*
X0102575Y0152496D03*
X0102575Y0142496D03*
X0102575Y0132496D03*
X0102575Y0122496D03*
X0102575Y0112496D03*
X0102575Y0102496D03*
X0102575Y0092496D03*
X0130685Y0017929D03*
X0140685Y0017929D03*
X0150685Y0017929D03*
X0160685Y0017929D03*
X0170685Y0017929D03*
X0017575Y0314189D03*
X0007575Y0314189D03*
X0007260Y0337811D03*
X0017260Y0337811D03*
D14*
X0013835Y0033598D03*
X0032339Y0021787D03*
X0032339Y0045409D03*
D15*
X0055567Y0164425D03*
X0055567Y0174425D03*
X0055567Y0184425D03*
X0055567Y0194425D03*
X0055567Y0204425D03*
X0055567Y0214425D03*
X0055567Y0224425D03*
X0055567Y0234425D03*
X0055567Y0244425D03*
X0055567Y0254425D03*
X0055567Y0264425D03*
X0055567Y0274425D03*
X0055567Y0284425D03*
X0055567Y0294425D03*
X0085567Y0294425D03*
X0085567Y0284425D03*
X0085567Y0274425D03*
X0085567Y0264425D03*
X0085567Y0254425D03*
X0085567Y0244425D03*
X0085567Y0234425D03*
X0085567Y0224425D03*
X0085567Y0214425D03*
X0085567Y0204425D03*
X0085567Y0194425D03*
X0085567Y0184425D03*
X0085567Y0174425D03*
X0085567Y0164425D03*
D16*
X0043480Y0137337D03*
X0034425Y0137337D03*
X0025370Y0137337D03*
D17*
X0028025Y0157987D02*
X0040825Y0157987D01*
X0040825Y0167087D01*
X0028025Y0167087D01*
X0028025Y0157987D01*
X0028025Y0158343D02*
X0040825Y0158343D01*
X0040825Y0158941D02*
X0028025Y0158941D01*
X0028025Y0159540D02*
X0040825Y0159540D01*
X0040825Y0160138D02*
X0028025Y0160138D01*
X0028025Y0160737D02*
X0040825Y0160737D01*
X0040825Y0161335D02*
X0028025Y0161335D01*
X0028025Y0161934D02*
X0040825Y0161934D01*
X0040825Y0162532D02*
X0028025Y0162532D01*
X0028025Y0163131D02*
X0040825Y0163131D01*
X0040825Y0163729D02*
X0028025Y0163729D01*
X0028025Y0164328D02*
X0040825Y0164328D01*
X0040825Y0164926D02*
X0028025Y0164926D01*
X0028025Y0165525D02*
X0040825Y0165525D01*
X0040825Y0166123D02*
X0028025Y0166123D01*
X0028025Y0166722D02*
X0040825Y0166722D01*
D18*
X0037732Y0345252D03*
X0057417Y0345252D03*
X0080409Y0345252D03*
X0100094Y0345252D03*
D19*
X0104031Y0335409D03*
X0076472Y0335409D03*
X0061354Y0335409D03*
X0033795Y0335409D03*
D20*
X0149556Y0068136D02*
X0149556Y0065136D01*
X0151553Y0065136D02*
X0151553Y0068136D01*
X0153530Y0068136D02*
X0153530Y0065136D01*
X0155636Y0065136D02*
X0155636Y0068136D01*
X0157622Y0068136D02*
X0157622Y0065136D01*
X0159609Y0065136D02*
X0159609Y0068136D01*
X0161257Y0063389D02*
X0164257Y0063389D01*
X0164257Y0061402D02*
X0161257Y0061402D01*
X0161257Y0059415D02*
X0164257Y0059415D01*
X0164257Y0057309D02*
X0161257Y0057309D01*
X0161257Y0055332D02*
X0164257Y0055332D01*
X0164257Y0053336D02*
X0161257Y0053336D01*
X0159609Y0051588D02*
X0159609Y0048588D01*
X0157622Y0048588D02*
X0157622Y0051588D01*
X0155636Y0051588D02*
X0155636Y0048588D01*
X0153530Y0048588D02*
X0153530Y0051588D01*
X0151553Y0051588D02*
X0151553Y0048588D01*
X0149556Y0048588D02*
X0149556Y0051588D01*
X0147909Y0053336D02*
X0144909Y0053336D01*
X0144909Y0055332D02*
X0147909Y0055332D01*
X0147909Y0057309D02*
X0144909Y0057309D01*
X0144909Y0059415D02*
X0147909Y0059415D01*
X0147909Y0061402D02*
X0144909Y0061402D01*
X0144909Y0063389D02*
X0147909Y0063389D01*
D21*
X0154543Y0058323D03*
D22*
X0085252Y0074614D02*
X0085252Y0080614D01*
X0075252Y0080614D02*
X0075252Y0074614D01*
X0065252Y0074614D02*
X0065252Y0080614D01*
D23*
X0075252Y0018614D03*
M02*
