G75*
%MOIN*%
%OFA0B0*%
%FSLAX25Y25*%
%IPPOS*%
%LPD*%
%AMOC8*
5,1,8,0,0,1.08239X$1,22.5*
%
%ADD10C,0.00000*%
%ADD11C,0.02200*%
%ADD12C,0.00100*%
%ADD13C,0.01200*%
%ADD14C,0.00600*%
%ADD15C,0.00500*%
%ADD16C,0.01000*%
%ADD17C,0.00800*%
%ADD18C,0.00300*%
%ADD19R,0.03000X0.01800*%
%ADD20R,0.01800X0.03000*%
%ADD21C,0.00200*%
%ADD22C,0.00700*%
%ADD23C,0.00400*%
%ADD24R,0.05000X0.03500*%
D10*
X0001000Y0001000D02*
X0001000Y0355331D01*
X0245094Y0355331D01*
X0245094Y0001000D01*
X0001000Y0001000D01*
X0092374Y0018614D02*
X0092376Y0018775D01*
X0092382Y0018935D01*
X0092392Y0019096D01*
X0092406Y0019256D01*
X0092424Y0019416D01*
X0092445Y0019575D01*
X0092471Y0019734D01*
X0092501Y0019892D01*
X0092534Y0020049D01*
X0092572Y0020206D01*
X0092613Y0020361D01*
X0092658Y0020515D01*
X0092707Y0020668D01*
X0092760Y0020820D01*
X0092816Y0020971D01*
X0092877Y0021120D01*
X0092940Y0021268D01*
X0093008Y0021414D01*
X0093079Y0021558D01*
X0093153Y0021700D01*
X0093231Y0021841D01*
X0093313Y0021979D01*
X0093398Y0022116D01*
X0093486Y0022250D01*
X0093578Y0022382D01*
X0093673Y0022512D01*
X0093771Y0022640D01*
X0093872Y0022765D01*
X0093976Y0022887D01*
X0094083Y0023007D01*
X0094193Y0023124D01*
X0094306Y0023239D01*
X0094422Y0023350D01*
X0094541Y0023459D01*
X0094662Y0023564D01*
X0094786Y0023667D01*
X0094912Y0023767D01*
X0095040Y0023863D01*
X0095171Y0023956D01*
X0095305Y0024046D01*
X0095440Y0024133D01*
X0095578Y0024216D01*
X0095717Y0024296D01*
X0095859Y0024372D01*
X0096002Y0024445D01*
X0096147Y0024514D01*
X0096294Y0024580D01*
X0096442Y0024642D01*
X0096592Y0024700D01*
X0096743Y0024755D01*
X0096896Y0024806D01*
X0097050Y0024853D01*
X0097205Y0024896D01*
X0097361Y0024935D01*
X0097517Y0024971D01*
X0097675Y0025002D01*
X0097833Y0025030D01*
X0097992Y0025054D01*
X0098152Y0025074D01*
X0098312Y0025090D01*
X0098472Y0025102D01*
X0098633Y0025110D01*
X0098794Y0025114D01*
X0098954Y0025114D01*
X0099115Y0025110D01*
X0099276Y0025102D01*
X0099436Y0025090D01*
X0099596Y0025074D01*
X0099756Y0025054D01*
X0099915Y0025030D01*
X0100073Y0025002D01*
X0100231Y0024971D01*
X0100387Y0024935D01*
X0100543Y0024896D01*
X0100698Y0024853D01*
X0100852Y0024806D01*
X0101005Y0024755D01*
X0101156Y0024700D01*
X0101306Y0024642D01*
X0101454Y0024580D01*
X0101601Y0024514D01*
X0101746Y0024445D01*
X0101889Y0024372D01*
X0102031Y0024296D01*
X0102170Y0024216D01*
X0102308Y0024133D01*
X0102443Y0024046D01*
X0102577Y0023956D01*
X0102708Y0023863D01*
X0102836Y0023767D01*
X0102962Y0023667D01*
X0103086Y0023564D01*
X0103207Y0023459D01*
X0103326Y0023350D01*
X0103442Y0023239D01*
X0103555Y0023124D01*
X0103665Y0023007D01*
X0103772Y0022887D01*
X0103876Y0022765D01*
X0103977Y0022640D01*
X0104075Y0022512D01*
X0104170Y0022382D01*
X0104262Y0022250D01*
X0104350Y0022116D01*
X0104435Y0021979D01*
X0104517Y0021841D01*
X0104595Y0021700D01*
X0104669Y0021558D01*
X0104740Y0021414D01*
X0104808Y0021268D01*
X0104871Y0021120D01*
X0104932Y0020971D01*
X0104988Y0020820D01*
X0105041Y0020668D01*
X0105090Y0020515D01*
X0105135Y0020361D01*
X0105176Y0020206D01*
X0105214Y0020049D01*
X0105247Y0019892D01*
X0105277Y0019734D01*
X0105303Y0019575D01*
X0105324Y0019416D01*
X0105342Y0019256D01*
X0105356Y0019096D01*
X0105366Y0018935D01*
X0105372Y0018775D01*
X0105374Y0018614D01*
X0105372Y0018453D01*
X0105366Y0018293D01*
X0105356Y0018132D01*
X0105342Y0017972D01*
X0105324Y0017812D01*
X0105303Y0017653D01*
X0105277Y0017494D01*
X0105247Y0017336D01*
X0105214Y0017179D01*
X0105176Y0017022D01*
X0105135Y0016867D01*
X0105090Y0016713D01*
X0105041Y0016560D01*
X0104988Y0016408D01*
X0104932Y0016257D01*
X0104871Y0016108D01*
X0104808Y0015960D01*
X0104740Y0015814D01*
X0104669Y0015670D01*
X0104595Y0015528D01*
X0104517Y0015387D01*
X0104435Y0015249D01*
X0104350Y0015112D01*
X0104262Y0014978D01*
X0104170Y0014846D01*
X0104075Y0014716D01*
X0103977Y0014588D01*
X0103876Y0014463D01*
X0103772Y0014341D01*
X0103665Y0014221D01*
X0103555Y0014104D01*
X0103442Y0013989D01*
X0103326Y0013878D01*
X0103207Y0013769D01*
X0103086Y0013664D01*
X0102962Y0013561D01*
X0102836Y0013461D01*
X0102708Y0013365D01*
X0102577Y0013272D01*
X0102443Y0013182D01*
X0102308Y0013095D01*
X0102170Y0013012D01*
X0102031Y0012932D01*
X0101889Y0012856D01*
X0101746Y0012783D01*
X0101601Y0012714D01*
X0101454Y0012648D01*
X0101306Y0012586D01*
X0101156Y0012528D01*
X0101005Y0012473D01*
X0100852Y0012422D01*
X0100698Y0012375D01*
X0100543Y0012332D01*
X0100387Y0012293D01*
X0100231Y0012257D01*
X0100073Y0012226D01*
X0099915Y0012198D01*
X0099756Y0012174D01*
X0099596Y0012154D01*
X0099436Y0012138D01*
X0099276Y0012126D01*
X0099115Y0012118D01*
X0098954Y0012114D01*
X0098794Y0012114D01*
X0098633Y0012118D01*
X0098472Y0012126D01*
X0098312Y0012138D01*
X0098152Y0012154D01*
X0097992Y0012174D01*
X0097833Y0012198D01*
X0097675Y0012226D01*
X0097517Y0012257D01*
X0097361Y0012293D01*
X0097205Y0012332D01*
X0097050Y0012375D01*
X0096896Y0012422D01*
X0096743Y0012473D01*
X0096592Y0012528D01*
X0096442Y0012586D01*
X0096294Y0012648D01*
X0096147Y0012714D01*
X0096002Y0012783D01*
X0095859Y0012856D01*
X0095717Y0012932D01*
X0095578Y0013012D01*
X0095440Y0013095D01*
X0095305Y0013182D01*
X0095171Y0013272D01*
X0095040Y0013365D01*
X0094912Y0013461D01*
X0094786Y0013561D01*
X0094662Y0013664D01*
X0094541Y0013769D01*
X0094422Y0013878D01*
X0094306Y0013989D01*
X0094193Y0014104D01*
X0094083Y0014221D01*
X0093976Y0014341D01*
X0093872Y0014463D01*
X0093771Y0014588D01*
X0093673Y0014716D01*
X0093578Y0014846D01*
X0093486Y0014978D01*
X0093398Y0015112D01*
X0093313Y0015249D01*
X0093231Y0015387D01*
X0093153Y0015528D01*
X0093079Y0015670D01*
X0093008Y0015814D01*
X0092940Y0015960D01*
X0092877Y0016108D01*
X0092816Y0016257D01*
X0092760Y0016408D01*
X0092707Y0016560D01*
X0092658Y0016713D01*
X0092613Y0016867D01*
X0092572Y0017022D01*
X0092534Y0017179D01*
X0092501Y0017336D01*
X0092471Y0017494D01*
X0092445Y0017653D01*
X0092424Y0017812D01*
X0092406Y0017972D01*
X0092392Y0018132D01*
X0092382Y0018293D01*
X0092376Y0018453D01*
X0092374Y0018614D01*
D11*
X0144583Y0073203D02*
X0144583Y0073443D01*
X0154896Y0050409D02*
X0155136Y0050409D01*
X0180567Y0081116D02*
X0180567Y0081356D01*
X0206470Y0054701D02*
X0206711Y0054701D01*
X0099624Y0097535D02*
X0099384Y0097535D01*
X0084073Y0097417D02*
X0083833Y0097417D01*
X0154622Y0225762D02*
X0154622Y0226002D01*
D12*
X0154753Y0228832D02*
X0154753Y0230333D01*
X0154252Y0229833D01*
X0153766Y0229082D02*
X0153766Y0228832D01*
X0153516Y0228832D01*
X0153516Y0229082D01*
X0153766Y0229082D01*
X0154252Y0228832D02*
X0155253Y0228832D01*
X0155726Y0229082D02*
X0155976Y0228832D01*
X0156726Y0228832D01*
X0156726Y0229833D01*
X0157199Y0229583D02*
X0157699Y0229583D01*
X0157199Y0230333D02*
X0158200Y0230333D01*
X0157199Y0230333D02*
X0157199Y0228832D01*
X0155726Y0229082D02*
X0155726Y0229833D01*
X0153043Y0230083D02*
X0152042Y0229082D01*
X0152293Y0228832D01*
X0152793Y0228832D01*
X0153043Y0229082D01*
X0153043Y0230083D01*
X0152793Y0230333D01*
X0152293Y0230333D01*
X0152042Y0230083D01*
X0152042Y0229082D01*
X0155476Y0222833D02*
X0155226Y0222583D01*
X0155226Y0221582D01*
X0155476Y0221332D01*
X0155976Y0221332D01*
X0156226Y0221582D01*
X0156699Y0221332D02*
X0157700Y0222333D01*
X0157700Y0222583D01*
X0157449Y0222833D01*
X0156949Y0222833D01*
X0156699Y0222583D01*
X0156226Y0222583D02*
X0155976Y0222833D01*
X0155476Y0222833D01*
X0156699Y0221332D02*
X0157700Y0221332D01*
X0185464Y0239833D02*
X0185464Y0240584D01*
X0185715Y0240834D01*
X0186215Y0240834D01*
X0186465Y0240584D01*
X0186465Y0239833D01*
X0186966Y0239833D02*
X0185464Y0239833D01*
X0186465Y0240334D02*
X0186966Y0240834D01*
X0186966Y0241307D02*
X0186966Y0242308D01*
X0186966Y0241807D02*
X0185464Y0241807D01*
X0185965Y0241307D01*
X0185715Y0242780D02*
X0185464Y0243030D01*
X0185464Y0243531D01*
X0185715Y0243781D01*
X0186716Y0242780D01*
X0186966Y0243030D01*
X0186966Y0243531D01*
X0186716Y0243781D01*
X0185715Y0243781D01*
X0185715Y0242780D02*
X0186716Y0242780D01*
X0192964Y0240807D02*
X0194466Y0240807D01*
X0193965Y0240807D02*
X0194466Y0241557D01*
X0193965Y0240807D02*
X0193465Y0241557D01*
X0193715Y0240334D02*
X0193715Y0239333D01*
X0192964Y0240084D01*
X0194466Y0240084D01*
X0194054Y0260974D02*
X0192553Y0260974D01*
X0192553Y0261724D01*
X0192803Y0261974D01*
X0193303Y0261974D01*
X0193554Y0261724D01*
X0193554Y0260974D01*
X0193554Y0261474D02*
X0194054Y0261974D01*
X0194054Y0262447D02*
X0193053Y0263448D01*
X0192803Y0263448D01*
X0192553Y0263197D01*
X0192553Y0262697D01*
X0192803Y0262447D01*
X0194054Y0262447D02*
X0194054Y0263448D01*
X0186554Y0263192D02*
X0185053Y0263192D01*
X0185053Y0262470D02*
X0185803Y0261719D01*
X0185803Y0262720D01*
X0186054Y0263192D02*
X0185553Y0263943D01*
X0186054Y0263192D02*
X0186554Y0263943D01*
X0186554Y0262470D02*
X0185053Y0262470D01*
X0193715Y0317641D02*
X0193715Y0318641D01*
X0193965Y0319114D02*
X0193465Y0319864D01*
X0193965Y0319114D02*
X0194466Y0319864D01*
X0194466Y0319114D02*
X0192964Y0319114D01*
X0192964Y0318391D02*
X0193715Y0317641D01*
X0194466Y0318391D02*
X0192964Y0318391D01*
X0186966Y0318141D02*
X0185464Y0318141D01*
X0185464Y0318891D01*
X0185715Y0319141D01*
X0186215Y0319141D01*
X0186465Y0318891D01*
X0186465Y0318141D01*
X0186465Y0318641D02*
X0186966Y0319141D01*
X0186966Y0319614D02*
X0186966Y0320615D01*
X0186966Y0321087D02*
X0186966Y0322088D01*
X0186966Y0321587D02*
X0185464Y0321587D01*
X0185965Y0321087D01*
X0185464Y0320114D02*
X0186966Y0320114D01*
X0185965Y0319614D02*
X0185464Y0320114D01*
X0186040Y0341089D02*
X0186040Y0342090D01*
X0186290Y0342562D02*
X0185789Y0343313D01*
X0185289Y0342562D02*
X0186790Y0342562D01*
X0186290Y0342562D02*
X0186790Y0343313D01*
X0186790Y0341840D02*
X0185289Y0341840D01*
X0186040Y0341089D01*
X0192789Y0341094D02*
X0193039Y0341344D01*
X0193540Y0341344D01*
X0193790Y0341094D01*
X0193790Y0340344D01*
X0193790Y0340844D02*
X0194290Y0341344D01*
X0194040Y0341817D02*
X0193790Y0341817D01*
X0193540Y0342067D01*
X0193540Y0342568D01*
X0193790Y0342818D01*
X0194040Y0342818D01*
X0194290Y0342568D01*
X0194290Y0342067D01*
X0194040Y0341817D01*
X0193540Y0342067D02*
X0193289Y0341817D01*
X0193039Y0341817D01*
X0192789Y0342067D01*
X0192789Y0342568D01*
X0193039Y0342818D01*
X0193289Y0342818D01*
X0193540Y0342568D01*
X0192789Y0341094D02*
X0192789Y0340344D01*
X0194290Y0340344D01*
X0110208Y0326947D02*
X0109207Y0325946D01*
X0109457Y0326197D02*
X0110208Y0325446D01*
X0109207Y0325446D02*
X0109207Y0326947D01*
X0108734Y0326697D02*
X0107733Y0325696D01*
X0107984Y0325446D01*
X0108484Y0325446D01*
X0108734Y0325696D01*
X0108734Y0326697D01*
X0108484Y0326947D01*
X0107984Y0326947D01*
X0107733Y0326697D01*
X0107733Y0325696D01*
X0107261Y0325446D02*
X0106260Y0325446D01*
X0106761Y0325446D02*
X0106761Y0326947D01*
X0106260Y0326447D01*
X0107233Y0319447D02*
X0107984Y0319447D01*
X0108234Y0319197D01*
X0108234Y0318697D01*
X0107984Y0318446D01*
X0107233Y0318446D01*
X0107233Y0317946D02*
X0107233Y0319447D01*
X0107734Y0318446D02*
X0108234Y0317946D01*
X0108707Y0317946D02*
X0108707Y0318196D01*
X0109708Y0319197D01*
X0109708Y0319447D01*
X0108707Y0319447D01*
X0084974Y0319665D02*
X0083973Y0318665D01*
X0084223Y0318915D02*
X0084974Y0318164D01*
X0083973Y0318164D02*
X0083973Y0319665D01*
X0083500Y0319415D02*
X0082500Y0318414D01*
X0082750Y0318164D01*
X0083250Y0318164D01*
X0083500Y0318414D01*
X0083500Y0319415D01*
X0083250Y0319665D01*
X0082750Y0319665D01*
X0082500Y0319415D01*
X0082500Y0318414D01*
X0082027Y0318164D02*
X0081026Y0318164D01*
X0081527Y0318164D02*
X0081527Y0319665D01*
X0081026Y0319165D01*
X0081526Y0325664D02*
X0081526Y0327165D01*
X0082277Y0327165D01*
X0082527Y0326915D01*
X0082527Y0326415D01*
X0082277Y0326165D01*
X0081526Y0326165D01*
X0082027Y0326165D02*
X0082527Y0325664D01*
X0083000Y0325914D02*
X0083250Y0325664D01*
X0083750Y0325664D01*
X0084000Y0325914D01*
X0084000Y0326165D01*
X0083750Y0326415D01*
X0083000Y0326415D01*
X0083000Y0325914D01*
X0083000Y0326415D02*
X0083500Y0326915D01*
X0084000Y0327165D01*
X0043193Y0342046D02*
X0042412Y0341600D01*
X0042319Y0341757D01*
X0042222Y0341911D01*
X0042121Y0342063D01*
X0042016Y0342212D01*
X0041908Y0342359D01*
X0041797Y0342504D01*
X0041682Y0342645D01*
X0041563Y0342784D01*
X0041441Y0342919D01*
X0041316Y0343052D01*
X0041188Y0343182D01*
X0041057Y0343308D01*
X0040923Y0343432D01*
X0040786Y0343552D01*
X0040646Y0343669D01*
X0040503Y0343782D01*
X0040357Y0343892D01*
X0040209Y0343998D01*
X0040058Y0344101D01*
X0039905Y0344200D01*
X0039750Y0344295D01*
X0039592Y0344386D01*
X0039432Y0344474D01*
X0039270Y0344558D01*
X0039107Y0344638D01*
X0038941Y0344714D01*
X0038773Y0344785D01*
X0038604Y0344853D01*
X0038433Y0344917D01*
X0038261Y0344976D01*
X0038087Y0345032D01*
X0037912Y0345083D01*
X0037736Y0345130D01*
X0037559Y0345172D01*
X0037380Y0345211D01*
X0037201Y0345245D01*
X0037021Y0345275D01*
X0036841Y0345300D01*
X0036660Y0345321D01*
X0036478Y0345337D01*
X0036296Y0345350D01*
X0036114Y0345357D01*
X0035932Y0345361D01*
X0035931Y0346260D01*
X0035932Y0346261D01*
X0036136Y0346257D01*
X0036340Y0346249D01*
X0036544Y0346235D01*
X0036748Y0346217D01*
X0036951Y0346193D01*
X0037153Y0346165D01*
X0037355Y0346132D01*
X0037555Y0346094D01*
X0037755Y0346051D01*
X0037954Y0346003D01*
X0038151Y0345951D01*
X0038347Y0345893D01*
X0038542Y0345831D01*
X0038735Y0345765D01*
X0038927Y0345693D01*
X0039116Y0345617D01*
X0039304Y0345537D01*
X0039490Y0345452D01*
X0039674Y0345362D01*
X0039855Y0345269D01*
X0040034Y0345170D01*
X0040211Y0345068D01*
X0040385Y0344961D01*
X0040557Y0344850D01*
X0040726Y0344735D01*
X0040892Y0344616D01*
X0041055Y0344493D01*
X0041215Y0344366D01*
X0041372Y0344235D01*
X0041526Y0344100D01*
X0041676Y0343962D01*
X0041823Y0343820D01*
X0041967Y0343675D01*
X0042107Y0343526D01*
X0042243Y0343374D01*
X0042376Y0343218D01*
X0042504Y0343060D01*
X0042629Y0342898D01*
X0042750Y0342733D01*
X0042867Y0342566D01*
X0042980Y0342395D01*
X0043089Y0342222D01*
X0043194Y0342047D01*
X0043112Y0342000D01*
X0043009Y0342174D01*
X0042901Y0342345D01*
X0042789Y0342513D01*
X0042674Y0342679D01*
X0042554Y0342842D01*
X0042430Y0343001D01*
X0042303Y0343158D01*
X0042172Y0343312D01*
X0042037Y0343462D01*
X0041899Y0343610D01*
X0041757Y0343753D01*
X0041611Y0343894D01*
X0041463Y0344030D01*
X0041311Y0344163D01*
X0041155Y0344293D01*
X0040997Y0344418D01*
X0040836Y0344540D01*
X0040672Y0344658D01*
X0040505Y0344772D01*
X0040335Y0344881D01*
X0040163Y0344987D01*
X0039988Y0345088D01*
X0039811Y0345186D01*
X0039632Y0345278D01*
X0039450Y0345367D01*
X0039266Y0345451D01*
X0039081Y0345531D01*
X0038893Y0345606D01*
X0038704Y0345676D01*
X0038513Y0345742D01*
X0038320Y0345803D01*
X0038126Y0345860D01*
X0037931Y0345912D01*
X0037735Y0345959D01*
X0037537Y0346001D01*
X0037339Y0346039D01*
X0037139Y0346072D01*
X0036939Y0346100D01*
X0036738Y0346123D01*
X0036537Y0346141D01*
X0036336Y0346155D01*
X0036134Y0346163D01*
X0035932Y0346167D01*
X0035932Y0346073D01*
X0036131Y0346069D01*
X0036331Y0346061D01*
X0036530Y0346048D01*
X0036729Y0346029D01*
X0036928Y0346007D01*
X0037125Y0345979D01*
X0037323Y0345946D01*
X0037519Y0345909D01*
X0037714Y0345867D01*
X0037908Y0345821D01*
X0038101Y0345769D01*
X0038293Y0345713D01*
X0038483Y0345653D01*
X0038672Y0345588D01*
X0038859Y0345518D01*
X0039045Y0345444D01*
X0039228Y0345365D01*
X0039410Y0345282D01*
X0039590Y0345194D01*
X0039767Y0345103D01*
X0039942Y0345007D01*
X0040115Y0344906D01*
X0040285Y0344802D01*
X0040453Y0344693D01*
X0040618Y0344581D01*
X0040780Y0344465D01*
X0040939Y0344344D01*
X0041096Y0344220D01*
X0041249Y0344092D01*
X0041400Y0343961D01*
X0041547Y0343825D01*
X0041690Y0343687D01*
X0041831Y0343545D01*
X0041968Y0343399D01*
X0042101Y0343250D01*
X0042231Y0343098D01*
X0042357Y0342943D01*
X0042479Y0342785D01*
X0042597Y0342624D01*
X0042711Y0342461D01*
X0042822Y0342294D01*
X0042928Y0342125D01*
X0043030Y0341954D01*
X0042949Y0341907D01*
X0042848Y0342077D01*
X0042743Y0342244D01*
X0042633Y0342408D01*
X0042520Y0342570D01*
X0042403Y0342729D01*
X0042283Y0342885D01*
X0042158Y0343039D01*
X0042030Y0343189D01*
X0041898Y0343336D01*
X0041763Y0343480D01*
X0041624Y0343620D01*
X0041482Y0343757D01*
X0041337Y0343891D01*
X0041188Y0344021D01*
X0041036Y0344147D01*
X0040882Y0344270D01*
X0040724Y0344389D01*
X0040564Y0344504D01*
X0040401Y0344615D01*
X0040235Y0344722D01*
X0040067Y0344826D01*
X0039896Y0344925D01*
X0039723Y0345020D01*
X0039547Y0345110D01*
X0039370Y0345197D01*
X0039190Y0345279D01*
X0039009Y0345357D01*
X0038826Y0345430D01*
X0038641Y0345499D01*
X0038454Y0345563D01*
X0038266Y0345623D01*
X0038076Y0345679D01*
X0037886Y0345729D01*
X0037694Y0345776D01*
X0037501Y0345817D01*
X0037307Y0345854D01*
X0037112Y0345886D01*
X0036916Y0345913D01*
X0036720Y0345936D01*
X0036523Y0345954D01*
X0036326Y0345967D01*
X0036129Y0345975D01*
X0035932Y0345979D01*
X0035932Y0345885D01*
X0036127Y0345881D01*
X0036322Y0345873D01*
X0036517Y0345860D01*
X0036711Y0345842D01*
X0036905Y0345820D01*
X0037098Y0345793D01*
X0037291Y0345761D01*
X0037482Y0345725D01*
X0037673Y0345684D01*
X0037863Y0345638D01*
X0038051Y0345588D01*
X0038239Y0345533D01*
X0038425Y0345474D01*
X0038609Y0345411D01*
X0038792Y0345342D01*
X0038973Y0345270D01*
X0039152Y0345193D01*
X0039330Y0345112D01*
X0039505Y0345026D01*
X0039679Y0344937D01*
X0039850Y0344843D01*
X0040018Y0344745D01*
X0040185Y0344643D01*
X0040349Y0344537D01*
X0040510Y0344427D01*
X0040668Y0344313D01*
X0040824Y0344196D01*
X0040977Y0344074D01*
X0041127Y0343949D01*
X0041274Y0343821D01*
X0041417Y0343689D01*
X0041558Y0343553D01*
X0041695Y0343414D01*
X0041829Y0343272D01*
X0041959Y0343127D01*
X0042086Y0342979D01*
X0042209Y0342827D01*
X0042328Y0342673D01*
X0042444Y0342516D01*
X0042555Y0342356D01*
X0042663Y0342193D01*
X0042767Y0342028D01*
X0042867Y0341860D01*
X0042786Y0341814D01*
X0042687Y0341979D01*
X0042584Y0342143D01*
X0042477Y0342303D01*
X0042367Y0342461D01*
X0042253Y0342617D01*
X0042135Y0342769D01*
X0042013Y0342919D01*
X0041888Y0343065D01*
X0041759Y0343209D01*
X0041627Y0343349D01*
X0041492Y0343487D01*
X0041353Y0343621D01*
X0041211Y0343751D01*
X0041066Y0343878D01*
X0040918Y0344002D01*
X0040767Y0344121D01*
X0040613Y0344238D01*
X0040456Y0344350D01*
X0040297Y0344459D01*
X0040135Y0344563D01*
X0039970Y0344664D01*
X0039804Y0344761D01*
X0039634Y0344854D01*
X0039463Y0344942D01*
X0039290Y0345027D01*
X0039114Y0345107D01*
X0038937Y0345183D01*
X0038758Y0345255D01*
X0038577Y0345322D01*
X0038395Y0345385D01*
X0038211Y0345443D01*
X0038026Y0345497D01*
X0037840Y0345547D01*
X0037652Y0345592D01*
X0037464Y0345633D01*
X0037275Y0345669D01*
X0037084Y0345700D01*
X0036893Y0345727D01*
X0036702Y0345749D01*
X0036510Y0345766D01*
X0036317Y0345779D01*
X0036125Y0345787D01*
X0035932Y0345791D01*
X0035932Y0345697D01*
X0036122Y0345693D01*
X0036313Y0345685D01*
X0036503Y0345673D01*
X0036693Y0345655D01*
X0036882Y0345633D01*
X0037070Y0345607D01*
X0037258Y0345576D01*
X0037446Y0345540D01*
X0037632Y0345500D01*
X0037817Y0345456D01*
X0038001Y0345407D01*
X0038184Y0345353D01*
X0038366Y0345296D01*
X0038546Y0345233D01*
X0038724Y0345167D01*
X0038901Y0345096D01*
X0039076Y0345021D01*
X0039250Y0344942D01*
X0039421Y0344858D01*
X0039590Y0344771D01*
X0039757Y0344679D01*
X0039922Y0344583D01*
X0040085Y0344484D01*
X0040245Y0344380D01*
X0040402Y0344273D01*
X0040557Y0344162D01*
X0040709Y0344047D01*
X0040858Y0343929D01*
X0041004Y0343807D01*
X0041148Y0343681D01*
X0041288Y0343552D01*
X0041425Y0343420D01*
X0041559Y0343284D01*
X0041690Y0343146D01*
X0041817Y0343004D01*
X0041941Y0342859D01*
X0042061Y0342711D01*
X0042177Y0342560D01*
X0042290Y0342407D01*
X0042399Y0342251D01*
X0042505Y0342092D01*
X0042606Y0341931D01*
X0042704Y0341767D01*
X0042622Y0341720D01*
X0042526Y0341882D01*
X0042426Y0342041D01*
X0042322Y0342198D01*
X0042214Y0342353D01*
X0042102Y0342504D01*
X0041987Y0342653D01*
X0041868Y0342799D01*
X0041746Y0342942D01*
X0041620Y0343082D01*
X0041491Y0343219D01*
X0041359Y0343353D01*
X0041223Y0343484D01*
X0041085Y0343611D01*
X0040943Y0343735D01*
X0040799Y0343856D01*
X0040651Y0343973D01*
X0040501Y0344086D01*
X0040348Y0344196D01*
X0040192Y0344302D01*
X0040034Y0344404D01*
X0039874Y0344503D01*
X0039711Y0344597D01*
X0039546Y0344688D01*
X0039379Y0344774D01*
X0039210Y0344857D01*
X0039039Y0344935D01*
X0038866Y0345009D01*
X0038691Y0345079D01*
X0038514Y0345145D01*
X0038336Y0345206D01*
X0038157Y0345263D01*
X0037976Y0345316D01*
X0037794Y0345365D01*
X0037611Y0345409D01*
X0037427Y0345448D01*
X0037242Y0345483D01*
X0037057Y0345514D01*
X0036870Y0345540D01*
X0036683Y0345562D01*
X0036496Y0345579D01*
X0036308Y0345591D01*
X0036120Y0345599D01*
X0035932Y0345603D01*
X0035932Y0345509D01*
X0036118Y0345505D01*
X0036303Y0345497D01*
X0036489Y0345485D01*
X0036674Y0345468D01*
X0036859Y0345447D01*
X0037043Y0345421D01*
X0037226Y0345391D01*
X0037409Y0345356D01*
X0037591Y0345317D01*
X0037772Y0345273D01*
X0037951Y0345226D01*
X0038130Y0345173D01*
X0038307Y0345117D01*
X0038483Y0345056D01*
X0038657Y0344991D01*
X0038830Y0344922D01*
X0039001Y0344849D01*
X0039170Y0344772D01*
X0039337Y0344690D01*
X0039502Y0344605D01*
X0039665Y0344515D01*
X0039826Y0344422D01*
X0039984Y0344325D01*
X0040140Y0344224D01*
X0040294Y0344119D01*
X0040445Y0344011D01*
X0040594Y0343899D01*
X0040739Y0343783D01*
X0040882Y0343664D01*
X0041022Y0343542D01*
X0041159Y0343416D01*
X0041293Y0343287D01*
X0041423Y0343154D01*
X0041551Y0343019D01*
X0041675Y0342881D01*
X0041796Y0342739D01*
X0041913Y0342595D01*
X0042027Y0342448D01*
X0042137Y0342298D01*
X0042244Y0342146D01*
X0042346Y0341991D01*
X0042445Y0341833D01*
X0042541Y0341674D01*
X0042459Y0341627D01*
X0042365Y0341785D01*
X0042267Y0341940D01*
X0042166Y0342093D01*
X0042060Y0342244D01*
X0041951Y0342392D01*
X0041839Y0342537D01*
X0041723Y0342679D01*
X0041604Y0342819D01*
X0041481Y0342956D01*
X0041355Y0343089D01*
X0041226Y0343220D01*
X0041094Y0343348D01*
X0040959Y0343472D01*
X0040821Y0343593D01*
X0040680Y0343710D01*
X0040536Y0343824D01*
X0040389Y0343935D01*
X0040240Y0344042D01*
X0040088Y0344146D01*
X0039934Y0344245D01*
X0039778Y0344341D01*
X0039619Y0344433D01*
X0039458Y0344522D01*
X0039295Y0344606D01*
X0039130Y0344687D01*
X0038963Y0344763D01*
X0038794Y0344835D01*
X0038623Y0344904D01*
X0038451Y0344968D01*
X0038278Y0345028D01*
X0038103Y0345084D01*
X0037926Y0345135D01*
X0037749Y0345182D01*
X0037570Y0345225D01*
X0037391Y0345264D01*
X0037210Y0345298D01*
X0037029Y0345328D01*
X0036847Y0345353D01*
X0036665Y0345375D01*
X0036482Y0345391D01*
X0036299Y0345404D01*
X0036115Y0345411D01*
X0035932Y0345415D01*
X0035932Y0329362D02*
X0035932Y0330262D01*
X0035932Y0330261D02*
X0036115Y0330265D01*
X0036298Y0330272D01*
X0036481Y0330285D01*
X0036664Y0330302D01*
X0036846Y0330323D01*
X0037027Y0330348D01*
X0037208Y0330378D01*
X0037388Y0330413D01*
X0037567Y0330451D01*
X0037745Y0330494D01*
X0037922Y0330542D01*
X0038097Y0330593D01*
X0038272Y0330649D01*
X0038445Y0330709D01*
X0038616Y0330774D01*
X0038786Y0330842D01*
X0038955Y0330914D01*
X0039121Y0330991D01*
X0039285Y0331072D01*
X0039448Y0331156D01*
X0039608Y0331245D01*
X0039767Y0331337D01*
X0039923Y0331433D01*
X0040076Y0331533D01*
X0040227Y0331637D01*
X0040376Y0331744D01*
X0040522Y0331855D01*
X0040665Y0331969D01*
X0040805Y0332087D01*
X0040942Y0332208D01*
X0041077Y0332332D01*
X0041208Y0332460D01*
X0041337Y0332591D01*
X0041462Y0332725D01*
X0041583Y0332861D01*
X0041702Y0333001D01*
X0041817Y0333144D01*
X0041928Y0333289D01*
X0042036Y0333437D01*
X0042140Y0333588D01*
X0042241Y0333741D01*
X0042338Y0333896D01*
X0042431Y0334054D01*
X0042520Y0334214D01*
X0043314Y0333791D01*
X0043214Y0333611D01*
X0043110Y0333434D01*
X0043002Y0333260D01*
X0042889Y0333088D01*
X0042772Y0332920D01*
X0042651Y0332754D01*
X0042527Y0332591D01*
X0042398Y0332431D01*
X0042265Y0332274D01*
X0042129Y0332121D01*
X0041989Y0331971D01*
X0041845Y0331824D01*
X0041698Y0331681D01*
X0041547Y0331541D01*
X0041393Y0331406D01*
X0041236Y0331274D01*
X0041076Y0331146D01*
X0040912Y0331021D01*
X0040746Y0330901D01*
X0040576Y0330785D01*
X0040404Y0330673D01*
X0040230Y0330565D01*
X0040052Y0330462D01*
X0039873Y0330363D01*
X0039690Y0330268D01*
X0039506Y0330178D01*
X0039320Y0330092D01*
X0039131Y0330011D01*
X0038941Y0329934D01*
X0038748Y0329862D01*
X0038554Y0329795D01*
X0038359Y0329732D01*
X0038162Y0329674D01*
X0037964Y0329621D01*
X0037764Y0329573D01*
X0037563Y0329530D01*
X0037362Y0329492D01*
X0037159Y0329458D01*
X0036956Y0329430D01*
X0036752Y0329406D01*
X0036547Y0329387D01*
X0036343Y0329374D01*
X0036138Y0329365D01*
X0035932Y0329361D01*
X0035932Y0329455D01*
X0036135Y0329459D01*
X0036338Y0329467D01*
X0036541Y0329481D01*
X0036743Y0329499D01*
X0036944Y0329523D01*
X0037145Y0329551D01*
X0037346Y0329584D01*
X0037545Y0329622D01*
X0037743Y0329665D01*
X0037941Y0329713D01*
X0038137Y0329765D01*
X0038332Y0329822D01*
X0038525Y0329884D01*
X0038717Y0329951D01*
X0038907Y0330022D01*
X0039095Y0330097D01*
X0039281Y0330178D01*
X0039466Y0330263D01*
X0039648Y0330352D01*
X0039828Y0330446D01*
X0040006Y0330544D01*
X0040181Y0330646D01*
X0040354Y0330752D01*
X0040524Y0330863D01*
X0040692Y0330978D01*
X0040856Y0331097D01*
X0041018Y0331220D01*
X0041176Y0331346D01*
X0041332Y0331477D01*
X0041484Y0331611D01*
X0041633Y0331749D01*
X0041779Y0331890D01*
X0041921Y0332035D01*
X0042059Y0332184D01*
X0042194Y0332335D01*
X0042325Y0332490D01*
X0042452Y0332648D01*
X0042576Y0332810D01*
X0042695Y0332974D01*
X0042811Y0333141D01*
X0042922Y0333310D01*
X0043030Y0333483D01*
X0043133Y0333658D01*
X0043231Y0333835D01*
X0043148Y0333879D01*
X0043051Y0333704D01*
X0042949Y0333531D01*
X0042843Y0333361D01*
X0042733Y0333193D01*
X0042619Y0333028D01*
X0042500Y0332866D01*
X0042378Y0332706D01*
X0042252Y0332550D01*
X0042123Y0332397D01*
X0041989Y0332247D01*
X0041853Y0332100D01*
X0041712Y0331957D01*
X0041568Y0331817D01*
X0041421Y0331681D01*
X0041270Y0331548D01*
X0041117Y0331419D01*
X0040960Y0331294D01*
X0040800Y0331172D01*
X0040637Y0331055D01*
X0040472Y0330941D01*
X0040304Y0330832D01*
X0040133Y0330726D01*
X0039960Y0330625D01*
X0039784Y0330528D01*
X0039606Y0330436D01*
X0039426Y0330348D01*
X0039243Y0330264D01*
X0039059Y0330184D01*
X0038873Y0330109D01*
X0038685Y0330039D01*
X0038495Y0329973D01*
X0038304Y0329912D01*
X0038112Y0329856D01*
X0037918Y0329804D01*
X0037723Y0329757D01*
X0037527Y0329714D01*
X0037329Y0329677D01*
X0037131Y0329644D01*
X0036933Y0329616D01*
X0036733Y0329593D01*
X0036534Y0329575D01*
X0036333Y0329561D01*
X0036133Y0329553D01*
X0035932Y0329549D01*
X0035932Y0329643D01*
X0036131Y0329647D01*
X0036329Y0329655D01*
X0036527Y0329668D01*
X0036724Y0329687D01*
X0036921Y0329709D01*
X0037118Y0329737D01*
X0037313Y0329769D01*
X0037508Y0329807D01*
X0037702Y0329848D01*
X0037895Y0329895D01*
X0038087Y0329946D01*
X0038277Y0330002D01*
X0038466Y0330062D01*
X0038653Y0330127D01*
X0038839Y0330197D01*
X0039023Y0330271D01*
X0039205Y0330350D01*
X0039385Y0330433D01*
X0039564Y0330520D01*
X0039740Y0330611D01*
X0039913Y0330707D01*
X0040085Y0330807D01*
X0040253Y0330911D01*
X0040420Y0331019D01*
X0040583Y0331132D01*
X0040744Y0331248D01*
X0040902Y0331368D01*
X0041057Y0331492D01*
X0041209Y0331619D01*
X0041358Y0331750D01*
X0041503Y0331885D01*
X0041646Y0332023D01*
X0041784Y0332165D01*
X0041920Y0332310D01*
X0042052Y0332458D01*
X0042180Y0332610D01*
X0042304Y0332764D01*
X0042425Y0332921D01*
X0042542Y0333082D01*
X0042655Y0333245D01*
X0042763Y0333411D01*
X0042868Y0333579D01*
X0042969Y0333750D01*
X0043065Y0333923D01*
X0042983Y0333968D01*
X0042887Y0333796D01*
X0042788Y0333627D01*
X0042684Y0333461D01*
X0042576Y0333297D01*
X0042465Y0333136D01*
X0042349Y0332977D01*
X0042230Y0332822D01*
X0042107Y0332669D01*
X0041980Y0332520D01*
X0041850Y0332373D01*
X0041716Y0332230D01*
X0041579Y0332090D01*
X0041438Y0331953D01*
X0041295Y0331820D01*
X0041148Y0331690D01*
X0040997Y0331564D01*
X0040844Y0331442D01*
X0040688Y0331323D01*
X0040529Y0331208D01*
X0040367Y0331098D01*
X0040203Y0330991D01*
X0040036Y0330888D01*
X0039867Y0330789D01*
X0039695Y0330694D01*
X0039521Y0330604D01*
X0039345Y0330517D01*
X0039167Y0330436D01*
X0038987Y0330358D01*
X0038805Y0330285D01*
X0038622Y0330216D01*
X0038436Y0330152D01*
X0038250Y0330092D01*
X0038062Y0330037D01*
X0037872Y0329986D01*
X0037682Y0329940D01*
X0037490Y0329899D01*
X0037297Y0329862D01*
X0037104Y0329830D01*
X0036910Y0329803D01*
X0036715Y0329780D01*
X0036520Y0329762D01*
X0036324Y0329749D01*
X0036128Y0329741D01*
X0035932Y0329737D01*
X0035932Y0329831D01*
X0036126Y0329835D01*
X0036320Y0329843D01*
X0036513Y0329856D01*
X0036706Y0329874D01*
X0036898Y0329896D01*
X0037090Y0329923D01*
X0037281Y0329955D01*
X0037472Y0329991D01*
X0037661Y0330032D01*
X0037849Y0330077D01*
X0038036Y0330127D01*
X0038222Y0330182D01*
X0038407Y0330241D01*
X0038590Y0330304D01*
X0038771Y0330372D01*
X0038951Y0330445D01*
X0039129Y0330521D01*
X0039305Y0330602D01*
X0039479Y0330688D01*
X0039651Y0330777D01*
X0039821Y0330871D01*
X0039988Y0330968D01*
X0040153Y0331070D01*
X0040315Y0331176D01*
X0040475Y0331285D01*
X0040632Y0331399D01*
X0040786Y0331516D01*
X0040938Y0331637D01*
X0041086Y0331761D01*
X0041231Y0331889D01*
X0041374Y0332021D01*
X0041513Y0332156D01*
X0041648Y0332294D01*
X0041780Y0332436D01*
X0041909Y0332581D01*
X0042034Y0332729D01*
X0042156Y0332880D01*
X0042274Y0333033D01*
X0042388Y0333190D01*
X0042498Y0333349D01*
X0042604Y0333511D01*
X0042707Y0333676D01*
X0042805Y0333843D01*
X0042900Y0334012D01*
X0042817Y0334056D01*
X0042723Y0333889D01*
X0042626Y0333724D01*
X0042525Y0333561D01*
X0042420Y0333401D01*
X0042311Y0333244D01*
X0042198Y0333089D01*
X0042082Y0332937D01*
X0041962Y0332788D01*
X0041838Y0332642D01*
X0041711Y0332499D01*
X0041580Y0332359D01*
X0041446Y0332223D01*
X0041309Y0332089D01*
X0041168Y0331959D01*
X0041025Y0331832D01*
X0040878Y0331709D01*
X0040728Y0331590D01*
X0040576Y0331474D01*
X0040421Y0331362D01*
X0040263Y0331254D01*
X0040102Y0331149D01*
X0039939Y0331049D01*
X0039774Y0330952D01*
X0039607Y0330860D01*
X0039437Y0330772D01*
X0039265Y0330687D01*
X0039091Y0330607D01*
X0038915Y0330532D01*
X0038737Y0330460D01*
X0038558Y0330393D01*
X0038377Y0330330D01*
X0038195Y0330272D01*
X0038011Y0330218D01*
X0037826Y0330168D01*
X0037640Y0330124D01*
X0037453Y0330083D01*
X0037265Y0330047D01*
X0037076Y0330016D01*
X0036887Y0329989D01*
X0036697Y0329967D01*
X0036506Y0329950D01*
X0036315Y0329937D01*
X0036124Y0329929D01*
X0035932Y0329925D01*
X0035932Y0330019D01*
X0036121Y0330023D01*
X0036310Y0330031D01*
X0036499Y0330043D01*
X0036687Y0330061D01*
X0036875Y0330083D01*
X0037062Y0330109D01*
X0037249Y0330140D01*
X0037435Y0330175D01*
X0037620Y0330215D01*
X0037804Y0330260D01*
X0037986Y0330309D01*
X0038168Y0330362D01*
X0038348Y0330419D01*
X0038526Y0330481D01*
X0038704Y0330548D01*
X0038879Y0330618D01*
X0039053Y0330693D01*
X0039225Y0330772D01*
X0039394Y0330856D01*
X0039562Y0330943D01*
X0039728Y0331034D01*
X0039891Y0331130D01*
X0040052Y0331229D01*
X0040211Y0331332D01*
X0040367Y0331439D01*
X0040520Y0331550D01*
X0040671Y0331664D01*
X0040818Y0331782D01*
X0040963Y0331904D01*
X0041105Y0332029D01*
X0041244Y0332157D01*
X0041379Y0332289D01*
X0041512Y0332424D01*
X0041641Y0332562D01*
X0041767Y0332704D01*
X0041889Y0332848D01*
X0042008Y0332995D01*
X0042123Y0333145D01*
X0042234Y0333298D01*
X0042342Y0333454D01*
X0042446Y0333612D01*
X0042546Y0333772D01*
X0042642Y0333935D01*
X0042734Y0334100D01*
X0042651Y0334145D01*
X0042560Y0333981D01*
X0042465Y0333820D01*
X0042366Y0333662D01*
X0042264Y0333506D01*
X0042157Y0333352D01*
X0042047Y0333201D01*
X0041933Y0333053D01*
X0041816Y0332907D01*
X0041695Y0332765D01*
X0041571Y0332625D01*
X0041444Y0332489D01*
X0041313Y0332355D01*
X0041179Y0332225D01*
X0041042Y0332098D01*
X0040902Y0331975D01*
X0040759Y0331855D01*
X0040613Y0331738D01*
X0040464Y0331625D01*
X0040312Y0331516D01*
X0040158Y0331410D01*
X0040002Y0331308D01*
X0039843Y0331210D01*
X0039681Y0331116D01*
X0039518Y0331026D01*
X0039352Y0330939D01*
X0039184Y0330857D01*
X0039015Y0330779D01*
X0038843Y0330705D01*
X0038670Y0330636D01*
X0038495Y0330570D01*
X0038318Y0330509D01*
X0038140Y0330452D01*
X0037961Y0330399D01*
X0037781Y0330351D01*
X0037599Y0330307D01*
X0037416Y0330267D01*
X0037233Y0330232D01*
X0037049Y0330202D01*
X0036864Y0330176D01*
X0036678Y0330154D01*
X0036492Y0330137D01*
X0036306Y0330125D01*
X0036119Y0330117D01*
X0035932Y0330113D01*
X0035932Y0330207D01*
X0036117Y0330211D01*
X0036301Y0330219D01*
X0036485Y0330231D01*
X0036669Y0330248D01*
X0036852Y0330269D01*
X0037035Y0330295D01*
X0037217Y0330325D01*
X0037398Y0330360D01*
X0037578Y0330399D01*
X0037758Y0330442D01*
X0037936Y0330490D01*
X0038113Y0330542D01*
X0038289Y0330598D01*
X0038463Y0330658D01*
X0038636Y0330723D01*
X0038807Y0330792D01*
X0038976Y0330865D01*
X0039144Y0330942D01*
X0039310Y0331023D01*
X0039473Y0331109D01*
X0039635Y0331198D01*
X0039794Y0331291D01*
X0039951Y0331388D01*
X0040106Y0331488D01*
X0040258Y0331593D01*
X0040408Y0331701D01*
X0040555Y0331812D01*
X0040699Y0331927D01*
X0040840Y0332046D01*
X0040979Y0332168D01*
X0041114Y0332293D01*
X0041246Y0332422D01*
X0041376Y0332554D01*
X0041502Y0332688D01*
X0041624Y0332826D01*
X0041743Y0332967D01*
X0041859Y0333111D01*
X0041972Y0333257D01*
X0042080Y0333406D01*
X0042185Y0333558D01*
X0042287Y0333712D01*
X0042384Y0333869D01*
X0042478Y0334028D01*
X0042568Y0334189D01*
X0029423Y0332363D02*
X0030115Y0332940D01*
X0030114Y0332939D02*
X0030233Y0332802D01*
X0030354Y0332668D01*
X0030479Y0332537D01*
X0030607Y0332409D01*
X0030738Y0332285D01*
X0030872Y0332163D01*
X0031009Y0332044D01*
X0031148Y0331929D01*
X0031291Y0331818D01*
X0031436Y0331709D01*
X0031583Y0331604D01*
X0031733Y0331503D01*
X0031885Y0331406D01*
X0032040Y0331312D01*
X0032197Y0331221D01*
X0032356Y0331135D01*
X0032517Y0331052D01*
X0032680Y0330974D01*
X0032845Y0330899D01*
X0033011Y0330828D01*
X0033179Y0330761D01*
X0033349Y0330699D01*
X0033520Y0330640D01*
X0033693Y0330585D01*
X0033866Y0330535D01*
X0034041Y0330489D01*
X0034217Y0330447D01*
X0034394Y0330409D01*
X0034572Y0330376D01*
X0034751Y0330346D01*
X0034930Y0330321D01*
X0035110Y0330301D01*
X0035290Y0330284D01*
X0035470Y0330272D01*
X0035651Y0330265D01*
X0035832Y0330261D01*
X0035833Y0329362D01*
X0035832Y0329361D01*
X0035629Y0329365D01*
X0035427Y0329373D01*
X0035224Y0329387D01*
X0035022Y0329405D01*
X0034821Y0329428D01*
X0034620Y0329456D01*
X0034420Y0329489D01*
X0034220Y0329526D01*
X0034022Y0329568D01*
X0033824Y0329615D01*
X0033628Y0329667D01*
X0033434Y0329724D01*
X0033240Y0329785D01*
X0033048Y0329850D01*
X0032858Y0329921D01*
X0032669Y0329996D01*
X0032483Y0330075D01*
X0032298Y0330159D01*
X0032115Y0330247D01*
X0031935Y0330340D01*
X0031757Y0330436D01*
X0031581Y0330538D01*
X0031408Y0330643D01*
X0031237Y0330752D01*
X0031069Y0330866D01*
X0030903Y0330983D01*
X0030741Y0331105D01*
X0030581Y0331230D01*
X0030425Y0331359D01*
X0030272Y0331492D01*
X0030122Y0331629D01*
X0029975Y0331769D01*
X0029832Y0331912D01*
X0029692Y0332059D01*
X0029555Y0332209D01*
X0029423Y0332363D01*
X0029495Y0332423D01*
X0029626Y0332271D01*
X0029761Y0332123D01*
X0029899Y0331978D01*
X0030041Y0331836D01*
X0030186Y0331697D01*
X0030334Y0331562D01*
X0030486Y0331431D01*
X0030641Y0331303D01*
X0030798Y0331179D01*
X0030959Y0331059D01*
X0031122Y0330943D01*
X0031289Y0330831D01*
X0031457Y0330723D01*
X0031629Y0330618D01*
X0031803Y0330518D01*
X0031979Y0330423D01*
X0032157Y0330331D01*
X0032338Y0330244D01*
X0032521Y0330161D01*
X0032705Y0330082D01*
X0032891Y0330008D01*
X0033080Y0329939D01*
X0033269Y0329874D01*
X0033461Y0329814D01*
X0033653Y0329758D01*
X0033847Y0329707D01*
X0034042Y0329660D01*
X0034238Y0329618D01*
X0034435Y0329581D01*
X0034633Y0329549D01*
X0034832Y0329521D01*
X0035031Y0329498D01*
X0035231Y0329480D01*
X0035431Y0329467D01*
X0035632Y0329459D01*
X0035832Y0329455D01*
X0035832Y0329549D01*
X0035634Y0329553D01*
X0035436Y0329561D01*
X0035238Y0329574D01*
X0035040Y0329592D01*
X0034843Y0329615D01*
X0034647Y0329642D01*
X0034451Y0329674D01*
X0034257Y0329710D01*
X0034063Y0329752D01*
X0033870Y0329798D01*
X0033678Y0329848D01*
X0033488Y0329904D01*
X0033299Y0329963D01*
X0033111Y0330028D01*
X0032925Y0330096D01*
X0032741Y0330169D01*
X0032558Y0330247D01*
X0032378Y0330329D01*
X0032199Y0330415D01*
X0032023Y0330506D01*
X0031849Y0330600D01*
X0031677Y0330699D01*
X0031507Y0330802D01*
X0031340Y0330909D01*
X0031176Y0331020D01*
X0031015Y0331135D01*
X0030856Y0331254D01*
X0030700Y0331376D01*
X0030547Y0331502D01*
X0030397Y0331632D01*
X0030250Y0331766D01*
X0030107Y0331903D01*
X0029967Y0332043D01*
X0029830Y0332186D01*
X0029697Y0332333D01*
X0029567Y0332483D01*
X0029639Y0332543D01*
X0029768Y0332395D01*
X0029899Y0332250D01*
X0030034Y0332108D01*
X0030173Y0331970D01*
X0030315Y0331834D01*
X0030460Y0331702D01*
X0030608Y0331574D01*
X0030759Y0331449D01*
X0030913Y0331328D01*
X0031070Y0331211D01*
X0031230Y0331097D01*
X0031392Y0330988D01*
X0031557Y0330882D01*
X0031725Y0330780D01*
X0031895Y0330682D01*
X0032067Y0330589D01*
X0032241Y0330499D01*
X0032418Y0330414D01*
X0032596Y0330333D01*
X0032776Y0330256D01*
X0032959Y0330184D01*
X0033142Y0330116D01*
X0033328Y0330053D01*
X0033515Y0329994D01*
X0033703Y0329939D01*
X0033892Y0329889D01*
X0034083Y0329844D01*
X0034275Y0329803D01*
X0034467Y0329766D01*
X0034661Y0329735D01*
X0034855Y0329708D01*
X0035050Y0329686D01*
X0035245Y0329668D01*
X0035440Y0329655D01*
X0035636Y0329647D01*
X0035832Y0329643D01*
X0035832Y0329737D01*
X0035638Y0329741D01*
X0035445Y0329749D01*
X0035252Y0329762D01*
X0035059Y0329779D01*
X0034866Y0329801D01*
X0034674Y0329828D01*
X0034483Y0329859D01*
X0034293Y0329895D01*
X0034103Y0329935D01*
X0033915Y0329980D01*
X0033728Y0330030D01*
X0033542Y0330084D01*
X0033357Y0330142D01*
X0033174Y0330205D01*
X0032992Y0330272D01*
X0032812Y0330343D01*
X0032634Y0330419D01*
X0032457Y0330499D01*
X0032283Y0330583D01*
X0032111Y0330672D01*
X0031941Y0330764D01*
X0031773Y0330861D01*
X0031607Y0330962D01*
X0031444Y0331066D01*
X0031284Y0331174D01*
X0031126Y0331287D01*
X0030971Y0331403D01*
X0030818Y0331522D01*
X0030669Y0331646D01*
X0030522Y0331772D01*
X0030379Y0331903D01*
X0030239Y0332036D01*
X0030102Y0332173D01*
X0029969Y0332314D01*
X0029838Y0332457D01*
X0029712Y0332604D01*
X0029784Y0332664D01*
X0029909Y0332519D01*
X0030038Y0332377D01*
X0030170Y0332239D01*
X0030305Y0332103D01*
X0030444Y0331971D01*
X0030585Y0331842D01*
X0030730Y0331717D01*
X0030877Y0331595D01*
X0031028Y0331477D01*
X0031181Y0331362D01*
X0031337Y0331252D01*
X0031496Y0331144D01*
X0031657Y0331041D01*
X0031821Y0330942D01*
X0031987Y0330846D01*
X0032155Y0330755D01*
X0032325Y0330668D01*
X0032497Y0330584D01*
X0032672Y0330505D01*
X0032848Y0330430D01*
X0033026Y0330360D01*
X0033205Y0330293D01*
X0033386Y0330231D01*
X0033569Y0330174D01*
X0033753Y0330120D01*
X0033938Y0330071D01*
X0034124Y0330027D01*
X0034311Y0329987D01*
X0034499Y0329952D01*
X0034688Y0329921D01*
X0034878Y0329894D01*
X0035068Y0329873D01*
X0035258Y0329855D01*
X0035449Y0329843D01*
X0035641Y0329835D01*
X0035832Y0329831D01*
X0035832Y0329925D01*
X0035643Y0329929D01*
X0035454Y0329937D01*
X0035265Y0329949D01*
X0035077Y0329966D01*
X0034889Y0329988D01*
X0034702Y0330014D01*
X0034515Y0330044D01*
X0034329Y0330079D01*
X0034144Y0330119D01*
X0033960Y0330163D01*
X0033778Y0330211D01*
X0033596Y0330264D01*
X0033416Y0330321D01*
X0033237Y0330382D01*
X0033059Y0330448D01*
X0032883Y0330517D01*
X0032709Y0330591D01*
X0032537Y0330669D01*
X0032367Y0330752D01*
X0032199Y0330838D01*
X0032033Y0330928D01*
X0031869Y0331023D01*
X0031707Y0331121D01*
X0031548Y0331223D01*
X0031391Y0331329D01*
X0031237Y0331438D01*
X0031085Y0331552D01*
X0030937Y0331668D01*
X0030791Y0331789D01*
X0030648Y0331912D01*
X0030508Y0332040D01*
X0030371Y0332170D01*
X0030237Y0332304D01*
X0030107Y0332441D01*
X0029980Y0332581D01*
X0029856Y0332724D01*
X0029928Y0332784D01*
X0030051Y0332643D01*
X0030176Y0332505D01*
X0030305Y0332369D01*
X0030437Y0332237D01*
X0030572Y0332108D01*
X0030711Y0331983D01*
X0030852Y0331860D01*
X0030996Y0331741D01*
X0031143Y0331626D01*
X0031292Y0331514D01*
X0031445Y0331406D01*
X0031600Y0331301D01*
X0031757Y0331201D01*
X0031917Y0331104D01*
X0032078Y0331010D01*
X0032243Y0330921D01*
X0032409Y0330836D01*
X0032577Y0330755D01*
X0032747Y0330677D01*
X0032919Y0330604D01*
X0033093Y0330535D01*
X0033268Y0330471D01*
X0033445Y0330410D01*
X0033623Y0330354D01*
X0033802Y0330302D01*
X0033983Y0330254D01*
X0034165Y0330211D01*
X0034347Y0330172D01*
X0034531Y0330137D01*
X0034715Y0330107D01*
X0034900Y0330081D01*
X0035086Y0330060D01*
X0035272Y0330043D01*
X0035459Y0330031D01*
X0035645Y0330023D01*
X0035832Y0330019D01*
X0035832Y0330113D01*
X0035648Y0330117D01*
X0035463Y0330124D01*
X0035279Y0330137D01*
X0035095Y0330153D01*
X0034912Y0330174D01*
X0034729Y0330200D01*
X0034547Y0330230D01*
X0034366Y0330264D01*
X0034185Y0330302D01*
X0034006Y0330345D01*
X0033827Y0330392D01*
X0033650Y0330444D01*
X0033474Y0330499D01*
X0033299Y0330559D01*
X0033126Y0330623D01*
X0032955Y0330691D01*
X0032785Y0330763D01*
X0032617Y0330840D01*
X0032451Y0330920D01*
X0032287Y0331004D01*
X0032124Y0331092D01*
X0031964Y0331184D01*
X0031807Y0331280D01*
X0031651Y0331380D01*
X0031498Y0331483D01*
X0031348Y0331590D01*
X0031200Y0331700D01*
X0031055Y0331814D01*
X0030913Y0331932D01*
X0030773Y0332053D01*
X0030637Y0332177D01*
X0030503Y0332304D01*
X0030373Y0332435D01*
X0030245Y0332568D01*
X0030121Y0332705D01*
X0030001Y0332844D01*
X0030073Y0332905D01*
X0030192Y0332767D01*
X0030315Y0332632D01*
X0030440Y0332500D01*
X0030569Y0332371D01*
X0030701Y0332245D01*
X0030836Y0332123D01*
X0030974Y0332003D01*
X0031114Y0331887D01*
X0031258Y0331775D01*
X0031404Y0331666D01*
X0031552Y0331560D01*
X0031703Y0331458D01*
X0031857Y0331360D01*
X0032012Y0331265D01*
X0032170Y0331174D01*
X0032331Y0331087D01*
X0032493Y0331004D01*
X0032657Y0330925D01*
X0032823Y0330850D01*
X0032991Y0330778D01*
X0033160Y0330711D01*
X0033331Y0330648D01*
X0033503Y0330589D01*
X0033677Y0330534D01*
X0033852Y0330483D01*
X0034028Y0330436D01*
X0034206Y0330394D01*
X0034384Y0330356D01*
X0034563Y0330322D01*
X0034743Y0330293D01*
X0034923Y0330268D01*
X0035104Y0330247D01*
X0035286Y0330230D01*
X0035468Y0330218D01*
X0035650Y0330211D01*
X0035832Y0330207D01*
X0035833Y0346260D02*
X0035833Y0345360D01*
X0035832Y0345361D02*
X0035648Y0345357D01*
X0035463Y0345349D01*
X0035279Y0345337D01*
X0035096Y0345320D01*
X0034912Y0345298D01*
X0034730Y0345273D01*
X0034548Y0345242D01*
X0034367Y0345207D01*
X0034186Y0345168D01*
X0034007Y0345124D01*
X0033829Y0345076D01*
X0033652Y0345024D01*
X0033476Y0344967D01*
X0033302Y0344907D01*
X0033130Y0344841D01*
X0032959Y0344772D01*
X0032789Y0344699D01*
X0032622Y0344621D01*
X0032457Y0344539D01*
X0032293Y0344454D01*
X0032132Y0344364D01*
X0031973Y0344270D01*
X0031816Y0344173D01*
X0031662Y0344072D01*
X0031510Y0343967D01*
X0031361Y0343858D01*
X0031215Y0343746D01*
X0031071Y0343630D01*
X0030931Y0343511D01*
X0030793Y0343388D01*
X0030658Y0343262D01*
X0030526Y0343133D01*
X0030398Y0343000D01*
X0030273Y0342865D01*
X0030151Y0342726D01*
X0029464Y0343307D01*
X0029600Y0343463D01*
X0029741Y0343615D01*
X0029885Y0343764D01*
X0030032Y0343909D01*
X0030183Y0344050D01*
X0030337Y0344187D01*
X0030495Y0344321D01*
X0030656Y0344451D01*
X0030820Y0344577D01*
X0030987Y0344699D01*
X0031157Y0344817D01*
X0031330Y0344930D01*
X0031506Y0345039D01*
X0031684Y0345144D01*
X0031865Y0345245D01*
X0032048Y0345341D01*
X0032233Y0345433D01*
X0032421Y0345520D01*
X0032611Y0345602D01*
X0032802Y0345680D01*
X0032996Y0345753D01*
X0033191Y0345821D01*
X0033388Y0345885D01*
X0033586Y0345943D01*
X0033786Y0345997D01*
X0033987Y0346046D01*
X0034189Y0346090D01*
X0034392Y0346129D01*
X0034596Y0346163D01*
X0034801Y0346192D01*
X0035006Y0346216D01*
X0035212Y0346234D01*
X0035419Y0346248D01*
X0035625Y0346257D01*
X0035832Y0346261D01*
X0035832Y0346167D01*
X0035628Y0346163D01*
X0035423Y0346154D01*
X0035219Y0346141D01*
X0035016Y0346122D01*
X0034813Y0346098D01*
X0034610Y0346070D01*
X0034408Y0346036D01*
X0034208Y0345998D01*
X0034008Y0345954D01*
X0033809Y0345906D01*
X0033612Y0345853D01*
X0033415Y0345795D01*
X0033221Y0345732D01*
X0033028Y0345664D01*
X0032836Y0345592D01*
X0032647Y0345515D01*
X0032459Y0345434D01*
X0032274Y0345348D01*
X0032091Y0345257D01*
X0031909Y0345162D01*
X0031731Y0345063D01*
X0031555Y0344959D01*
X0031381Y0344851D01*
X0031210Y0344739D01*
X0031042Y0344622D01*
X0030877Y0344502D01*
X0030714Y0344377D01*
X0030555Y0344249D01*
X0030399Y0344117D01*
X0030247Y0343981D01*
X0030097Y0343841D01*
X0029952Y0343698D01*
X0029809Y0343551D01*
X0029671Y0343400D01*
X0029536Y0343247D01*
X0029607Y0343186D01*
X0029741Y0343338D01*
X0029878Y0343487D01*
X0030019Y0343632D01*
X0030163Y0343773D01*
X0030310Y0343912D01*
X0030461Y0344046D01*
X0030615Y0344177D01*
X0030773Y0344304D01*
X0030933Y0344427D01*
X0031097Y0344546D01*
X0031263Y0344661D01*
X0031432Y0344772D01*
X0031603Y0344879D01*
X0031778Y0344981D01*
X0031954Y0345080D01*
X0032133Y0345174D01*
X0032315Y0345263D01*
X0032498Y0345348D01*
X0032683Y0345429D01*
X0032871Y0345505D01*
X0033060Y0345576D01*
X0033251Y0345643D01*
X0033443Y0345705D01*
X0033637Y0345762D01*
X0033832Y0345815D01*
X0034029Y0345862D01*
X0034226Y0345905D01*
X0034425Y0345943D01*
X0034624Y0345977D01*
X0034824Y0346005D01*
X0035025Y0346028D01*
X0035226Y0346047D01*
X0035428Y0346061D01*
X0035630Y0346069D01*
X0035832Y0346073D01*
X0035832Y0345979D01*
X0035632Y0345975D01*
X0035433Y0345967D01*
X0035233Y0345953D01*
X0035034Y0345935D01*
X0034836Y0345912D01*
X0034638Y0345884D01*
X0034441Y0345851D01*
X0034245Y0345813D01*
X0034049Y0345771D01*
X0033855Y0345724D01*
X0033662Y0345672D01*
X0033471Y0345615D01*
X0033280Y0345554D01*
X0033092Y0345488D01*
X0032905Y0345417D01*
X0032720Y0345342D01*
X0032536Y0345262D01*
X0032355Y0345178D01*
X0032176Y0345090D01*
X0031999Y0344997D01*
X0031824Y0344900D01*
X0031652Y0344798D01*
X0031483Y0344693D01*
X0031315Y0344583D01*
X0031151Y0344469D01*
X0030990Y0344352D01*
X0030831Y0344230D01*
X0030676Y0344105D01*
X0030523Y0343975D01*
X0030374Y0343842D01*
X0030228Y0343706D01*
X0030086Y0343566D01*
X0029947Y0343422D01*
X0029811Y0343275D01*
X0029679Y0343125D01*
X0029751Y0343065D01*
X0029881Y0343213D01*
X0030015Y0343358D01*
X0030153Y0343500D01*
X0030294Y0343638D01*
X0030438Y0343773D01*
X0030585Y0343905D01*
X0030736Y0344032D01*
X0030890Y0344156D01*
X0031046Y0344277D01*
X0031206Y0344393D01*
X0031368Y0344505D01*
X0031533Y0344614D01*
X0031701Y0344718D01*
X0031871Y0344818D01*
X0032044Y0344914D01*
X0032219Y0345006D01*
X0032396Y0345094D01*
X0032575Y0345177D01*
X0032756Y0345255D01*
X0032939Y0345330D01*
X0033124Y0345399D01*
X0033310Y0345464D01*
X0033498Y0345525D01*
X0033688Y0345581D01*
X0033878Y0345632D01*
X0034070Y0345679D01*
X0034263Y0345721D01*
X0034457Y0345758D01*
X0034652Y0345791D01*
X0034848Y0345818D01*
X0035044Y0345841D01*
X0035240Y0345859D01*
X0035437Y0345873D01*
X0035635Y0345881D01*
X0035832Y0345885D01*
X0035832Y0345791D01*
X0035637Y0345787D01*
X0035442Y0345779D01*
X0035247Y0345766D01*
X0035053Y0345748D01*
X0034859Y0345725D01*
X0034666Y0345698D01*
X0034473Y0345666D01*
X0034282Y0345629D01*
X0034091Y0345587D01*
X0033901Y0345541D01*
X0033713Y0345491D01*
X0033526Y0345435D01*
X0033340Y0345375D01*
X0033156Y0345311D01*
X0032973Y0345242D01*
X0032792Y0345169D01*
X0032613Y0345091D01*
X0032436Y0345009D01*
X0032261Y0344922D01*
X0032089Y0344832D01*
X0031918Y0344737D01*
X0031750Y0344638D01*
X0031584Y0344535D01*
X0031421Y0344428D01*
X0031260Y0344317D01*
X0031103Y0344202D01*
X0030948Y0344083D01*
X0030796Y0343960D01*
X0030647Y0343834D01*
X0030501Y0343704D01*
X0030359Y0343571D01*
X0030220Y0343434D01*
X0030084Y0343294D01*
X0029952Y0343150D01*
X0029823Y0343004D01*
X0029895Y0342943D01*
X0030022Y0343088D01*
X0030153Y0343230D01*
X0030287Y0343368D01*
X0030424Y0343503D01*
X0030565Y0343635D01*
X0030709Y0343763D01*
X0030856Y0343888D01*
X0031006Y0344009D01*
X0031159Y0344126D01*
X0031315Y0344240D01*
X0031474Y0344350D01*
X0031635Y0344456D01*
X0031799Y0344557D01*
X0031965Y0344655D01*
X0032133Y0344749D01*
X0032304Y0344839D01*
X0032477Y0344924D01*
X0032652Y0345005D01*
X0032829Y0345082D01*
X0033007Y0345154D01*
X0033188Y0345223D01*
X0033370Y0345286D01*
X0033553Y0345345D01*
X0033738Y0345400D01*
X0033924Y0345450D01*
X0034112Y0345496D01*
X0034300Y0345537D01*
X0034490Y0345573D01*
X0034680Y0345605D01*
X0034871Y0345632D01*
X0035062Y0345654D01*
X0035254Y0345672D01*
X0035447Y0345685D01*
X0035639Y0345693D01*
X0035832Y0345697D01*
X0035832Y0345603D01*
X0035642Y0345599D01*
X0035451Y0345591D01*
X0035261Y0345578D01*
X0035072Y0345561D01*
X0034882Y0345539D01*
X0034694Y0345512D01*
X0034506Y0345481D01*
X0034319Y0345445D01*
X0034133Y0345404D01*
X0033948Y0345359D01*
X0033764Y0345310D01*
X0033581Y0345255D01*
X0033400Y0345197D01*
X0033220Y0345134D01*
X0033042Y0345067D01*
X0032865Y0344995D01*
X0032690Y0344919D01*
X0032518Y0344839D01*
X0032347Y0344755D01*
X0032178Y0344666D01*
X0032012Y0344574D01*
X0031847Y0344477D01*
X0031686Y0344377D01*
X0031526Y0344272D01*
X0031370Y0344164D01*
X0031216Y0344051D01*
X0031065Y0343935D01*
X0030916Y0343816D01*
X0030771Y0343693D01*
X0030629Y0343566D01*
X0030490Y0343436D01*
X0030354Y0343302D01*
X0030221Y0343166D01*
X0030092Y0343026D01*
X0029966Y0342882D01*
X0030038Y0342822D01*
X0030162Y0342963D01*
X0030290Y0343101D01*
X0030421Y0343236D01*
X0030555Y0343368D01*
X0030692Y0343497D01*
X0030833Y0343622D01*
X0030977Y0343744D01*
X0031123Y0343862D01*
X0031272Y0343976D01*
X0031424Y0344087D01*
X0031579Y0344194D01*
X0031736Y0344297D01*
X0031896Y0344397D01*
X0032058Y0344492D01*
X0032223Y0344584D01*
X0032389Y0344671D01*
X0032558Y0344754D01*
X0032729Y0344834D01*
X0032901Y0344909D01*
X0033076Y0344979D01*
X0033252Y0345046D01*
X0033429Y0345108D01*
X0033609Y0345166D01*
X0033789Y0345219D01*
X0033971Y0345268D01*
X0034153Y0345312D01*
X0034337Y0345352D01*
X0034522Y0345388D01*
X0034708Y0345419D01*
X0034894Y0345445D01*
X0035081Y0345467D01*
X0035268Y0345484D01*
X0035456Y0345497D01*
X0035644Y0345505D01*
X0035832Y0345509D01*
X0035832Y0345415D01*
X0035646Y0345411D01*
X0035461Y0345403D01*
X0035275Y0345391D01*
X0035090Y0345374D01*
X0034906Y0345352D01*
X0034722Y0345326D01*
X0034538Y0345295D01*
X0034356Y0345260D01*
X0034174Y0345221D01*
X0033994Y0345177D01*
X0033814Y0345128D01*
X0033636Y0345076D01*
X0033459Y0345019D01*
X0033284Y0344957D01*
X0033110Y0344892D01*
X0032938Y0344822D01*
X0032767Y0344748D01*
X0032599Y0344670D01*
X0032432Y0344587D01*
X0032268Y0344501D01*
X0032105Y0344411D01*
X0031945Y0344316D01*
X0031787Y0344218D01*
X0031632Y0344116D01*
X0031479Y0344011D01*
X0031329Y0343901D01*
X0031181Y0343788D01*
X0031037Y0343671D01*
X0030895Y0343551D01*
X0030756Y0343428D01*
X0030620Y0343301D01*
X0030488Y0343171D01*
X0030359Y0343037D01*
X0030232Y0342901D01*
X0030110Y0342761D01*
X0036247Y0305740D02*
X0036247Y0306640D01*
X0036247Y0306639D02*
X0036430Y0306643D01*
X0036613Y0306650D01*
X0036796Y0306663D01*
X0036979Y0306680D01*
X0037161Y0306701D01*
X0037342Y0306726D01*
X0037523Y0306756D01*
X0037703Y0306791D01*
X0037882Y0306829D01*
X0038060Y0306872D01*
X0038237Y0306920D01*
X0038412Y0306971D01*
X0038587Y0307027D01*
X0038760Y0307087D01*
X0038931Y0307152D01*
X0039101Y0307220D01*
X0039270Y0307292D01*
X0039436Y0307369D01*
X0039600Y0307450D01*
X0039763Y0307534D01*
X0039923Y0307623D01*
X0040082Y0307715D01*
X0040238Y0307811D01*
X0040391Y0307911D01*
X0040542Y0308015D01*
X0040691Y0308122D01*
X0040837Y0308233D01*
X0040980Y0308347D01*
X0041120Y0308465D01*
X0041257Y0308586D01*
X0041392Y0308710D01*
X0041523Y0308838D01*
X0041652Y0308969D01*
X0041777Y0309103D01*
X0041898Y0309239D01*
X0042017Y0309379D01*
X0042132Y0309522D01*
X0042243Y0309667D01*
X0042351Y0309815D01*
X0042455Y0309966D01*
X0042556Y0310119D01*
X0042653Y0310274D01*
X0042746Y0310432D01*
X0042835Y0310592D01*
X0043629Y0310169D01*
X0043529Y0309989D01*
X0043425Y0309812D01*
X0043317Y0309638D01*
X0043204Y0309466D01*
X0043087Y0309298D01*
X0042966Y0309132D01*
X0042842Y0308969D01*
X0042713Y0308809D01*
X0042580Y0308652D01*
X0042444Y0308499D01*
X0042304Y0308349D01*
X0042160Y0308202D01*
X0042013Y0308059D01*
X0041862Y0307919D01*
X0041708Y0307784D01*
X0041551Y0307652D01*
X0041391Y0307524D01*
X0041227Y0307399D01*
X0041061Y0307279D01*
X0040891Y0307163D01*
X0040719Y0307051D01*
X0040545Y0306943D01*
X0040367Y0306840D01*
X0040188Y0306741D01*
X0040005Y0306646D01*
X0039821Y0306556D01*
X0039635Y0306470D01*
X0039446Y0306389D01*
X0039256Y0306312D01*
X0039063Y0306240D01*
X0038869Y0306173D01*
X0038674Y0306110D01*
X0038477Y0306052D01*
X0038279Y0305999D01*
X0038079Y0305951D01*
X0037878Y0305908D01*
X0037677Y0305870D01*
X0037474Y0305836D01*
X0037271Y0305808D01*
X0037067Y0305784D01*
X0036862Y0305765D01*
X0036658Y0305752D01*
X0036453Y0305743D01*
X0036247Y0305739D01*
X0036247Y0305833D01*
X0036450Y0305837D01*
X0036653Y0305845D01*
X0036856Y0305859D01*
X0037058Y0305877D01*
X0037259Y0305901D01*
X0037460Y0305929D01*
X0037661Y0305962D01*
X0037860Y0306000D01*
X0038058Y0306043D01*
X0038256Y0306091D01*
X0038452Y0306143D01*
X0038647Y0306200D01*
X0038840Y0306262D01*
X0039032Y0306329D01*
X0039222Y0306400D01*
X0039410Y0306475D01*
X0039596Y0306556D01*
X0039781Y0306641D01*
X0039963Y0306730D01*
X0040143Y0306824D01*
X0040321Y0306922D01*
X0040496Y0307024D01*
X0040669Y0307130D01*
X0040839Y0307241D01*
X0041007Y0307356D01*
X0041171Y0307475D01*
X0041333Y0307598D01*
X0041491Y0307724D01*
X0041647Y0307855D01*
X0041799Y0307989D01*
X0041948Y0308127D01*
X0042094Y0308268D01*
X0042236Y0308413D01*
X0042374Y0308562D01*
X0042509Y0308713D01*
X0042640Y0308868D01*
X0042767Y0309026D01*
X0042891Y0309188D01*
X0043010Y0309352D01*
X0043126Y0309519D01*
X0043237Y0309688D01*
X0043345Y0309861D01*
X0043448Y0310036D01*
X0043546Y0310213D01*
X0043463Y0310257D01*
X0043366Y0310082D01*
X0043264Y0309909D01*
X0043158Y0309739D01*
X0043048Y0309571D01*
X0042934Y0309406D01*
X0042815Y0309244D01*
X0042693Y0309084D01*
X0042567Y0308928D01*
X0042438Y0308775D01*
X0042304Y0308625D01*
X0042168Y0308478D01*
X0042027Y0308335D01*
X0041883Y0308195D01*
X0041736Y0308059D01*
X0041585Y0307926D01*
X0041432Y0307797D01*
X0041275Y0307672D01*
X0041115Y0307550D01*
X0040952Y0307433D01*
X0040787Y0307319D01*
X0040619Y0307210D01*
X0040448Y0307104D01*
X0040275Y0307003D01*
X0040099Y0306906D01*
X0039921Y0306814D01*
X0039741Y0306726D01*
X0039558Y0306642D01*
X0039374Y0306562D01*
X0039188Y0306487D01*
X0039000Y0306417D01*
X0038810Y0306351D01*
X0038619Y0306290D01*
X0038427Y0306234D01*
X0038233Y0306182D01*
X0038038Y0306135D01*
X0037842Y0306092D01*
X0037644Y0306055D01*
X0037446Y0306022D01*
X0037248Y0305994D01*
X0037048Y0305971D01*
X0036849Y0305953D01*
X0036648Y0305939D01*
X0036448Y0305931D01*
X0036247Y0305927D01*
X0036247Y0306021D01*
X0036446Y0306025D01*
X0036644Y0306033D01*
X0036842Y0306046D01*
X0037039Y0306065D01*
X0037236Y0306087D01*
X0037433Y0306115D01*
X0037628Y0306147D01*
X0037823Y0306185D01*
X0038017Y0306226D01*
X0038210Y0306273D01*
X0038402Y0306324D01*
X0038592Y0306380D01*
X0038781Y0306440D01*
X0038968Y0306505D01*
X0039154Y0306575D01*
X0039338Y0306649D01*
X0039520Y0306728D01*
X0039700Y0306811D01*
X0039879Y0306898D01*
X0040055Y0306989D01*
X0040228Y0307085D01*
X0040400Y0307185D01*
X0040568Y0307289D01*
X0040735Y0307397D01*
X0040898Y0307510D01*
X0041059Y0307626D01*
X0041217Y0307746D01*
X0041372Y0307870D01*
X0041524Y0307997D01*
X0041673Y0308128D01*
X0041818Y0308263D01*
X0041961Y0308401D01*
X0042099Y0308543D01*
X0042235Y0308688D01*
X0042367Y0308836D01*
X0042495Y0308988D01*
X0042619Y0309142D01*
X0042740Y0309299D01*
X0042857Y0309460D01*
X0042970Y0309623D01*
X0043078Y0309789D01*
X0043183Y0309957D01*
X0043284Y0310128D01*
X0043380Y0310301D01*
X0043298Y0310346D01*
X0043202Y0310174D01*
X0043103Y0310005D01*
X0042999Y0309839D01*
X0042891Y0309675D01*
X0042780Y0309514D01*
X0042664Y0309355D01*
X0042545Y0309200D01*
X0042422Y0309047D01*
X0042295Y0308898D01*
X0042165Y0308751D01*
X0042031Y0308608D01*
X0041894Y0308468D01*
X0041753Y0308331D01*
X0041610Y0308198D01*
X0041463Y0308068D01*
X0041312Y0307942D01*
X0041159Y0307820D01*
X0041003Y0307701D01*
X0040844Y0307586D01*
X0040682Y0307476D01*
X0040518Y0307369D01*
X0040351Y0307266D01*
X0040182Y0307167D01*
X0040010Y0307072D01*
X0039836Y0306982D01*
X0039660Y0306895D01*
X0039482Y0306814D01*
X0039302Y0306736D01*
X0039120Y0306663D01*
X0038937Y0306594D01*
X0038751Y0306530D01*
X0038565Y0306470D01*
X0038377Y0306415D01*
X0038187Y0306364D01*
X0037997Y0306318D01*
X0037805Y0306277D01*
X0037612Y0306240D01*
X0037419Y0306208D01*
X0037225Y0306181D01*
X0037030Y0306158D01*
X0036835Y0306140D01*
X0036639Y0306127D01*
X0036443Y0306119D01*
X0036247Y0306115D01*
X0036247Y0306209D01*
X0036441Y0306213D01*
X0036635Y0306221D01*
X0036828Y0306234D01*
X0037021Y0306252D01*
X0037213Y0306274D01*
X0037405Y0306301D01*
X0037596Y0306333D01*
X0037787Y0306369D01*
X0037976Y0306410D01*
X0038164Y0306455D01*
X0038351Y0306505D01*
X0038537Y0306560D01*
X0038722Y0306619D01*
X0038905Y0306682D01*
X0039086Y0306750D01*
X0039266Y0306823D01*
X0039444Y0306899D01*
X0039620Y0306980D01*
X0039794Y0307066D01*
X0039966Y0307155D01*
X0040136Y0307249D01*
X0040303Y0307346D01*
X0040468Y0307448D01*
X0040630Y0307554D01*
X0040790Y0307663D01*
X0040947Y0307777D01*
X0041101Y0307894D01*
X0041253Y0308015D01*
X0041401Y0308139D01*
X0041546Y0308267D01*
X0041689Y0308399D01*
X0041828Y0308534D01*
X0041963Y0308672D01*
X0042095Y0308814D01*
X0042224Y0308959D01*
X0042349Y0309107D01*
X0042471Y0309258D01*
X0042589Y0309411D01*
X0042703Y0309568D01*
X0042813Y0309727D01*
X0042919Y0309889D01*
X0043022Y0310054D01*
X0043120Y0310221D01*
X0043215Y0310390D01*
X0043132Y0310434D01*
X0043038Y0310267D01*
X0042941Y0310102D01*
X0042840Y0309939D01*
X0042735Y0309779D01*
X0042626Y0309622D01*
X0042513Y0309467D01*
X0042397Y0309315D01*
X0042277Y0309166D01*
X0042153Y0309020D01*
X0042026Y0308877D01*
X0041895Y0308737D01*
X0041761Y0308601D01*
X0041624Y0308467D01*
X0041483Y0308337D01*
X0041340Y0308210D01*
X0041193Y0308087D01*
X0041043Y0307968D01*
X0040891Y0307852D01*
X0040736Y0307740D01*
X0040578Y0307632D01*
X0040417Y0307527D01*
X0040254Y0307427D01*
X0040089Y0307330D01*
X0039922Y0307238D01*
X0039752Y0307150D01*
X0039580Y0307065D01*
X0039406Y0306985D01*
X0039230Y0306910D01*
X0039052Y0306838D01*
X0038873Y0306771D01*
X0038692Y0306708D01*
X0038510Y0306650D01*
X0038326Y0306596D01*
X0038141Y0306546D01*
X0037955Y0306502D01*
X0037768Y0306461D01*
X0037580Y0306425D01*
X0037391Y0306394D01*
X0037202Y0306367D01*
X0037012Y0306345D01*
X0036821Y0306328D01*
X0036630Y0306315D01*
X0036439Y0306307D01*
X0036247Y0306303D01*
X0036247Y0306397D01*
X0036436Y0306401D01*
X0036625Y0306409D01*
X0036814Y0306421D01*
X0037002Y0306439D01*
X0037190Y0306461D01*
X0037377Y0306487D01*
X0037564Y0306518D01*
X0037750Y0306553D01*
X0037935Y0306593D01*
X0038119Y0306638D01*
X0038301Y0306687D01*
X0038483Y0306740D01*
X0038663Y0306797D01*
X0038841Y0306859D01*
X0039019Y0306926D01*
X0039194Y0306996D01*
X0039368Y0307071D01*
X0039540Y0307150D01*
X0039709Y0307234D01*
X0039877Y0307321D01*
X0040043Y0307412D01*
X0040206Y0307508D01*
X0040367Y0307607D01*
X0040526Y0307710D01*
X0040682Y0307817D01*
X0040835Y0307928D01*
X0040986Y0308042D01*
X0041133Y0308160D01*
X0041278Y0308282D01*
X0041420Y0308407D01*
X0041559Y0308535D01*
X0041694Y0308667D01*
X0041827Y0308802D01*
X0041956Y0308940D01*
X0042082Y0309082D01*
X0042204Y0309226D01*
X0042323Y0309373D01*
X0042438Y0309523D01*
X0042549Y0309676D01*
X0042657Y0309832D01*
X0042761Y0309990D01*
X0042861Y0310150D01*
X0042957Y0310313D01*
X0043049Y0310478D01*
X0042966Y0310523D01*
X0042875Y0310359D01*
X0042780Y0310198D01*
X0042681Y0310040D01*
X0042579Y0309884D01*
X0042472Y0309730D01*
X0042362Y0309579D01*
X0042248Y0309431D01*
X0042131Y0309285D01*
X0042010Y0309143D01*
X0041886Y0309003D01*
X0041759Y0308867D01*
X0041628Y0308733D01*
X0041494Y0308603D01*
X0041357Y0308476D01*
X0041217Y0308353D01*
X0041074Y0308233D01*
X0040928Y0308116D01*
X0040779Y0308003D01*
X0040627Y0307894D01*
X0040473Y0307788D01*
X0040317Y0307686D01*
X0040158Y0307588D01*
X0039996Y0307494D01*
X0039833Y0307404D01*
X0039667Y0307317D01*
X0039499Y0307235D01*
X0039330Y0307157D01*
X0039158Y0307083D01*
X0038985Y0307014D01*
X0038810Y0306948D01*
X0038633Y0306887D01*
X0038455Y0306830D01*
X0038276Y0306777D01*
X0038096Y0306729D01*
X0037914Y0306685D01*
X0037731Y0306645D01*
X0037548Y0306610D01*
X0037364Y0306580D01*
X0037179Y0306554D01*
X0036993Y0306532D01*
X0036807Y0306515D01*
X0036621Y0306503D01*
X0036434Y0306495D01*
X0036247Y0306491D01*
X0036247Y0306585D01*
X0036432Y0306589D01*
X0036616Y0306597D01*
X0036800Y0306609D01*
X0036984Y0306626D01*
X0037167Y0306647D01*
X0037350Y0306673D01*
X0037532Y0306703D01*
X0037713Y0306738D01*
X0037893Y0306777D01*
X0038073Y0306820D01*
X0038251Y0306868D01*
X0038428Y0306920D01*
X0038604Y0306976D01*
X0038778Y0307036D01*
X0038951Y0307101D01*
X0039122Y0307170D01*
X0039291Y0307243D01*
X0039459Y0307320D01*
X0039625Y0307401D01*
X0039788Y0307487D01*
X0039950Y0307576D01*
X0040109Y0307669D01*
X0040266Y0307766D01*
X0040421Y0307866D01*
X0040573Y0307971D01*
X0040723Y0308079D01*
X0040870Y0308190D01*
X0041014Y0308305D01*
X0041155Y0308424D01*
X0041294Y0308546D01*
X0041429Y0308671D01*
X0041561Y0308800D01*
X0041691Y0308932D01*
X0041817Y0309066D01*
X0041939Y0309204D01*
X0042058Y0309345D01*
X0042174Y0309489D01*
X0042287Y0309635D01*
X0042395Y0309784D01*
X0042500Y0309936D01*
X0042602Y0310090D01*
X0042699Y0310247D01*
X0042793Y0310406D01*
X0042883Y0310567D01*
X0043508Y0318424D02*
X0042727Y0317978D01*
X0042634Y0318135D01*
X0042537Y0318289D01*
X0042436Y0318441D01*
X0042331Y0318590D01*
X0042223Y0318737D01*
X0042112Y0318882D01*
X0041997Y0319023D01*
X0041878Y0319162D01*
X0041756Y0319297D01*
X0041631Y0319430D01*
X0041503Y0319560D01*
X0041372Y0319686D01*
X0041238Y0319810D01*
X0041101Y0319930D01*
X0040961Y0320047D01*
X0040818Y0320160D01*
X0040672Y0320270D01*
X0040524Y0320376D01*
X0040373Y0320479D01*
X0040220Y0320578D01*
X0040065Y0320673D01*
X0039907Y0320764D01*
X0039747Y0320852D01*
X0039585Y0320936D01*
X0039422Y0321016D01*
X0039256Y0321092D01*
X0039088Y0321163D01*
X0038919Y0321231D01*
X0038748Y0321295D01*
X0038576Y0321354D01*
X0038402Y0321410D01*
X0038227Y0321461D01*
X0038051Y0321508D01*
X0037874Y0321550D01*
X0037695Y0321589D01*
X0037516Y0321623D01*
X0037336Y0321653D01*
X0037156Y0321678D01*
X0036975Y0321699D01*
X0036793Y0321715D01*
X0036611Y0321728D01*
X0036429Y0321735D01*
X0036247Y0321739D01*
X0036246Y0322638D01*
X0036247Y0322639D01*
X0036451Y0322635D01*
X0036655Y0322627D01*
X0036859Y0322613D01*
X0037063Y0322595D01*
X0037266Y0322571D01*
X0037468Y0322543D01*
X0037670Y0322510D01*
X0037870Y0322472D01*
X0038070Y0322429D01*
X0038269Y0322381D01*
X0038466Y0322329D01*
X0038662Y0322271D01*
X0038857Y0322209D01*
X0039050Y0322143D01*
X0039242Y0322071D01*
X0039431Y0321995D01*
X0039619Y0321915D01*
X0039805Y0321830D01*
X0039989Y0321740D01*
X0040170Y0321647D01*
X0040349Y0321548D01*
X0040526Y0321446D01*
X0040700Y0321339D01*
X0040872Y0321228D01*
X0041041Y0321113D01*
X0041207Y0320994D01*
X0041370Y0320871D01*
X0041530Y0320744D01*
X0041687Y0320613D01*
X0041841Y0320478D01*
X0041991Y0320340D01*
X0042138Y0320198D01*
X0042282Y0320053D01*
X0042422Y0319904D01*
X0042558Y0319752D01*
X0042691Y0319596D01*
X0042819Y0319438D01*
X0042944Y0319276D01*
X0043065Y0319111D01*
X0043182Y0318944D01*
X0043295Y0318773D01*
X0043404Y0318600D01*
X0043509Y0318425D01*
X0043427Y0318378D01*
X0043324Y0318552D01*
X0043216Y0318723D01*
X0043104Y0318891D01*
X0042989Y0319057D01*
X0042869Y0319220D01*
X0042745Y0319379D01*
X0042618Y0319536D01*
X0042487Y0319690D01*
X0042352Y0319840D01*
X0042214Y0319988D01*
X0042072Y0320131D01*
X0041926Y0320272D01*
X0041778Y0320408D01*
X0041626Y0320541D01*
X0041470Y0320671D01*
X0041312Y0320796D01*
X0041151Y0320918D01*
X0040987Y0321036D01*
X0040820Y0321150D01*
X0040650Y0321259D01*
X0040478Y0321365D01*
X0040303Y0321466D01*
X0040126Y0321564D01*
X0039947Y0321656D01*
X0039765Y0321745D01*
X0039581Y0321829D01*
X0039396Y0321909D01*
X0039208Y0321984D01*
X0039019Y0322054D01*
X0038828Y0322120D01*
X0038635Y0322181D01*
X0038441Y0322238D01*
X0038246Y0322290D01*
X0038050Y0322337D01*
X0037852Y0322379D01*
X0037654Y0322417D01*
X0037454Y0322450D01*
X0037254Y0322478D01*
X0037053Y0322501D01*
X0036852Y0322519D01*
X0036651Y0322533D01*
X0036449Y0322541D01*
X0036247Y0322545D01*
X0036247Y0322451D01*
X0036446Y0322447D01*
X0036646Y0322439D01*
X0036845Y0322426D01*
X0037044Y0322407D01*
X0037243Y0322385D01*
X0037440Y0322357D01*
X0037638Y0322324D01*
X0037834Y0322287D01*
X0038029Y0322245D01*
X0038223Y0322199D01*
X0038416Y0322147D01*
X0038608Y0322091D01*
X0038798Y0322031D01*
X0038987Y0321966D01*
X0039174Y0321896D01*
X0039360Y0321822D01*
X0039543Y0321743D01*
X0039725Y0321660D01*
X0039905Y0321572D01*
X0040082Y0321481D01*
X0040257Y0321385D01*
X0040430Y0321284D01*
X0040600Y0321180D01*
X0040768Y0321071D01*
X0040933Y0320959D01*
X0041095Y0320843D01*
X0041254Y0320722D01*
X0041411Y0320598D01*
X0041564Y0320470D01*
X0041715Y0320339D01*
X0041862Y0320203D01*
X0042005Y0320065D01*
X0042146Y0319923D01*
X0042283Y0319777D01*
X0042416Y0319628D01*
X0042546Y0319476D01*
X0042672Y0319321D01*
X0042794Y0319163D01*
X0042912Y0319002D01*
X0043026Y0318839D01*
X0043137Y0318672D01*
X0043243Y0318503D01*
X0043345Y0318332D01*
X0043264Y0318285D01*
X0043163Y0318455D01*
X0043058Y0318622D01*
X0042948Y0318786D01*
X0042835Y0318948D01*
X0042718Y0319107D01*
X0042598Y0319263D01*
X0042473Y0319417D01*
X0042345Y0319567D01*
X0042213Y0319714D01*
X0042078Y0319858D01*
X0041939Y0319998D01*
X0041797Y0320135D01*
X0041652Y0320269D01*
X0041503Y0320399D01*
X0041351Y0320525D01*
X0041197Y0320648D01*
X0041039Y0320767D01*
X0040879Y0320882D01*
X0040716Y0320993D01*
X0040550Y0321100D01*
X0040382Y0321204D01*
X0040211Y0321303D01*
X0040038Y0321398D01*
X0039862Y0321488D01*
X0039685Y0321575D01*
X0039505Y0321657D01*
X0039324Y0321735D01*
X0039141Y0321808D01*
X0038956Y0321877D01*
X0038769Y0321941D01*
X0038581Y0322001D01*
X0038391Y0322057D01*
X0038201Y0322107D01*
X0038009Y0322154D01*
X0037816Y0322195D01*
X0037622Y0322232D01*
X0037427Y0322264D01*
X0037231Y0322291D01*
X0037035Y0322314D01*
X0036838Y0322332D01*
X0036641Y0322345D01*
X0036444Y0322353D01*
X0036247Y0322357D01*
X0036247Y0322263D01*
X0036442Y0322259D01*
X0036637Y0322251D01*
X0036832Y0322238D01*
X0037026Y0322220D01*
X0037220Y0322198D01*
X0037413Y0322171D01*
X0037606Y0322139D01*
X0037797Y0322103D01*
X0037988Y0322062D01*
X0038178Y0322016D01*
X0038366Y0321966D01*
X0038554Y0321911D01*
X0038740Y0321852D01*
X0038924Y0321789D01*
X0039107Y0321720D01*
X0039288Y0321648D01*
X0039467Y0321571D01*
X0039645Y0321490D01*
X0039820Y0321404D01*
X0039994Y0321315D01*
X0040165Y0321221D01*
X0040333Y0321123D01*
X0040500Y0321021D01*
X0040664Y0320915D01*
X0040825Y0320805D01*
X0040983Y0320691D01*
X0041139Y0320574D01*
X0041292Y0320452D01*
X0041442Y0320327D01*
X0041589Y0320199D01*
X0041732Y0320067D01*
X0041873Y0319931D01*
X0042010Y0319792D01*
X0042144Y0319650D01*
X0042274Y0319505D01*
X0042401Y0319357D01*
X0042524Y0319205D01*
X0042643Y0319051D01*
X0042759Y0318894D01*
X0042870Y0318734D01*
X0042978Y0318571D01*
X0043082Y0318406D01*
X0043182Y0318238D01*
X0043101Y0318192D01*
X0043002Y0318357D01*
X0042899Y0318521D01*
X0042792Y0318681D01*
X0042682Y0318839D01*
X0042568Y0318995D01*
X0042450Y0319147D01*
X0042328Y0319297D01*
X0042203Y0319443D01*
X0042074Y0319587D01*
X0041942Y0319727D01*
X0041807Y0319865D01*
X0041668Y0319999D01*
X0041526Y0320129D01*
X0041381Y0320256D01*
X0041233Y0320380D01*
X0041082Y0320499D01*
X0040928Y0320616D01*
X0040771Y0320728D01*
X0040612Y0320837D01*
X0040450Y0320941D01*
X0040285Y0321042D01*
X0040119Y0321139D01*
X0039949Y0321232D01*
X0039778Y0321320D01*
X0039605Y0321405D01*
X0039429Y0321485D01*
X0039252Y0321561D01*
X0039073Y0321633D01*
X0038892Y0321700D01*
X0038710Y0321763D01*
X0038526Y0321821D01*
X0038341Y0321875D01*
X0038155Y0321925D01*
X0037967Y0321970D01*
X0037779Y0322011D01*
X0037590Y0322047D01*
X0037399Y0322078D01*
X0037208Y0322105D01*
X0037017Y0322127D01*
X0036825Y0322144D01*
X0036632Y0322157D01*
X0036440Y0322165D01*
X0036247Y0322169D01*
X0036247Y0322075D01*
X0036437Y0322071D01*
X0036628Y0322063D01*
X0036818Y0322051D01*
X0037008Y0322033D01*
X0037197Y0322011D01*
X0037385Y0321985D01*
X0037573Y0321954D01*
X0037761Y0321918D01*
X0037947Y0321878D01*
X0038132Y0321834D01*
X0038316Y0321785D01*
X0038499Y0321731D01*
X0038681Y0321674D01*
X0038861Y0321611D01*
X0039039Y0321545D01*
X0039216Y0321474D01*
X0039391Y0321399D01*
X0039565Y0321320D01*
X0039736Y0321236D01*
X0039905Y0321149D01*
X0040072Y0321057D01*
X0040237Y0320961D01*
X0040400Y0320862D01*
X0040560Y0320758D01*
X0040717Y0320651D01*
X0040872Y0320540D01*
X0041024Y0320425D01*
X0041173Y0320307D01*
X0041319Y0320185D01*
X0041463Y0320059D01*
X0041603Y0319930D01*
X0041740Y0319798D01*
X0041874Y0319662D01*
X0042005Y0319524D01*
X0042132Y0319382D01*
X0042256Y0319237D01*
X0042376Y0319089D01*
X0042492Y0318938D01*
X0042605Y0318785D01*
X0042714Y0318629D01*
X0042820Y0318470D01*
X0042921Y0318309D01*
X0043019Y0318145D01*
X0042937Y0318098D01*
X0042841Y0318260D01*
X0042741Y0318419D01*
X0042637Y0318576D01*
X0042529Y0318731D01*
X0042417Y0318882D01*
X0042302Y0319031D01*
X0042183Y0319177D01*
X0042061Y0319320D01*
X0041935Y0319460D01*
X0041806Y0319597D01*
X0041674Y0319731D01*
X0041538Y0319862D01*
X0041400Y0319989D01*
X0041258Y0320113D01*
X0041114Y0320234D01*
X0040966Y0320351D01*
X0040816Y0320464D01*
X0040663Y0320574D01*
X0040507Y0320680D01*
X0040349Y0320782D01*
X0040189Y0320881D01*
X0040026Y0320975D01*
X0039861Y0321066D01*
X0039694Y0321152D01*
X0039525Y0321235D01*
X0039354Y0321313D01*
X0039181Y0321387D01*
X0039006Y0321457D01*
X0038829Y0321523D01*
X0038651Y0321584D01*
X0038472Y0321641D01*
X0038291Y0321694D01*
X0038109Y0321743D01*
X0037926Y0321787D01*
X0037742Y0321826D01*
X0037557Y0321861D01*
X0037372Y0321892D01*
X0037185Y0321918D01*
X0036998Y0321940D01*
X0036811Y0321957D01*
X0036623Y0321969D01*
X0036435Y0321977D01*
X0036247Y0321981D01*
X0036247Y0321887D01*
X0036433Y0321883D01*
X0036618Y0321875D01*
X0036804Y0321863D01*
X0036989Y0321846D01*
X0037174Y0321825D01*
X0037358Y0321799D01*
X0037541Y0321769D01*
X0037724Y0321734D01*
X0037906Y0321695D01*
X0038087Y0321651D01*
X0038266Y0321604D01*
X0038445Y0321551D01*
X0038622Y0321495D01*
X0038798Y0321434D01*
X0038972Y0321369D01*
X0039145Y0321300D01*
X0039316Y0321227D01*
X0039485Y0321150D01*
X0039652Y0321068D01*
X0039817Y0320983D01*
X0039980Y0320893D01*
X0040141Y0320800D01*
X0040299Y0320703D01*
X0040455Y0320602D01*
X0040609Y0320497D01*
X0040760Y0320389D01*
X0040909Y0320277D01*
X0041054Y0320161D01*
X0041197Y0320042D01*
X0041337Y0319920D01*
X0041474Y0319794D01*
X0041608Y0319665D01*
X0041738Y0319532D01*
X0041866Y0319397D01*
X0041990Y0319259D01*
X0042111Y0319117D01*
X0042228Y0318973D01*
X0042342Y0318826D01*
X0042452Y0318676D01*
X0042559Y0318524D01*
X0042661Y0318369D01*
X0042760Y0318211D01*
X0042856Y0318052D01*
X0042774Y0318005D01*
X0042680Y0318163D01*
X0042582Y0318318D01*
X0042481Y0318471D01*
X0042375Y0318622D01*
X0042266Y0318770D01*
X0042154Y0318915D01*
X0042038Y0319057D01*
X0041919Y0319197D01*
X0041796Y0319334D01*
X0041670Y0319467D01*
X0041541Y0319598D01*
X0041409Y0319726D01*
X0041274Y0319850D01*
X0041136Y0319971D01*
X0040995Y0320088D01*
X0040851Y0320202D01*
X0040704Y0320313D01*
X0040555Y0320420D01*
X0040403Y0320524D01*
X0040249Y0320623D01*
X0040093Y0320719D01*
X0039934Y0320811D01*
X0039773Y0320900D01*
X0039610Y0320984D01*
X0039445Y0321065D01*
X0039278Y0321141D01*
X0039109Y0321213D01*
X0038938Y0321282D01*
X0038766Y0321346D01*
X0038593Y0321406D01*
X0038418Y0321462D01*
X0038241Y0321513D01*
X0038064Y0321560D01*
X0037885Y0321603D01*
X0037706Y0321642D01*
X0037525Y0321676D01*
X0037344Y0321706D01*
X0037162Y0321731D01*
X0036980Y0321753D01*
X0036797Y0321769D01*
X0036614Y0321782D01*
X0036430Y0321789D01*
X0036247Y0321793D01*
X0036148Y0322638D02*
X0036148Y0321738D01*
X0036147Y0321739D02*
X0035963Y0321735D01*
X0035778Y0321727D01*
X0035594Y0321715D01*
X0035411Y0321698D01*
X0035227Y0321676D01*
X0035045Y0321651D01*
X0034863Y0321620D01*
X0034682Y0321585D01*
X0034501Y0321546D01*
X0034322Y0321502D01*
X0034144Y0321454D01*
X0033967Y0321402D01*
X0033791Y0321345D01*
X0033617Y0321285D01*
X0033445Y0321219D01*
X0033274Y0321150D01*
X0033104Y0321077D01*
X0032937Y0320999D01*
X0032772Y0320917D01*
X0032608Y0320832D01*
X0032447Y0320742D01*
X0032288Y0320648D01*
X0032131Y0320551D01*
X0031977Y0320450D01*
X0031825Y0320345D01*
X0031676Y0320236D01*
X0031530Y0320124D01*
X0031386Y0320008D01*
X0031246Y0319889D01*
X0031108Y0319766D01*
X0030973Y0319640D01*
X0030841Y0319511D01*
X0030713Y0319378D01*
X0030588Y0319243D01*
X0030466Y0319104D01*
X0029779Y0319685D01*
X0029915Y0319841D01*
X0030056Y0319993D01*
X0030200Y0320142D01*
X0030347Y0320287D01*
X0030498Y0320428D01*
X0030652Y0320565D01*
X0030810Y0320699D01*
X0030971Y0320829D01*
X0031135Y0320955D01*
X0031302Y0321077D01*
X0031472Y0321195D01*
X0031645Y0321308D01*
X0031821Y0321417D01*
X0031999Y0321522D01*
X0032180Y0321623D01*
X0032363Y0321719D01*
X0032548Y0321811D01*
X0032736Y0321898D01*
X0032926Y0321980D01*
X0033117Y0322058D01*
X0033311Y0322131D01*
X0033506Y0322199D01*
X0033703Y0322263D01*
X0033901Y0322321D01*
X0034101Y0322375D01*
X0034302Y0322424D01*
X0034504Y0322468D01*
X0034707Y0322507D01*
X0034911Y0322541D01*
X0035116Y0322570D01*
X0035321Y0322594D01*
X0035527Y0322612D01*
X0035734Y0322626D01*
X0035940Y0322635D01*
X0036147Y0322639D01*
X0036147Y0322545D01*
X0035943Y0322541D01*
X0035738Y0322532D01*
X0035534Y0322519D01*
X0035331Y0322500D01*
X0035128Y0322476D01*
X0034925Y0322448D01*
X0034723Y0322414D01*
X0034523Y0322376D01*
X0034323Y0322332D01*
X0034124Y0322284D01*
X0033927Y0322231D01*
X0033730Y0322173D01*
X0033536Y0322110D01*
X0033343Y0322042D01*
X0033151Y0321970D01*
X0032962Y0321893D01*
X0032774Y0321812D01*
X0032589Y0321726D01*
X0032406Y0321635D01*
X0032224Y0321540D01*
X0032046Y0321441D01*
X0031870Y0321337D01*
X0031696Y0321229D01*
X0031525Y0321117D01*
X0031357Y0321000D01*
X0031192Y0320880D01*
X0031029Y0320755D01*
X0030870Y0320627D01*
X0030714Y0320495D01*
X0030562Y0320359D01*
X0030412Y0320219D01*
X0030267Y0320076D01*
X0030124Y0319929D01*
X0029986Y0319778D01*
X0029851Y0319625D01*
X0029922Y0319564D01*
X0030056Y0319716D01*
X0030193Y0319865D01*
X0030334Y0320010D01*
X0030478Y0320151D01*
X0030625Y0320290D01*
X0030776Y0320424D01*
X0030930Y0320555D01*
X0031088Y0320682D01*
X0031248Y0320805D01*
X0031412Y0320924D01*
X0031578Y0321039D01*
X0031747Y0321150D01*
X0031918Y0321257D01*
X0032093Y0321359D01*
X0032269Y0321458D01*
X0032448Y0321552D01*
X0032630Y0321641D01*
X0032813Y0321726D01*
X0032998Y0321807D01*
X0033186Y0321883D01*
X0033375Y0321954D01*
X0033566Y0322021D01*
X0033758Y0322083D01*
X0033952Y0322140D01*
X0034147Y0322193D01*
X0034344Y0322240D01*
X0034541Y0322283D01*
X0034740Y0322321D01*
X0034939Y0322355D01*
X0035139Y0322383D01*
X0035340Y0322406D01*
X0035541Y0322425D01*
X0035743Y0322439D01*
X0035945Y0322447D01*
X0036147Y0322451D01*
X0036147Y0322357D01*
X0035947Y0322353D01*
X0035748Y0322345D01*
X0035548Y0322331D01*
X0035349Y0322313D01*
X0035151Y0322290D01*
X0034953Y0322262D01*
X0034756Y0322229D01*
X0034560Y0322191D01*
X0034364Y0322149D01*
X0034170Y0322102D01*
X0033977Y0322050D01*
X0033786Y0321993D01*
X0033595Y0321932D01*
X0033407Y0321866D01*
X0033220Y0321795D01*
X0033035Y0321720D01*
X0032851Y0321640D01*
X0032670Y0321556D01*
X0032491Y0321468D01*
X0032314Y0321375D01*
X0032139Y0321278D01*
X0031967Y0321176D01*
X0031798Y0321071D01*
X0031630Y0320961D01*
X0031466Y0320847D01*
X0031305Y0320730D01*
X0031146Y0320608D01*
X0030991Y0320483D01*
X0030838Y0320353D01*
X0030689Y0320220D01*
X0030543Y0320084D01*
X0030401Y0319944D01*
X0030262Y0319800D01*
X0030126Y0319653D01*
X0029994Y0319503D01*
X0030066Y0319443D01*
X0030196Y0319591D01*
X0030330Y0319736D01*
X0030468Y0319878D01*
X0030609Y0320016D01*
X0030753Y0320151D01*
X0030900Y0320283D01*
X0031051Y0320410D01*
X0031205Y0320534D01*
X0031361Y0320655D01*
X0031521Y0320771D01*
X0031683Y0320883D01*
X0031848Y0320992D01*
X0032016Y0321096D01*
X0032186Y0321196D01*
X0032359Y0321292D01*
X0032534Y0321384D01*
X0032711Y0321472D01*
X0032890Y0321555D01*
X0033071Y0321633D01*
X0033254Y0321708D01*
X0033439Y0321777D01*
X0033625Y0321842D01*
X0033813Y0321903D01*
X0034003Y0321959D01*
X0034193Y0322010D01*
X0034385Y0322057D01*
X0034578Y0322099D01*
X0034772Y0322136D01*
X0034967Y0322169D01*
X0035163Y0322196D01*
X0035359Y0322219D01*
X0035555Y0322237D01*
X0035752Y0322251D01*
X0035950Y0322259D01*
X0036147Y0322263D01*
X0036147Y0322169D01*
X0035952Y0322165D01*
X0035757Y0322157D01*
X0035562Y0322144D01*
X0035368Y0322126D01*
X0035174Y0322103D01*
X0034981Y0322076D01*
X0034788Y0322044D01*
X0034597Y0322007D01*
X0034406Y0321965D01*
X0034216Y0321919D01*
X0034028Y0321869D01*
X0033841Y0321813D01*
X0033655Y0321753D01*
X0033471Y0321689D01*
X0033288Y0321620D01*
X0033107Y0321547D01*
X0032928Y0321469D01*
X0032751Y0321387D01*
X0032576Y0321300D01*
X0032404Y0321210D01*
X0032233Y0321115D01*
X0032065Y0321016D01*
X0031899Y0320913D01*
X0031736Y0320806D01*
X0031575Y0320695D01*
X0031418Y0320580D01*
X0031263Y0320461D01*
X0031111Y0320338D01*
X0030962Y0320212D01*
X0030816Y0320082D01*
X0030674Y0319949D01*
X0030535Y0319812D01*
X0030399Y0319672D01*
X0030267Y0319528D01*
X0030138Y0319382D01*
X0030210Y0319321D01*
X0030337Y0319466D01*
X0030468Y0319608D01*
X0030602Y0319746D01*
X0030739Y0319881D01*
X0030880Y0320013D01*
X0031024Y0320141D01*
X0031171Y0320266D01*
X0031321Y0320387D01*
X0031474Y0320504D01*
X0031630Y0320618D01*
X0031789Y0320728D01*
X0031950Y0320834D01*
X0032114Y0320935D01*
X0032280Y0321033D01*
X0032448Y0321127D01*
X0032619Y0321217D01*
X0032792Y0321302D01*
X0032967Y0321383D01*
X0033144Y0321460D01*
X0033322Y0321532D01*
X0033503Y0321601D01*
X0033685Y0321664D01*
X0033868Y0321723D01*
X0034053Y0321778D01*
X0034239Y0321828D01*
X0034427Y0321874D01*
X0034615Y0321915D01*
X0034805Y0321951D01*
X0034995Y0321983D01*
X0035186Y0322010D01*
X0035377Y0322032D01*
X0035569Y0322050D01*
X0035762Y0322063D01*
X0035954Y0322071D01*
X0036147Y0322075D01*
X0036147Y0321981D01*
X0035957Y0321977D01*
X0035766Y0321969D01*
X0035576Y0321956D01*
X0035387Y0321939D01*
X0035197Y0321917D01*
X0035009Y0321890D01*
X0034821Y0321859D01*
X0034634Y0321823D01*
X0034448Y0321782D01*
X0034263Y0321737D01*
X0034079Y0321688D01*
X0033896Y0321633D01*
X0033715Y0321575D01*
X0033535Y0321512D01*
X0033357Y0321445D01*
X0033180Y0321373D01*
X0033005Y0321297D01*
X0032833Y0321217D01*
X0032662Y0321133D01*
X0032493Y0321044D01*
X0032327Y0320952D01*
X0032162Y0320855D01*
X0032001Y0320755D01*
X0031841Y0320650D01*
X0031685Y0320542D01*
X0031531Y0320429D01*
X0031380Y0320313D01*
X0031231Y0320194D01*
X0031086Y0320071D01*
X0030944Y0319944D01*
X0030805Y0319814D01*
X0030669Y0319680D01*
X0030536Y0319544D01*
X0030407Y0319404D01*
X0030281Y0319260D01*
X0030353Y0319200D01*
X0030477Y0319341D01*
X0030605Y0319479D01*
X0030736Y0319614D01*
X0030870Y0319746D01*
X0031007Y0319875D01*
X0031148Y0320000D01*
X0031292Y0320122D01*
X0031438Y0320240D01*
X0031587Y0320354D01*
X0031739Y0320465D01*
X0031894Y0320572D01*
X0032051Y0320675D01*
X0032211Y0320775D01*
X0032373Y0320870D01*
X0032538Y0320962D01*
X0032704Y0321049D01*
X0032873Y0321132D01*
X0033044Y0321212D01*
X0033216Y0321287D01*
X0033391Y0321357D01*
X0033567Y0321424D01*
X0033744Y0321486D01*
X0033924Y0321544D01*
X0034104Y0321597D01*
X0034286Y0321646D01*
X0034468Y0321690D01*
X0034652Y0321730D01*
X0034837Y0321766D01*
X0035023Y0321797D01*
X0035209Y0321823D01*
X0035396Y0321845D01*
X0035583Y0321862D01*
X0035771Y0321875D01*
X0035959Y0321883D01*
X0036147Y0321887D01*
X0036147Y0321793D01*
X0035961Y0321789D01*
X0035776Y0321781D01*
X0035590Y0321769D01*
X0035405Y0321752D01*
X0035221Y0321730D01*
X0035037Y0321704D01*
X0034853Y0321673D01*
X0034671Y0321638D01*
X0034489Y0321599D01*
X0034309Y0321555D01*
X0034129Y0321506D01*
X0033951Y0321454D01*
X0033774Y0321397D01*
X0033599Y0321335D01*
X0033425Y0321270D01*
X0033253Y0321200D01*
X0033082Y0321126D01*
X0032914Y0321048D01*
X0032747Y0320965D01*
X0032583Y0320879D01*
X0032420Y0320789D01*
X0032260Y0320694D01*
X0032102Y0320596D01*
X0031947Y0320494D01*
X0031794Y0320389D01*
X0031644Y0320279D01*
X0031496Y0320166D01*
X0031352Y0320049D01*
X0031210Y0319929D01*
X0031071Y0319806D01*
X0030935Y0319679D01*
X0030803Y0319549D01*
X0030674Y0319415D01*
X0030547Y0319279D01*
X0030425Y0319139D01*
X0029738Y0308741D02*
X0030430Y0309318D01*
X0030429Y0309317D02*
X0030548Y0309180D01*
X0030669Y0309046D01*
X0030794Y0308915D01*
X0030922Y0308787D01*
X0031053Y0308663D01*
X0031187Y0308541D01*
X0031324Y0308422D01*
X0031463Y0308307D01*
X0031606Y0308196D01*
X0031751Y0308087D01*
X0031898Y0307982D01*
X0032048Y0307881D01*
X0032200Y0307784D01*
X0032355Y0307690D01*
X0032512Y0307599D01*
X0032671Y0307513D01*
X0032832Y0307430D01*
X0032995Y0307352D01*
X0033160Y0307277D01*
X0033326Y0307206D01*
X0033494Y0307139D01*
X0033664Y0307077D01*
X0033835Y0307018D01*
X0034008Y0306963D01*
X0034181Y0306913D01*
X0034356Y0306867D01*
X0034532Y0306825D01*
X0034709Y0306787D01*
X0034887Y0306754D01*
X0035066Y0306724D01*
X0035245Y0306699D01*
X0035425Y0306679D01*
X0035605Y0306662D01*
X0035785Y0306650D01*
X0035966Y0306643D01*
X0036147Y0306639D01*
X0036148Y0305740D01*
X0036147Y0305739D01*
X0035944Y0305743D01*
X0035742Y0305751D01*
X0035539Y0305765D01*
X0035337Y0305783D01*
X0035136Y0305806D01*
X0034935Y0305834D01*
X0034735Y0305867D01*
X0034535Y0305904D01*
X0034337Y0305946D01*
X0034139Y0305993D01*
X0033943Y0306045D01*
X0033749Y0306102D01*
X0033555Y0306163D01*
X0033363Y0306228D01*
X0033173Y0306299D01*
X0032984Y0306374D01*
X0032798Y0306453D01*
X0032613Y0306537D01*
X0032430Y0306625D01*
X0032250Y0306718D01*
X0032072Y0306814D01*
X0031896Y0306916D01*
X0031723Y0307021D01*
X0031552Y0307130D01*
X0031384Y0307244D01*
X0031218Y0307361D01*
X0031056Y0307483D01*
X0030896Y0307608D01*
X0030740Y0307737D01*
X0030587Y0307870D01*
X0030437Y0308007D01*
X0030290Y0308147D01*
X0030147Y0308290D01*
X0030007Y0308437D01*
X0029870Y0308587D01*
X0029738Y0308741D01*
X0029810Y0308801D01*
X0029941Y0308649D01*
X0030076Y0308501D01*
X0030214Y0308356D01*
X0030356Y0308214D01*
X0030501Y0308075D01*
X0030649Y0307940D01*
X0030801Y0307809D01*
X0030956Y0307681D01*
X0031113Y0307557D01*
X0031274Y0307437D01*
X0031437Y0307321D01*
X0031604Y0307209D01*
X0031772Y0307101D01*
X0031944Y0306996D01*
X0032118Y0306896D01*
X0032294Y0306801D01*
X0032472Y0306709D01*
X0032653Y0306622D01*
X0032836Y0306539D01*
X0033020Y0306460D01*
X0033206Y0306386D01*
X0033395Y0306317D01*
X0033584Y0306252D01*
X0033776Y0306192D01*
X0033968Y0306136D01*
X0034162Y0306085D01*
X0034357Y0306038D01*
X0034553Y0305996D01*
X0034750Y0305959D01*
X0034948Y0305927D01*
X0035147Y0305899D01*
X0035346Y0305876D01*
X0035546Y0305858D01*
X0035746Y0305845D01*
X0035947Y0305837D01*
X0036147Y0305833D01*
X0036147Y0305927D01*
X0035949Y0305931D01*
X0035751Y0305939D01*
X0035553Y0305952D01*
X0035355Y0305970D01*
X0035158Y0305993D01*
X0034962Y0306020D01*
X0034766Y0306052D01*
X0034572Y0306088D01*
X0034378Y0306130D01*
X0034185Y0306176D01*
X0033993Y0306226D01*
X0033803Y0306282D01*
X0033614Y0306341D01*
X0033426Y0306406D01*
X0033240Y0306474D01*
X0033056Y0306547D01*
X0032873Y0306625D01*
X0032693Y0306707D01*
X0032514Y0306793D01*
X0032338Y0306884D01*
X0032164Y0306978D01*
X0031992Y0307077D01*
X0031822Y0307180D01*
X0031655Y0307287D01*
X0031491Y0307398D01*
X0031330Y0307513D01*
X0031171Y0307632D01*
X0031015Y0307754D01*
X0030862Y0307880D01*
X0030712Y0308010D01*
X0030565Y0308144D01*
X0030422Y0308281D01*
X0030282Y0308421D01*
X0030145Y0308564D01*
X0030012Y0308711D01*
X0029882Y0308861D01*
X0029954Y0308921D01*
X0030083Y0308773D01*
X0030214Y0308628D01*
X0030349Y0308486D01*
X0030488Y0308348D01*
X0030630Y0308212D01*
X0030775Y0308080D01*
X0030923Y0307952D01*
X0031074Y0307827D01*
X0031228Y0307706D01*
X0031385Y0307589D01*
X0031545Y0307475D01*
X0031707Y0307366D01*
X0031872Y0307260D01*
X0032040Y0307158D01*
X0032210Y0307060D01*
X0032382Y0306967D01*
X0032556Y0306877D01*
X0032733Y0306792D01*
X0032911Y0306711D01*
X0033091Y0306634D01*
X0033274Y0306562D01*
X0033457Y0306494D01*
X0033643Y0306431D01*
X0033830Y0306372D01*
X0034018Y0306317D01*
X0034207Y0306267D01*
X0034398Y0306222D01*
X0034590Y0306181D01*
X0034782Y0306144D01*
X0034976Y0306113D01*
X0035170Y0306086D01*
X0035365Y0306064D01*
X0035560Y0306046D01*
X0035755Y0306033D01*
X0035951Y0306025D01*
X0036147Y0306021D01*
X0036147Y0306115D01*
X0035953Y0306119D01*
X0035760Y0306127D01*
X0035567Y0306140D01*
X0035374Y0306157D01*
X0035181Y0306179D01*
X0034989Y0306206D01*
X0034798Y0306237D01*
X0034608Y0306273D01*
X0034418Y0306313D01*
X0034230Y0306358D01*
X0034043Y0306408D01*
X0033857Y0306462D01*
X0033672Y0306520D01*
X0033489Y0306583D01*
X0033307Y0306650D01*
X0033127Y0306721D01*
X0032949Y0306797D01*
X0032772Y0306877D01*
X0032598Y0306961D01*
X0032426Y0307050D01*
X0032256Y0307142D01*
X0032088Y0307239D01*
X0031922Y0307340D01*
X0031759Y0307444D01*
X0031599Y0307552D01*
X0031441Y0307665D01*
X0031286Y0307781D01*
X0031133Y0307900D01*
X0030984Y0308024D01*
X0030837Y0308150D01*
X0030694Y0308281D01*
X0030554Y0308414D01*
X0030417Y0308551D01*
X0030284Y0308692D01*
X0030153Y0308835D01*
X0030027Y0308982D01*
X0030099Y0309042D01*
X0030224Y0308897D01*
X0030353Y0308755D01*
X0030485Y0308617D01*
X0030620Y0308481D01*
X0030759Y0308349D01*
X0030900Y0308220D01*
X0031045Y0308095D01*
X0031192Y0307973D01*
X0031343Y0307855D01*
X0031496Y0307740D01*
X0031652Y0307630D01*
X0031811Y0307522D01*
X0031972Y0307419D01*
X0032136Y0307320D01*
X0032302Y0307224D01*
X0032470Y0307133D01*
X0032640Y0307046D01*
X0032812Y0306962D01*
X0032987Y0306883D01*
X0033163Y0306808D01*
X0033341Y0306738D01*
X0033520Y0306671D01*
X0033701Y0306609D01*
X0033884Y0306552D01*
X0034068Y0306498D01*
X0034253Y0306449D01*
X0034439Y0306405D01*
X0034626Y0306365D01*
X0034814Y0306330D01*
X0035003Y0306299D01*
X0035193Y0306272D01*
X0035383Y0306251D01*
X0035573Y0306233D01*
X0035764Y0306221D01*
X0035956Y0306213D01*
X0036147Y0306209D01*
X0036147Y0306303D01*
X0035958Y0306307D01*
X0035769Y0306315D01*
X0035580Y0306327D01*
X0035392Y0306344D01*
X0035204Y0306366D01*
X0035017Y0306392D01*
X0034830Y0306422D01*
X0034644Y0306457D01*
X0034459Y0306497D01*
X0034275Y0306541D01*
X0034093Y0306589D01*
X0033911Y0306642D01*
X0033731Y0306699D01*
X0033552Y0306760D01*
X0033374Y0306826D01*
X0033198Y0306895D01*
X0033024Y0306969D01*
X0032852Y0307047D01*
X0032682Y0307130D01*
X0032514Y0307216D01*
X0032348Y0307306D01*
X0032184Y0307401D01*
X0032022Y0307499D01*
X0031863Y0307601D01*
X0031706Y0307707D01*
X0031552Y0307816D01*
X0031400Y0307930D01*
X0031252Y0308046D01*
X0031106Y0308167D01*
X0030963Y0308290D01*
X0030823Y0308418D01*
X0030686Y0308548D01*
X0030552Y0308682D01*
X0030422Y0308819D01*
X0030295Y0308959D01*
X0030171Y0309102D01*
X0030243Y0309162D01*
X0030366Y0309021D01*
X0030491Y0308883D01*
X0030620Y0308747D01*
X0030752Y0308615D01*
X0030887Y0308486D01*
X0031026Y0308361D01*
X0031167Y0308238D01*
X0031311Y0308119D01*
X0031458Y0308004D01*
X0031607Y0307892D01*
X0031760Y0307784D01*
X0031915Y0307679D01*
X0032072Y0307579D01*
X0032232Y0307482D01*
X0032393Y0307388D01*
X0032558Y0307299D01*
X0032724Y0307214D01*
X0032892Y0307133D01*
X0033062Y0307055D01*
X0033234Y0306982D01*
X0033408Y0306913D01*
X0033583Y0306849D01*
X0033760Y0306788D01*
X0033938Y0306732D01*
X0034117Y0306680D01*
X0034298Y0306632D01*
X0034480Y0306589D01*
X0034662Y0306550D01*
X0034846Y0306515D01*
X0035030Y0306485D01*
X0035215Y0306459D01*
X0035401Y0306438D01*
X0035587Y0306421D01*
X0035774Y0306409D01*
X0035960Y0306401D01*
X0036147Y0306397D01*
X0036147Y0306491D01*
X0035963Y0306495D01*
X0035778Y0306502D01*
X0035594Y0306515D01*
X0035410Y0306531D01*
X0035227Y0306552D01*
X0035044Y0306578D01*
X0034862Y0306608D01*
X0034681Y0306642D01*
X0034500Y0306680D01*
X0034321Y0306723D01*
X0034142Y0306770D01*
X0033965Y0306822D01*
X0033789Y0306877D01*
X0033614Y0306937D01*
X0033441Y0307001D01*
X0033270Y0307069D01*
X0033100Y0307141D01*
X0032932Y0307218D01*
X0032766Y0307298D01*
X0032602Y0307382D01*
X0032439Y0307470D01*
X0032279Y0307562D01*
X0032122Y0307658D01*
X0031966Y0307758D01*
X0031813Y0307861D01*
X0031663Y0307968D01*
X0031515Y0308078D01*
X0031370Y0308192D01*
X0031228Y0308310D01*
X0031088Y0308431D01*
X0030952Y0308555D01*
X0030818Y0308682D01*
X0030688Y0308813D01*
X0030560Y0308946D01*
X0030436Y0309083D01*
X0030316Y0309222D01*
X0030388Y0309283D01*
X0030507Y0309145D01*
X0030630Y0309010D01*
X0030755Y0308878D01*
X0030884Y0308749D01*
X0031016Y0308623D01*
X0031151Y0308501D01*
X0031289Y0308381D01*
X0031429Y0308265D01*
X0031573Y0308153D01*
X0031719Y0308044D01*
X0031867Y0307938D01*
X0032018Y0307836D01*
X0032172Y0307738D01*
X0032327Y0307643D01*
X0032485Y0307552D01*
X0032646Y0307465D01*
X0032808Y0307382D01*
X0032972Y0307303D01*
X0033138Y0307228D01*
X0033306Y0307156D01*
X0033475Y0307089D01*
X0033646Y0307026D01*
X0033818Y0306967D01*
X0033992Y0306912D01*
X0034167Y0306861D01*
X0034343Y0306814D01*
X0034521Y0306772D01*
X0034699Y0306734D01*
X0034878Y0306700D01*
X0035058Y0306671D01*
X0035238Y0306646D01*
X0035419Y0306625D01*
X0035601Y0306608D01*
X0035783Y0306596D01*
X0035965Y0306589D01*
X0036147Y0306585D01*
X0039125Y0123228D02*
X0039875Y0123228D01*
X0040126Y0122978D01*
X0040126Y0122478D01*
X0039875Y0122228D01*
X0039125Y0122228D01*
X0039625Y0122228D02*
X0040126Y0121727D01*
X0040598Y0121977D02*
X0040848Y0121727D01*
X0041349Y0121727D01*
X0041599Y0121977D01*
X0041599Y0122228D01*
X0041349Y0122478D01*
X0041098Y0122478D01*
X0041349Y0122478D02*
X0041599Y0122728D01*
X0041599Y0122978D01*
X0041349Y0123228D01*
X0040848Y0123228D01*
X0040598Y0122978D01*
X0039125Y0123228D02*
X0039125Y0121727D01*
X0038875Y0115728D02*
X0038625Y0115478D01*
X0038875Y0115728D02*
X0039375Y0115728D01*
X0039626Y0115478D01*
X0039626Y0115228D01*
X0038625Y0114227D01*
X0039626Y0114227D01*
X0040098Y0114477D02*
X0041099Y0115478D01*
X0041099Y0114477D01*
X0040849Y0114227D01*
X0040348Y0114227D01*
X0040098Y0114477D01*
X0040098Y0115478D01*
X0040348Y0115728D01*
X0040849Y0115728D01*
X0041099Y0115478D01*
X0041571Y0115728D02*
X0041571Y0114227D01*
X0041571Y0114728D02*
X0042322Y0115228D01*
X0041571Y0114728D02*
X0042322Y0114227D01*
X0063021Y0114206D02*
X0063021Y0115707D01*
X0063771Y0115707D01*
X0064022Y0115457D01*
X0064022Y0114957D01*
X0063771Y0114706D01*
X0063021Y0114706D01*
X0063521Y0114706D02*
X0064022Y0114206D01*
X0064494Y0114957D02*
X0065495Y0114957D01*
X0065245Y0115707D02*
X0064494Y0114957D01*
X0065245Y0115707D02*
X0065245Y0114206D01*
X0065244Y0121706D02*
X0064994Y0121956D01*
X0065995Y0122957D01*
X0065995Y0121956D01*
X0065745Y0121706D01*
X0065244Y0121706D01*
X0064994Y0121956D02*
X0064994Y0122957D01*
X0065244Y0123207D01*
X0065745Y0123207D01*
X0065995Y0122957D01*
X0064522Y0122957D02*
X0063521Y0121956D01*
X0063771Y0121706D01*
X0064271Y0121706D01*
X0064522Y0121956D01*
X0064522Y0122957D01*
X0064271Y0123207D01*
X0063771Y0123207D01*
X0063521Y0122957D01*
X0063521Y0121956D01*
X0063048Y0121956D02*
X0062798Y0121706D01*
X0062298Y0121706D01*
X0062048Y0121956D01*
X0062048Y0122457D02*
X0062548Y0122707D01*
X0062798Y0122707D01*
X0063048Y0122457D01*
X0063048Y0121956D01*
X0062048Y0122457D02*
X0062048Y0123207D01*
X0063048Y0123207D01*
X0078022Y0123622D02*
X0078022Y0122121D01*
X0078022Y0122621D02*
X0078773Y0122621D01*
X0079023Y0122872D01*
X0079023Y0123372D01*
X0078773Y0123622D01*
X0078022Y0123622D01*
X0078523Y0122621D02*
X0079023Y0122121D01*
X0079496Y0122371D02*
X0079746Y0122121D01*
X0080246Y0122121D01*
X0080497Y0122371D01*
X0080497Y0122872D01*
X0080246Y0123122D01*
X0079996Y0123122D01*
X0079496Y0122872D01*
X0079496Y0123622D01*
X0080497Y0123622D01*
X0078996Y0116122D02*
X0078996Y0114621D01*
X0078996Y0115121D02*
X0079746Y0115622D01*
X0078996Y0115121D02*
X0079746Y0114621D01*
X0078523Y0114871D02*
X0078523Y0115121D01*
X0078273Y0115372D01*
X0077522Y0115372D01*
X0077522Y0114871D01*
X0077773Y0114621D01*
X0078273Y0114621D01*
X0078523Y0114871D01*
X0078023Y0115872D02*
X0077522Y0115372D01*
X0078023Y0115872D02*
X0078523Y0116122D01*
X0086901Y0099625D02*
X0086901Y0098624D01*
X0088403Y0098624D01*
X0088403Y0098151D02*
X0087402Y0098151D01*
X0087652Y0098624D02*
X0087652Y0099124D01*
X0088403Y0098151D02*
X0088403Y0097401D01*
X0088153Y0097150D01*
X0087402Y0097150D01*
X0086901Y0096178D02*
X0088403Y0096178D01*
X0088403Y0096678D02*
X0088403Y0095677D01*
X0088403Y0095191D02*
X0088403Y0094941D01*
X0088153Y0094941D01*
X0088153Y0095191D01*
X0088403Y0095191D01*
X0088153Y0094468D02*
X0088403Y0094218D01*
X0088403Y0093718D01*
X0088153Y0093467D01*
X0087152Y0094468D01*
X0088153Y0094468D01*
X0088153Y0093467D02*
X0087152Y0093467D01*
X0086901Y0093718D01*
X0086901Y0094218D01*
X0087152Y0094468D01*
X0087402Y0095677D02*
X0086901Y0096178D01*
X0080903Y0095941D02*
X0079401Y0095941D01*
X0079902Y0095441D01*
X0079652Y0094968D02*
X0079401Y0094718D01*
X0079401Y0094218D01*
X0079652Y0093967D01*
X0080653Y0093967D01*
X0080903Y0094218D01*
X0080903Y0094718D01*
X0080653Y0094968D01*
X0080903Y0095441D02*
X0080903Y0096441D01*
X0094953Y0096309D02*
X0095203Y0096560D01*
X0095453Y0096560D01*
X0095703Y0096309D01*
X0095954Y0096560D01*
X0096204Y0096560D01*
X0096454Y0096309D01*
X0096454Y0095809D01*
X0096204Y0095559D01*
X0096204Y0095086D02*
X0096454Y0094836D01*
X0096454Y0094336D01*
X0096204Y0094085D01*
X0095203Y0094085D01*
X0094953Y0094336D01*
X0094953Y0094836D01*
X0095203Y0095086D01*
X0095203Y0095559D02*
X0094953Y0095809D01*
X0094953Y0096309D01*
X0095703Y0096309D02*
X0095703Y0096059D01*
X0102453Y0095809D02*
X0102703Y0096060D01*
X0103704Y0095059D01*
X0103954Y0095309D01*
X0103954Y0095809D01*
X0103704Y0096060D01*
X0102703Y0096060D01*
X0102453Y0095809D02*
X0102453Y0095309D01*
X0102703Y0095059D01*
X0103704Y0095059D01*
X0103954Y0094586D02*
X0103954Y0093585D01*
X0103954Y0094086D02*
X0102453Y0094086D01*
X0102953Y0093585D01*
X0102953Y0096532D02*
X0103704Y0096532D01*
X0103954Y0096782D01*
X0103954Y0097533D01*
X0102953Y0097533D01*
X0103203Y0098005D02*
X0103203Y0098506D01*
X0102453Y0098005D02*
X0102453Y0099006D01*
X0102453Y0098005D02*
X0103954Y0098005D01*
X0097598Y0114424D02*
X0096847Y0114924D01*
X0097598Y0115425D01*
X0096847Y0115925D02*
X0096847Y0114424D01*
X0096374Y0114424D02*
X0095374Y0114424D01*
X0096374Y0115425D01*
X0096374Y0115675D01*
X0096124Y0115925D01*
X0095624Y0115925D01*
X0095374Y0115675D01*
X0094401Y0115925D02*
X0094401Y0114424D01*
X0094901Y0114424D02*
X0093900Y0114424D01*
X0093900Y0115425D02*
X0094401Y0115925D01*
X0094400Y0121924D02*
X0094400Y0123425D01*
X0095151Y0123425D01*
X0095401Y0123175D01*
X0095401Y0122675D01*
X0095151Y0122424D01*
X0094400Y0122424D01*
X0094901Y0122424D02*
X0095401Y0121924D01*
X0095874Y0122174D02*
X0096124Y0121924D01*
X0096624Y0121924D01*
X0096874Y0122174D01*
X0096874Y0123175D01*
X0096624Y0123425D01*
X0096124Y0123425D01*
X0095874Y0123175D01*
X0095874Y0122925D01*
X0096124Y0122675D01*
X0096874Y0122675D01*
X0142740Y0077274D02*
X0143240Y0077774D01*
X0143240Y0076273D01*
X0142740Y0076273D02*
X0143740Y0076273D01*
X0144213Y0076523D02*
X0145214Y0077524D01*
X0145214Y0076523D01*
X0144964Y0076273D01*
X0144463Y0076273D01*
X0144213Y0076523D01*
X0144213Y0077524D01*
X0144463Y0077774D01*
X0144964Y0077774D01*
X0145214Y0077524D01*
X0145686Y0077274D02*
X0146437Y0077274D01*
X0146687Y0077023D01*
X0146687Y0076273D01*
X0147159Y0076273D02*
X0147159Y0077774D01*
X0148160Y0077774D01*
X0147660Y0077023D02*
X0147159Y0077023D01*
X0145686Y0077274D02*
X0145686Y0076273D01*
X0145436Y0070274D02*
X0145186Y0070024D01*
X0145186Y0069023D01*
X0145436Y0068773D01*
X0145937Y0068773D01*
X0146187Y0069023D01*
X0146659Y0069023D02*
X0146910Y0068773D01*
X0147410Y0068773D01*
X0147660Y0069023D01*
X0147660Y0070024D01*
X0147410Y0070274D01*
X0146910Y0070274D01*
X0146659Y0070024D01*
X0146659Y0069774D01*
X0146910Y0069523D01*
X0147660Y0069523D01*
X0146187Y0070024D02*
X0145937Y0070274D01*
X0145436Y0070274D01*
X0157964Y0052617D02*
X0157964Y0051616D01*
X0159466Y0051616D01*
X0159466Y0051143D02*
X0158715Y0051143D01*
X0158465Y0050893D01*
X0158465Y0050143D01*
X0159466Y0050143D01*
X0159466Y0049670D02*
X0159466Y0048669D01*
X0158465Y0049670D01*
X0158215Y0049670D01*
X0157964Y0049420D01*
X0157964Y0048920D01*
X0158215Y0048669D01*
X0159216Y0048183D02*
X0159466Y0048183D01*
X0159466Y0047933D01*
X0159216Y0047933D01*
X0159216Y0048183D01*
X0159466Y0047460D02*
X0159466Y0046459D01*
X0158465Y0047460D01*
X0158215Y0047460D01*
X0157964Y0047210D01*
X0157964Y0046710D01*
X0158215Y0046459D01*
X0158715Y0051616D02*
X0158715Y0052116D01*
X0151966Y0048433D02*
X0151716Y0048433D01*
X0150715Y0049434D01*
X0150464Y0049434D01*
X0150464Y0048433D01*
X0150715Y0047960D02*
X0150464Y0047710D01*
X0150464Y0047210D01*
X0150715Y0046959D01*
X0151716Y0046959D01*
X0151966Y0047210D01*
X0151966Y0047710D01*
X0151716Y0047960D01*
X0169767Y0032551D02*
X0170267Y0033051D01*
X0170267Y0031550D01*
X0169767Y0031550D02*
X0170767Y0031550D01*
X0171240Y0031800D02*
X0172241Y0032801D01*
X0172241Y0031800D01*
X0171990Y0031550D01*
X0171490Y0031550D01*
X0171240Y0031800D01*
X0171240Y0032801D01*
X0171490Y0033051D01*
X0171990Y0033051D01*
X0172241Y0032801D01*
X0172713Y0033051D02*
X0172713Y0031550D01*
X0172713Y0032050D02*
X0173464Y0032551D01*
X0172713Y0032050D02*
X0173464Y0031550D01*
X0173213Y0039050D02*
X0174214Y0040051D01*
X0174214Y0040301D01*
X0173964Y0040551D01*
X0173463Y0040551D01*
X0173213Y0040301D01*
X0172240Y0040551D02*
X0172240Y0039050D01*
X0171740Y0039050D02*
X0172741Y0039050D01*
X0173213Y0039050D02*
X0174214Y0039050D01*
X0172240Y0040551D02*
X0171740Y0040051D01*
X0171267Y0040301D02*
X0171267Y0039801D01*
X0171017Y0039550D01*
X0170267Y0039550D01*
X0170767Y0039550D02*
X0171267Y0039050D01*
X0170267Y0039050D02*
X0170267Y0040551D01*
X0171017Y0040551D01*
X0171267Y0040301D01*
X0196309Y0040226D02*
X0196809Y0040727D01*
X0196809Y0039226D01*
X0196309Y0039226D02*
X0197310Y0039226D01*
X0197782Y0039476D02*
X0198783Y0040477D01*
X0198783Y0039476D01*
X0198533Y0039226D01*
X0198032Y0039226D01*
X0197782Y0039476D01*
X0197782Y0040477D01*
X0198032Y0040727D01*
X0198533Y0040727D01*
X0198783Y0040477D01*
X0199255Y0040727D02*
X0199255Y0039226D01*
X0199255Y0039726D02*
X0200006Y0040226D01*
X0199255Y0039726D02*
X0200006Y0039226D01*
X0199260Y0033227D02*
X0199511Y0032977D01*
X0199511Y0032726D01*
X0199260Y0032476D01*
X0199511Y0032226D01*
X0199511Y0031976D01*
X0199260Y0031726D01*
X0198760Y0031726D01*
X0198510Y0031976D01*
X0198037Y0031726D02*
X0197037Y0031726D01*
X0196564Y0031726D02*
X0196064Y0032226D01*
X0196314Y0032226D02*
X0195563Y0032226D01*
X0195563Y0031726D02*
X0195563Y0033227D01*
X0196314Y0033227D01*
X0196564Y0032977D01*
X0196564Y0032476D01*
X0196314Y0032226D01*
X0197037Y0032726D02*
X0197537Y0033227D01*
X0197537Y0031726D01*
X0198510Y0032977D02*
X0198760Y0033227D01*
X0199260Y0033227D01*
X0199260Y0032476D02*
X0199010Y0032476D01*
X0202289Y0051251D02*
X0203290Y0051251D01*
X0203541Y0051501D01*
X0203541Y0052001D01*
X0203290Y0052252D01*
X0203290Y0052724D02*
X0203040Y0052724D01*
X0202790Y0052974D01*
X0202790Y0053475D01*
X0203040Y0053725D01*
X0203290Y0053725D01*
X0203541Y0053475D01*
X0203541Y0052974D01*
X0203290Y0052724D01*
X0202790Y0052974D02*
X0202540Y0052724D01*
X0202289Y0052724D01*
X0202039Y0052974D01*
X0202039Y0053475D01*
X0202289Y0053725D01*
X0202540Y0053725D01*
X0202790Y0053475D01*
X0202289Y0052252D02*
X0202039Y0052001D01*
X0202039Y0051501D01*
X0202289Y0051251D01*
X0209539Y0051001D02*
X0209539Y0051501D01*
X0209789Y0051752D01*
X0210790Y0050751D01*
X0211041Y0051001D01*
X0211041Y0051501D01*
X0210790Y0051752D01*
X0209789Y0051752D01*
X0209539Y0051001D02*
X0209789Y0050751D01*
X0210790Y0050751D01*
X0210790Y0052224D02*
X0210790Y0052474D01*
X0211041Y0052474D01*
X0211041Y0052224D01*
X0210790Y0052224D01*
X0211041Y0052961D02*
X0211041Y0053962D01*
X0211041Y0053461D02*
X0209539Y0053461D01*
X0210040Y0052961D01*
X0210040Y0054434D02*
X0210790Y0054434D01*
X0211041Y0054684D01*
X0211041Y0055435D01*
X0210040Y0055435D01*
X0210290Y0055907D02*
X0210290Y0056408D01*
X0209539Y0055907D02*
X0209539Y0056908D01*
X0209539Y0055907D02*
X0211041Y0055907D01*
X0182274Y0077537D02*
X0181773Y0077537D01*
X0181301Y0077787D02*
X0181301Y0076786D01*
X0180550Y0076786D01*
X0180300Y0077036D01*
X0180300Y0077787D01*
X0179327Y0078288D02*
X0179327Y0076786D01*
X0178827Y0076786D02*
X0179828Y0076786D01*
X0178827Y0077787D02*
X0179327Y0078288D01*
X0178340Y0077036D02*
X0178340Y0076786D01*
X0178090Y0076786D01*
X0178090Y0077036D01*
X0178340Y0077036D01*
X0177618Y0077036D02*
X0177368Y0076786D01*
X0176867Y0076786D01*
X0176617Y0077036D01*
X0177618Y0078037D01*
X0177618Y0077036D01*
X0176617Y0077036D02*
X0176617Y0078037D01*
X0176867Y0078288D01*
X0177368Y0078288D01*
X0177618Y0078037D01*
X0181773Y0078288D02*
X0182774Y0078288D01*
X0181773Y0078288D02*
X0181773Y0076786D01*
X0179341Y0084286D02*
X0179591Y0084536D01*
X0179591Y0084787D01*
X0179341Y0085037D01*
X0178590Y0085037D01*
X0178590Y0084536D01*
X0178840Y0084286D01*
X0179341Y0084286D01*
X0178590Y0085037D02*
X0179091Y0085537D01*
X0179591Y0085788D01*
X0178118Y0085537D02*
X0177868Y0085788D01*
X0177367Y0085788D01*
X0177117Y0085537D01*
X0177117Y0084536D01*
X0177367Y0084286D01*
X0177868Y0084286D01*
X0178118Y0084536D01*
D13*
X0180744Y0215527D02*
X0183244Y0215527D01*
X0185744Y0215527D01*
X0185744Y0218027D02*
X0183244Y0218027D01*
X0180744Y0218027D01*
X0181177Y0294228D02*
X0183677Y0294228D01*
X0186177Y0294228D01*
X0186177Y0296728D02*
X0183677Y0296728D01*
X0181177Y0296728D01*
D14*
X0183677Y0296728D02*
X0183677Y0301528D01*
X0183677Y0294228D02*
X0183677Y0289528D01*
X0174677Y0281028D02*
X0174617Y0281030D01*
X0174556Y0281035D01*
X0174497Y0281044D01*
X0174438Y0281057D01*
X0174379Y0281073D01*
X0174322Y0281093D01*
X0174267Y0281116D01*
X0174212Y0281143D01*
X0174160Y0281172D01*
X0174109Y0281205D01*
X0174060Y0281241D01*
X0174014Y0281279D01*
X0173970Y0281321D01*
X0173928Y0281365D01*
X0173890Y0281411D01*
X0173854Y0281460D01*
X0173821Y0281511D01*
X0173792Y0281563D01*
X0173765Y0281618D01*
X0173742Y0281673D01*
X0173722Y0281730D01*
X0173706Y0281789D01*
X0173693Y0281848D01*
X0173684Y0281907D01*
X0173679Y0281968D01*
X0173677Y0282028D01*
X0173677Y0309028D01*
X0173679Y0309088D01*
X0173684Y0309149D01*
X0173693Y0309208D01*
X0173706Y0309267D01*
X0173722Y0309326D01*
X0173742Y0309383D01*
X0173765Y0309438D01*
X0173792Y0309493D01*
X0173821Y0309545D01*
X0173854Y0309596D01*
X0173890Y0309645D01*
X0173928Y0309691D01*
X0173970Y0309735D01*
X0174014Y0309777D01*
X0174060Y0309815D01*
X0174109Y0309851D01*
X0174160Y0309884D01*
X0174212Y0309913D01*
X0174267Y0309940D01*
X0174322Y0309963D01*
X0174379Y0309983D01*
X0174438Y0309999D01*
X0174497Y0310012D01*
X0174556Y0310021D01*
X0174617Y0310026D01*
X0174677Y0310028D01*
X0192677Y0310028D01*
X0192737Y0310026D01*
X0192798Y0310021D01*
X0192857Y0310012D01*
X0192916Y0309999D01*
X0192975Y0309983D01*
X0193032Y0309963D01*
X0193087Y0309940D01*
X0193142Y0309913D01*
X0193194Y0309884D01*
X0193245Y0309851D01*
X0193294Y0309815D01*
X0193340Y0309777D01*
X0193384Y0309735D01*
X0193426Y0309691D01*
X0193464Y0309645D01*
X0193500Y0309596D01*
X0193533Y0309545D01*
X0193562Y0309493D01*
X0193589Y0309438D01*
X0193612Y0309383D01*
X0193632Y0309326D01*
X0193648Y0309267D01*
X0193661Y0309208D01*
X0193670Y0309149D01*
X0193675Y0309088D01*
X0193677Y0309028D01*
X0193677Y0282028D01*
X0193675Y0281968D01*
X0193670Y0281907D01*
X0193661Y0281848D01*
X0193648Y0281789D01*
X0193632Y0281730D01*
X0193612Y0281673D01*
X0193589Y0281618D01*
X0193562Y0281563D01*
X0193533Y0281511D01*
X0193500Y0281460D01*
X0193464Y0281411D01*
X0193426Y0281365D01*
X0193384Y0281321D01*
X0193340Y0281279D01*
X0193294Y0281241D01*
X0193245Y0281205D01*
X0193194Y0281172D01*
X0193142Y0281143D01*
X0193087Y0281116D01*
X0193032Y0281093D01*
X0192975Y0281073D01*
X0192916Y0281057D01*
X0192857Y0281044D01*
X0192798Y0281035D01*
X0192737Y0281030D01*
X0192677Y0281028D01*
X0174677Y0281028D01*
X0174244Y0231327D02*
X0192244Y0231327D01*
X0192304Y0231325D01*
X0192365Y0231320D01*
X0192424Y0231311D01*
X0192483Y0231298D01*
X0192542Y0231282D01*
X0192599Y0231262D01*
X0192654Y0231239D01*
X0192709Y0231212D01*
X0192761Y0231183D01*
X0192812Y0231150D01*
X0192861Y0231114D01*
X0192907Y0231076D01*
X0192951Y0231034D01*
X0192993Y0230990D01*
X0193031Y0230944D01*
X0193067Y0230895D01*
X0193100Y0230844D01*
X0193129Y0230792D01*
X0193156Y0230737D01*
X0193179Y0230682D01*
X0193199Y0230625D01*
X0193215Y0230566D01*
X0193228Y0230507D01*
X0193237Y0230448D01*
X0193242Y0230387D01*
X0193244Y0230327D01*
X0193244Y0203327D01*
X0193242Y0203267D01*
X0193237Y0203206D01*
X0193228Y0203147D01*
X0193215Y0203088D01*
X0193199Y0203029D01*
X0193179Y0202972D01*
X0193156Y0202917D01*
X0193129Y0202862D01*
X0193100Y0202810D01*
X0193067Y0202759D01*
X0193031Y0202710D01*
X0192993Y0202664D01*
X0192951Y0202620D01*
X0192907Y0202578D01*
X0192861Y0202540D01*
X0192812Y0202504D01*
X0192761Y0202471D01*
X0192709Y0202442D01*
X0192654Y0202415D01*
X0192599Y0202392D01*
X0192542Y0202372D01*
X0192483Y0202356D01*
X0192424Y0202343D01*
X0192365Y0202334D01*
X0192304Y0202329D01*
X0192244Y0202327D01*
X0174244Y0202327D01*
X0174184Y0202329D01*
X0174123Y0202334D01*
X0174064Y0202343D01*
X0174005Y0202356D01*
X0173946Y0202372D01*
X0173889Y0202392D01*
X0173834Y0202415D01*
X0173779Y0202442D01*
X0173727Y0202471D01*
X0173676Y0202504D01*
X0173627Y0202540D01*
X0173581Y0202578D01*
X0173537Y0202620D01*
X0173495Y0202664D01*
X0173457Y0202710D01*
X0173421Y0202759D01*
X0173388Y0202810D01*
X0173359Y0202862D01*
X0173332Y0202917D01*
X0173309Y0202972D01*
X0173289Y0203029D01*
X0173273Y0203088D01*
X0173260Y0203147D01*
X0173251Y0203206D01*
X0173246Y0203267D01*
X0173244Y0203327D01*
X0173244Y0230327D01*
X0173246Y0230387D01*
X0173251Y0230448D01*
X0173260Y0230507D01*
X0173273Y0230566D01*
X0173289Y0230625D01*
X0173309Y0230682D01*
X0173332Y0230737D01*
X0173359Y0230792D01*
X0173388Y0230844D01*
X0173421Y0230895D01*
X0173457Y0230944D01*
X0173495Y0230990D01*
X0173537Y0231034D01*
X0173581Y0231076D01*
X0173627Y0231114D01*
X0173676Y0231150D01*
X0173727Y0231183D01*
X0173779Y0231212D01*
X0173834Y0231239D01*
X0173889Y0231262D01*
X0173946Y0231282D01*
X0174005Y0231298D01*
X0174064Y0231311D01*
X0174123Y0231320D01*
X0174184Y0231325D01*
X0174244Y0231327D01*
X0183244Y0222827D02*
X0183244Y0218027D01*
X0183244Y0215527D02*
X0183244Y0210827D01*
X0119374Y0067614D02*
X0119374Y0018614D01*
X0115874Y0018614D01*
X0115874Y0012614D01*
X0119374Y0012614D01*
X0119374Y0005114D01*
X0078374Y0005114D01*
X0078374Y0012614D01*
X0081874Y0012614D01*
X0081874Y0018614D01*
X0078374Y0018614D01*
X0078374Y0067614D01*
X0119374Y0067614D01*
X0091774Y0018614D02*
X0091776Y0018788D01*
X0091783Y0018962D01*
X0091793Y0019136D01*
X0091808Y0019310D01*
X0091827Y0019483D01*
X0091851Y0019656D01*
X0091879Y0019828D01*
X0091910Y0019999D01*
X0091947Y0020170D01*
X0091987Y0020339D01*
X0092031Y0020508D01*
X0092080Y0020675D01*
X0092132Y0020841D01*
X0092189Y0021006D01*
X0092250Y0021169D01*
X0092314Y0021331D01*
X0092383Y0021491D01*
X0092456Y0021650D01*
X0092532Y0021806D01*
X0092612Y0021961D01*
X0092696Y0022114D01*
X0092784Y0022264D01*
X0092876Y0022412D01*
X0092971Y0022559D01*
X0093069Y0022702D01*
X0093171Y0022843D01*
X0093277Y0022982D01*
X0093386Y0023118D01*
X0093498Y0023252D01*
X0093613Y0023382D01*
X0093732Y0023510D01*
X0093854Y0023634D01*
X0093978Y0023756D01*
X0094106Y0023875D01*
X0094236Y0023990D01*
X0094370Y0024102D01*
X0094506Y0024211D01*
X0094645Y0024317D01*
X0094786Y0024419D01*
X0094929Y0024517D01*
X0095076Y0024612D01*
X0095224Y0024704D01*
X0095374Y0024792D01*
X0095527Y0024876D01*
X0095682Y0024956D01*
X0095838Y0025032D01*
X0095997Y0025105D01*
X0096157Y0025174D01*
X0096319Y0025238D01*
X0096482Y0025299D01*
X0096647Y0025356D01*
X0096813Y0025408D01*
X0096980Y0025457D01*
X0097149Y0025501D01*
X0097318Y0025541D01*
X0097489Y0025578D01*
X0097660Y0025609D01*
X0097832Y0025637D01*
X0098005Y0025661D01*
X0098178Y0025680D01*
X0098352Y0025695D01*
X0098526Y0025705D01*
X0098700Y0025712D01*
X0098874Y0025714D01*
X0099048Y0025712D01*
X0099222Y0025705D01*
X0099396Y0025695D01*
X0099570Y0025680D01*
X0099743Y0025661D01*
X0099916Y0025637D01*
X0100088Y0025609D01*
X0100259Y0025578D01*
X0100430Y0025541D01*
X0100599Y0025501D01*
X0100768Y0025457D01*
X0100935Y0025408D01*
X0101101Y0025356D01*
X0101266Y0025299D01*
X0101429Y0025238D01*
X0101591Y0025174D01*
X0101751Y0025105D01*
X0101910Y0025032D01*
X0102066Y0024956D01*
X0102221Y0024876D01*
X0102374Y0024792D01*
X0102524Y0024704D01*
X0102672Y0024612D01*
X0102819Y0024517D01*
X0102962Y0024419D01*
X0103103Y0024317D01*
X0103242Y0024211D01*
X0103378Y0024102D01*
X0103512Y0023990D01*
X0103642Y0023875D01*
X0103770Y0023756D01*
X0103894Y0023634D01*
X0104016Y0023510D01*
X0104135Y0023382D01*
X0104250Y0023252D01*
X0104362Y0023118D01*
X0104471Y0022982D01*
X0104577Y0022843D01*
X0104679Y0022702D01*
X0104777Y0022559D01*
X0104872Y0022412D01*
X0104964Y0022264D01*
X0105052Y0022114D01*
X0105136Y0021961D01*
X0105216Y0021806D01*
X0105292Y0021650D01*
X0105365Y0021491D01*
X0105434Y0021331D01*
X0105498Y0021169D01*
X0105559Y0021006D01*
X0105616Y0020841D01*
X0105668Y0020675D01*
X0105717Y0020508D01*
X0105761Y0020339D01*
X0105801Y0020170D01*
X0105838Y0019999D01*
X0105869Y0019828D01*
X0105897Y0019656D01*
X0105921Y0019483D01*
X0105940Y0019310D01*
X0105955Y0019136D01*
X0105965Y0018962D01*
X0105972Y0018788D01*
X0105974Y0018614D01*
X0105972Y0018440D01*
X0105965Y0018266D01*
X0105955Y0018092D01*
X0105940Y0017918D01*
X0105921Y0017745D01*
X0105897Y0017572D01*
X0105869Y0017400D01*
X0105838Y0017229D01*
X0105801Y0017058D01*
X0105761Y0016889D01*
X0105717Y0016720D01*
X0105668Y0016553D01*
X0105616Y0016387D01*
X0105559Y0016222D01*
X0105498Y0016059D01*
X0105434Y0015897D01*
X0105365Y0015737D01*
X0105292Y0015578D01*
X0105216Y0015422D01*
X0105136Y0015267D01*
X0105052Y0015114D01*
X0104964Y0014964D01*
X0104872Y0014816D01*
X0104777Y0014669D01*
X0104679Y0014526D01*
X0104577Y0014385D01*
X0104471Y0014246D01*
X0104362Y0014110D01*
X0104250Y0013976D01*
X0104135Y0013846D01*
X0104016Y0013718D01*
X0103894Y0013594D01*
X0103770Y0013472D01*
X0103642Y0013353D01*
X0103512Y0013238D01*
X0103378Y0013126D01*
X0103242Y0013017D01*
X0103103Y0012911D01*
X0102962Y0012809D01*
X0102819Y0012711D01*
X0102672Y0012616D01*
X0102524Y0012524D01*
X0102374Y0012436D01*
X0102221Y0012352D01*
X0102066Y0012272D01*
X0101910Y0012196D01*
X0101751Y0012123D01*
X0101591Y0012054D01*
X0101429Y0011990D01*
X0101266Y0011929D01*
X0101101Y0011872D01*
X0100935Y0011820D01*
X0100768Y0011771D01*
X0100599Y0011727D01*
X0100430Y0011687D01*
X0100259Y0011650D01*
X0100088Y0011619D01*
X0099916Y0011591D01*
X0099743Y0011567D01*
X0099570Y0011548D01*
X0099396Y0011533D01*
X0099222Y0011523D01*
X0099048Y0011516D01*
X0098874Y0011514D01*
X0098700Y0011516D01*
X0098526Y0011523D01*
X0098352Y0011533D01*
X0098178Y0011548D01*
X0098005Y0011567D01*
X0097832Y0011591D01*
X0097660Y0011619D01*
X0097489Y0011650D01*
X0097318Y0011687D01*
X0097149Y0011727D01*
X0096980Y0011771D01*
X0096813Y0011820D01*
X0096647Y0011872D01*
X0096482Y0011929D01*
X0096319Y0011990D01*
X0096157Y0012054D01*
X0095997Y0012123D01*
X0095838Y0012196D01*
X0095682Y0012272D01*
X0095527Y0012352D01*
X0095374Y0012436D01*
X0095224Y0012524D01*
X0095076Y0012616D01*
X0094929Y0012711D01*
X0094786Y0012809D01*
X0094645Y0012911D01*
X0094506Y0013017D01*
X0094370Y0013126D01*
X0094236Y0013238D01*
X0094106Y0013353D01*
X0093978Y0013472D01*
X0093854Y0013594D01*
X0093732Y0013718D01*
X0093613Y0013846D01*
X0093498Y0013976D01*
X0093386Y0014110D01*
X0093277Y0014246D01*
X0093171Y0014385D01*
X0093069Y0014526D01*
X0092971Y0014669D01*
X0092876Y0014816D01*
X0092784Y0014964D01*
X0092696Y0015114D01*
X0092612Y0015267D01*
X0092532Y0015422D01*
X0092456Y0015578D01*
X0092383Y0015737D01*
X0092314Y0015897D01*
X0092250Y0016059D01*
X0092189Y0016222D01*
X0092132Y0016387D01*
X0092080Y0016553D01*
X0092031Y0016720D01*
X0091987Y0016889D01*
X0091947Y0017058D01*
X0091910Y0017229D01*
X0091879Y0017400D01*
X0091851Y0017572D01*
X0091827Y0017745D01*
X0091808Y0017918D01*
X0091793Y0018092D01*
X0091783Y0018266D01*
X0091776Y0018440D01*
X0091774Y0018614D01*
X0040347Y0135537D02*
X0040345Y0135581D01*
X0040339Y0135624D01*
X0040330Y0135666D01*
X0040317Y0135708D01*
X0040300Y0135748D01*
X0040280Y0135787D01*
X0040257Y0135824D01*
X0040230Y0135858D01*
X0040201Y0135891D01*
X0040168Y0135920D01*
X0040134Y0135947D01*
X0040097Y0135970D01*
X0040058Y0135990D01*
X0040018Y0136007D01*
X0039976Y0136020D01*
X0039934Y0136029D01*
X0039891Y0136035D01*
X0039847Y0136037D01*
X0039803Y0136035D01*
X0039760Y0136029D01*
X0039718Y0136020D01*
X0039676Y0136007D01*
X0039636Y0135990D01*
X0039597Y0135970D01*
X0039560Y0135947D01*
X0039526Y0135920D01*
X0039493Y0135891D01*
X0039464Y0135858D01*
X0039437Y0135824D01*
X0039414Y0135787D01*
X0039394Y0135748D01*
X0039377Y0135708D01*
X0039364Y0135666D01*
X0039355Y0135624D01*
X0039349Y0135581D01*
X0039347Y0135537D01*
X0039349Y0135493D01*
X0039355Y0135450D01*
X0039364Y0135408D01*
X0039377Y0135366D01*
X0039394Y0135326D01*
X0039414Y0135287D01*
X0039437Y0135250D01*
X0039464Y0135216D01*
X0039493Y0135183D01*
X0039526Y0135154D01*
X0039560Y0135127D01*
X0039597Y0135104D01*
X0039636Y0135084D01*
X0039676Y0135067D01*
X0039718Y0135054D01*
X0039760Y0135045D01*
X0039803Y0135039D01*
X0039847Y0135037D01*
X0039891Y0135039D01*
X0039934Y0135045D01*
X0039976Y0135054D01*
X0040018Y0135067D01*
X0040058Y0135084D01*
X0040097Y0135104D01*
X0040134Y0135127D01*
X0040168Y0135154D01*
X0040201Y0135183D01*
X0040230Y0135216D01*
X0040257Y0135250D01*
X0040280Y0135287D01*
X0040300Y0135326D01*
X0040317Y0135366D01*
X0040330Y0135408D01*
X0040339Y0135450D01*
X0040345Y0135493D01*
X0040347Y0135537D01*
X0044347Y0142137D02*
X0044347Y0157737D01*
X0071747Y0157737D01*
X0071747Y0142137D01*
X0044347Y0142137D01*
D15*
X0083390Y0154675D02*
X0083390Y0155943D01*
X0084023Y0156577D01*
X0084657Y0155943D01*
X0084657Y0154675D01*
X0084657Y0155626D02*
X0083390Y0155626D01*
X0085599Y0156577D02*
X0086867Y0156577D01*
X0086233Y0156577D02*
X0086233Y0154675D01*
X0087809Y0154675D02*
X0087809Y0156577D01*
X0088443Y0155943D01*
X0089077Y0156577D01*
X0089077Y0154675D01*
X0090019Y0154675D02*
X0091287Y0154675D01*
X0092229Y0154992D02*
X0092546Y0154675D01*
X0093180Y0154675D01*
X0093497Y0154992D01*
X0093497Y0155626D01*
X0092863Y0155626D01*
X0093497Y0156260D02*
X0093180Y0156577D01*
X0092546Y0156577D01*
X0092229Y0156260D01*
X0092229Y0154992D01*
X0090653Y0155626D02*
X0090019Y0155626D01*
X0090019Y0156577D02*
X0090019Y0154675D01*
X0090019Y0156577D02*
X0091287Y0156577D01*
X0094439Y0155943D02*
X0094439Y0154675D01*
X0094439Y0155626D02*
X0095707Y0155626D01*
X0095707Y0155943D02*
X0095707Y0154675D01*
X0096649Y0154992D02*
X0096966Y0154675D01*
X0097600Y0154675D01*
X0097917Y0154992D01*
X0097917Y0155309D01*
X0097600Y0155626D01*
X0097283Y0155626D01*
X0097600Y0155626D02*
X0097917Y0155943D01*
X0097917Y0156260D01*
X0097600Y0156577D01*
X0096966Y0156577D01*
X0096649Y0156260D01*
X0095707Y0155943D02*
X0095073Y0156577D01*
X0094439Y0155943D01*
X0098859Y0156260D02*
X0099176Y0156577D01*
X0099810Y0156577D01*
X0100126Y0156260D01*
X0100126Y0155943D01*
X0098859Y0154675D01*
X0100126Y0154675D01*
X0101069Y0154992D02*
X0101069Y0155309D01*
X0101386Y0155626D01*
X0102019Y0155626D01*
X0102336Y0155309D01*
X0102336Y0154992D01*
X0102019Y0154675D01*
X0101386Y0154675D01*
X0101069Y0154992D01*
X0101386Y0155626D02*
X0101069Y0155943D01*
X0101069Y0156260D01*
X0101386Y0156577D01*
X0102019Y0156577D01*
X0102336Y0156260D01*
X0102336Y0155943D01*
X0102019Y0155626D01*
X0103278Y0155309D02*
X0104229Y0155309D01*
X0104546Y0155626D01*
X0104546Y0156260D01*
X0104229Y0156577D01*
X0103278Y0156577D01*
X0103278Y0154675D01*
X0118445Y0154594D02*
X0118445Y0153326D01*
X0120347Y0153326D01*
X0120347Y0154594D01*
X0120347Y0155536D02*
X0118445Y0155536D01*
X0118445Y0156487D01*
X0118762Y0156804D01*
X0119396Y0156804D01*
X0119713Y0156487D01*
X0119713Y0155536D01*
X0119713Y0156170D02*
X0120347Y0156804D01*
X0119396Y0153960D02*
X0119396Y0153326D01*
X0118762Y0152384D02*
X0118445Y0152067D01*
X0118445Y0151116D01*
X0120347Y0151116D01*
X0120347Y0152067D01*
X0120030Y0152384D01*
X0118762Y0152384D01*
X0119079Y0150174D02*
X0120347Y0150174D01*
X0119396Y0150174D02*
X0119396Y0148906D01*
X0119079Y0148906D02*
X0118445Y0149540D01*
X0119079Y0150174D01*
X0119079Y0148906D02*
X0120347Y0148906D01*
X0120347Y0147964D02*
X0120347Y0146697D01*
X0118445Y0146697D01*
X0118445Y0147964D01*
X0119396Y0147330D02*
X0119396Y0146697D01*
X0119396Y0145754D02*
X0119713Y0145438D01*
X0119713Y0144487D01*
X0119713Y0145121D02*
X0120347Y0145754D01*
X0119396Y0145754D02*
X0118762Y0145754D01*
X0118445Y0145438D01*
X0118445Y0144487D01*
X0120347Y0144487D01*
X0120664Y0143545D02*
X0120664Y0142277D01*
X0120030Y0141335D02*
X0118762Y0141335D01*
X0118445Y0141018D01*
X0118445Y0140067D01*
X0120347Y0140067D01*
X0120347Y0141018D01*
X0120030Y0141335D01*
X0120030Y0139125D02*
X0120347Y0138808D01*
X0120347Y0138174D01*
X0120030Y0137857D01*
X0119396Y0138174D02*
X0119396Y0138808D01*
X0119713Y0139125D01*
X0120030Y0139125D01*
X0119396Y0138174D02*
X0119079Y0137857D01*
X0118762Y0137857D01*
X0118445Y0138174D01*
X0118445Y0138808D01*
X0118762Y0139125D01*
X0131945Y0138808D02*
X0132262Y0139125D01*
X0132896Y0139125D01*
X0133213Y0138808D01*
X0133213Y0137857D01*
X0133847Y0137857D02*
X0131945Y0137857D01*
X0131945Y0138808D01*
X0131945Y0140067D02*
X0131945Y0141018D01*
X0132262Y0141335D01*
X0133530Y0141335D01*
X0133847Y0141018D01*
X0133847Y0140067D01*
X0131945Y0140067D01*
X0133213Y0138491D02*
X0133847Y0139125D01*
X0133847Y0136915D02*
X0132579Y0136915D01*
X0131945Y0136281D01*
X0132579Y0135647D01*
X0133847Y0135647D01*
X0132896Y0135647D02*
X0132896Y0136915D01*
X0132262Y0134705D02*
X0131945Y0134388D01*
X0131945Y0133754D01*
X0132262Y0133437D01*
X0133530Y0133437D01*
X0133847Y0133754D01*
X0133847Y0134388D01*
X0133530Y0134705D01*
X0133530Y0132495D02*
X0132262Y0132495D01*
X0131945Y0132178D01*
X0131945Y0131227D01*
X0133847Y0131227D01*
X0133847Y0132178D01*
X0133530Y0132495D01*
X0133530Y0130285D02*
X0133847Y0129968D01*
X0133847Y0129334D01*
X0133530Y0129018D01*
X0132896Y0129334D02*
X0132896Y0129968D01*
X0133213Y0130285D01*
X0133530Y0130285D01*
X0132896Y0129334D02*
X0132579Y0129018D01*
X0132262Y0129018D01*
X0131945Y0129334D01*
X0131945Y0129968D01*
X0132262Y0130285D01*
X0134164Y0142277D02*
X0134164Y0143545D01*
X0133847Y0144487D02*
X0131945Y0144487D01*
X0131945Y0145437D01*
X0132262Y0145754D01*
X0132896Y0145754D01*
X0133213Y0145437D01*
X0133213Y0144487D01*
X0133213Y0145121D02*
X0133847Y0145754D01*
X0133847Y0146697D02*
X0133847Y0147964D01*
X0133847Y0148906D02*
X0132579Y0148906D01*
X0131945Y0149540D01*
X0132579Y0150174D01*
X0133847Y0150174D01*
X0133847Y0151116D02*
X0133847Y0152067D01*
X0133530Y0152384D01*
X0132262Y0152384D01*
X0131945Y0152067D01*
X0131945Y0151116D01*
X0133847Y0151116D01*
X0132896Y0150174D02*
X0132896Y0148906D01*
X0131945Y0147964D02*
X0131945Y0146697D01*
X0133847Y0146697D01*
X0132896Y0146697D02*
X0132896Y0147330D01*
X0132896Y0153326D02*
X0132896Y0153960D01*
X0131945Y0153326D02*
X0133847Y0153326D01*
X0133847Y0154594D01*
X0133847Y0155536D02*
X0131945Y0155536D01*
X0131945Y0156487D01*
X0132262Y0156804D01*
X0132896Y0156804D01*
X0133213Y0156487D01*
X0133213Y0155536D01*
X0133213Y0156170D02*
X0133847Y0156804D01*
X0131945Y0154594D02*
X0131945Y0153326D01*
X0155423Y0174352D02*
X0156374Y0174352D01*
X0156691Y0174669D01*
X0156691Y0174986D01*
X0156374Y0175303D01*
X0155423Y0175303D01*
X0155423Y0174352D02*
X0155423Y0176254D01*
X0156374Y0176254D01*
X0156691Y0175937D01*
X0156691Y0175620D01*
X0156374Y0175303D01*
X0157633Y0174352D02*
X0158901Y0174352D01*
X0159843Y0174669D02*
X0160160Y0174352D01*
X0160794Y0174352D01*
X0161111Y0174669D01*
X0161111Y0176254D01*
X0162053Y0176254D02*
X0162053Y0174352D01*
X0163321Y0174352D01*
X0162687Y0175303D02*
X0162053Y0175303D01*
X0162053Y0176254D02*
X0163321Y0176254D01*
X0164263Y0176254D02*
X0165530Y0176254D01*
X0164897Y0176254D02*
X0164897Y0174352D01*
X0166473Y0174669D02*
X0166790Y0174352D01*
X0167423Y0174352D01*
X0167740Y0174669D01*
X0167740Y0175937D01*
X0167423Y0176254D01*
X0166790Y0176254D01*
X0166473Y0175937D01*
X0166473Y0174669D01*
X0168683Y0174669D02*
X0168999Y0174352D01*
X0169633Y0174352D01*
X0169950Y0174669D01*
X0169950Y0175937D01*
X0169633Y0176254D01*
X0168999Y0176254D01*
X0168683Y0175937D01*
X0168683Y0174669D01*
X0170892Y0176254D02*
X0172160Y0176254D01*
X0171526Y0176254D02*
X0171526Y0174352D01*
X0173102Y0174352D02*
X0173102Y0176254D01*
X0173102Y0175303D02*
X0174370Y0175303D01*
X0174370Y0176254D02*
X0174370Y0174352D01*
X0165214Y0187852D02*
X0164580Y0187852D01*
X0164263Y0188169D01*
X0164263Y0188803D02*
X0164897Y0189120D01*
X0165214Y0189120D01*
X0165530Y0188803D01*
X0165530Y0188169D01*
X0165214Y0187852D01*
X0164263Y0188803D02*
X0164263Y0189754D01*
X0165530Y0189754D01*
X0163321Y0189437D02*
X0162053Y0188169D01*
X0162370Y0187852D01*
X0163004Y0187852D01*
X0163321Y0188169D01*
X0163321Y0189437D01*
X0163004Y0189754D01*
X0162370Y0189754D01*
X0162053Y0189437D01*
X0162053Y0188169D01*
X0161111Y0188803D02*
X0159843Y0188803D01*
X0158901Y0188169D02*
X0158584Y0187852D01*
X0157950Y0187852D01*
X0157633Y0188169D01*
X0157633Y0189437D01*
X0157950Y0189754D01*
X0158584Y0189754D01*
X0158901Y0189437D01*
X0156691Y0189754D02*
X0156691Y0187852D01*
X0156691Y0188803D02*
X0155423Y0188803D01*
X0155423Y0187852D02*
X0155423Y0189754D01*
X0157633Y0176254D02*
X0157633Y0174352D01*
X0159843Y0174669D02*
X0159843Y0176254D01*
X0195741Y0221369D02*
X0198743Y0221369D01*
X0199494Y0222120D01*
X0199494Y0223621D01*
X0198743Y0224371D01*
X0197242Y0225973D02*
X0197242Y0228975D01*
X0194990Y0228225D02*
X0197242Y0225973D01*
X0195741Y0224371D02*
X0194990Y0223621D01*
X0194990Y0222120D01*
X0195741Y0221369D01*
X0194990Y0228225D02*
X0199494Y0228225D01*
X0180107Y0252725D02*
X0178205Y0252725D01*
X0178205Y0253993D01*
X0178522Y0254935D02*
X0178839Y0254935D01*
X0179156Y0255252D01*
X0179156Y0255886D01*
X0179473Y0256203D01*
X0179790Y0256203D01*
X0180107Y0255886D01*
X0180107Y0255252D01*
X0179790Y0254935D01*
X0178522Y0254935D02*
X0178205Y0255252D01*
X0178205Y0255886D01*
X0178522Y0256203D01*
X0178205Y0257145D02*
X0178205Y0258096D01*
X0178522Y0258413D01*
X0179156Y0258413D01*
X0179473Y0258096D01*
X0179473Y0257145D01*
X0180107Y0257145D02*
X0178205Y0257145D01*
X0179473Y0257779D02*
X0180107Y0258413D01*
X0180107Y0259355D02*
X0180107Y0260623D01*
X0180107Y0259989D02*
X0178205Y0259989D01*
X0178839Y0259355D01*
X0179156Y0253359D02*
X0179156Y0252725D01*
X0196174Y0300070D02*
X0199177Y0300070D01*
X0199927Y0300820D01*
X0199927Y0302322D01*
X0199177Y0303072D01*
X0199177Y0304674D02*
X0199927Y0305424D01*
X0199927Y0306926D01*
X0199177Y0307676D01*
X0197675Y0307676D01*
X0196925Y0306926D01*
X0196925Y0306175D01*
X0197675Y0304674D01*
X0195423Y0304674D01*
X0195423Y0307676D01*
X0196174Y0303072D02*
X0195423Y0302322D01*
X0195423Y0300820D01*
X0196174Y0300070D01*
X0180540Y0331977D02*
X0178638Y0331977D01*
X0178638Y0333245D01*
X0178955Y0334187D02*
X0179272Y0334187D01*
X0179589Y0334504D01*
X0179589Y0335138D01*
X0179906Y0335455D01*
X0180223Y0335455D01*
X0180540Y0335138D01*
X0180540Y0334504D01*
X0180223Y0334187D01*
X0178955Y0334187D02*
X0178638Y0334504D01*
X0178638Y0335138D01*
X0178955Y0335455D01*
X0178638Y0336397D02*
X0178638Y0337348D01*
X0178955Y0337665D01*
X0179589Y0337665D01*
X0179906Y0337348D01*
X0179906Y0336397D01*
X0180540Y0336397D02*
X0178638Y0336397D01*
X0179906Y0337031D02*
X0180540Y0337665D01*
X0180540Y0338607D02*
X0179272Y0339875D01*
X0178955Y0339875D01*
X0178638Y0339558D01*
X0178638Y0338924D01*
X0178955Y0338607D01*
X0180540Y0338607D02*
X0180540Y0339875D01*
X0179589Y0332611D02*
X0179589Y0331977D01*
X0123863Y0336004D02*
X0122595Y0336004D01*
X0123229Y0336004D02*
X0123229Y0334102D01*
X0121653Y0334102D02*
X0121019Y0334736D01*
X0121336Y0334736D02*
X0120385Y0334736D01*
X0120385Y0334102D02*
X0120385Y0336004D01*
X0121336Y0336004D01*
X0121653Y0335687D01*
X0121653Y0335053D01*
X0121336Y0334736D01*
X0119443Y0335053D02*
X0118175Y0335053D01*
X0118175Y0335370D02*
X0118809Y0336004D01*
X0119443Y0335370D01*
X0119443Y0334102D01*
X0118175Y0334102D02*
X0118175Y0335370D01*
X0117233Y0336004D02*
X0115966Y0336004D01*
X0116599Y0336004D02*
X0116599Y0334102D01*
X0115023Y0334419D02*
X0114706Y0334102D01*
X0114073Y0334102D01*
X0113756Y0334419D01*
X0114073Y0335053D02*
X0114706Y0335053D01*
X0115023Y0334736D01*
X0115023Y0334419D01*
X0114073Y0335053D02*
X0113756Y0335370D01*
X0113756Y0335687D01*
X0114073Y0336004D01*
X0114706Y0336004D01*
X0115023Y0335687D01*
X0112814Y0336004D02*
X0111546Y0334102D01*
X0110604Y0334102D02*
X0109970Y0334736D01*
X0110287Y0334736D02*
X0109336Y0334736D01*
X0109336Y0334102D02*
X0109336Y0336004D01*
X0110287Y0336004D01*
X0110604Y0335687D01*
X0110604Y0335053D01*
X0110287Y0334736D01*
X0108497Y0334102D02*
X0107863Y0334102D01*
X0108180Y0334102D02*
X0108180Y0336004D01*
X0107863Y0336004D02*
X0108497Y0336004D01*
X0106921Y0335370D02*
X0106921Y0334102D01*
X0106921Y0335053D02*
X0105653Y0335053D01*
X0105653Y0335370D02*
X0106287Y0336004D01*
X0106921Y0335370D01*
X0105653Y0335370D02*
X0105653Y0334102D01*
X0104711Y0335053D02*
X0104394Y0334736D01*
X0103443Y0334736D01*
X0103443Y0334102D02*
X0103443Y0336004D01*
X0104394Y0336004D01*
X0104711Y0335687D01*
X0104711Y0335053D01*
X0104548Y0354502D02*
X0104548Y0356404D01*
X0105499Y0356404D01*
X0105816Y0356087D01*
X0105816Y0355453D01*
X0105499Y0355136D01*
X0104548Y0355136D01*
X0106758Y0356404D02*
X0108025Y0356404D01*
X0107392Y0356404D02*
X0107392Y0354502D01*
X0108968Y0354502D02*
X0108968Y0356404D01*
X0108968Y0355453D02*
X0110235Y0355453D01*
X0111177Y0355453D02*
X0112445Y0355453D01*
X0113387Y0355136D02*
X0114338Y0355136D01*
X0114655Y0355453D01*
X0114655Y0356087D01*
X0114338Y0356404D01*
X0113387Y0356404D01*
X0113387Y0354502D01*
X0114021Y0355136D02*
X0114655Y0354502D01*
X0115597Y0354502D02*
X0116231Y0354502D01*
X0115914Y0354502D02*
X0115914Y0356404D01*
X0115597Y0356404D02*
X0116231Y0356404D01*
X0117070Y0356087D02*
X0117070Y0354819D01*
X0117387Y0354502D01*
X0118021Y0354502D01*
X0118338Y0354819D01*
X0118338Y0355453D01*
X0117704Y0355453D01*
X0117070Y0356087D02*
X0117387Y0356404D01*
X0118021Y0356404D01*
X0118338Y0356087D01*
X0119280Y0356404D02*
X0119280Y0354502D01*
X0119280Y0355453D02*
X0120548Y0355453D01*
X0120548Y0356404D02*
X0120548Y0354502D01*
X0122124Y0354502D02*
X0122124Y0356404D01*
X0121490Y0356404D02*
X0122758Y0356404D01*
X0110235Y0356404D02*
X0110235Y0354502D01*
X0080081Y0356404D02*
X0078813Y0356404D01*
X0079447Y0356404D02*
X0079447Y0354502D01*
X0077871Y0354502D02*
X0077871Y0356404D01*
X0077871Y0355453D02*
X0076603Y0355453D01*
X0075661Y0355453D02*
X0075027Y0355453D01*
X0075661Y0355453D02*
X0075661Y0354819D01*
X0075344Y0354502D01*
X0074710Y0354502D01*
X0074393Y0354819D01*
X0074393Y0356087D01*
X0074710Y0356404D01*
X0075344Y0356404D01*
X0075661Y0356087D01*
X0076603Y0356404D02*
X0076603Y0354502D01*
X0073554Y0354502D02*
X0072920Y0354502D01*
X0073237Y0354502D02*
X0073237Y0356404D01*
X0072920Y0356404D02*
X0073554Y0356404D01*
X0071978Y0356087D02*
X0071978Y0355453D01*
X0071661Y0355136D01*
X0070710Y0355136D01*
X0070710Y0354502D02*
X0070710Y0356404D01*
X0071661Y0356404D01*
X0071978Y0356087D01*
X0071344Y0355136D02*
X0071978Y0354502D01*
X0069768Y0355453D02*
X0068500Y0355453D01*
X0067558Y0355453D02*
X0066290Y0355453D01*
X0066290Y0354502D02*
X0066290Y0356404D01*
X0065348Y0356404D02*
X0064081Y0356404D01*
X0064714Y0356404D02*
X0064714Y0354502D01*
X0063138Y0355453D02*
X0062821Y0355136D01*
X0061871Y0355136D01*
X0061871Y0354502D02*
X0061871Y0356404D01*
X0062821Y0356404D01*
X0063138Y0356087D01*
X0063138Y0355453D01*
X0067558Y0356404D02*
X0067558Y0354502D01*
X0068132Y0336004D02*
X0068132Y0334102D01*
X0069400Y0334102D01*
X0070342Y0334419D02*
X0070659Y0334102D01*
X0071293Y0334102D01*
X0071610Y0334419D01*
X0071610Y0334736D01*
X0071293Y0335053D01*
X0070659Y0335053D01*
X0070342Y0335370D01*
X0070342Y0335687D01*
X0070659Y0336004D01*
X0071293Y0336004D01*
X0071610Y0335687D01*
X0072552Y0336004D02*
X0072552Y0334102D01*
X0073820Y0334102D01*
X0073186Y0335053D02*
X0072552Y0335053D01*
X0072552Y0336004D02*
X0073820Y0336004D01*
X0074762Y0336004D02*
X0076029Y0336004D01*
X0075396Y0336004D02*
X0075396Y0334102D01*
X0069400Y0336004D02*
X0068132Y0336004D01*
X0068132Y0335053D02*
X0068766Y0335053D01*
X0067190Y0335053D02*
X0066873Y0334736D01*
X0065922Y0334736D01*
X0066556Y0334736D02*
X0067190Y0334102D01*
X0067190Y0335053D02*
X0067190Y0335687D01*
X0066873Y0336004D01*
X0065922Y0336004D01*
X0065922Y0334102D01*
X0059250Y0326612D02*
X0057982Y0326612D01*
X0058616Y0326612D02*
X0058616Y0328514D01*
X0057982Y0327880D01*
X0057040Y0328197D02*
X0057040Y0327563D01*
X0056723Y0327246D01*
X0055772Y0327246D01*
X0055772Y0326612D02*
X0055772Y0328514D01*
X0056723Y0328514D01*
X0057040Y0328197D01*
X0056406Y0327246D02*
X0057040Y0326612D01*
X0058299Y0320114D02*
X0057982Y0319797D01*
X0057982Y0318529D01*
X0058299Y0318212D01*
X0058933Y0318212D01*
X0059250Y0318529D01*
X0059250Y0319797D01*
X0058933Y0320114D01*
X0058299Y0320114D01*
X0060192Y0320114D02*
X0060192Y0318212D01*
X0060192Y0319163D02*
X0060509Y0319480D01*
X0061143Y0319480D01*
X0061460Y0319163D01*
X0061460Y0318212D01*
X0062402Y0318212D02*
X0062402Y0319480D01*
X0062719Y0319480D01*
X0063036Y0319163D01*
X0063353Y0319480D01*
X0063670Y0319163D01*
X0063670Y0318212D01*
X0063036Y0318212D02*
X0063036Y0319163D01*
X0060316Y0316506D02*
X0059048Y0316506D01*
X0059048Y0315555D01*
X0059682Y0315872D01*
X0059999Y0315872D01*
X0060316Y0315555D01*
X0060316Y0314921D01*
X0059999Y0314604D01*
X0059365Y0314604D01*
X0059048Y0314921D01*
X0058106Y0314604D02*
X0056838Y0314604D01*
X0057472Y0314604D02*
X0057472Y0316506D01*
X0056838Y0315872D01*
X0055896Y0315555D02*
X0055579Y0315238D01*
X0054628Y0315238D01*
X0054628Y0314604D02*
X0054628Y0316506D01*
X0055579Y0316506D01*
X0055896Y0316189D01*
X0055896Y0315555D01*
X0055262Y0315238D02*
X0055896Y0314604D01*
X0054513Y0318212D02*
X0053879Y0318212D01*
X0053562Y0318529D01*
X0053562Y0318846D01*
X0053879Y0319163D01*
X0054513Y0319163D01*
X0054830Y0318846D01*
X0054830Y0318529D01*
X0054513Y0318212D01*
X0054513Y0319163D02*
X0054830Y0319480D01*
X0054830Y0319797D01*
X0054513Y0320114D01*
X0053879Y0320114D01*
X0053562Y0319797D01*
X0053562Y0319480D01*
X0053879Y0319163D01*
X0052620Y0318846D02*
X0052303Y0319163D01*
X0051353Y0319163D01*
X0051353Y0318529D01*
X0051670Y0318212D01*
X0052303Y0318212D01*
X0052620Y0318529D01*
X0052620Y0318846D01*
X0051986Y0319797D02*
X0051353Y0319163D01*
X0051986Y0319797D02*
X0052620Y0320114D01*
X0052581Y0308106D02*
X0051947Y0307789D01*
X0051313Y0307155D01*
X0052264Y0307155D01*
X0052581Y0306838D01*
X0052581Y0306521D01*
X0052264Y0306204D01*
X0051630Y0306204D01*
X0051313Y0306521D01*
X0051313Y0307155D01*
X0053523Y0306838D02*
X0053840Y0307155D01*
X0054474Y0307155D01*
X0054791Y0306838D01*
X0054791Y0306521D01*
X0054474Y0306204D01*
X0053840Y0306204D01*
X0053523Y0306521D01*
X0053523Y0306838D01*
X0053840Y0307155D02*
X0053523Y0307472D01*
X0053523Y0307789D01*
X0053840Y0308106D01*
X0054474Y0308106D01*
X0054791Y0307789D01*
X0054791Y0307472D01*
X0054474Y0307155D01*
X0057943Y0307789D02*
X0057943Y0306521D01*
X0058260Y0306204D01*
X0058894Y0306204D01*
X0059211Y0306521D01*
X0059211Y0307789D01*
X0058894Y0308106D01*
X0058260Y0308106D01*
X0057943Y0307789D01*
X0060153Y0308106D02*
X0060153Y0306204D01*
X0060153Y0307155D02*
X0060470Y0307472D01*
X0061104Y0307472D01*
X0061421Y0307155D01*
X0061421Y0306204D01*
X0062363Y0306204D02*
X0062363Y0307472D01*
X0062680Y0307472D01*
X0062997Y0307155D01*
X0063313Y0307472D01*
X0063630Y0307155D01*
X0063630Y0306204D01*
X0062997Y0306204D02*
X0062997Y0307155D01*
X0078233Y0304077D02*
X0078233Y0302175D01*
X0079501Y0302175D02*
X0079501Y0304077D01*
X0078867Y0303443D01*
X0078233Y0304077D01*
X0080443Y0304077D02*
X0081077Y0304077D01*
X0080760Y0304077D02*
X0080760Y0302175D01*
X0080443Y0302175D02*
X0081077Y0302175D01*
X0081916Y0302492D02*
X0081916Y0303760D01*
X0082233Y0304077D01*
X0082867Y0304077D01*
X0083184Y0303760D01*
X0084126Y0304077D02*
X0084126Y0302175D01*
X0084126Y0302809D02*
X0085077Y0302809D01*
X0085394Y0303126D01*
X0085394Y0303760D01*
X0085077Y0304077D01*
X0084126Y0304077D01*
X0084760Y0302809D02*
X0085394Y0302175D01*
X0086336Y0302492D02*
X0086336Y0303760D01*
X0086653Y0304077D01*
X0087287Y0304077D01*
X0087604Y0303760D01*
X0087604Y0302492D01*
X0087287Y0302175D01*
X0086653Y0302175D01*
X0086336Y0302492D01*
X0088546Y0302492D02*
X0088863Y0302175D01*
X0089497Y0302175D01*
X0089814Y0302492D01*
X0090756Y0302492D02*
X0091073Y0302175D01*
X0091707Y0302175D01*
X0092024Y0302492D01*
X0092024Y0303760D01*
X0091707Y0304077D01*
X0091073Y0304077D01*
X0090756Y0303760D01*
X0090756Y0302492D01*
X0089814Y0303760D02*
X0089497Y0304077D01*
X0088863Y0304077D01*
X0088546Y0303760D01*
X0088546Y0302492D01*
X0092966Y0302175D02*
X0092966Y0304077D01*
X0094233Y0302175D01*
X0094233Y0304077D01*
X0095176Y0304077D02*
X0096443Y0304077D01*
X0095809Y0304077D02*
X0095809Y0302175D01*
X0097385Y0302175D02*
X0097385Y0304077D01*
X0098336Y0304077D01*
X0098653Y0303760D01*
X0098653Y0303126D01*
X0098336Y0302809D01*
X0097385Y0302809D01*
X0098019Y0302809D02*
X0098653Y0302175D01*
X0099595Y0302492D02*
X0099912Y0302175D01*
X0100546Y0302175D01*
X0100863Y0302492D01*
X0100863Y0303760D01*
X0100546Y0304077D01*
X0099912Y0304077D01*
X0099595Y0303760D01*
X0099595Y0302492D01*
X0101805Y0302175D02*
X0101805Y0304077D01*
X0101805Y0302175D02*
X0103073Y0302175D01*
X0104015Y0302175D02*
X0104015Y0304077D01*
X0104015Y0302175D02*
X0105283Y0302175D01*
X0106225Y0302175D02*
X0106225Y0304077D01*
X0107493Y0304077D01*
X0108435Y0304077D02*
X0108435Y0302175D01*
X0108435Y0302809D02*
X0109386Y0302809D01*
X0109703Y0303126D01*
X0109703Y0303760D01*
X0109386Y0304077D01*
X0108435Y0304077D01*
X0109069Y0302809D02*
X0109703Y0302175D01*
X0107493Y0302175D02*
X0106225Y0302175D01*
X0106225Y0303126D02*
X0106859Y0303126D01*
X0083184Y0302492D02*
X0082867Y0302175D01*
X0082233Y0302175D01*
X0081916Y0302492D01*
X0059452Y0253396D02*
X0058184Y0253396D01*
X0058184Y0251494D01*
X0058184Y0252445D02*
X0058818Y0252445D01*
X0057242Y0252445D02*
X0057242Y0251811D01*
X0056925Y0251494D01*
X0055974Y0251494D01*
X0055974Y0250860D02*
X0055974Y0252762D01*
X0056925Y0252762D01*
X0057242Y0252445D01*
X0055032Y0252762D02*
X0055032Y0253079D01*
X0054715Y0253396D01*
X0054081Y0253396D01*
X0053765Y0253079D01*
X0052822Y0253079D02*
X0052505Y0253396D01*
X0051872Y0253396D01*
X0051555Y0253079D01*
X0052822Y0253079D02*
X0052822Y0252762D01*
X0051555Y0251494D01*
X0052822Y0251494D01*
X0053765Y0251494D02*
X0055032Y0252762D01*
X0055032Y0251494D02*
X0053765Y0251494D01*
X0053610Y0244996D02*
X0052977Y0244996D01*
X0052660Y0244679D01*
X0052660Y0243411D01*
X0052977Y0243094D01*
X0053610Y0243094D01*
X0053927Y0243411D01*
X0054869Y0243094D02*
X0056137Y0243094D01*
X0055503Y0243094D02*
X0055503Y0244996D01*
X0054869Y0244362D01*
X0053927Y0244679D02*
X0053610Y0244996D01*
X0057079Y0244679D02*
X0057396Y0244996D01*
X0058030Y0244996D01*
X0058347Y0244679D01*
X0058347Y0244362D01*
X0058030Y0244045D01*
X0058347Y0243728D01*
X0058347Y0243411D01*
X0058030Y0243094D01*
X0057396Y0243094D01*
X0057079Y0243411D01*
X0057713Y0244045D02*
X0058030Y0244045D01*
X0059746Y0240600D02*
X0059429Y0240284D01*
X0059746Y0240600D02*
X0060379Y0240600D01*
X0060696Y0240284D01*
X0060696Y0239967D01*
X0059429Y0238699D01*
X0060696Y0238699D01*
X0061639Y0238699D02*
X0062906Y0239967D01*
X0062906Y0240284D01*
X0062589Y0240600D01*
X0061955Y0240600D01*
X0061639Y0240284D01*
X0061639Y0238699D02*
X0062906Y0238699D01*
X0063848Y0238699D02*
X0064799Y0238699D01*
X0065116Y0239016D01*
X0065116Y0239650D01*
X0064799Y0239967D01*
X0063848Y0239967D01*
X0063848Y0238065D01*
X0066058Y0238699D02*
X0066058Y0240600D01*
X0067326Y0240600D01*
X0066692Y0239650D02*
X0066058Y0239650D01*
X0065904Y0232200D02*
X0065270Y0232200D01*
X0064953Y0231884D01*
X0065904Y0232200D02*
X0066221Y0231884D01*
X0066221Y0231567D01*
X0064953Y0230299D01*
X0066221Y0230299D01*
X0064011Y0230299D02*
X0062743Y0230299D01*
X0063377Y0230299D02*
X0063377Y0232200D01*
X0062743Y0231567D01*
X0061801Y0231884D02*
X0061484Y0232200D01*
X0060851Y0232200D01*
X0060534Y0231884D01*
X0060534Y0230616D01*
X0060851Y0230299D01*
X0061484Y0230299D01*
X0061801Y0230616D01*
X0070937Y0206620D02*
X0072205Y0205352D01*
X0072205Y0206620D01*
X0070937Y0206620D02*
X0070937Y0205352D01*
X0071254Y0204410D02*
X0071254Y0203142D01*
X0072205Y0203142D02*
X0070303Y0203142D01*
X0070303Y0202200D02*
X0072205Y0202200D01*
X0072205Y0200932D02*
X0070303Y0200932D01*
X0070937Y0201566D01*
X0070303Y0202200D01*
X0070303Y0199990D02*
X0070620Y0199356D01*
X0071254Y0198723D01*
X0071254Y0199673D01*
X0071571Y0199990D01*
X0071888Y0199990D01*
X0072205Y0199673D01*
X0072205Y0199039D01*
X0071888Y0198723D01*
X0071254Y0198723D01*
X0072205Y0197780D02*
X0072205Y0196513D01*
X0072205Y0197147D02*
X0070303Y0197147D01*
X0070937Y0196513D01*
X0070303Y0204410D02*
X0072205Y0204410D01*
X0049805Y0203305D02*
X0049805Y0202037D01*
X0049805Y0202671D02*
X0047903Y0202671D01*
X0048537Y0202037D01*
X0048220Y0201095D02*
X0047903Y0201095D01*
X0048220Y0201095D02*
X0048854Y0200461D01*
X0049805Y0200461D01*
X0048854Y0200461D02*
X0048220Y0199828D01*
X0047903Y0199828D01*
X0037398Y0303039D02*
X0036764Y0303039D01*
X0036447Y0303356D01*
X0037081Y0303990D02*
X0037398Y0303990D01*
X0037715Y0303673D01*
X0037715Y0303356D01*
X0037398Y0303039D01*
X0037398Y0303990D02*
X0037715Y0304307D01*
X0037715Y0304624D01*
X0037398Y0304941D01*
X0036764Y0304941D01*
X0036447Y0304624D01*
X0035505Y0304624D02*
X0035188Y0304941D01*
X0034237Y0304941D01*
X0034237Y0303039D01*
X0035188Y0303039D01*
X0035505Y0303356D01*
X0035505Y0304624D01*
X0035342Y0323439D02*
X0036610Y0323439D01*
X0037552Y0323439D02*
X0037552Y0325341D01*
X0038503Y0325341D01*
X0038820Y0325024D01*
X0038820Y0323756D01*
X0038503Y0323439D01*
X0037552Y0323439D01*
X0035976Y0324390D02*
X0035342Y0324390D01*
X0034400Y0324390D02*
X0034083Y0324073D01*
X0033132Y0324073D01*
X0033766Y0324073D02*
X0034400Y0323439D01*
X0035342Y0323439D02*
X0035342Y0325341D01*
X0036610Y0325341D01*
X0036766Y0326661D02*
X0036766Y0328563D01*
X0036132Y0327929D01*
X0035190Y0328246D02*
X0034873Y0328563D01*
X0033922Y0328563D01*
X0033922Y0326661D01*
X0034873Y0326661D01*
X0035190Y0326978D01*
X0035190Y0328246D01*
X0036132Y0326661D02*
X0037400Y0326661D01*
X0034400Y0325024D02*
X0034400Y0324390D01*
X0034400Y0325024D02*
X0034083Y0325341D01*
X0033132Y0325341D01*
X0033132Y0323439D01*
X0032817Y0347061D02*
X0032817Y0348963D01*
X0033768Y0348963D01*
X0034085Y0348646D01*
X0034085Y0348012D01*
X0033768Y0347695D01*
X0032817Y0347695D01*
X0033451Y0347695D02*
X0034085Y0347061D01*
X0035027Y0347061D02*
X0036295Y0347061D01*
X0037237Y0347061D02*
X0038188Y0347061D01*
X0038505Y0347378D01*
X0038505Y0348646D01*
X0038188Y0348963D01*
X0037237Y0348963D01*
X0037237Y0347061D01*
X0035661Y0348012D02*
X0035027Y0348012D01*
X0035027Y0348963D02*
X0035027Y0347061D01*
X0035027Y0348963D02*
X0036295Y0348963D01*
X0041012Y0072276D02*
X0041963Y0072276D01*
X0042279Y0071959D01*
X0042279Y0071325D01*
X0041963Y0071008D01*
X0041012Y0071008D01*
X0041012Y0070374D02*
X0041012Y0072276D01*
X0043222Y0071959D02*
X0043222Y0070691D01*
X0043539Y0070374D01*
X0044172Y0070374D01*
X0044489Y0070691D01*
X0044489Y0071959D01*
X0044172Y0072276D01*
X0043539Y0072276D01*
X0043222Y0071959D01*
X0045432Y0072276D02*
X0045432Y0070374D01*
X0046065Y0071008D01*
X0046699Y0070374D01*
X0046699Y0072276D01*
X0047641Y0072276D02*
X0047641Y0070374D01*
X0048909Y0070374D01*
X0049851Y0070374D02*
X0049851Y0072276D01*
X0050802Y0072276D01*
X0051119Y0071959D01*
X0051119Y0071325D01*
X0050802Y0071008D01*
X0049851Y0071008D01*
X0050485Y0071008D02*
X0051119Y0070374D01*
X0052061Y0070057D02*
X0053329Y0070057D01*
X0054271Y0070691D02*
X0054588Y0070374D01*
X0054905Y0070374D01*
X0055222Y0070691D01*
X0055222Y0072276D01*
X0054905Y0072276D02*
X0055539Y0072276D01*
X0056481Y0071642D02*
X0057115Y0072276D01*
X0057749Y0071642D01*
X0057749Y0070374D01*
X0057749Y0071325D02*
X0056481Y0071325D01*
X0056481Y0071642D02*
X0056481Y0070374D01*
X0058691Y0070691D02*
X0059008Y0070374D01*
X0059642Y0070374D01*
X0059959Y0070691D01*
X0060901Y0070374D02*
X0060901Y0072276D01*
X0059959Y0071959D02*
X0059642Y0072276D01*
X0059008Y0072276D01*
X0058691Y0071959D01*
X0058691Y0070691D01*
X0060901Y0071008D02*
X0062168Y0072276D01*
X0061218Y0071325D02*
X0062168Y0070374D01*
X0060035Y0068276D02*
X0060035Y0066374D01*
X0060668Y0066374D02*
X0059401Y0066374D01*
X0059401Y0067642D02*
X0060035Y0068276D01*
X0058459Y0068276D02*
X0057825Y0068276D01*
X0058142Y0068276D02*
X0058142Y0066691D01*
X0057825Y0066374D01*
X0057508Y0066374D01*
X0057191Y0066691D01*
X0048909Y0072276D02*
X0047641Y0072276D01*
X0047641Y0071325D02*
X0048275Y0071325D01*
X0169976Y0066551D02*
X0169976Y0065370D01*
X0169976Y0066551D02*
X0171157Y0066551D01*
X0169976Y0051197D02*
X0169976Y0050016D01*
X0171157Y0050016D01*
X0185003Y0051276D02*
X0185005Y0051307D01*
X0185011Y0051338D01*
X0185020Y0051368D01*
X0185034Y0051396D01*
X0185051Y0051422D01*
X0185070Y0051446D01*
X0185093Y0051468D01*
X0185119Y0051486D01*
X0185146Y0051501D01*
X0185175Y0051513D01*
X0185205Y0051521D01*
X0185236Y0051525D01*
X0185268Y0051525D01*
X0185299Y0051521D01*
X0185329Y0051513D01*
X0185358Y0051501D01*
X0185385Y0051486D01*
X0185411Y0051468D01*
X0185434Y0051446D01*
X0185453Y0051422D01*
X0185470Y0051396D01*
X0185484Y0051368D01*
X0185493Y0051338D01*
X0185499Y0051307D01*
X0185501Y0051276D01*
X0185499Y0051245D01*
X0185493Y0051214D01*
X0185484Y0051184D01*
X0185470Y0051156D01*
X0185453Y0051130D01*
X0185434Y0051106D01*
X0185411Y0051084D01*
X0185385Y0051066D01*
X0185358Y0051051D01*
X0185329Y0051039D01*
X0185299Y0051031D01*
X0185268Y0051027D01*
X0185236Y0051027D01*
X0185205Y0051031D01*
X0185175Y0051039D01*
X0185146Y0051051D01*
X0185119Y0051066D01*
X0185093Y0051084D01*
X0185070Y0051106D01*
X0185051Y0051130D01*
X0185034Y0051156D01*
X0185020Y0051184D01*
X0185011Y0051214D01*
X0185005Y0051245D01*
X0185003Y0051276D01*
X0185331Y0050016D02*
X0186512Y0051197D01*
X0186512Y0065370D02*
X0186512Y0066551D01*
X0185331Y0066551D01*
X0186298Y0025681D02*
X0186932Y0025047D01*
X0187566Y0025681D01*
X0187566Y0023779D01*
X0188508Y0023779D02*
X0188508Y0025681D01*
X0189458Y0025681D01*
X0189775Y0025364D01*
X0189775Y0024730D01*
X0189458Y0024413D01*
X0188508Y0024413D01*
X0190718Y0024096D02*
X0190718Y0025681D01*
X0191985Y0025681D02*
X0191985Y0024096D01*
X0191668Y0023779D01*
X0191034Y0023779D01*
X0190718Y0024096D01*
X0192927Y0023462D02*
X0194195Y0023462D01*
X0195137Y0023779D02*
X0195137Y0025681D01*
X0196088Y0025681D01*
X0196405Y0025364D01*
X0196405Y0025047D01*
X0196088Y0024730D01*
X0195137Y0024730D01*
X0195137Y0023779D02*
X0196088Y0023779D01*
X0196405Y0024096D01*
X0196405Y0024413D01*
X0196088Y0024730D01*
X0197347Y0025364D02*
X0197347Y0024096D01*
X0197664Y0023779D01*
X0198298Y0023779D01*
X0198615Y0024096D01*
X0198615Y0025364D01*
X0198298Y0025681D01*
X0197664Y0025681D01*
X0197347Y0025364D01*
X0197664Y0012181D02*
X0197347Y0011864D01*
X0197347Y0010596D01*
X0197664Y0010279D01*
X0198298Y0010279D01*
X0198615Y0010596D01*
X0198615Y0011864D01*
X0198298Y0012181D01*
X0197664Y0012181D01*
X0196405Y0011864D02*
X0196405Y0011547D01*
X0196088Y0011230D01*
X0195137Y0011230D01*
X0195137Y0012181D02*
X0196088Y0012181D01*
X0196405Y0011864D01*
X0196088Y0011230D02*
X0196405Y0010913D01*
X0196405Y0010596D01*
X0196088Y0010279D01*
X0195137Y0010279D01*
X0195137Y0012181D01*
X0194195Y0009962D02*
X0192927Y0009962D01*
X0191985Y0010596D02*
X0191985Y0012181D01*
X0190718Y0012181D02*
X0190718Y0010596D01*
X0191034Y0010279D01*
X0191668Y0010279D01*
X0191985Y0010596D01*
X0189775Y0011230D02*
X0189458Y0010913D01*
X0188508Y0010913D01*
X0188508Y0010279D02*
X0188508Y0012181D01*
X0189458Y0012181D01*
X0189775Y0011864D01*
X0189775Y0011230D01*
X0187566Y0012181D02*
X0187566Y0010279D01*
X0186298Y0010279D02*
X0186298Y0012181D01*
X0186932Y0011547D01*
X0187566Y0012181D01*
X0186298Y0023779D02*
X0186298Y0025681D01*
D16*
X0079689Y0301925D02*
X0079691Y0302014D01*
X0079697Y0302103D01*
X0079707Y0302192D01*
X0079721Y0302280D01*
X0079738Y0302367D01*
X0079760Y0302453D01*
X0079786Y0302539D01*
X0079815Y0302623D01*
X0079848Y0302706D01*
X0079884Y0302787D01*
X0079925Y0302867D01*
X0079968Y0302944D01*
X0080015Y0303020D01*
X0080066Y0303093D01*
X0080119Y0303164D01*
X0080176Y0303233D01*
X0080236Y0303299D01*
X0080299Y0303363D01*
X0080364Y0303423D01*
X0080432Y0303481D01*
X0080503Y0303535D01*
X0080576Y0303586D01*
X0080651Y0303634D01*
X0080728Y0303679D01*
X0080807Y0303720D01*
X0080888Y0303757D01*
X0080970Y0303791D01*
X0081054Y0303822D01*
X0081139Y0303848D01*
X0081225Y0303871D01*
X0081312Y0303889D01*
X0081400Y0303904D01*
X0081489Y0303915D01*
X0081578Y0303922D01*
X0081667Y0303925D01*
X0081756Y0303924D01*
X0081845Y0303919D01*
X0081933Y0303910D01*
X0082022Y0303897D01*
X0082109Y0303880D01*
X0082196Y0303860D01*
X0082282Y0303835D01*
X0082366Y0303807D01*
X0082449Y0303775D01*
X0082531Y0303739D01*
X0082611Y0303700D01*
X0082689Y0303657D01*
X0082765Y0303611D01*
X0082839Y0303561D01*
X0082911Y0303508D01*
X0082980Y0303452D01*
X0083047Y0303393D01*
X0083111Y0303331D01*
X0083172Y0303267D01*
X0083231Y0303199D01*
X0083286Y0303129D01*
X0083338Y0303057D01*
X0083387Y0302982D01*
X0083432Y0302906D01*
X0083474Y0302827D01*
X0083512Y0302747D01*
X0083547Y0302665D01*
X0083578Y0302581D01*
X0083606Y0302496D01*
X0083629Y0302410D01*
X0083649Y0302323D01*
X0083665Y0302236D01*
X0083677Y0302147D01*
X0083685Y0302059D01*
X0083689Y0301970D01*
X0083689Y0301880D01*
X0083685Y0301791D01*
X0083677Y0301703D01*
X0083665Y0301614D01*
X0083649Y0301527D01*
X0083629Y0301440D01*
X0083606Y0301354D01*
X0083578Y0301269D01*
X0083547Y0301185D01*
X0083512Y0301103D01*
X0083474Y0301023D01*
X0083432Y0300944D01*
X0083387Y0300868D01*
X0083338Y0300793D01*
X0083286Y0300721D01*
X0083231Y0300651D01*
X0083172Y0300583D01*
X0083111Y0300519D01*
X0083047Y0300457D01*
X0082980Y0300398D01*
X0082911Y0300342D01*
X0082839Y0300289D01*
X0082765Y0300239D01*
X0082689Y0300193D01*
X0082611Y0300150D01*
X0082531Y0300111D01*
X0082449Y0300075D01*
X0082366Y0300043D01*
X0082282Y0300015D01*
X0082196Y0299990D01*
X0082109Y0299970D01*
X0082022Y0299953D01*
X0081933Y0299940D01*
X0081845Y0299931D01*
X0081756Y0299926D01*
X0081667Y0299925D01*
X0081578Y0299928D01*
X0081489Y0299935D01*
X0081400Y0299946D01*
X0081312Y0299961D01*
X0081225Y0299979D01*
X0081139Y0300002D01*
X0081054Y0300028D01*
X0080970Y0300059D01*
X0080888Y0300093D01*
X0080807Y0300130D01*
X0080728Y0300171D01*
X0080651Y0300216D01*
X0080576Y0300264D01*
X0080503Y0300315D01*
X0080432Y0300369D01*
X0080364Y0300427D01*
X0080299Y0300487D01*
X0080236Y0300551D01*
X0080176Y0300617D01*
X0080119Y0300686D01*
X0080066Y0300757D01*
X0080015Y0300830D01*
X0079968Y0300906D01*
X0079925Y0300983D01*
X0079884Y0301063D01*
X0079848Y0301144D01*
X0079815Y0301227D01*
X0079786Y0301311D01*
X0079760Y0301397D01*
X0079738Y0301483D01*
X0079721Y0301570D01*
X0079707Y0301658D01*
X0079697Y0301747D01*
X0079691Y0301836D01*
X0079689Y0301925D01*
X0029997Y0309089D02*
X0029997Y0311089D01*
X0029997Y0317489D02*
X0029997Y0319289D01*
X0029682Y0332711D02*
X0029682Y0334711D01*
X0029682Y0341111D02*
X0029682Y0342911D01*
D17*
X0056327Y0341315D02*
X0056327Y0353626D01*
X0086067Y0353626D01*
X0086067Y0341315D01*
X0079071Y0336878D02*
X0063323Y0336878D01*
X0084189Y0299425D02*
X0090189Y0299425D01*
X0090191Y0299299D01*
X0090197Y0299174D01*
X0090207Y0299049D01*
X0090221Y0298924D01*
X0090238Y0298799D01*
X0090260Y0298675D01*
X0090285Y0298552D01*
X0090315Y0298430D01*
X0090348Y0298309D01*
X0090385Y0298189D01*
X0090425Y0298070D01*
X0090470Y0297953D01*
X0090518Y0297836D01*
X0090570Y0297722D01*
X0090625Y0297609D01*
X0090684Y0297498D01*
X0090746Y0297389D01*
X0090812Y0297282D01*
X0090881Y0297177D01*
X0090953Y0297074D01*
X0091028Y0296973D01*
X0091107Y0296875D01*
X0091189Y0296780D01*
X0091273Y0296687D01*
X0091361Y0296597D01*
X0091451Y0296509D01*
X0091544Y0296425D01*
X0091639Y0296343D01*
X0091737Y0296264D01*
X0091838Y0296189D01*
X0091941Y0296117D01*
X0092046Y0296048D01*
X0092153Y0295982D01*
X0092262Y0295920D01*
X0092373Y0295861D01*
X0092486Y0295806D01*
X0092600Y0295754D01*
X0092717Y0295706D01*
X0092834Y0295661D01*
X0092953Y0295621D01*
X0093073Y0295584D01*
X0093194Y0295551D01*
X0093316Y0295521D01*
X0093439Y0295496D01*
X0093563Y0295474D01*
X0093688Y0295457D01*
X0093813Y0295443D01*
X0093938Y0295433D01*
X0094063Y0295427D01*
X0094189Y0295425D01*
X0094315Y0295427D01*
X0094440Y0295433D01*
X0094565Y0295443D01*
X0094690Y0295457D01*
X0094815Y0295474D01*
X0094939Y0295496D01*
X0095062Y0295521D01*
X0095184Y0295551D01*
X0095305Y0295584D01*
X0095425Y0295621D01*
X0095544Y0295661D01*
X0095661Y0295706D01*
X0095778Y0295754D01*
X0095892Y0295806D01*
X0096005Y0295861D01*
X0096116Y0295920D01*
X0096225Y0295982D01*
X0096332Y0296048D01*
X0096437Y0296117D01*
X0096540Y0296189D01*
X0096641Y0296264D01*
X0096739Y0296343D01*
X0096834Y0296425D01*
X0096927Y0296509D01*
X0097017Y0296597D01*
X0097105Y0296687D01*
X0097189Y0296780D01*
X0097271Y0296875D01*
X0097350Y0296973D01*
X0097425Y0297074D01*
X0097497Y0297177D01*
X0097566Y0297282D01*
X0097632Y0297389D01*
X0097694Y0297498D01*
X0097753Y0297609D01*
X0097808Y0297722D01*
X0097860Y0297836D01*
X0097908Y0297953D01*
X0097953Y0298070D01*
X0097993Y0298189D01*
X0098030Y0298309D01*
X0098063Y0298430D01*
X0098093Y0298552D01*
X0098118Y0298675D01*
X0098140Y0298799D01*
X0098157Y0298924D01*
X0098171Y0299049D01*
X0098181Y0299174D01*
X0098187Y0299299D01*
X0098189Y0299425D01*
X0104189Y0299425D01*
X0104189Y0159425D01*
X0084189Y0159425D01*
X0084189Y0299425D01*
X0106000Y0336878D02*
X0121748Y0336878D01*
X0128744Y0341315D02*
X0128744Y0353626D01*
X0099004Y0353626D01*
X0099004Y0341315D01*
X0167890Y0338067D02*
X0167890Y0333067D01*
X0170390Y0330567D01*
X0167890Y0328067D01*
X0167890Y0323067D01*
X0170390Y0320567D01*
X0175390Y0320567D01*
X0177890Y0323067D01*
X0177890Y0328067D01*
X0175390Y0330567D01*
X0177890Y0333067D01*
X0177890Y0338067D01*
X0175390Y0340567D01*
X0170390Y0340567D01*
X0167890Y0338067D01*
X0169957Y0261315D02*
X0167457Y0258815D01*
X0167457Y0253815D01*
X0169957Y0251315D01*
X0167457Y0248815D01*
X0167457Y0243815D01*
X0169957Y0241315D01*
X0174957Y0241315D01*
X0177457Y0243815D01*
X0177457Y0248815D01*
X0174957Y0251315D01*
X0177457Y0253815D01*
X0177457Y0258815D01*
X0174957Y0261315D01*
X0169957Y0261315D01*
X0167673Y0187102D02*
X0165173Y0184602D01*
X0162673Y0187102D01*
X0157673Y0187102D01*
X0155173Y0184602D01*
X0155173Y0179602D01*
X0157673Y0177102D01*
X0162673Y0177102D01*
X0165173Y0179602D01*
X0167673Y0177102D01*
X0172673Y0177102D01*
X0175173Y0179602D01*
X0177673Y0177102D01*
X0182673Y0177102D01*
X0185173Y0179602D01*
X0187673Y0177102D01*
X0192673Y0177102D01*
X0195173Y0179602D01*
X0195173Y0184602D01*
X0192673Y0187102D01*
X0187673Y0187102D01*
X0185173Y0184602D01*
X0182673Y0187102D01*
X0177673Y0187102D01*
X0175173Y0184602D01*
X0172673Y0187102D01*
X0167673Y0187102D01*
X0131197Y0154996D02*
X0131197Y0149996D01*
X0128697Y0147496D01*
X0131197Y0144996D01*
X0131197Y0139996D01*
X0128697Y0137496D01*
X0131197Y0134996D01*
X0131197Y0129996D01*
X0128697Y0127496D01*
X0131197Y0124996D01*
X0131197Y0119996D01*
X0128697Y0117496D01*
X0131197Y0114996D01*
X0131197Y0109996D01*
X0128697Y0107496D01*
X0131197Y0104996D01*
X0131197Y0099996D01*
X0128697Y0097496D01*
X0131197Y0094996D01*
X0131197Y0089996D01*
X0128697Y0087496D01*
X0123697Y0087496D01*
X0121197Y0089996D01*
X0121197Y0094996D01*
X0123697Y0097496D01*
X0121197Y0099996D01*
X0121197Y0104996D01*
X0123697Y0107496D01*
X0121197Y0109996D01*
X0121197Y0114996D01*
X0123697Y0117496D01*
X0121197Y0119996D01*
X0121197Y0124996D01*
X0123697Y0127496D01*
X0121197Y0129996D01*
X0121197Y0134996D01*
X0123697Y0137496D01*
X0121197Y0139996D01*
X0121197Y0144996D01*
X0123697Y0147496D01*
X0121197Y0149996D01*
X0121197Y0154996D01*
X0123697Y0157496D01*
X0128697Y0157496D01*
X0131197Y0154996D01*
X0069055Y0188287D02*
X0069055Y0215287D01*
X0069052Y0215506D01*
X0069044Y0215725D01*
X0069031Y0215944D01*
X0069012Y0216162D01*
X0068988Y0216380D01*
X0068959Y0216597D01*
X0068925Y0216814D01*
X0068885Y0217029D01*
X0068840Y0217244D01*
X0068789Y0217457D01*
X0068734Y0217669D01*
X0068673Y0217880D01*
X0068608Y0218089D01*
X0068537Y0218296D01*
X0068461Y0218502D01*
X0068380Y0218706D01*
X0068295Y0218908D01*
X0068204Y0219107D01*
X0068109Y0219304D01*
X0068008Y0219499D01*
X0067903Y0219692D01*
X0067794Y0219882D01*
X0067680Y0220069D01*
X0067561Y0220253D01*
X0067438Y0220434D01*
X0067310Y0220612D01*
X0067178Y0220788D01*
X0067042Y0220959D01*
X0066902Y0221128D01*
X0066758Y0221293D01*
X0066610Y0221454D01*
X0066458Y0221612D01*
X0066302Y0221766D01*
X0066142Y0221916D01*
X0065979Y0222063D01*
X0065812Y0222205D01*
X0065642Y0222343D01*
X0065468Y0222477D01*
X0065292Y0222607D01*
X0065112Y0222732D01*
X0064929Y0222853D01*
X0064743Y0222969D01*
X0064555Y0223081D01*
X0064364Y0223188D01*
X0064170Y0223291D01*
X0063974Y0223389D01*
X0063776Y0223482D01*
X0063575Y0223570D01*
X0063372Y0223653D01*
X0063167Y0223732D01*
X0062961Y0223805D01*
X0062753Y0223873D01*
X0062543Y0223936D01*
X0062331Y0223994D01*
X0062119Y0224047D01*
X0061905Y0224095D01*
X0061690Y0224137D01*
X0061474Y0224174D01*
X0061257Y0224206D01*
X0061039Y0224233D01*
X0060821Y0224254D01*
X0060603Y0224270D01*
X0060384Y0224281D01*
X0060165Y0224286D01*
X0059945Y0224286D01*
X0059726Y0224281D01*
X0059507Y0224270D01*
X0059289Y0224254D01*
X0059071Y0224233D01*
X0058853Y0224206D01*
X0058636Y0224174D01*
X0058420Y0224137D01*
X0058205Y0224095D01*
X0057991Y0224047D01*
X0057779Y0223994D01*
X0057567Y0223936D01*
X0057357Y0223873D01*
X0057149Y0223805D01*
X0056943Y0223732D01*
X0056738Y0223653D01*
X0056535Y0223570D01*
X0056334Y0223482D01*
X0056136Y0223389D01*
X0055940Y0223291D01*
X0055746Y0223188D01*
X0055555Y0223081D01*
X0055367Y0222969D01*
X0055181Y0222853D01*
X0054998Y0222732D01*
X0054818Y0222607D01*
X0054642Y0222477D01*
X0054468Y0222343D01*
X0054298Y0222205D01*
X0054131Y0222063D01*
X0053968Y0221916D01*
X0053808Y0221766D01*
X0053652Y0221612D01*
X0053500Y0221454D01*
X0053352Y0221293D01*
X0053208Y0221128D01*
X0053068Y0220959D01*
X0052932Y0220788D01*
X0052800Y0220612D01*
X0052672Y0220434D01*
X0052549Y0220253D01*
X0052430Y0220069D01*
X0052316Y0219882D01*
X0052207Y0219692D01*
X0052102Y0219499D01*
X0052001Y0219304D01*
X0051906Y0219107D01*
X0051815Y0218908D01*
X0051730Y0218706D01*
X0051649Y0218502D01*
X0051573Y0218296D01*
X0051502Y0218089D01*
X0051437Y0217880D01*
X0051376Y0217669D01*
X0051321Y0217457D01*
X0051270Y0217244D01*
X0051225Y0217029D01*
X0051185Y0216814D01*
X0051151Y0216597D01*
X0051122Y0216380D01*
X0051098Y0216162D01*
X0051079Y0215944D01*
X0051066Y0215725D01*
X0051058Y0215506D01*
X0051055Y0215287D01*
X0051055Y0188287D01*
X0051058Y0188068D01*
X0051066Y0187849D01*
X0051079Y0187630D01*
X0051098Y0187412D01*
X0051122Y0187194D01*
X0051151Y0186977D01*
X0051185Y0186760D01*
X0051225Y0186545D01*
X0051270Y0186330D01*
X0051321Y0186117D01*
X0051376Y0185905D01*
X0051437Y0185694D01*
X0051502Y0185485D01*
X0051573Y0185278D01*
X0051649Y0185072D01*
X0051730Y0184868D01*
X0051815Y0184666D01*
X0051906Y0184467D01*
X0052001Y0184270D01*
X0052102Y0184075D01*
X0052207Y0183882D01*
X0052316Y0183692D01*
X0052430Y0183505D01*
X0052549Y0183321D01*
X0052672Y0183140D01*
X0052800Y0182962D01*
X0052932Y0182786D01*
X0053068Y0182615D01*
X0053208Y0182446D01*
X0053352Y0182281D01*
X0053500Y0182120D01*
X0053652Y0181962D01*
X0053808Y0181808D01*
X0053968Y0181658D01*
X0054131Y0181511D01*
X0054298Y0181369D01*
X0054468Y0181231D01*
X0054642Y0181097D01*
X0054818Y0180967D01*
X0054998Y0180842D01*
X0055181Y0180721D01*
X0055367Y0180605D01*
X0055555Y0180493D01*
X0055746Y0180386D01*
X0055940Y0180283D01*
X0056136Y0180185D01*
X0056334Y0180092D01*
X0056535Y0180004D01*
X0056738Y0179921D01*
X0056943Y0179842D01*
X0057149Y0179769D01*
X0057357Y0179701D01*
X0057567Y0179638D01*
X0057779Y0179580D01*
X0057991Y0179527D01*
X0058205Y0179479D01*
X0058420Y0179437D01*
X0058636Y0179400D01*
X0058853Y0179368D01*
X0059071Y0179341D01*
X0059289Y0179320D01*
X0059507Y0179304D01*
X0059726Y0179293D01*
X0059945Y0179288D01*
X0060165Y0179288D01*
X0060384Y0179293D01*
X0060603Y0179304D01*
X0060821Y0179320D01*
X0061039Y0179341D01*
X0061257Y0179368D01*
X0061474Y0179400D01*
X0061690Y0179437D01*
X0061905Y0179479D01*
X0062119Y0179527D01*
X0062331Y0179580D01*
X0062543Y0179638D01*
X0062753Y0179701D01*
X0062961Y0179769D01*
X0063167Y0179842D01*
X0063372Y0179921D01*
X0063575Y0180004D01*
X0063776Y0180092D01*
X0063974Y0180185D01*
X0064170Y0180283D01*
X0064364Y0180386D01*
X0064555Y0180493D01*
X0064743Y0180605D01*
X0064929Y0180721D01*
X0065112Y0180842D01*
X0065292Y0180967D01*
X0065468Y0181097D01*
X0065642Y0181231D01*
X0065812Y0181369D01*
X0065979Y0181511D01*
X0066142Y0181658D01*
X0066302Y0181808D01*
X0066458Y0181962D01*
X0066610Y0182120D01*
X0066758Y0182281D01*
X0066902Y0182446D01*
X0067042Y0182615D01*
X0067178Y0182786D01*
X0067310Y0182962D01*
X0067438Y0183140D01*
X0067561Y0183321D01*
X0067680Y0183505D01*
X0067794Y0183692D01*
X0067903Y0183882D01*
X0068008Y0184075D01*
X0068109Y0184270D01*
X0068204Y0184467D01*
X0068295Y0184666D01*
X0068380Y0184868D01*
X0068461Y0185072D01*
X0068537Y0185278D01*
X0068608Y0185485D01*
X0068673Y0185694D01*
X0068734Y0185905D01*
X0068789Y0186117D01*
X0068840Y0186330D01*
X0068885Y0186545D01*
X0068925Y0186760D01*
X0068959Y0186977D01*
X0068988Y0187194D01*
X0069012Y0187412D01*
X0069031Y0187630D01*
X0069044Y0187849D01*
X0069052Y0188068D01*
X0069055Y0188287D01*
X0073677Y0063913D02*
X0038244Y0063913D01*
X0038244Y0043047D01*
X0038244Y0024543D02*
X0038244Y0021787D01*
X0046512Y0021787D01*
X0065409Y0021787D02*
X0073677Y0021787D01*
X0073677Y0063913D01*
X0149307Y0020429D02*
X0149307Y0015429D01*
X0151807Y0012929D01*
X0156807Y0012929D01*
X0159307Y0015429D01*
X0161807Y0012929D01*
X0166807Y0012929D01*
X0169307Y0015429D01*
X0171807Y0012929D01*
X0176807Y0012929D01*
X0179307Y0015429D01*
X0181807Y0012929D01*
X0186807Y0012929D01*
X0189307Y0015429D01*
X0191807Y0012929D01*
X0196807Y0012929D01*
X0199307Y0015429D01*
X0199307Y0020429D01*
X0196807Y0022929D01*
X0191807Y0022929D01*
X0189307Y0020429D01*
X0186807Y0022929D01*
X0181807Y0022929D01*
X0179307Y0020429D01*
X0176807Y0022929D01*
X0171807Y0022929D01*
X0169307Y0020429D01*
X0166807Y0022929D01*
X0161807Y0022929D01*
X0159307Y0020429D01*
X0156807Y0022929D01*
X0151807Y0022929D01*
X0149307Y0020429D01*
D18*
X0061461Y0147587D02*
X0062245Y0148371D01*
X0062245Y0149155D01*
X0061461Y0149939D01*
X0059893Y0149939D01*
X0059109Y0150723D01*
X0059109Y0151507D01*
X0059893Y0152291D01*
X0061461Y0152291D01*
X0062245Y0151507D01*
X0061461Y0147587D02*
X0059893Y0147587D01*
X0059109Y0148371D01*
X0057641Y0148371D02*
X0056857Y0147587D01*
X0055289Y0147587D01*
X0054505Y0148371D01*
X0054505Y0151507D01*
X0055289Y0152291D01*
X0056857Y0152291D01*
X0057641Y0151507D01*
X0057641Y0148371D01*
X0053037Y0147587D02*
X0053037Y0152291D01*
X0051469Y0150723D01*
X0049901Y0152291D01*
X0049901Y0147587D01*
X0048433Y0147587D02*
X0048433Y0152291D01*
X0045297Y0152291D02*
X0048433Y0147587D01*
X0045297Y0147587D02*
X0045297Y0152291D01*
D19*
X0190016Y0243283D03*
X0189504Y0260370D03*
X0190016Y0321591D03*
X0189740Y0339740D03*
D20*
X0106630Y0322496D03*
X0084976Y0322614D03*
X0081472Y0119071D03*
X0097850Y0118874D03*
X0062417Y0118756D03*
X0042575Y0118677D03*
X0173717Y0036000D03*
X0196433Y0036276D03*
D21*
X0116874Y0032614D02*
X0116874Y0065114D01*
X0080874Y0065114D01*
X0080874Y0032614D01*
X0116874Y0032614D01*
D22*
X0111982Y0037015D02*
X0110931Y0035964D01*
X0108829Y0035964D01*
X0107778Y0037015D01*
X0107778Y0041219D01*
X0108829Y0042270D01*
X0110931Y0042270D01*
X0111982Y0041219D01*
X0111982Y0039117D02*
X0109880Y0039117D01*
X0111982Y0039117D02*
X0111982Y0037015D01*
X0111431Y0045964D02*
X0109329Y0045964D01*
X0108278Y0047015D01*
X0106037Y0047015D02*
X0104986Y0045964D01*
X0102884Y0045964D01*
X0101833Y0047015D01*
X0099591Y0048066D02*
X0099591Y0052270D01*
X0101833Y0051219D02*
X0102884Y0052270D01*
X0104986Y0052270D01*
X0106037Y0051219D01*
X0106037Y0050168D01*
X0104986Y0049117D01*
X0106037Y0048066D01*
X0106037Y0047015D01*
X0104986Y0049117D02*
X0103935Y0049117D01*
X0108278Y0051219D02*
X0109329Y0052270D01*
X0111431Y0052270D01*
X0112482Y0051219D01*
X0112482Y0050168D01*
X0111431Y0049117D01*
X0112482Y0048066D01*
X0112482Y0047015D01*
X0111431Y0045964D01*
X0111431Y0049117D02*
X0110380Y0049117D01*
X0105537Y0042270D02*
X0101333Y0042270D01*
X0101333Y0035964D01*
X0105537Y0035964D01*
X0103435Y0039117D02*
X0101333Y0039117D01*
X0099091Y0039117D02*
X0099091Y0041219D01*
X0098040Y0042270D01*
X0094887Y0042270D01*
X0094887Y0035964D01*
X0094887Y0038066D02*
X0098040Y0038066D01*
X0099091Y0039117D01*
X0096989Y0038066D02*
X0099091Y0035964D01*
X0092646Y0034913D02*
X0088442Y0034913D01*
X0086200Y0038066D02*
X0086200Y0042270D01*
X0086700Y0045964D02*
X0082496Y0045964D01*
X0084598Y0045964D02*
X0084598Y0052270D01*
X0082496Y0050168D01*
X0080255Y0045964D02*
X0076051Y0045964D01*
X0078153Y0045964D02*
X0078153Y0052270D01*
X0076051Y0050168D01*
X0073809Y0045964D02*
X0069605Y0045964D01*
X0071707Y0045964D02*
X0071707Y0052270D01*
X0069605Y0050168D01*
X0067364Y0051219D02*
X0066313Y0052270D01*
X0063160Y0052270D01*
X0063160Y0045964D01*
X0066313Y0045964D01*
X0067364Y0047015D01*
X0067364Y0051219D01*
X0060918Y0045964D02*
X0056714Y0045964D01*
X0056714Y0052270D01*
X0081996Y0042270D02*
X0081996Y0038066D01*
X0084098Y0035964D01*
X0086200Y0038066D01*
X0088942Y0045964D02*
X0088942Y0047015D01*
X0093146Y0051219D01*
X0093146Y0052270D01*
X0088942Y0052270D01*
X0095387Y0052270D02*
X0095387Y0048066D01*
X0097489Y0045964D01*
X0099591Y0048066D01*
D23*
X0099816Y0031417D02*
X0099816Y0029666D01*
X0100983Y0030249D01*
X0101567Y0030249D01*
X0102151Y0029666D01*
X0102151Y0028498D01*
X0101567Y0027914D01*
X0100400Y0027914D01*
X0099816Y0028498D01*
X0098560Y0027914D02*
X0096225Y0027914D01*
X0097392Y0027914D02*
X0097392Y0031417D01*
X0096225Y0030249D01*
X0094969Y0030249D02*
X0094969Y0027914D01*
X0094969Y0029666D02*
X0092634Y0029666D01*
X0092634Y0030249D02*
X0093801Y0031417D01*
X0094969Y0030249D01*
X0092634Y0030249D02*
X0092634Y0027914D01*
X0099816Y0031417D02*
X0102151Y0031417D01*
X0103991Y0028498D02*
X0103991Y0027914D01*
X0104574Y0027914D01*
X0104574Y0028498D01*
X0103991Y0028498D01*
X0104574Y0027914D02*
X0103407Y0026747D01*
X0105801Y0027914D02*
X0108136Y0030249D01*
X0108136Y0030833D01*
X0107552Y0031417D01*
X0106385Y0031417D01*
X0105801Y0030833D01*
X0105801Y0027914D02*
X0108136Y0027914D01*
X0109392Y0027914D02*
X0109392Y0030249D01*
X0109976Y0030249D01*
X0110560Y0029666D01*
X0111143Y0030249D01*
X0111727Y0029666D01*
X0111727Y0027914D01*
X0110560Y0027914D02*
X0110560Y0029666D01*
X0112983Y0030249D02*
X0112983Y0027914D01*
X0114151Y0027914D02*
X0114151Y0029666D01*
X0114734Y0030249D01*
X0115318Y0029666D01*
X0115318Y0027914D01*
X0114151Y0029666D02*
X0113567Y0030249D01*
X0112983Y0030249D01*
D24*
X0108874Y0069364D03*
X0098874Y0069364D03*
X0088874Y0069364D03*
M02*
