G75*
%MOIN*%
%OFA0B0*%
%FSLAX25Y25*%
%IPPOS*%
%LPD*%
%AMOC8*
5,1,8,0,0,1.08239X$1,22.5*
%
%ADD10OC8,0.05600*%
%ADD11C,0.08200*%
%ADD12C,0.17800*%
%ADD13C,0.07200*%
%ADD14C,0.09000*%
%ADD15C,0.07000*%
%ADD16C,0.06800*%
%ADD17C,0.13800*%
%ADD18C,0.07300*%
D10*
X0183244Y0206827D03*
X0183244Y0226827D03*
X0183677Y0285528D03*
X0183677Y0305528D03*
D11*
X0172890Y0325567D03*
X0172890Y0335567D03*
X0172457Y0256315D03*
X0172457Y0246315D03*
X0170173Y0182102D03*
X0160173Y0182102D03*
X0180173Y0182102D03*
X0190173Y0182102D03*
X0126197Y0152496D03*
X0126197Y0142496D03*
X0126197Y0132496D03*
X0126197Y0122496D03*
X0126197Y0112496D03*
X0126197Y0102496D03*
X0126197Y0092496D03*
X0154307Y0017929D03*
X0164307Y0017929D03*
X0174307Y0017929D03*
X0184307Y0017929D03*
X0194307Y0017929D03*
X0041197Y0314189D03*
X0031197Y0314189D03*
X0030882Y0337811D03*
X0040882Y0337811D03*
D12*
X0037457Y0033598D03*
X0055961Y0021787D03*
X0055961Y0045409D03*
D13*
X0079189Y0164425D03*
X0079189Y0174425D03*
X0079189Y0184425D03*
X0079189Y0194425D03*
X0079189Y0204425D03*
X0079189Y0214425D03*
X0079189Y0224425D03*
X0079189Y0234425D03*
X0079189Y0244425D03*
X0079189Y0254425D03*
X0079189Y0264425D03*
X0079189Y0274425D03*
X0079189Y0284425D03*
X0079189Y0294425D03*
X0109189Y0294425D03*
X0109189Y0284425D03*
X0109189Y0274425D03*
X0109189Y0264425D03*
X0109189Y0254425D03*
X0109189Y0244425D03*
X0109189Y0234425D03*
X0109189Y0224425D03*
X0109189Y0214425D03*
X0109189Y0204425D03*
X0109189Y0194425D03*
X0109189Y0184425D03*
X0109189Y0174425D03*
X0109189Y0164425D03*
D14*
X0100094Y0335409D03*
X0084976Y0335409D03*
X0057417Y0335409D03*
X0127654Y0335409D03*
D15*
X0123717Y0345252D03*
X0104031Y0345252D03*
X0081039Y0345252D03*
X0061354Y0345252D03*
D16*
X0088874Y0080614D02*
X0088874Y0074614D01*
X0098874Y0074614D02*
X0098874Y0080614D01*
X0108874Y0080614D02*
X0108874Y0074614D01*
D17*
X0098874Y0018614D03*
D18*
X0060055Y0191787D03*
X0060055Y0211787D03*
M02*
