G75*
%MOIN*%
%OFA0B0*%
%FSLAX25Y25*%
%IPPOS*%
%LPD*%
%AMOC8*
5,1,8,0,0,1.08239X$1,22.5*
%
%ADD10C,0.00000*%
%ADD11C,0.02200*%
%ADD12C,0.00100*%
%ADD13C,0.01200*%
%ADD14C,0.00600*%
%ADD15C,0.00500*%
%ADD16C,0.01000*%
%ADD17C,0.00800*%
%ADD18C,0.00300*%
%ADD19R,0.03000X0.01800*%
%ADD20R,0.01800X0.03000*%
%ADD21C,0.00200*%
%ADD22C,0.00700*%
%ADD23C,0.00400*%
%ADD24R,0.05000X0.03500*%
D10*
X0001000Y0001000D02*
X0001000Y0355331D01*
X0197850Y0355331D01*
X0197850Y0001000D01*
X0001000Y0001000D01*
X0068752Y0018614D02*
X0068754Y0018775D01*
X0068760Y0018935D01*
X0068770Y0019096D01*
X0068784Y0019256D01*
X0068802Y0019416D01*
X0068823Y0019575D01*
X0068849Y0019734D01*
X0068879Y0019892D01*
X0068912Y0020049D01*
X0068950Y0020206D01*
X0068991Y0020361D01*
X0069036Y0020515D01*
X0069085Y0020668D01*
X0069138Y0020820D01*
X0069194Y0020971D01*
X0069255Y0021120D01*
X0069318Y0021268D01*
X0069386Y0021414D01*
X0069457Y0021558D01*
X0069531Y0021700D01*
X0069609Y0021841D01*
X0069691Y0021979D01*
X0069776Y0022116D01*
X0069864Y0022250D01*
X0069956Y0022382D01*
X0070051Y0022512D01*
X0070149Y0022640D01*
X0070250Y0022765D01*
X0070354Y0022887D01*
X0070461Y0023007D01*
X0070571Y0023124D01*
X0070684Y0023239D01*
X0070800Y0023350D01*
X0070919Y0023459D01*
X0071040Y0023564D01*
X0071164Y0023667D01*
X0071290Y0023767D01*
X0071418Y0023863D01*
X0071549Y0023956D01*
X0071683Y0024046D01*
X0071818Y0024133D01*
X0071956Y0024216D01*
X0072095Y0024296D01*
X0072237Y0024372D01*
X0072380Y0024445D01*
X0072525Y0024514D01*
X0072672Y0024580D01*
X0072820Y0024642D01*
X0072970Y0024700D01*
X0073121Y0024755D01*
X0073274Y0024806D01*
X0073428Y0024853D01*
X0073583Y0024896D01*
X0073739Y0024935D01*
X0073895Y0024971D01*
X0074053Y0025002D01*
X0074211Y0025030D01*
X0074370Y0025054D01*
X0074530Y0025074D01*
X0074690Y0025090D01*
X0074850Y0025102D01*
X0075011Y0025110D01*
X0075172Y0025114D01*
X0075332Y0025114D01*
X0075493Y0025110D01*
X0075654Y0025102D01*
X0075814Y0025090D01*
X0075974Y0025074D01*
X0076134Y0025054D01*
X0076293Y0025030D01*
X0076451Y0025002D01*
X0076609Y0024971D01*
X0076765Y0024935D01*
X0076921Y0024896D01*
X0077076Y0024853D01*
X0077230Y0024806D01*
X0077383Y0024755D01*
X0077534Y0024700D01*
X0077684Y0024642D01*
X0077832Y0024580D01*
X0077979Y0024514D01*
X0078124Y0024445D01*
X0078267Y0024372D01*
X0078409Y0024296D01*
X0078548Y0024216D01*
X0078686Y0024133D01*
X0078821Y0024046D01*
X0078955Y0023956D01*
X0079086Y0023863D01*
X0079214Y0023767D01*
X0079340Y0023667D01*
X0079464Y0023564D01*
X0079585Y0023459D01*
X0079704Y0023350D01*
X0079820Y0023239D01*
X0079933Y0023124D01*
X0080043Y0023007D01*
X0080150Y0022887D01*
X0080254Y0022765D01*
X0080355Y0022640D01*
X0080453Y0022512D01*
X0080548Y0022382D01*
X0080640Y0022250D01*
X0080728Y0022116D01*
X0080813Y0021979D01*
X0080895Y0021841D01*
X0080973Y0021700D01*
X0081047Y0021558D01*
X0081118Y0021414D01*
X0081186Y0021268D01*
X0081249Y0021120D01*
X0081310Y0020971D01*
X0081366Y0020820D01*
X0081419Y0020668D01*
X0081468Y0020515D01*
X0081513Y0020361D01*
X0081554Y0020206D01*
X0081592Y0020049D01*
X0081625Y0019892D01*
X0081655Y0019734D01*
X0081681Y0019575D01*
X0081702Y0019416D01*
X0081720Y0019256D01*
X0081734Y0019096D01*
X0081744Y0018935D01*
X0081750Y0018775D01*
X0081752Y0018614D01*
X0081750Y0018453D01*
X0081744Y0018293D01*
X0081734Y0018132D01*
X0081720Y0017972D01*
X0081702Y0017812D01*
X0081681Y0017653D01*
X0081655Y0017494D01*
X0081625Y0017336D01*
X0081592Y0017179D01*
X0081554Y0017022D01*
X0081513Y0016867D01*
X0081468Y0016713D01*
X0081419Y0016560D01*
X0081366Y0016408D01*
X0081310Y0016257D01*
X0081249Y0016108D01*
X0081186Y0015960D01*
X0081118Y0015814D01*
X0081047Y0015670D01*
X0080973Y0015528D01*
X0080895Y0015387D01*
X0080813Y0015249D01*
X0080728Y0015112D01*
X0080640Y0014978D01*
X0080548Y0014846D01*
X0080453Y0014716D01*
X0080355Y0014588D01*
X0080254Y0014463D01*
X0080150Y0014341D01*
X0080043Y0014221D01*
X0079933Y0014104D01*
X0079820Y0013989D01*
X0079704Y0013878D01*
X0079585Y0013769D01*
X0079464Y0013664D01*
X0079340Y0013561D01*
X0079214Y0013461D01*
X0079086Y0013365D01*
X0078955Y0013272D01*
X0078821Y0013182D01*
X0078686Y0013095D01*
X0078548Y0013012D01*
X0078409Y0012932D01*
X0078267Y0012856D01*
X0078124Y0012783D01*
X0077979Y0012714D01*
X0077832Y0012648D01*
X0077684Y0012586D01*
X0077534Y0012528D01*
X0077383Y0012473D01*
X0077230Y0012422D01*
X0077076Y0012375D01*
X0076921Y0012332D01*
X0076765Y0012293D01*
X0076609Y0012257D01*
X0076451Y0012226D01*
X0076293Y0012198D01*
X0076134Y0012174D01*
X0075974Y0012154D01*
X0075814Y0012138D01*
X0075654Y0012126D01*
X0075493Y0012118D01*
X0075332Y0012114D01*
X0075172Y0012114D01*
X0075011Y0012118D01*
X0074850Y0012126D01*
X0074690Y0012138D01*
X0074530Y0012154D01*
X0074370Y0012174D01*
X0074211Y0012198D01*
X0074053Y0012226D01*
X0073895Y0012257D01*
X0073739Y0012293D01*
X0073583Y0012332D01*
X0073428Y0012375D01*
X0073274Y0012422D01*
X0073121Y0012473D01*
X0072970Y0012528D01*
X0072820Y0012586D01*
X0072672Y0012648D01*
X0072525Y0012714D01*
X0072380Y0012783D01*
X0072237Y0012856D01*
X0072095Y0012932D01*
X0071956Y0013012D01*
X0071818Y0013095D01*
X0071683Y0013182D01*
X0071549Y0013272D01*
X0071418Y0013365D01*
X0071290Y0013461D01*
X0071164Y0013561D01*
X0071040Y0013664D01*
X0070919Y0013769D01*
X0070800Y0013878D01*
X0070684Y0013989D01*
X0070571Y0014104D01*
X0070461Y0014221D01*
X0070354Y0014341D01*
X0070250Y0014463D01*
X0070149Y0014588D01*
X0070051Y0014716D01*
X0069956Y0014846D01*
X0069864Y0014978D01*
X0069776Y0015112D01*
X0069691Y0015249D01*
X0069609Y0015387D01*
X0069531Y0015528D01*
X0069457Y0015670D01*
X0069386Y0015814D01*
X0069318Y0015960D01*
X0069255Y0016108D01*
X0069194Y0016257D01*
X0069138Y0016408D01*
X0069085Y0016560D01*
X0069036Y0016713D01*
X0068991Y0016867D01*
X0068950Y0017022D01*
X0068912Y0017179D01*
X0068879Y0017336D01*
X0068849Y0017494D01*
X0068823Y0017653D01*
X0068802Y0017812D01*
X0068784Y0017972D01*
X0068770Y0018132D01*
X0068760Y0018293D01*
X0068754Y0018453D01*
X0068752Y0018614D01*
D11*
X0075762Y0097535D02*
X0076002Y0097535D01*
X0060451Y0097417D02*
X0060211Y0097417D01*
X0120961Y0073443D02*
X0120961Y0073203D01*
X0131274Y0050409D02*
X0131514Y0050409D01*
X0156945Y0081116D02*
X0156945Y0081356D01*
X0182848Y0054701D02*
X0183089Y0054701D01*
X0131000Y0225762D02*
X0131000Y0226002D01*
D12*
X0131854Y0222833D02*
X0131603Y0222583D01*
X0131603Y0221582D01*
X0131854Y0221332D01*
X0132354Y0221332D01*
X0132604Y0221582D01*
X0133077Y0221332D02*
X0134078Y0222333D01*
X0134078Y0222583D01*
X0133827Y0222833D01*
X0133327Y0222833D01*
X0133077Y0222583D01*
X0132604Y0222583D02*
X0132354Y0222833D01*
X0131854Y0222833D01*
X0133077Y0221332D02*
X0134078Y0221332D01*
X0161842Y0239833D02*
X0161842Y0240584D01*
X0162093Y0240834D01*
X0162593Y0240834D01*
X0162843Y0240584D01*
X0162843Y0239833D01*
X0163344Y0239833D02*
X0161842Y0239833D01*
X0162843Y0240334D02*
X0163344Y0240834D01*
X0163344Y0241307D02*
X0163344Y0242308D01*
X0163344Y0241807D02*
X0161842Y0241807D01*
X0162343Y0241307D01*
X0162093Y0242780D02*
X0161842Y0243030D01*
X0161842Y0243531D01*
X0162093Y0243781D01*
X0163093Y0242780D01*
X0163344Y0243030D01*
X0163344Y0243531D01*
X0163093Y0243781D01*
X0162093Y0243781D01*
X0162093Y0242780D02*
X0163093Y0242780D01*
X0168931Y0260974D02*
X0168931Y0261724D01*
X0169181Y0261974D01*
X0169681Y0261974D01*
X0169931Y0261724D01*
X0169931Y0260974D01*
X0169931Y0261474D02*
X0170432Y0261974D01*
X0170432Y0262447D02*
X0169431Y0263448D01*
X0169181Y0263448D01*
X0168931Y0263197D01*
X0168931Y0262697D01*
X0169181Y0262447D01*
X0170432Y0262447D02*
X0170432Y0263448D01*
X0170432Y0260974D02*
X0168931Y0260974D01*
X0163344Y0318141D02*
X0161842Y0318141D01*
X0161842Y0318891D01*
X0162093Y0319141D01*
X0162593Y0319141D01*
X0162843Y0318891D01*
X0162843Y0318141D01*
X0162843Y0318641D02*
X0163344Y0319141D01*
X0163344Y0319614D02*
X0163344Y0320615D01*
X0163344Y0321087D02*
X0163344Y0322088D01*
X0163344Y0321587D02*
X0161842Y0321587D01*
X0162343Y0321087D01*
X0161842Y0320114D02*
X0163344Y0320114D01*
X0162343Y0319614D02*
X0161842Y0320114D01*
X0169167Y0340344D02*
X0169167Y0341094D01*
X0169417Y0341344D01*
X0169917Y0341344D01*
X0170168Y0341094D01*
X0170168Y0340344D01*
X0170168Y0340844D02*
X0170668Y0341344D01*
X0170418Y0341817D02*
X0170168Y0341817D01*
X0169917Y0342067D01*
X0169917Y0342568D01*
X0170168Y0342818D01*
X0170418Y0342818D01*
X0170668Y0342568D01*
X0170668Y0342067D01*
X0170418Y0341817D01*
X0169917Y0342067D02*
X0169667Y0341817D01*
X0169417Y0341817D01*
X0169167Y0342067D01*
X0169167Y0342568D01*
X0169417Y0342818D01*
X0169667Y0342818D01*
X0169917Y0342568D01*
X0170668Y0340344D02*
X0169167Y0340344D01*
X0086085Y0319447D02*
X0086085Y0319197D01*
X0085085Y0318196D01*
X0085085Y0317946D01*
X0084612Y0317946D02*
X0084112Y0318446D01*
X0084362Y0318446D02*
X0083611Y0318446D01*
X0083611Y0317946D02*
X0083611Y0319447D01*
X0084362Y0319447D01*
X0084612Y0319197D01*
X0084612Y0318697D01*
X0084362Y0318446D01*
X0085085Y0319447D02*
X0086085Y0319447D01*
X0060378Y0325914D02*
X0060378Y0326165D01*
X0060128Y0326415D01*
X0059378Y0326415D01*
X0059378Y0325914D01*
X0059628Y0325664D01*
X0060128Y0325664D01*
X0060378Y0325914D01*
X0059878Y0326915D02*
X0059378Y0326415D01*
X0058905Y0326415D02*
X0058655Y0326165D01*
X0057904Y0326165D01*
X0058405Y0326165D02*
X0058905Y0325664D01*
X0058905Y0326415D02*
X0058905Y0326915D01*
X0058655Y0327165D01*
X0057904Y0327165D01*
X0057904Y0325664D01*
X0059878Y0326915D02*
X0060378Y0327165D01*
X0019571Y0342046D02*
X0018790Y0341600D01*
X0018697Y0341757D01*
X0018600Y0341911D01*
X0018499Y0342063D01*
X0018394Y0342212D01*
X0018286Y0342359D01*
X0018175Y0342504D01*
X0018060Y0342645D01*
X0017941Y0342784D01*
X0017819Y0342919D01*
X0017694Y0343052D01*
X0017566Y0343182D01*
X0017435Y0343308D01*
X0017301Y0343432D01*
X0017164Y0343552D01*
X0017024Y0343669D01*
X0016881Y0343782D01*
X0016735Y0343892D01*
X0016587Y0343998D01*
X0016436Y0344101D01*
X0016283Y0344200D01*
X0016128Y0344295D01*
X0015970Y0344386D01*
X0015810Y0344474D01*
X0015648Y0344558D01*
X0015485Y0344638D01*
X0015319Y0344714D01*
X0015151Y0344785D01*
X0014982Y0344853D01*
X0014811Y0344917D01*
X0014639Y0344976D01*
X0014465Y0345032D01*
X0014290Y0345083D01*
X0014114Y0345130D01*
X0013937Y0345172D01*
X0013758Y0345211D01*
X0013579Y0345245D01*
X0013399Y0345275D01*
X0013219Y0345300D01*
X0013038Y0345321D01*
X0012856Y0345337D01*
X0012674Y0345350D01*
X0012492Y0345357D01*
X0012310Y0345361D01*
X0012309Y0346260D01*
X0012310Y0346261D01*
X0012514Y0346257D01*
X0012718Y0346249D01*
X0012922Y0346235D01*
X0013126Y0346217D01*
X0013329Y0346193D01*
X0013531Y0346165D01*
X0013733Y0346132D01*
X0013933Y0346094D01*
X0014133Y0346051D01*
X0014332Y0346003D01*
X0014529Y0345951D01*
X0014725Y0345893D01*
X0014920Y0345831D01*
X0015113Y0345765D01*
X0015305Y0345693D01*
X0015494Y0345617D01*
X0015682Y0345537D01*
X0015868Y0345452D01*
X0016052Y0345362D01*
X0016233Y0345269D01*
X0016412Y0345170D01*
X0016589Y0345068D01*
X0016763Y0344961D01*
X0016935Y0344850D01*
X0017104Y0344735D01*
X0017270Y0344616D01*
X0017433Y0344493D01*
X0017593Y0344366D01*
X0017750Y0344235D01*
X0017904Y0344100D01*
X0018054Y0343962D01*
X0018201Y0343820D01*
X0018345Y0343675D01*
X0018485Y0343526D01*
X0018621Y0343374D01*
X0018754Y0343218D01*
X0018882Y0343060D01*
X0019007Y0342898D01*
X0019128Y0342733D01*
X0019245Y0342566D01*
X0019358Y0342395D01*
X0019467Y0342222D01*
X0019572Y0342047D01*
X0019490Y0342000D01*
X0019387Y0342174D01*
X0019279Y0342345D01*
X0019167Y0342513D01*
X0019052Y0342679D01*
X0018932Y0342842D01*
X0018808Y0343001D01*
X0018681Y0343158D01*
X0018550Y0343312D01*
X0018415Y0343462D01*
X0018277Y0343610D01*
X0018135Y0343753D01*
X0017989Y0343894D01*
X0017841Y0344030D01*
X0017689Y0344163D01*
X0017533Y0344293D01*
X0017375Y0344418D01*
X0017214Y0344540D01*
X0017050Y0344658D01*
X0016883Y0344772D01*
X0016713Y0344881D01*
X0016541Y0344987D01*
X0016366Y0345088D01*
X0016189Y0345186D01*
X0016010Y0345278D01*
X0015828Y0345367D01*
X0015644Y0345451D01*
X0015459Y0345531D01*
X0015271Y0345606D01*
X0015082Y0345676D01*
X0014891Y0345742D01*
X0014698Y0345803D01*
X0014504Y0345860D01*
X0014309Y0345912D01*
X0014113Y0345959D01*
X0013915Y0346001D01*
X0013717Y0346039D01*
X0013517Y0346072D01*
X0013317Y0346100D01*
X0013116Y0346123D01*
X0012915Y0346141D01*
X0012714Y0346155D01*
X0012512Y0346163D01*
X0012310Y0346167D01*
X0012310Y0346073D01*
X0012509Y0346069D01*
X0012709Y0346061D01*
X0012908Y0346048D01*
X0013107Y0346029D01*
X0013306Y0346007D01*
X0013503Y0345979D01*
X0013701Y0345946D01*
X0013897Y0345909D01*
X0014092Y0345867D01*
X0014286Y0345821D01*
X0014479Y0345769D01*
X0014671Y0345713D01*
X0014861Y0345653D01*
X0015050Y0345588D01*
X0015237Y0345518D01*
X0015423Y0345444D01*
X0015606Y0345365D01*
X0015788Y0345282D01*
X0015968Y0345194D01*
X0016145Y0345103D01*
X0016320Y0345007D01*
X0016493Y0344906D01*
X0016663Y0344802D01*
X0016831Y0344693D01*
X0016996Y0344581D01*
X0017158Y0344465D01*
X0017317Y0344344D01*
X0017474Y0344220D01*
X0017627Y0344092D01*
X0017778Y0343961D01*
X0017925Y0343825D01*
X0018068Y0343687D01*
X0018209Y0343545D01*
X0018346Y0343399D01*
X0018479Y0343250D01*
X0018609Y0343098D01*
X0018735Y0342943D01*
X0018857Y0342785D01*
X0018975Y0342624D01*
X0019089Y0342461D01*
X0019200Y0342294D01*
X0019306Y0342125D01*
X0019408Y0341954D01*
X0019327Y0341907D01*
X0019226Y0342077D01*
X0019121Y0342244D01*
X0019011Y0342408D01*
X0018898Y0342570D01*
X0018781Y0342729D01*
X0018661Y0342885D01*
X0018536Y0343039D01*
X0018408Y0343189D01*
X0018276Y0343336D01*
X0018141Y0343480D01*
X0018002Y0343620D01*
X0017860Y0343757D01*
X0017715Y0343891D01*
X0017566Y0344021D01*
X0017414Y0344147D01*
X0017260Y0344270D01*
X0017102Y0344389D01*
X0016942Y0344504D01*
X0016779Y0344615D01*
X0016613Y0344722D01*
X0016445Y0344826D01*
X0016274Y0344925D01*
X0016101Y0345020D01*
X0015925Y0345110D01*
X0015748Y0345197D01*
X0015568Y0345279D01*
X0015387Y0345357D01*
X0015204Y0345430D01*
X0015019Y0345499D01*
X0014832Y0345563D01*
X0014644Y0345623D01*
X0014454Y0345679D01*
X0014264Y0345729D01*
X0014072Y0345776D01*
X0013879Y0345817D01*
X0013685Y0345854D01*
X0013490Y0345886D01*
X0013294Y0345913D01*
X0013098Y0345936D01*
X0012901Y0345954D01*
X0012704Y0345967D01*
X0012507Y0345975D01*
X0012310Y0345979D01*
X0012310Y0345885D01*
X0012505Y0345881D01*
X0012700Y0345873D01*
X0012895Y0345860D01*
X0013089Y0345842D01*
X0013283Y0345820D01*
X0013476Y0345793D01*
X0013669Y0345761D01*
X0013860Y0345725D01*
X0014051Y0345684D01*
X0014241Y0345638D01*
X0014429Y0345588D01*
X0014617Y0345533D01*
X0014803Y0345474D01*
X0014987Y0345411D01*
X0015170Y0345342D01*
X0015351Y0345270D01*
X0015530Y0345193D01*
X0015708Y0345112D01*
X0015883Y0345026D01*
X0016057Y0344937D01*
X0016228Y0344843D01*
X0016396Y0344745D01*
X0016563Y0344643D01*
X0016727Y0344537D01*
X0016888Y0344427D01*
X0017046Y0344313D01*
X0017202Y0344196D01*
X0017355Y0344074D01*
X0017505Y0343949D01*
X0017652Y0343821D01*
X0017795Y0343689D01*
X0017936Y0343553D01*
X0018073Y0343414D01*
X0018207Y0343272D01*
X0018337Y0343127D01*
X0018464Y0342979D01*
X0018587Y0342827D01*
X0018706Y0342673D01*
X0018822Y0342516D01*
X0018933Y0342356D01*
X0019041Y0342193D01*
X0019145Y0342028D01*
X0019245Y0341860D01*
X0019164Y0341814D01*
X0019065Y0341979D01*
X0018962Y0342143D01*
X0018855Y0342303D01*
X0018745Y0342461D01*
X0018631Y0342617D01*
X0018513Y0342769D01*
X0018391Y0342919D01*
X0018266Y0343065D01*
X0018137Y0343209D01*
X0018005Y0343349D01*
X0017870Y0343487D01*
X0017731Y0343621D01*
X0017589Y0343751D01*
X0017444Y0343878D01*
X0017296Y0344002D01*
X0017145Y0344121D01*
X0016991Y0344238D01*
X0016834Y0344350D01*
X0016675Y0344459D01*
X0016513Y0344563D01*
X0016348Y0344664D01*
X0016182Y0344761D01*
X0016012Y0344854D01*
X0015841Y0344942D01*
X0015668Y0345027D01*
X0015492Y0345107D01*
X0015315Y0345183D01*
X0015136Y0345255D01*
X0014955Y0345322D01*
X0014773Y0345385D01*
X0014589Y0345443D01*
X0014404Y0345497D01*
X0014218Y0345547D01*
X0014030Y0345592D01*
X0013842Y0345633D01*
X0013653Y0345669D01*
X0013462Y0345700D01*
X0013271Y0345727D01*
X0013080Y0345749D01*
X0012888Y0345766D01*
X0012695Y0345779D01*
X0012503Y0345787D01*
X0012310Y0345791D01*
X0012310Y0345697D01*
X0012500Y0345693D01*
X0012691Y0345685D01*
X0012881Y0345673D01*
X0013071Y0345655D01*
X0013260Y0345633D01*
X0013448Y0345607D01*
X0013636Y0345576D01*
X0013824Y0345540D01*
X0014010Y0345500D01*
X0014195Y0345456D01*
X0014379Y0345407D01*
X0014562Y0345353D01*
X0014744Y0345296D01*
X0014924Y0345233D01*
X0015102Y0345167D01*
X0015279Y0345096D01*
X0015454Y0345021D01*
X0015628Y0344942D01*
X0015799Y0344858D01*
X0015968Y0344771D01*
X0016135Y0344679D01*
X0016300Y0344583D01*
X0016463Y0344484D01*
X0016623Y0344380D01*
X0016780Y0344273D01*
X0016935Y0344162D01*
X0017087Y0344047D01*
X0017236Y0343929D01*
X0017382Y0343807D01*
X0017526Y0343681D01*
X0017666Y0343552D01*
X0017803Y0343420D01*
X0017937Y0343284D01*
X0018068Y0343146D01*
X0018195Y0343004D01*
X0018319Y0342859D01*
X0018439Y0342711D01*
X0018555Y0342560D01*
X0018668Y0342407D01*
X0018777Y0342251D01*
X0018883Y0342092D01*
X0018984Y0341931D01*
X0019082Y0341767D01*
X0019000Y0341720D01*
X0018904Y0341882D01*
X0018804Y0342041D01*
X0018700Y0342198D01*
X0018592Y0342353D01*
X0018480Y0342504D01*
X0018365Y0342653D01*
X0018246Y0342799D01*
X0018124Y0342942D01*
X0017998Y0343082D01*
X0017869Y0343219D01*
X0017737Y0343353D01*
X0017601Y0343484D01*
X0017463Y0343611D01*
X0017321Y0343735D01*
X0017177Y0343856D01*
X0017029Y0343973D01*
X0016879Y0344086D01*
X0016726Y0344196D01*
X0016570Y0344302D01*
X0016412Y0344404D01*
X0016252Y0344503D01*
X0016089Y0344597D01*
X0015924Y0344688D01*
X0015757Y0344774D01*
X0015588Y0344857D01*
X0015417Y0344935D01*
X0015244Y0345009D01*
X0015069Y0345079D01*
X0014892Y0345145D01*
X0014714Y0345206D01*
X0014535Y0345263D01*
X0014354Y0345316D01*
X0014172Y0345365D01*
X0013989Y0345409D01*
X0013805Y0345448D01*
X0013620Y0345483D01*
X0013435Y0345514D01*
X0013248Y0345540D01*
X0013061Y0345562D01*
X0012874Y0345579D01*
X0012686Y0345591D01*
X0012498Y0345599D01*
X0012310Y0345603D01*
X0012310Y0345509D01*
X0012496Y0345505D01*
X0012681Y0345497D01*
X0012867Y0345485D01*
X0013052Y0345468D01*
X0013237Y0345447D01*
X0013421Y0345421D01*
X0013604Y0345391D01*
X0013787Y0345356D01*
X0013969Y0345317D01*
X0014150Y0345273D01*
X0014329Y0345226D01*
X0014508Y0345173D01*
X0014685Y0345117D01*
X0014861Y0345056D01*
X0015035Y0344991D01*
X0015208Y0344922D01*
X0015379Y0344849D01*
X0015548Y0344772D01*
X0015715Y0344690D01*
X0015880Y0344605D01*
X0016043Y0344515D01*
X0016204Y0344422D01*
X0016362Y0344325D01*
X0016518Y0344224D01*
X0016672Y0344119D01*
X0016823Y0344011D01*
X0016972Y0343899D01*
X0017117Y0343783D01*
X0017260Y0343664D01*
X0017400Y0343542D01*
X0017537Y0343416D01*
X0017671Y0343287D01*
X0017801Y0343154D01*
X0017929Y0343019D01*
X0018053Y0342881D01*
X0018174Y0342739D01*
X0018291Y0342595D01*
X0018405Y0342448D01*
X0018515Y0342298D01*
X0018622Y0342146D01*
X0018724Y0341991D01*
X0018823Y0341833D01*
X0018919Y0341674D01*
X0018837Y0341627D01*
X0018743Y0341785D01*
X0018645Y0341940D01*
X0018544Y0342093D01*
X0018438Y0342244D01*
X0018329Y0342392D01*
X0018217Y0342537D01*
X0018101Y0342679D01*
X0017982Y0342819D01*
X0017859Y0342956D01*
X0017733Y0343089D01*
X0017604Y0343220D01*
X0017472Y0343348D01*
X0017337Y0343472D01*
X0017199Y0343593D01*
X0017058Y0343710D01*
X0016914Y0343824D01*
X0016767Y0343935D01*
X0016618Y0344042D01*
X0016466Y0344146D01*
X0016312Y0344245D01*
X0016156Y0344341D01*
X0015997Y0344433D01*
X0015836Y0344522D01*
X0015673Y0344606D01*
X0015508Y0344687D01*
X0015341Y0344763D01*
X0015172Y0344835D01*
X0015001Y0344904D01*
X0014829Y0344968D01*
X0014656Y0345028D01*
X0014481Y0345084D01*
X0014304Y0345135D01*
X0014127Y0345182D01*
X0013948Y0345225D01*
X0013769Y0345264D01*
X0013588Y0345298D01*
X0013407Y0345328D01*
X0013225Y0345353D01*
X0013043Y0345375D01*
X0012860Y0345391D01*
X0012677Y0345404D01*
X0012493Y0345411D01*
X0012310Y0345415D01*
X0012310Y0329362D02*
X0012310Y0330262D01*
X0012310Y0330261D02*
X0012493Y0330265D01*
X0012676Y0330272D01*
X0012859Y0330285D01*
X0013042Y0330302D01*
X0013224Y0330323D01*
X0013405Y0330348D01*
X0013586Y0330378D01*
X0013766Y0330413D01*
X0013945Y0330451D01*
X0014123Y0330494D01*
X0014300Y0330542D01*
X0014475Y0330593D01*
X0014650Y0330649D01*
X0014823Y0330709D01*
X0014994Y0330774D01*
X0015164Y0330842D01*
X0015333Y0330914D01*
X0015499Y0330991D01*
X0015663Y0331072D01*
X0015826Y0331156D01*
X0015986Y0331245D01*
X0016145Y0331337D01*
X0016301Y0331433D01*
X0016454Y0331533D01*
X0016605Y0331637D01*
X0016754Y0331744D01*
X0016900Y0331855D01*
X0017043Y0331969D01*
X0017183Y0332087D01*
X0017320Y0332208D01*
X0017455Y0332332D01*
X0017586Y0332460D01*
X0017715Y0332591D01*
X0017840Y0332725D01*
X0017961Y0332861D01*
X0018080Y0333001D01*
X0018195Y0333144D01*
X0018306Y0333289D01*
X0018414Y0333437D01*
X0018518Y0333588D01*
X0018619Y0333741D01*
X0018716Y0333896D01*
X0018809Y0334054D01*
X0018898Y0334214D01*
X0019692Y0333791D01*
X0019592Y0333611D01*
X0019488Y0333434D01*
X0019380Y0333260D01*
X0019267Y0333088D01*
X0019150Y0332920D01*
X0019029Y0332754D01*
X0018905Y0332591D01*
X0018776Y0332431D01*
X0018643Y0332274D01*
X0018507Y0332121D01*
X0018367Y0331971D01*
X0018223Y0331824D01*
X0018076Y0331681D01*
X0017925Y0331541D01*
X0017771Y0331406D01*
X0017614Y0331274D01*
X0017454Y0331146D01*
X0017290Y0331021D01*
X0017124Y0330901D01*
X0016954Y0330785D01*
X0016782Y0330673D01*
X0016608Y0330565D01*
X0016430Y0330462D01*
X0016251Y0330363D01*
X0016068Y0330268D01*
X0015884Y0330178D01*
X0015698Y0330092D01*
X0015509Y0330011D01*
X0015319Y0329934D01*
X0015126Y0329862D01*
X0014932Y0329795D01*
X0014737Y0329732D01*
X0014540Y0329674D01*
X0014342Y0329621D01*
X0014142Y0329573D01*
X0013941Y0329530D01*
X0013740Y0329492D01*
X0013537Y0329458D01*
X0013334Y0329430D01*
X0013130Y0329406D01*
X0012925Y0329387D01*
X0012721Y0329374D01*
X0012516Y0329365D01*
X0012310Y0329361D01*
X0012310Y0329455D01*
X0012513Y0329459D01*
X0012716Y0329467D01*
X0012919Y0329481D01*
X0013121Y0329499D01*
X0013322Y0329523D01*
X0013523Y0329551D01*
X0013724Y0329584D01*
X0013923Y0329622D01*
X0014121Y0329665D01*
X0014319Y0329713D01*
X0014515Y0329765D01*
X0014710Y0329822D01*
X0014903Y0329884D01*
X0015095Y0329951D01*
X0015285Y0330022D01*
X0015473Y0330097D01*
X0015659Y0330178D01*
X0015844Y0330263D01*
X0016026Y0330352D01*
X0016206Y0330446D01*
X0016384Y0330544D01*
X0016559Y0330646D01*
X0016732Y0330752D01*
X0016902Y0330863D01*
X0017070Y0330978D01*
X0017234Y0331097D01*
X0017396Y0331220D01*
X0017554Y0331346D01*
X0017710Y0331477D01*
X0017862Y0331611D01*
X0018011Y0331749D01*
X0018157Y0331890D01*
X0018299Y0332035D01*
X0018437Y0332184D01*
X0018572Y0332335D01*
X0018703Y0332490D01*
X0018830Y0332648D01*
X0018954Y0332810D01*
X0019073Y0332974D01*
X0019189Y0333141D01*
X0019300Y0333310D01*
X0019408Y0333483D01*
X0019511Y0333658D01*
X0019609Y0333835D01*
X0019526Y0333879D01*
X0019429Y0333704D01*
X0019327Y0333531D01*
X0019221Y0333361D01*
X0019111Y0333193D01*
X0018997Y0333028D01*
X0018878Y0332866D01*
X0018756Y0332706D01*
X0018630Y0332550D01*
X0018501Y0332397D01*
X0018367Y0332247D01*
X0018231Y0332100D01*
X0018090Y0331957D01*
X0017946Y0331817D01*
X0017799Y0331681D01*
X0017648Y0331548D01*
X0017495Y0331419D01*
X0017338Y0331294D01*
X0017178Y0331172D01*
X0017015Y0331055D01*
X0016850Y0330941D01*
X0016682Y0330832D01*
X0016511Y0330726D01*
X0016338Y0330625D01*
X0016162Y0330528D01*
X0015984Y0330436D01*
X0015804Y0330348D01*
X0015621Y0330264D01*
X0015437Y0330184D01*
X0015251Y0330109D01*
X0015063Y0330039D01*
X0014873Y0329973D01*
X0014682Y0329912D01*
X0014490Y0329856D01*
X0014296Y0329804D01*
X0014101Y0329757D01*
X0013905Y0329714D01*
X0013707Y0329677D01*
X0013509Y0329644D01*
X0013311Y0329616D01*
X0013111Y0329593D01*
X0012912Y0329575D01*
X0012711Y0329561D01*
X0012511Y0329553D01*
X0012310Y0329549D01*
X0012310Y0329643D01*
X0012509Y0329647D01*
X0012707Y0329655D01*
X0012905Y0329668D01*
X0013102Y0329687D01*
X0013299Y0329709D01*
X0013496Y0329737D01*
X0013691Y0329769D01*
X0013886Y0329807D01*
X0014080Y0329848D01*
X0014273Y0329895D01*
X0014465Y0329946D01*
X0014655Y0330002D01*
X0014844Y0330062D01*
X0015031Y0330127D01*
X0015217Y0330197D01*
X0015401Y0330271D01*
X0015583Y0330350D01*
X0015763Y0330433D01*
X0015942Y0330520D01*
X0016118Y0330611D01*
X0016291Y0330707D01*
X0016463Y0330807D01*
X0016631Y0330911D01*
X0016798Y0331019D01*
X0016961Y0331132D01*
X0017122Y0331248D01*
X0017280Y0331368D01*
X0017435Y0331492D01*
X0017587Y0331619D01*
X0017736Y0331750D01*
X0017881Y0331885D01*
X0018024Y0332023D01*
X0018162Y0332165D01*
X0018298Y0332310D01*
X0018430Y0332458D01*
X0018558Y0332610D01*
X0018682Y0332764D01*
X0018803Y0332921D01*
X0018920Y0333082D01*
X0019033Y0333245D01*
X0019141Y0333411D01*
X0019246Y0333579D01*
X0019347Y0333750D01*
X0019443Y0333923D01*
X0019361Y0333968D01*
X0019265Y0333796D01*
X0019166Y0333627D01*
X0019062Y0333461D01*
X0018954Y0333297D01*
X0018843Y0333136D01*
X0018727Y0332977D01*
X0018608Y0332822D01*
X0018485Y0332669D01*
X0018358Y0332520D01*
X0018228Y0332373D01*
X0018094Y0332230D01*
X0017957Y0332090D01*
X0017816Y0331953D01*
X0017673Y0331820D01*
X0017526Y0331690D01*
X0017375Y0331564D01*
X0017222Y0331442D01*
X0017066Y0331323D01*
X0016907Y0331208D01*
X0016745Y0331098D01*
X0016581Y0330991D01*
X0016414Y0330888D01*
X0016245Y0330789D01*
X0016073Y0330694D01*
X0015899Y0330604D01*
X0015723Y0330517D01*
X0015545Y0330436D01*
X0015365Y0330358D01*
X0015183Y0330285D01*
X0015000Y0330216D01*
X0014814Y0330152D01*
X0014628Y0330092D01*
X0014440Y0330037D01*
X0014250Y0329986D01*
X0014060Y0329940D01*
X0013868Y0329899D01*
X0013675Y0329862D01*
X0013482Y0329830D01*
X0013288Y0329803D01*
X0013093Y0329780D01*
X0012898Y0329762D01*
X0012702Y0329749D01*
X0012506Y0329741D01*
X0012310Y0329737D01*
X0012310Y0329831D01*
X0012504Y0329835D01*
X0012698Y0329843D01*
X0012891Y0329856D01*
X0013084Y0329874D01*
X0013276Y0329896D01*
X0013468Y0329923D01*
X0013659Y0329955D01*
X0013850Y0329991D01*
X0014039Y0330032D01*
X0014227Y0330077D01*
X0014414Y0330127D01*
X0014600Y0330182D01*
X0014785Y0330241D01*
X0014968Y0330304D01*
X0015149Y0330372D01*
X0015329Y0330445D01*
X0015507Y0330521D01*
X0015683Y0330602D01*
X0015857Y0330688D01*
X0016029Y0330777D01*
X0016199Y0330871D01*
X0016366Y0330968D01*
X0016531Y0331070D01*
X0016693Y0331176D01*
X0016853Y0331285D01*
X0017010Y0331399D01*
X0017164Y0331516D01*
X0017316Y0331637D01*
X0017464Y0331761D01*
X0017609Y0331889D01*
X0017752Y0332021D01*
X0017891Y0332156D01*
X0018026Y0332294D01*
X0018158Y0332436D01*
X0018287Y0332581D01*
X0018412Y0332729D01*
X0018534Y0332880D01*
X0018652Y0333033D01*
X0018766Y0333190D01*
X0018876Y0333349D01*
X0018982Y0333511D01*
X0019085Y0333676D01*
X0019183Y0333843D01*
X0019278Y0334012D01*
X0019195Y0334056D01*
X0019101Y0333889D01*
X0019004Y0333724D01*
X0018903Y0333561D01*
X0018798Y0333401D01*
X0018689Y0333244D01*
X0018576Y0333089D01*
X0018460Y0332937D01*
X0018340Y0332788D01*
X0018216Y0332642D01*
X0018089Y0332499D01*
X0017958Y0332359D01*
X0017824Y0332223D01*
X0017687Y0332089D01*
X0017546Y0331959D01*
X0017403Y0331832D01*
X0017256Y0331709D01*
X0017106Y0331590D01*
X0016954Y0331474D01*
X0016799Y0331362D01*
X0016641Y0331254D01*
X0016480Y0331149D01*
X0016317Y0331049D01*
X0016152Y0330952D01*
X0015985Y0330860D01*
X0015815Y0330772D01*
X0015643Y0330687D01*
X0015469Y0330607D01*
X0015293Y0330532D01*
X0015115Y0330460D01*
X0014936Y0330393D01*
X0014755Y0330330D01*
X0014573Y0330272D01*
X0014389Y0330218D01*
X0014204Y0330168D01*
X0014018Y0330124D01*
X0013831Y0330083D01*
X0013643Y0330047D01*
X0013454Y0330016D01*
X0013265Y0329989D01*
X0013075Y0329967D01*
X0012884Y0329950D01*
X0012693Y0329937D01*
X0012502Y0329929D01*
X0012310Y0329925D01*
X0012310Y0330019D01*
X0012499Y0330023D01*
X0012688Y0330031D01*
X0012877Y0330043D01*
X0013065Y0330061D01*
X0013253Y0330083D01*
X0013440Y0330109D01*
X0013627Y0330140D01*
X0013813Y0330175D01*
X0013998Y0330215D01*
X0014182Y0330260D01*
X0014364Y0330309D01*
X0014546Y0330362D01*
X0014726Y0330419D01*
X0014904Y0330481D01*
X0015082Y0330548D01*
X0015257Y0330618D01*
X0015431Y0330693D01*
X0015603Y0330772D01*
X0015772Y0330856D01*
X0015940Y0330943D01*
X0016106Y0331034D01*
X0016269Y0331130D01*
X0016430Y0331229D01*
X0016589Y0331332D01*
X0016745Y0331439D01*
X0016898Y0331550D01*
X0017049Y0331664D01*
X0017196Y0331782D01*
X0017341Y0331904D01*
X0017483Y0332029D01*
X0017622Y0332157D01*
X0017757Y0332289D01*
X0017890Y0332424D01*
X0018019Y0332562D01*
X0018145Y0332704D01*
X0018267Y0332848D01*
X0018386Y0332995D01*
X0018501Y0333145D01*
X0018612Y0333298D01*
X0018720Y0333454D01*
X0018824Y0333612D01*
X0018924Y0333772D01*
X0019020Y0333935D01*
X0019112Y0334100D01*
X0019029Y0334145D01*
X0018938Y0333981D01*
X0018843Y0333820D01*
X0018744Y0333662D01*
X0018642Y0333506D01*
X0018535Y0333352D01*
X0018425Y0333201D01*
X0018311Y0333053D01*
X0018194Y0332907D01*
X0018073Y0332765D01*
X0017949Y0332625D01*
X0017822Y0332489D01*
X0017691Y0332355D01*
X0017557Y0332225D01*
X0017420Y0332098D01*
X0017280Y0331975D01*
X0017137Y0331855D01*
X0016991Y0331738D01*
X0016842Y0331625D01*
X0016690Y0331516D01*
X0016536Y0331410D01*
X0016380Y0331308D01*
X0016221Y0331210D01*
X0016059Y0331116D01*
X0015896Y0331026D01*
X0015730Y0330939D01*
X0015562Y0330857D01*
X0015393Y0330779D01*
X0015221Y0330705D01*
X0015048Y0330636D01*
X0014873Y0330570D01*
X0014696Y0330509D01*
X0014518Y0330452D01*
X0014339Y0330399D01*
X0014159Y0330351D01*
X0013977Y0330307D01*
X0013794Y0330267D01*
X0013611Y0330232D01*
X0013427Y0330202D01*
X0013242Y0330176D01*
X0013056Y0330154D01*
X0012870Y0330137D01*
X0012684Y0330125D01*
X0012497Y0330117D01*
X0012310Y0330113D01*
X0012310Y0330207D01*
X0012495Y0330211D01*
X0012679Y0330219D01*
X0012863Y0330231D01*
X0013047Y0330248D01*
X0013230Y0330269D01*
X0013413Y0330295D01*
X0013595Y0330325D01*
X0013776Y0330360D01*
X0013956Y0330399D01*
X0014136Y0330442D01*
X0014314Y0330490D01*
X0014491Y0330542D01*
X0014667Y0330598D01*
X0014841Y0330658D01*
X0015014Y0330723D01*
X0015185Y0330792D01*
X0015354Y0330865D01*
X0015522Y0330942D01*
X0015688Y0331023D01*
X0015851Y0331109D01*
X0016013Y0331198D01*
X0016172Y0331291D01*
X0016329Y0331388D01*
X0016484Y0331488D01*
X0016636Y0331593D01*
X0016786Y0331701D01*
X0016933Y0331812D01*
X0017077Y0331927D01*
X0017218Y0332046D01*
X0017357Y0332168D01*
X0017492Y0332293D01*
X0017624Y0332422D01*
X0017754Y0332554D01*
X0017880Y0332688D01*
X0018002Y0332826D01*
X0018121Y0332967D01*
X0018237Y0333111D01*
X0018350Y0333257D01*
X0018458Y0333406D01*
X0018563Y0333558D01*
X0018665Y0333712D01*
X0018762Y0333869D01*
X0018856Y0334028D01*
X0018946Y0334189D01*
X0005801Y0332363D02*
X0006493Y0332940D01*
X0006492Y0332939D02*
X0006611Y0332802D01*
X0006732Y0332668D01*
X0006857Y0332537D01*
X0006985Y0332409D01*
X0007116Y0332285D01*
X0007250Y0332163D01*
X0007387Y0332044D01*
X0007526Y0331929D01*
X0007669Y0331818D01*
X0007814Y0331709D01*
X0007961Y0331604D01*
X0008111Y0331503D01*
X0008263Y0331406D01*
X0008418Y0331312D01*
X0008575Y0331221D01*
X0008734Y0331135D01*
X0008895Y0331052D01*
X0009058Y0330974D01*
X0009223Y0330899D01*
X0009389Y0330828D01*
X0009557Y0330761D01*
X0009727Y0330699D01*
X0009898Y0330640D01*
X0010071Y0330585D01*
X0010244Y0330535D01*
X0010419Y0330489D01*
X0010595Y0330447D01*
X0010772Y0330409D01*
X0010950Y0330376D01*
X0011129Y0330346D01*
X0011308Y0330321D01*
X0011488Y0330301D01*
X0011668Y0330284D01*
X0011848Y0330272D01*
X0012029Y0330265D01*
X0012210Y0330261D01*
X0012211Y0329362D01*
X0012210Y0329361D01*
X0012007Y0329365D01*
X0011805Y0329373D01*
X0011602Y0329387D01*
X0011400Y0329405D01*
X0011199Y0329428D01*
X0010998Y0329456D01*
X0010798Y0329489D01*
X0010598Y0329526D01*
X0010400Y0329568D01*
X0010202Y0329615D01*
X0010006Y0329667D01*
X0009812Y0329724D01*
X0009618Y0329785D01*
X0009426Y0329850D01*
X0009236Y0329921D01*
X0009047Y0329996D01*
X0008861Y0330075D01*
X0008676Y0330159D01*
X0008493Y0330247D01*
X0008313Y0330340D01*
X0008135Y0330436D01*
X0007959Y0330538D01*
X0007786Y0330643D01*
X0007615Y0330752D01*
X0007447Y0330866D01*
X0007281Y0330983D01*
X0007119Y0331105D01*
X0006959Y0331230D01*
X0006803Y0331359D01*
X0006650Y0331492D01*
X0006500Y0331629D01*
X0006353Y0331769D01*
X0006210Y0331912D01*
X0006070Y0332059D01*
X0005933Y0332209D01*
X0005801Y0332363D01*
X0005873Y0332423D01*
X0006004Y0332271D01*
X0006139Y0332123D01*
X0006277Y0331978D01*
X0006419Y0331836D01*
X0006564Y0331697D01*
X0006712Y0331562D01*
X0006864Y0331431D01*
X0007019Y0331303D01*
X0007176Y0331179D01*
X0007337Y0331059D01*
X0007500Y0330943D01*
X0007667Y0330831D01*
X0007835Y0330723D01*
X0008007Y0330618D01*
X0008181Y0330518D01*
X0008357Y0330423D01*
X0008535Y0330331D01*
X0008716Y0330244D01*
X0008899Y0330161D01*
X0009083Y0330082D01*
X0009269Y0330008D01*
X0009458Y0329939D01*
X0009647Y0329874D01*
X0009839Y0329814D01*
X0010031Y0329758D01*
X0010225Y0329707D01*
X0010420Y0329660D01*
X0010616Y0329618D01*
X0010813Y0329581D01*
X0011011Y0329549D01*
X0011210Y0329521D01*
X0011409Y0329498D01*
X0011609Y0329480D01*
X0011809Y0329467D01*
X0012010Y0329459D01*
X0012210Y0329455D01*
X0012210Y0329549D01*
X0012012Y0329553D01*
X0011814Y0329561D01*
X0011616Y0329574D01*
X0011418Y0329592D01*
X0011221Y0329615D01*
X0011025Y0329642D01*
X0010829Y0329674D01*
X0010635Y0329710D01*
X0010441Y0329752D01*
X0010248Y0329798D01*
X0010056Y0329848D01*
X0009866Y0329904D01*
X0009677Y0329963D01*
X0009489Y0330028D01*
X0009303Y0330096D01*
X0009119Y0330169D01*
X0008936Y0330247D01*
X0008756Y0330329D01*
X0008577Y0330415D01*
X0008401Y0330506D01*
X0008227Y0330600D01*
X0008055Y0330699D01*
X0007885Y0330802D01*
X0007718Y0330909D01*
X0007554Y0331020D01*
X0007393Y0331135D01*
X0007234Y0331254D01*
X0007078Y0331376D01*
X0006925Y0331502D01*
X0006775Y0331632D01*
X0006628Y0331766D01*
X0006485Y0331903D01*
X0006345Y0332043D01*
X0006208Y0332186D01*
X0006075Y0332333D01*
X0005945Y0332483D01*
X0006017Y0332543D01*
X0006146Y0332395D01*
X0006277Y0332250D01*
X0006412Y0332108D01*
X0006551Y0331970D01*
X0006693Y0331834D01*
X0006838Y0331702D01*
X0006986Y0331574D01*
X0007137Y0331449D01*
X0007291Y0331328D01*
X0007448Y0331211D01*
X0007608Y0331097D01*
X0007770Y0330988D01*
X0007935Y0330882D01*
X0008103Y0330780D01*
X0008273Y0330682D01*
X0008445Y0330589D01*
X0008619Y0330499D01*
X0008796Y0330414D01*
X0008974Y0330333D01*
X0009154Y0330256D01*
X0009337Y0330184D01*
X0009520Y0330116D01*
X0009706Y0330053D01*
X0009893Y0329994D01*
X0010081Y0329939D01*
X0010270Y0329889D01*
X0010461Y0329844D01*
X0010653Y0329803D01*
X0010845Y0329766D01*
X0011039Y0329735D01*
X0011233Y0329708D01*
X0011428Y0329686D01*
X0011623Y0329668D01*
X0011818Y0329655D01*
X0012014Y0329647D01*
X0012210Y0329643D01*
X0012210Y0329737D01*
X0012016Y0329741D01*
X0011823Y0329749D01*
X0011630Y0329762D01*
X0011437Y0329779D01*
X0011244Y0329801D01*
X0011052Y0329828D01*
X0010861Y0329859D01*
X0010671Y0329895D01*
X0010481Y0329935D01*
X0010293Y0329980D01*
X0010106Y0330030D01*
X0009920Y0330084D01*
X0009735Y0330142D01*
X0009552Y0330205D01*
X0009370Y0330272D01*
X0009190Y0330343D01*
X0009012Y0330419D01*
X0008835Y0330499D01*
X0008661Y0330583D01*
X0008489Y0330672D01*
X0008319Y0330764D01*
X0008151Y0330861D01*
X0007985Y0330962D01*
X0007822Y0331066D01*
X0007662Y0331174D01*
X0007504Y0331287D01*
X0007349Y0331403D01*
X0007196Y0331522D01*
X0007047Y0331646D01*
X0006900Y0331772D01*
X0006757Y0331903D01*
X0006617Y0332036D01*
X0006480Y0332173D01*
X0006347Y0332314D01*
X0006216Y0332457D01*
X0006090Y0332604D01*
X0006162Y0332664D01*
X0006287Y0332519D01*
X0006416Y0332377D01*
X0006548Y0332239D01*
X0006683Y0332103D01*
X0006822Y0331971D01*
X0006963Y0331842D01*
X0007108Y0331717D01*
X0007255Y0331595D01*
X0007406Y0331477D01*
X0007559Y0331362D01*
X0007715Y0331252D01*
X0007874Y0331144D01*
X0008035Y0331041D01*
X0008199Y0330942D01*
X0008365Y0330846D01*
X0008533Y0330755D01*
X0008703Y0330668D01*
X0008875Y0330584D01*
X0009050Y0330505D01*
X0009226Y0330430D01*
X0009404Y0330360D01*
X0009583Y0330293D01*
X0009764Y0330231D01*
X0009947Y0330174D01*
X0010131Y0330120D01*
X0010316Y0330071D01*
X0010502Y0330027D01*
X0010689Y0329987D01*
X0010877Y0329952D01*
X0011066Y0329921D01*
X0011256Y0329894D01*
X0011446Y0329873D01*
X0011636Y0329855D01*
X0011827Y0329843D01*
X0012019Y0329835D01*
X0012210Y0329831D01*
X0012210Y0329925D01*
X0012021Y0329929D01*
X0011832Y0329937D01*
X0011643Y0329949D01*
X0011455Y0329966D01*
X0011267Y0329988D01*
X0011080Y0330014D01*
X0010893Y0330044D01*
X0010707Y0330079D01*
X0010522Y0330119D01*
X0010338Y0330163D01*
X0010156Y0330211D01*
X0009974Y0330264D01*
X0009794Y0330321D01*
X0009615Y0330382D01*
X0009437Y0330448D01*
X0009261Y0330517D01*
X0009087Y0330591D01*
X0008915Y0330669D01*
X0008745Y0330752D01*
X0008577Y0330838D01*
X0008411Y0330928D01*
X0008247Y0331023D01*
X0008085Y0331121D01*
X0007926Y0331223D01*
X0007769Y0331329D01*
X0007615Y0331438D01*
X0007463Y0331552D01*
X0007315Y0331668D01*
X0007169Y0331789D01*
X0007026Y0331912D01*
X0006886Y0332040D01*
X0006749Y0332170D01*
X0006615Y0332304D01*
X0006485Y0332441D01*
X0006358Y0332581D01*
X0006234Y0332724D01*
X0006306Y0332784D01*
X0006429Y0332643D01*
X0006554Y0332505D01*
X0006683Y0332369D01*
X0006815Y0332237D01*
X0006950Y0332108D01*
X0007089Y0331983D01*
X0007230Y0331860D01*
X0007374Y0331741D01*
X0007521Y0331626D01*
X0007670Y0331514D01*
X0007823Y0331406D01*
X0007978Y0331301D01*
X0008135Y0331201D01*
X0008295Y0331104D01*
X0008456Y0331010D01*
X0008621Y0330921D01*
X0008787Y0330836D01*
X0008955Y0330755D01*
X0009125Y0330677D01*
X0009297Y0330604D01*
X0009471Y0330535D01*
X0009646Y0330471D01*
X0009823Y0330410D01*
X0010001Y0330354D01*
X0010180Y0330302D01*
X0010361Y0330254D01*
X0010543Y0330211D01*
X0010725Y0330172D01*
X0010909Y0330137D01*
X0011093Y0330107D01*
X0011278Y0330081D01*
X0011464Y0330060D01*
X0011650Y0330043D01*
X0011837Y0330031D01*
X0012023Y0330023D01*
X0012210Y0330019D01*
X0012210Y0330113D01*
X0012026Y0330117D01*
X0011841Y0330124D01*
X0011657Y0330137D01*
X0011473Y0330153D01*
X0011290Y0330174D01*
X0011107Y0330200D01*
X0010925Y0330230D01*
X0010744Y0330264D01*
X0010563Y0330302D01*
X0010384Y0330345D01*
X0010205Y0330392D01*
X0010028Y0330444D01*
X0009852Y0330499D01*
X0009677Y0330559D01*
X0009504Y0330623D01*
X0009333Y0330691D01*
X0009163Y0330763D01*
X0008995Y0330840D01*
X0008829Y0330920D01*
X0008665Y0331004D01*
X0008502Y0331092D01*
X0008342Y0331184D01*
X0008185Y0331280D01*
X0008029Y0331380D01*
X0007876Y0331483D01*
X0007726Y0331590D01*
X0007578Y0331700D01*
X0007433Y0331814D01*
X0007291Y0331932D01*
X0007151Y0332053D01*
X0007015Y0332177D01*
X0006881Y0332304D01*
X0006751Y0332435D01*
X0006623Y0332568D01*
X0006499Y0332705D01*
X0006379Y0332844D01*
X0006451Y0332905D01*
X0006570Y0332767D01*
X0006693Y0332632D01*
X0006818Y0332500D01*
X0006947Y0332371D01*
X0007079Y0332245D01*
X0007214Y0332123D01*
X0007352Y0332003D01*
X0007492Y0331887D01*
X0007636Y0331775D01*
X0007782Y0331666D01*
X0007930Y0331560D01*
X0008081Y0331458D01*
X0008235Y0331360D01*
X0008390Y0331265D01*
X0008548Y0331174D01*
X0008709Y0331087D01*
X0008871Y0331004D01*
X0009035Y0330925D01*
X0009201Y0330850D01*
X0009369Y0330778D01*
X0009538Y0330711D01*
X0009709Y0330648D01*
X0009881Y0330589D01*
X0010055Y0330534D01*
X0010230Y0330483D01*
X0010406Y0330436D01*
X0010584Y0330394D01*
X0010762Y0330356D01*
X0010941Y0330322D01*
X0011121Y0330293D01*
X0011301Y0330268D01*
X0011482Y0330247D01*
X0011664Y0330230D01*
X0011846Y0330218D01*
X0012028Y0330211D01*
X0012210Y0330207D01*
X0012211Y0346260D02*
X0012211Y0345360D01*
X0012210Y0345361D02*
X0012026Y0345357D01*
X0011841Y0345349D01*
X0011657Y0345337D01*
X0011474Y0345320D01*
X0011290Y0345298D01*
X0011108Y0345273D01*
X0010926Y0345242D01*
X0010745Y0345207D01*
X0010564Y0345168D01*
X0010385Y0345124D01*
X0010207Y0345076D01*
X0010030Y0345024D01*
X0009854Y0344967D01*
X0009680Y0344907D01*
X0009508Y0344841D01*
X0009337Y0344772D01*
X0009167Y0344699D01*
X0009000Y0344621D01*
X0008835Y0344539D01*
X0008671Y0344454D01*
X0008510Y0344364D01*
X0008351Y0344270D01*
X0008194Y0344173D01*
X0008040Y0344072D01*
X0007888Y0343967D01*
X0007739Y0343858D01*
X0007593Y0343746D01*
X0007449Y0343630D01*
X0007309Y0343511D01*
X0007171Y0343388D01*
X0007036Y0343262D01*
X0006904Y0343133D01*
X0006776Y0343000D01*
X0006651Y0342865D01*
X0006529Y0342726D01*
X0005842Y0343307D01*
X0005978Y0343463D01*
X0006119Y0343615D01*
X0006263Y0343764D01*
X0006410Y0343909D01*
X0006561Y0344050D01*
X0006715Y0344187D01*
X0006873Y0344321D01*
X0007034Y0344451D01*
X0007198Y0344577D01*
X0007365Y0344699D01*
X0007535Y0344817D01*
X0007708Y0344930D01*
X0007884Y0345039D01*
X0008062Y0345144D01*
X0008243Y0345245D01*
X0008426Y0345341D01*
X0008611Y0345433D01*
X0008799Y0345520D01*
X0008989Y0345602D01*
X0009180Y0345680D01*
X0009374Y0345753D01*
X0009569Y0345821D01*
X0009766Y0345885D01*
X0009964Y0345943D01*
X0010164Y0345997D01*
X0010365Y0346046D01*
X0010567Y0346090D01*
X0010770Y0346129D01*
X0010974Y0346163D01*
X0011179Y0346192D01*
X0011384Y0346216D01*
X0011590Y0346234D01*
X0011797Y0346248D01*
X0012003Y0346257D01*
X0012210Y0346261D01*
X0012210Y0346167D01*
X0012006Y0346163D01*
X0011801Y0346154D01*
X0011597Y0346141D01*
X0011394Y0346122D01*
X0011191Y0346098D01*
X0010988Y0346070D01*
X0010786Y0346036D01*
X0010586Y0345998D01*
X0010386Y0345954D01*
X0010187Y0345906D01*
X0009990Y0345853D01*
X0009793Y0345795D01*
X0009599Y0345732D01*
X0009406Y0345664D01*
X0009214Y0345592D01*
X0009025Y0345515D01*
X0008837Y0345434D01*
X0008652Y0345348D01*
X0008469Y0345257D01*
X0008287Y0345162D01*
X0008109Y0345063D01*
X0007933Y0344959D01*
X0007759Y0344851D01*
X0007588Y0344739D01*
X0007420Y0344622D01*
X0007255Y0344502D01*
X0007092Y0344377D01*
X0006933Y0344249D01*
X0006777Y0344117D01*
X0006625Y0343981D01*
X0006475Y0343841D01*
X0006330Y0343698D01*
X0006187Y0343551D01*
X0006049Y0343400D01*
X0005914Y0343247D01*
X0005985Y0343186D01*
X0006119Y0343338D01*
X0006256Y0343487D01*
X0006397Y0343632D01*
X0006541Y0343773D01*
X0006688Y0343912D01*
X0006839Y0344046D01*
X0006993Y0344177D01*
X0007151Y0344304D01*
X0007311Y0344427D01*
X0007475Y0344546D01*
X0007641Y0344661D01*
X0007810Y0344772D01*
X0007981Y0344879D01*
X0008156Y0344981D01*
X0008332Y0345080D01*
X0008511Y0345174D01*
X0008693Y0345263D01*
X0008876Y0345348D01*
X0009061Y0345429D01*
X0009249Y0345505D01*
X0009438Y0345576D01*
X0009629Y0345643D01*
X0009821Y0345705D01*
X0010015Y0345762D01*
X0010210Y0345815D01*
X0010407Y0345862D01*
X0010604Y0345905D01*
X0010803Y0345943D01*
X0011002Y0345977D01*
X0011202Y0346005D01*
X0011403Y0346028D01*
X0011604Y0346047D01*
X0011806Y0346061D01*
X0012008Y0346069D01*
X0012210Y0346073D01*
X0012210Y0345979D01*
X0012010Y0345975D01*
X0011811Y0345967D01*
X0011611Y0345953D01*
X0011412Y0345935D01*
X0011214Y0345912D01*
X0011016Y0345884D01*
X0010819Y0345851D01*
X0010623Y0345813D01*
X0010427Y0345771D01*
X0010233Y0345724D01*
X0010040Y0345672D01*
X0009849Y0345615D01*
X0009658Y0345554D01*
X0009470Y0345488D01*
X0009283Y0345417D01*
X0009098Y0345342D01*
X0008914Y0345262D01*
X0008733Y0345178D01*
X0008554Y0345090D01*
X0008377Y0344997D01*
X0008202Y0344900D01*
X0008030Y0344798D01*
X0007861Y0344693D01*
X0007693Y0344583D01*
X0007529Y0344469D01*
X0007368Y0344352D01*
X0007209Y0344230D01*
X0007054Y0344105D01*
X0006901Y0343975D01*
X0006752Y0343842D01*
X0006606Y0343706D01*
X0006464Y0343566D01*
X0006325Y0343422D01*
X0006189Y0343275D01*
X0006057Y0343125D01*
X0006129Y0343065D01*
X0006259Y0343213D01*
X0006393Y0343358D01*
X0006531Y0343500D01*
X0006672Y0343638D01*
X0006816Y0343773D01*
X0006963Y0343905D01*
X0007114Y0344032D01*
X0007268Y0344156D01*
X0007424Y0344277D01*
X0007584Y0344393D01*
X0007746Y0344505D01*
X0007911Y0344614D01*
X0008079Y0344718D01*
X0008249Y0344818D01*
X0008422Y0344914D01*
X0008597Y0345006D01*
X0008774Y0345094D01*
X0008953Y0345177D01*
X0009134Y0345255D01*
X0009317Y0345330D01*
X0009502Y0345399D01*
X0009688Y0345464D01*
X0009876Y0345525D01*
X0010066Y0345581D01*
X0010256Y0345632D01*
X0010448Y0345679D01*
X0010641Y0345721D01*
X0010835Y0345758D01*
X0011030Y0345791D01*
X0011226Y0345818D01*
X0011422Y0345841D01*
X0011618Y0345859D01*
X0011815Y0345873D01*
X0012013Y0345881D01*
X0012210Y0345885D01*
X0012210Y0345791D01*
X0012015Y0345787D01*
X0011820Y0345779D01*
X0011625Y0345766D01*
X0011431Y0345748D01*
X0011237Y0345725D01*
X0011044Y0345698D01*
X0010851Y0345666D01*
X0010660Y0345629D01*
X0010469Y0345587D01*
X0010279Y0345541D01*
X0010091Y0345491D01*
X0009904Y0345435D01*
X0009718Y0345375D01*
X0009534Y0345311D01*
X0009351Y0345242D01*
X0009170Y0345169D01*
X0008991Y0345091D01*
X0008814Y0345009D01*
X0008639Y0344922D01*
X0008467Y0344832D01*
X0008296Y0344737D01*
X0008128Y0344638D01*
X0007962Y0344535D01*
X0007799Y0344428D01*
X0007638Y0344317D01*
X0007481Y0344202D01*
X0007326Y0344083D01*
X0007174Y0343960D01*
X0007025Y0343834D01*
X0006879Y0343704D01*
X0006737Y0343571D01*
X0006598Y0343434D01*
X0006462Y0343294D01*
X0006330Y0343150D01*
X0006201Y0343004D01*
X0006273Y0342943D01*
X0006400Y0343088D01*
X0006531Y0343230D01*
X0006665Y0343368D01*
X0006802Y0343503D01*
X0006943Y0343635D01*
X0007087Y0343763D01*
X0007234Y0343888D01*
X0007384Y0344009D01*
X0007537Y0344126D01*
X0007693Y0344240D01*
X0007852Y0344350D01*
X0008013Y0344456D01*
X0008177Y0344557D01*
X0008343Y0344655D01*
X0008511Y0344749D01*
X0008682Y0344839D01*
X0008855Y0344924D01*
X0009030Y0345005D01*
X0009207Y0345082D01*
X0009385Y0345154D01*
X0009566Y0345223D01*
X0009748Y0345286D01*
X0009931Y0345345D01*
X0010116Y0345400D01*
X0010302Y0345450D01*
X0010490Y0345496D01*
X0010678Y0345537D01*
X0010868Y0345573D01*
X0011058Y0345605D01*
X0011249Y0345632D01*
X0011440Y0345654D01*
X0011632Y0345672D01*
X0011825Y0345685D01*
X0012017Y0345693D01*
X0012210Y0345697D01*
X0012210Y0345603D01*
X0012020Y0345599D01*
X0011829Y0345591D01*
X0011639Y0345578D01*
X0011450Y0345561D01*
X0011260Y0345539D01*
X0011072Y0345512D01*
X0010884Y0345481D01*
X0010697Y0345445D01*
X0010511Y0345404D01*
X0010326Y0345359D01*
X0010142Y0345310D01*
X0009959Y0345255D01*
X0009778Y0345197D01*
X0009598Y0345134D01*
X0009420Y0345067D01*
X0009243Y0344995D01*
X0009068Y0344919D01*
X0008896Y0344839D01*
X0008725Y0344755D01*
X0008556Y0344666D01*
X0008390Y0344574D01*
X0008225Y0344477D01*
X0008064Y0344377D01*
X0007904Y0344272D01*
X0007748Y0344164D01*
X0007594Y0344051D01*
X0007443Y0343935D01*
X0007294Y0343816D01*
X0007149Y0343693D01*
X0007007Y0343566D01*
X0006868Y0343436D01*
X0006732Y0343302D01*
X0006599Y0343166D01*
X0006470Y0343026D01*
X0006344Y0342882D01*
X0006416Y0342822D01*
X0006540Y0342963D01*
X0006668Y0343101D01*
X0006799Y0343236D01*
X0006933Y0343368D01*
X0007070Y0343497D01*
X0007211Y0343622D01*
X0007355Y0343744D01*
X0007501Y0343862D01*
X0007650Y0343976D01*
X0007802Y0344087D01*
X0007957Y0344194D01*
X0008114Y0344297D01*
X0008274Y0344397D01*
X0008436Y0344492D01*
X0008601Y0344584D01*
X0008767Y0344671D01*
X0008936Y0344754D01*
X0009107Y0344834D01*
X0009279Y0344909D01*
X0009454Y0344979D01*
X0009630Y0345046D01*
X0009807Y0345108D01*
X0009987Y0345166D01*
X0010167Y0345219D01*
X0010349Y0345268D01*
X0010531Y0345312D01*
X0010715Y0345352D01*
X0010900Y0345388D01*
X0011086Y0345419D01*
X0011272Y0345445D01*
X0011459Y0345467D01*
X0011646Y0345484D01*
X0011834Y0345497D01*
X0012022Y0345505D01*
X0012210Y0345509D01*
X0012210Y0345415D01*
X0012024Y0345411D01*
X0011839Y0345403D01*
X0011653Y0345391D01*
X0011468Y0345374D01*
X0011284Y0345352D01*
X0011100Y0345326D01*
X0010916Y0345295D01*
X0010734Y0345260D01*
X0010552Y0345221D01*
X0010372Y0345177D01*
X0010192Y0345128D01*
X0010014Y0345076D01*
X0009837Y0345019D01*
X0009662Y0344957D01*
X0009488Y0344892D01*
X0009316Y0344822D01*
X0009145Y0344748D01*
X0008977Y0344670D01*
X0008810Y0344587D01*
X0008646Y0344501D01*
X0008483Y0344411D01*
X0008323Y0344316D01*
X0008165Y0344218D01*
X0008010Y0344116D01*
X0007857Y0344011D01*
X0007707Y0343901D01*
X0007559Y0343788D01*
X0007415Y0343671D01*
X0007273Y0343551D01*
X0007134Y0343428D01*
X0006998Y0343301D01*
X0006866Y0343171D01*
X0006737Y0343037D01*
X0006610Y0342901D01*
X0006488Y0342761D01*
X0012625Y0305740D02*
X0012625Y0306640D01*
X0012625Y0306639D02*
X0012808Y0306643D01*
X0012991Y0306650D01*
X0013174Y0306663D01*
X0013357Y0306680D01*
X0013539Y0306701D01*
X0013720Y0306726D01*
X0013901Y0306756D01*
X0014081Y0306791D01*
X0014260Y0306829D01*
X0014438Y0306872D01*
X0014615Y0306920D01*
X0014790Y0306971D01*
X0014965Y0307027D01*
X0015138Y0307087D01*
X0015309Y0307152D01*
X0015479Y0307220D01*
X0015648Y0307292D01*
X0015814Y0307369D01*
X0015978Y0307450D01*
X0016141Y0307534D01*
X0016301Y0307623D01*
X0016460Y0307715D01*
X0016616Y0307811D01*
X0016769Y0307911D01*
X0016920Y0308015D01*
X0017069Y0308122D01*
X0017215Y0308233D01*
X0017358Y0308347D01*
X0017498Y0308465D01*
X0017635Y0308586D01*
X0017770Y0308710D01*
X0017901Y0308838D01*
X0018030Y0308969D01*
X0018155Y0309103D01*
X0018276Y0309239D01*
X0018395Y0309379D01*
X0018510Y0309522D01*
X0018621Y0309667D01*
X0018729Y0309815D01*
X0018833Y0309966D01*
X0018934Y0310119D01*
X0019031Y0310274D01*
X0019124Y0310432D01*
X0019213Y0310592D01*
X0020007Y0310169D01*
X0019907Y0309989D01*
X0019803Y0309812D01*
X0019695Y0309638D01*
X0019582Y0309466D01*
X0019465Y0309298D01*
X0019344Y0309132D01*
X0019220Y0308969D01*
X0019091Y0308809D01*
X0018958Y0308652D01*
X0018822Y0308499D01*
X0018682Y0308349D01*
X0018538Y0308202D01*
X0018391Y0308059D01*
X0018240Y0307919D01*
X0018086Y0307784D01*
X0017929Y0307652D01*
X0017769Y0307524D01*
X0017605Y0307399D01*
X0017439Y0307279D01*
X0017269Y0307163D01*
X0017097Y0307051D01*
X0016923Y0306943D01*
X0016745Y0306840D01*
X0016566Y0306741D01*
X0016383Y0306646D01*
X0016199Y0306556D01*
X0016013Y0306470D01*
X0015824Y0306389D01*
X0015634Y0306312D01*
X0015441Y0306240D01*
X0015247Y0306173D01*
X0015052Y0306110D01*
X0014855Y0306052D01*
X0014657Y0305999D01*
X0014457Y0305951D01*
X0014256Y0305908D01*
X0014055Y0305870D01*
X0013852Y0305836D01*
X0013649Y0305808D01*
X0013445Y0305784D01*
X0013240Y0305765D01*
X0013036Y0305752D01*
X0012831Y0305743D01*
X0012625Y0305739D01*
X0012625Y0305833D01*
X0012828Y0305837D01*
X0013031Y0305845D01*
X0013234Y0305859D01*
X0013436Y0305877D01*
X0013637Y0305901D01*
X0013838Y0305929D01*
X0014039Y0305962D01*
X0014238Y0306000D01*
X0014436Y0306043D01*
X0014634Y0306091D01*
X0014830Y0306143D01*
X0015025Y0306200D01*
X0015218Y0306262D01*
X0015410Y0306329D01*
X0015600Y0306400D01*
X0015788Y0306475D01*
X0015974Y0306556D01*
X0016159Y0306641D01*
X0016341Y0306730D01*
X0016521Y0306824D01*
X0016699Y0306922D01*
X0016874Y0307024D01*
X0017047Y0307130D01*
X0017217Y0307241D01*
X0017385Y0307356D01*
X0017549Y0307475D01*
X0017711Y0307598D01*
X0017869Y0307724D01*
X0018025Y0307855D01*
X0018177Y0307989D01*
X0018326Y0308127D01*
X0018472Y0308268D01*
X0018614Y0308413D01*
X0018752Y0308562D01*
X0018887Y0308713D01*
X0019018Y0308868D01*
X0019145Y0309026D01*
X0019269Y0309188D01*
X0019388Y0309352D01*
X0019504Y0309519D01*
X0019615Y0309688D01*
X0019723Y0309861D01*
X0019826Y0310036D01*
X0019924Y0310213D01*
X0019841Y0310257D01*
X0019744Y0310082D01*
X0019642Y0309909D01*
X0019536Y0309739D01*
X0019426Y0309571D01*
X0019312Y0309406D01*
X0019193Y0309244D01*
X0019071Y0309084D01*
X0018945Y0308928D01*
X0018816Y0308775D01*
X0018682Y0308625D01*
X0018546Y0308478D01*
X0018405Y0308335D01*
X0018261Y0308195D01*
X0018114Y0308059D01*
X0017963Y0307926D01*
X0017810Y0307797D01*
X0017653Y0307672D01*
X0017493Y0307550D01*
X0017330Y0307433D01*
X0017165Y0307319D01*
X0016997Y0307210D01*
X0016826Y0307104D01*
X0016653Y0307003D01*
X0016477Y0306906D01*
X0016299Y0306814D01*
X0016119Y0306726D01*
X0015936Y0306642D01*
X0015752Y0306562D01*
X0015566Y0306487D01*
X0015378Y0306417D01*
X0015188Y0306351D01*
X0014997Y0306290D01*
X0014805Y0306234D01*
X0014611Y0306182D01*
X0014416Y0306135D01*
X0014220Y0306092D01*
X0014022Y0306055D01*
X0013824Y0306022D01*
X0013626Y0305994D01*
X0013426Y0305971D01*
X0013227Y0305953D01*
X0013026Y0305939D01*
X0012826Y0305931D01*
X0012625Y0305927D01*
X0012625Y0306021D01*
X0012824Y0306025D01*
X0013022Y0306033D01*
X0013220Y0306046D01*
X0013417Y0306065D01*
X0013614Y0306087D01*
X0013811Y0306115D01*
X0014006Y0306147D01*
X0014201Y0306185D01*
X0014395Y0306226D01*
X0014588Y0306273D01*
X0014780Y0306324D01*
X0014970Y0306380D01*
X0015159Y0306440D01*
X0015346Y0306505D01*
X0015532Y0306575D01*
X0015716Y0306649D01*
X0015898Y0306728D01*
X0016078Y0306811D01*
X0016257Y0306898D01*
X0016433Y0306989D01*
X0016606Y0307085D01*
X0016778Y0307185D01*
X0016946Y0307289D01*
X0017113Y0307397D01*
X0017276Y0307510D01*
X0017437Y0307626D01*
X0017595Y0307746D01*
X0017750Y0307870D01*
X0017902Y0307997D01*
X0018051Y0308128D01*
X0018196Y0308263D01*
X0018339Y0308401D01*
X0018477Y0308543D01*
X0018613Y0308688D01*
X0018745Y0308836D01*
X0018873Y0308988D01*
X0018997Y0309142D01*
X0019118Y0309299D01*
X0019235Y0309460D01*
X0019348Y0309623D01*
X0019456Y0309789D01*
X0019561Y0309957D01*
X0019662Y0310128D01*
X0019758Y0310301D01*
X0019676Y0310346D01*
X0019580Y0310174D01*
X0019481Y0310005D01*
X0019377Y0309839D01*
X0019269Y0309675D01*
X0019158Y0309514D01*
X0019042Y0309355D01*
X0018923Y0309200D01*
X0018800Y0309047D01*
X0018673Y0308898D01*
X0018543Y0308751D01*
X0018409Y0308608D01*
X0018272Y0308468D01*
X0018131Y0308331D01*
X0017988Y0308198D01*
X0017841Y0308068D01*
X0017690Y0307942D01*
X0017537Y0307820D01*
X0017381Y0307701D01*
X0017222Y0307586D01*
X0017060Y0307476D01*
X0016896Y0307369D01*
X0016729Y0307266D01*
X0016560Y0307167D01*
X0016388Y0307072D01*
X0016214Y0306982D01*
X0016038Y0306895D01*
X0015860Y0306814D01*
X0015680Y0306736D01*
X0015498Y0306663D01*
X0015315Y0306594D01*
X0015129Y0306530D01*
X0014943Y0306470D01*
X0014755Y0306415D01*
X0014565Y0306364D01*
X0014375Y0306318D01*
X0014183Y0306277D01*
X0013990Y0306240D01*
X0013797Y0306208D01*
X0013603Y0306181D01*
X0013408Y0306158D01*
X0013213Y0306140D01*
X0013017Y0306127D01*
X0012821Y0306119D01*
X0012625Y0306115D01*
X0012625Y0306209D01*
X0012819Y0306213D01*
X0013013Y0306221D01*
X0013206Y0306234D01*
X0013399Y0306252D01*
X0013591Y0306274D01*
X0013783Y0306301D01*
X0013974Y0306333D01*
X0014165Y0306369D01*
X0014354Y0306410D01*
X0014542Y0306455D01*
X0014729Y0306505D01*
X0014915Y0306560D01*
X0015100Y0306619D01*
X0015283Y0306682D01*
X0015464Y0306750D01*
X0015644Y0306823D01*
X0015822Y0306899D01*
X0015998Y0306980D01*
X0016172Y0307066D01*
X0016344Y0307155D01*
X0016514Y0307249D01*
X0016681Y0307346D01*
X0016846Y0307448D01*
X0017008Y0307554D01*
X0017168Y0307663D01*
X0017325Y0307777D01*
X0017479Y0307894D01*
X0017631Y0308015D01*
X0017779Y0308139D01*
X0017924Y0308267D01*
X0018067Y0308399D01*
X0018206Y0308534D01*
X0018341Y0308672D01*
X0018473Y0308814D01*
X0018602Y0308959D01*
X0018727Y0309107D01*
X0018849Y0309258D01*
X0018967Y0309411D01*
X0019081Y0309568D01*
X0019191Y0309727D01*
X0019297Y0309889D01*
X0019400Y0310054D01*
X0019498Y0310221D01*
X0019593Y0310390D01*
X0019510Y0310434D01*
X0019416Y0310267D01*
X0019319Y0310102D01*
X0019218Y0309939D01*
X0019113Y0309779D01*
X0019004Y0309622D01*
X0018891Y0309467D01*
X0018775Y0309315D01*
X0018655Y0309166D01*
X0018531Y0309020D01*
X0018404Y0308877D01*
X0018273Y0308737D01*
X0018139Y0308601D01*
X0018002Y0308467D01*
X0017861Y0308337D01*
X0017718Y0308210D01*
X0017571Y0308087D01*
X0017421Y0307968D01*
X0017269Y0307852D01*
X0017114Y0307740D01*
X0016956Y0307632D01*
X0016795Y0307527D01*
X0016632Y0307427D01*
X0016467Y0307330D01*
X0016300Y0307238D01*
X0016130Y0307150D01*
X0015958Y0307065D01*
X0015784Y0306985D01*
X0015608Y0306910D01*
X0015430Y0306838D01*
X0015251Y0306771D01*
X0015070Y0306708D01*
X0014888Y0306650D01*
X0014704Y0306596D01*
X0014519Y0306546D01*
X0014333Y0306502D01*
X0014146Y0306461D01*
X0013958Y0306425D01*
X0013769Y0306394D01*
X0013580Y0306367D01*
X0013390Y0306345D01*
X0013199Y0306328D01*
X0013008Y0306315D01*
X0012817Y0306307D01*
X0012625Y0306303D01*
X0012625Y0306397D01*
X0012814Y0306401D01*
X0013003Y0306409D01*
X0013192Y0306421D01*
X0013380Y0306439D01*
X0013568Y0306461D01*
X0013755Y0306487D01*
X0013942Y0306518D01*
X0014128Y0306553D01*
X0014313Y0306593D01*
X0014497Y0306638D01*
X0014679Y0306687D01*
X0014861Y0306740D01*
X0015041Y0306797D01*
X0015219Y0306859D01*
X0015397Y0306926D01*
X0015572Y0306996D01*
X0015746Y0307071D01*
X0015918Y0307150D01*
X0016087Y0307234D01*
X0016255Y0307321D01*
X0016421Y0307412D01*
X0016584Y0307508D01*
X0016745Y0307607D01*
X0016904Y0307710D01*
X0017060Y0307817D01*
X0017213Y0307928D01*
X0017364Y0308042D01*
X0017511Y0308160D01*
X0017656Y0308282D01*
X0017798Y0308407D01*
X0017937Y0308535D01*
X0018072Y0308667D01*
X0018205Y0308802D01*
X0018334Y0308940D01*
X0018460Y0309082D01*
X0018582Y0309226D01*
X0018701Y0309373D01*
X0018816Y0309523D01*
X0018927Y0309676D01*
X0019035Y0309832D01*
X0019139Y0309990D01*
X0019239Y0310150D01*
X0019335Y0310313D01*
X0019427Y0310478D01*
X0019344Y0310523D01*
X0019253Y0310359D01*
X0019158Y0310198D01*
X0019059Y0310040D01*
X0018957Y0309884D01*
X0018850Y0309730D01*
X0018740Y0309579D01*
X0018626Y0309431D01*
X0018509Y0309285D01*
X0018388Y0309143D01*
X0018264Y0309003D01*
X0018137Y0308867D01*
X0018006Y0308733D01*
X0017872Y0308603D01*
X0017735Y0308476D01*
X0017595Y0308353D01*
X0017452Y0308233D01*
X0017306Y0308116D01*
X0017157Y0308003D01*
X0017005Y0307894D01*
X0016851Y0307788D01*
X0016695Y0307686D01*
X0016536Y0307588D01*
X0016374Y0307494D01*
X0016211Y0307404D01*
X0016045Y0307317D01*
X0015877Y0307235D01*
X0015708Y0307157D01*
X0015536Y0307083D01*
X0015363Y0307014D01*
X0015188Y0306948D01*
X0015011Y0306887D01*
X0014833Y0306830D01*
X0014654Y0306777D01*
X0014474Y0306729D01*
X0014292Y0306685D01*
X0014109Y0306645D01*
X0013926Y0306610D01*
X0013742Y0306580D01*
X0013557Y0306554D01*
X0013371Y0306532D01*
X0013185Y0306515D01*
X0012999Y0306503D01*
X0012812Y0306495D01*
X0012625Y0306491D01*
X0012625Y0306585D01*
X0012810Y0306589D01*
X0012994Y0306597D01*
X0013178Y0306609D01*
X0013362Y0306626D01*
X0013545Y0306647D01*
X0013728Y0306673D01*
X0013910Y0306703D01*
X0014091Y0306738D01*
X0014271Y0306777D01*
X0014451Y0306820D01*
X0014629Y0306868D01*
X0014806Y0306920D01*
X0014982Y0306976D01*
X0015156Y0307036D01*
X0015329Y0307101D01*
X0015500Y0307170D01*
X0015669Y0307243D01*
X0015837Y0307320D01*
X0016003Y0307401D01*
X0016166Y0307487D01*
X0016328Y0307576D01*
X0016487Y0307669D01*
X0016644Y0307766D01*
X0016799Y0307866D01*
X0016951Y0307971D01*
X0017101Y0308079D01*
X0017248Y0308190D01*
X0017392Y0308305D01*
X0017533Y0308424D01*
X0017672Y0308546D01*
X0017807Y0308671D01*
X0017939Y0308800D01*
X0018069Y0308932D01*
X0018195Y0309066D01*
X0018317Y0309204D01*
X0018436Y0309345D01*
X0018552Y0309489D01*
X0018665Y0309635D01*
X0018773Y0309784D01*
X0018878Y0309936D01*
X0018980Y0310090D01*
X0019077Y0310247D01*
X0019171Y0310406D01*
X0019261Y0310567D01*
X0019886Y0318424D02*
X0019105Y0317978D01*
X0019012Y0318135D01*
X0018915Y0318289D01*
X0018814Y0318441D01*
X0018709Y0318590D01*
X0018601Y0318737D01*
X0018490Y0318882D01*
X0018375Y0319023D01*
X0018256Y0319162D01*
X0018134Y0319297D01*
X0018009Y0319430D01*
X0017881Y0319560D01*
X0017750Y0319686D01*
X0017616Y0319810D01*
X0017479Y0319930D01*
X0017339Y0320047D01*
X0017196Y0320160D01*
X0017050Y0320270D01*
X0016902Y0320376D01*
X0016751Y0320479D01*
X0016598Y0320578D01*
X0016443Y0320673D01*
X0016285Y0320764D01*
X0016125Y0320852D01*
X0015963Y0320936D01*
X0015800Y0321016D01*
X0015634Y0321092D01*
X0015466Y0321163D01*
X0015297Y0321231D01*
X0015126Y0321295D01*
X0014954Y0321354D01*
X0014780Y0321410D01*
X0014605Y0321461D01*
X0014429Y0321508D01*
X0014252Y0321550D01*
X0014073Y0321589D01*
X0013894Y0321623D01*
X0013714Y0321653D01*
X0013534Y0321678D01*
X0013353Y0321699D01*
X0013171Y0321715D01*
X0012989Y0321728D01*
X0012807Y0321735D01*
X0012625Y0321739D01*
X0012624Y0322638D01*
X0012625Y0322639D01*
X0012829Y0322635D01*
X0013033Y0322627D01*
X0013237Y0322613D01*
X0013441Y0322595D01*
X0013644Y0322571D01*
X0013846Y0322543D01*
X0014048Y0322510D01*
X0014248Y0322472D01*
X0014448Y0322429D01*
X0014647Y0322381D01*
X0014844Y0322329D01*
X0015040Y0322271D01*
X0015235Y0322209D01*
X0015428Y0322143D01*
X0015620Y0322071D01*
X0015809Y0321995D01*
X0015997Y0321915D01*
X0016183Y0321830D01*
X0016367Y0321740D01*
X0016548Y0321647D01*
X0016727Y0321548D01*
X0016904Y0321446D01*
X0017078Y0321339D01*
X0017250Y0321228D01*
X0017419Y0321113D01*
X0017585Y0320994D01*
X0017748Y0320871D01*
X0017908Y0320744D01*
X0018065Y0320613D01*
X0018219Y0320478D01*
X0018369Y0320340D01*
X0018516Y0320198D01*
X0018660Y0320053D01*
X0018800Y0319904D01*
X0018936Y0319752D01*
X0019069Y0319596D01*
X0019197Y0319438D01*
X0019322Y0319276D01*
X0019443Y0319111D01*
X0019560Y0318944D01*
X0019673Y0318773D01*
X0019782Y0318600D01*
X0019887Y0318425D01*
X0019805Y0318378D01*
X0019702Y0318552D01*
X0019594Y0318723D01*
X0019482Y0318891D01*
X0019367Y0319057D01*
X0019247Y0319220D01*
X0019123Y0319379D01*
X0018996Y0319536D01*
X0018865Y0319690D01*
X0018730Y0319840D01*
X0018592Y0319988D01*
X0018450Y0320131D01*
X0018304Y0320272D01*
X0018156Y0320408D01*
X0018004Y0320541D01*
X0017848Y0320671D01*
X0017690Y0320796D01*
X0017529Y0320918D01*
X0017365Y0321036D01*
X0017198Y0321150D01*
X0017028Y0321259D01*
X0016856Y0321365D01*
X0016681Y0321466D01*
X0016504Y0321564D01*
X0016325Y0321656D01*
X0016143Y0321745D01*
X0015959Y0321829D01*
X0015774Y0321909D01*
X0015586Y0321984D01*
X0015397Y0322054D01*
X0015206Y0322120D01*
X0015013Y0322181D01*
X0014819Y0322238D01*
X0014624Y0322290D01*
X0014428Y0322337D01*
X0014230Y0322379D01*
X0014032Y0322417D01*
X0013832Y0322450D01*
X0013632Y0322478D01*
X0013431Y0322501D01*
X0013230Y0322519D01*
X0013029Y0322533D01*
X0012827Y0322541D01*
X0012625Y0322545D01*
X0012625Y0322451D01*
X0012824Y0322447D01*
X0013024Y0322439D01*
X0013223Y0322426D01*
X0013422Y0322407D01*
X0013621Y0322385D01*
X0013818Y0322357D01*
X0014016Y0322324D01*
X0014212Y0322287D01*
X0014407Y0322245D01*
X0014601Y0322199D01*
X0014794Y0322147D01*
X0014986Y0322091D01*
X0015176Y0322031D01*
X0015365Y0321966D01*
X0015552Y0321896D01*
X0015738Y0321822D01*
X0015921Y0321743D01*
X0016103Y0321660D01*
X0016283Y0321572D01*
X0016460Y0321481D01*
X0016635Y0321385D01*
X0016808Y0321284D01*
X0016978Y0321180D01*
X0017146Y0321071D01*
X0017311Y0320959D01*
X0017473Y0320843D01*
X0017632Y0320722D01*
X0017789Y0320598D01*
X0017942Y0320470D01*
X0018093Y0320339D01*
X0018240Y0320203D01*
X0018383Y0320065D01*
X0018524Y0319923D01*
X0018661Y0319777D01*
X0018794Y0319628D01*
X0018924Y0319476D01*
X0019050Y0319321D01*
X0019172Y0319163D01*
X0019290Y0319002D01*
X0019404Y0318839D01*
X0019515Y0318672D01*
X0019621Y0318503D01*
X0019723Y0318332D01*
X0019642Y0318285D01*
X0019541Y0318455D01*
X0019436Y0318622D01*
X0019326Y0318786D01*
X0019213Y0318948D01*
X0019096Y0319107D01*
X0018976Y0319263D01*
X0018851Y0319417D01*
X0018723Y0319567D01*
X0018591Y0319714D01*
X0018456Y0319858D01*
X0018317Y0319998D01*
X0018175Y0320135D01*
X0018030Y0320269D01*
X0017881Y0320399D01*
X0017729Y0320525D01*
X0017575Y0320648D01*
X0017417Y0320767D01*
X0017257Y0320882D01*
X0017094Y0320993D01*
X0016928Y0321100D01*
X0016760Y0321204D01*
X0016589Y0321303D01*
X0016416Y0321398D01*
X0016240Y0321488D01*
X0016063Y0321575D01*
X0015883Y0321657D01*
X0015702Y0321735D01*
X0015519Y0321808D01*
X0015334Y0321877D01*
X0015147Y0321941D01*
X0014959Y0322001D01*
X0014769Y0322057D01*
X0014579Y0322107D01*
X0014387Y0322154D01*
X0014194Y0322195D01*
X0014000Y0322232D01*
X0013805Y0322264D01*
X0013609Y0322291D01*
X0013413Y0322314D01*
X0013216Y0322332D01*
X0013019Y0322345D01*
X0012822Y0322353D01*
X0012625Y0322357D01*
X0012625Y0322263D01*
X0012820Y0322259D01*
X0013015Y0322251D01*
X0013210Y0322238D01*
X0013404Y0322220D01*
X0013598Y0322198D01*
X0013791Y0322171D01*
X0013984Y0322139D01*
X0014175Y0322103D01*
X0014366Y0322062D01*
X0014556Y0322016D01*
X0014744Y0321966D01*
X0014932Y0321911D01*
X0015118Y0321852D01*
X0015302Y0321789D01*
X0015485Y0321720D01*
X0015666Y0321648D01*
X0015845Y0321571D01*
X0016023Y0321490D01*
X0016198Y0321404D01*
X0016372Y0321315D01*
X0016543Y0321221D01*
X0016711Y0321123D01*
X0016878Y0321021D01*
X0017042Y0320915D01*
X0017203Y0320805D01*
X0017361Y0320691D01*
X0017517Y0320574D01*
X0017670Y0320452D01*
X0017820Y0320327D01*
X0017967Y0320199D01*
X0018110Y0320067D01*
X0018251Y0319931D01*
X0018388Y0319792D01*
X0018522Y0319650D01*
X0018652Y0319505D01*
X0018779Y0319357D01*
X0018902Y0319205D01*
X0019021Y0319051D01*
X0019137Y0318894D01*
X0019248Y0318734D01*
X0019356Y0318571D01*
X0019460Y0318406D01*
X0019560Y0318238D01*
X0019479Y0318192D01*
X0019380Y0318357D01*
X0019277Y0318521D01*
X0019170Y0318681D01*
X0019060Y0318839D01*
X0018946Y0318995D01*
X0018828Y0319147D01*
X0018706Y0319297D01*
X0018581Y0319443D01*
X0018452Y0319587D01*
X0018320Y0319727D01*
X0018185Y0319865D01*
X0018046Y0319999D01*
X0017904Y0320129D01*
X0017759Y0320256D01*
X0017611Y0320380D01*
X0017460Y0320499D01*
X0017306Y0320616D01*
X0017149Y0320728D01*
X0016990Y0320837D01*
X0016828Y0320941D01*
X0016663Y0321042D01*
X0016497Y0321139D01*
X0016327Y0321232D01*
X0016156Y0321320D01*
X0015983Y0321405D01*
X0015807Y0321485D01*
X0015630Y0321561D01*
X0015451Y0321633D01*
X0015270Y0321700D01*
X0015088Y0321763D01*
X0014904Y0321821D01*
X0014719Y0321875D01*
X0014533Y0321925D01*
X0014345Y0321970D01*
X0014157Y0322011D01*
X0013968Y0322047D01*
X0013777Y0322078D01*
X0013586Y0322105D01*
X0013395Y0322127D01*
X0013203Y0322144D01*
X0013010Y0322157D01*
X0012818Y0322165D01*
X0012625Y0322169D01*
X0012625Y0322075D01*
X0012815Y0322071D01*
X0013006Y0322063D01*
X0013196Y0322051D01*
X0013386Y0322033D01*
X0013575Y0322011D01*
X0013763Y0321985D01*
X0013951Y0321954D01*
X0014139Y0321918D01*
X0014325Y0321878D01*
X0014510Y0321834D01*
X0014694Y0321785D01*
X0014877Y0321731D01*
X0015059Y0321674D01*
X0015239Y0321611D01*
X0015417Y0321545D01*
X0015594Y0321474D01*
X0015769Y0321399D01*
X0015943Y0321320D01*
X0016114Y0321236D01*
X0016283Y0321149D01*
X0016450Y0321057D01*
X0016615Y0320961D01*
X0016778Y0320862D01*
X0016938Y0320758D01*
X0017095Y0320651D01*
X0017250Y0320540D01*
X0017402Y0320425D01*
X0017551Y0320307D01*
X0017697Y0320185D01*
X0017841Y0320059D01*
X0017981Y0319930D01*
X0018118Y0319798D01*
X0018252Y0319662D01*
X0018383Y0319524D01*
X0018510Y0319382D01*
X0018634Y0319237D01*
X0018754Y0319089D01*
X0018870Y0318938D01*
X0018983Y0318785D01*
X0019092Y0318629D01*
X0019198Y0318470D01*
X0019299Y0318309D01*
X0019397Y0318145D01*
X0019315Y0318098D01*
X0019219Y0318260D01*
X0019119Y0318419D01*
X0019015Y0318576D01*
X0018907Y0318731D01*
X0018795Y0318882D01*
X0018680Y0319031D01*
X0018561Y0319177D01*
X0018439Y0319320D01*
X0018313Y0319460D01*
X0018184Y0319597D01*
X0018052Y0319731D01*
X0017916Y0319862D01*
X0017778Y0319989D01*
X0017636Y0320113D01*
X0017492Y0320234D01*
X0017344Y0320351D01*
X0017194Y0320464D01*
X0017041Y0320574D01*
X0016885Y0320680D01*
X0016727Y0320782D01*
X0016567Y0320881D01*
X0016404Y0320975D01*
X0016239Y0321066D01*
X0016072Y0321152D01*
X0015903Y0321235D01*
X0015732Y0321313D01*
X0015559Y0321387D01*
X0015384Y0321457D01*
X0015207Y0321523D01*
X0015029Y0321584D01*
X0014850Y0321641D01*
X0014669Y0321694D01*
X0014487Y0321743D01*
X0014304Y0321787D01*
X0014120Y0321826D01*
X0013935Y0321861D01*
X0013750Y0321892D01*
X0013563Y0321918D01*
X0013376Y0321940D01*
X0013189Y0321957D01*
X0013001Y0321969D01*
X0012813Y0321977D01*
X0012625Y0321981D01*
X0012625Y0321887D01*
X0012811Y0321883D01*
X0012996Y0321875D01*
X0013182Y0321863D01*
X0013367Y0321846D01*
X0013552Y0321825D01*
X0013736Y0321799D01*
X0013919Y0321769D01*
X0014102Y0321734D01*
X0014284Y0321695D01*
X0014465Y0321651D01*
X0014644Y0321604D01*
X0014823Y0321551D01*
X0015000Y0321495D01*
X0015176Y0321434D01*
X0015350Y0321369D01*
X0015523Y0321300D01*
X0015694Y0321227D01*
X0015863Y0321150D01*
X0016030Y0321068D01*
X0016195Y0320983D01*
X0016358Y0320893D01*
X0016519Y0320800D01*
X0016677Y0320703D01*
X0016833Y0320602D01*
X0016987Y0320497D01*
X0017138Y0320389D01*
X0017287Y0320277D01*
X0017432Y0320161D01*
X0017575Y0320042D01*
X0017715Y0319920D01*
X0017852Y0319794D01*
X0017986Y0319665D01*
X0018116Y0319532D01*
X0018244Y0319397D01*
X0018368Y0319259D01*
X0018489Y0319117D01*
X0018606Y0318973D01*
X0018720Y0318826D01*
X0018830Y0318676D01*
X0018937Y0318524D01*
X0019039Y0318369D01*
X0019138Y0318211D01*
X0019234Y0318052D01*
X0019152Y0318005D01*
X0019058Y0318163D01*
X0018960Y0318318D01*
X0018859Y0318471D01*
X0018753Y0318622D01*
X0018644Y0318770D01*
X0018532Y0318915D01*
X0018416Y0319057D01*
X0018297Y0319197D01*
X0018174Y0319334D01*
X0018048Y0319467D01*
X0017919Y0319598D01*
X0017787Y0319726D01*
X0017652Y0319850D01*
X0017514Y0319971D01*
X0017373Y0320088D01*
X0017229Y0320202D01*
X0017082Y0320313D01*
X0016933Y0320420D01*
X0016781Y0320524D01*
X0016627Y0320623D01*
X0016471Y0320719D01*
X0016312Y0320811D01*
X0016151Y0320900D01*
X0015988Y0320984D01*
X0015823Y0321065D01*
X0015656Y0321141D01*
X0015487Y0321213D01*
X0015316Y0321282D01*
X0015144Y0321346D01*
X0014971Y0321406D01*
X0014796Y0321462D01*
X0014619Y0321513D01*
X0014442Y0321560D01*
X0014263Y0321603D01*
X0014084Y0321642D01*
X0013903Y0321676D01*
X0013722Y0321706D01*
X0013540Y0321731D01*
X0013358Y0321753D01*
X0013175Y0321769D01*
X0012992Y0321782D01*
X0012808Y0321789D01*
X0012625Y0321793D01*
X0012526Y0322638D02*
X0012526Y0321738D01*
X0012525Y0321739D02*
X0012341Y0321735D01*
X0012156Y0321727D01*
X0011972Y0321715D01*
X0011789Y0321698D01*
X0011605Y0321676D01*
X0011423Y0321651D01*
X0011241Y0321620D01*
X0011060Y0321585D01*
X0010879Y0321546D01*
X0010700Y0321502D01*
X0010522Y0321454D01*
X0010345Y0321402D01*
X0010169Y0321345D01*
X0009995Y0321285D01*
X0009823Y0321219D01*
X0009652Y0321150D01*
X0009482Y0321077D01*
X0009315Y0320999D01*
X0009150Y0320917D01*
X0008986Y0320832D01*
X0008825Y0320742D01*
X0008666Y0320648D01*
X0008509Y0320551D01*
X0008355Y0320450D01*
X0008203Y0320345D01*
X0008054Y0320236D01*
X0007908Y0320124D01*
X0007764Y0320008D01*
X0007624Y0319889D01*
X0007486Y0319766D01*
X0007351Y0319640D01*
X0007219Y0319511D01*
X0007091Y0319378D01*
X0006966Y0319243D01*
X0006844Y0319104D01*
X0006157Y0319685D01*
X0006293Y0319841D01*
X0006434Y0319993D01*
X0006578Y0320142D01*
X0006725Y0320287D01*
X0006876Y0320428D01*
X0007030Y0320565D01*
X0007188Y0320699D01*
X0007349Y0320829D01*
X0007513Y0320955D01*
X0007680Y0321077D01*
X0007850Y0321195D01*
X0008023Y0321308D01*
X0008199Y0321417D01*
X0008377Y0321522D01*
X0008558Y0321623D01*
X0008741Y0321719D01*
X0008926Y0321811D01*
X0009114Y0321898D01*
X0009304Y0321980D01*
X0009495Y0322058D01*
X0009689Y0322131D01*
X0009884Y0322199D01*
X0010081Y0322263D01*
X0010279Y0322321D01*
X0010479Y0322375D01*
X0010680Y0322424D01*
X0010882Y0322468D01*
X0011085Y0322507D01*
X0011289Y0322541D01*
X0011494Y0322570D01*
X0011699Y0322594D01*
X0011905Y0322612D01*
X0012112Y0322626D01*
X0012318Y0322635D01*
X0012525Y0322639D01*
X0012525Y0322545D01*
X0012321Y0322541D01*
X0012116Y0322532D01*
X0011912Y0322519D01*
X0011709Y0322500D01*
X0011506Y0322476D01*
X0011303Y0322448D01*
X0011101Y0322414D01*
X0010901Y0322376D01*
X0010701Y0322332D01*
X0010502Y0322284D01*
X0010305Y0322231D01*
X0010108Y0322173D01*
X0009914Y0322110D01*
X0009721Y0322042D01*
X0009529Y0321970D01*
X0009340Y0321893D01*
X0009152Y0321812D01*
X0008967Y0321726D01*
X0008784Y0321635D01*
X0008602Y0321540D01*
X0008424Y0321441D01*
X0008248Y0321337D01*
X0008074Y0321229D01*
X0007903Y0321117D01*
X0007735Y0321000D01*
X0007570Y0320880D01*
X0007407Y0320755D01*
X0007248Y0320627D01*
X0007092Y0320495D01*
X0006940Y0320359D01*
X0006790Y0320219D01*
X0006645Y0320076D01*
X0006502Y0319929D01*
X0006364Y0319778D01*
X0006229Y0319625D01*
X0006300Y0319564D01*
X0006434Y0319716D01*
X0006571Y0319865D01*
X0006712Y0320010D01*
X0006856Y0320151D01*
X0007003Y0320290D01*
X0007154Y0320424D01*
X0007308Y0320555D01*
X0007466Y0320682D01*
X0007626Y0320805D01*
X0007790Y0320924D01*
X0007956Y0321039D01*
X0008125Y0321150D01*
X0008296Y0321257D01*
X0008471Y0321359D01*
X0008647Y0321458D01*
X0008826Y0321552D01*
X0009008Y0321641D01*
X0009191Y0321726D01*
X0009376Y0321807D01*
X0009564Y0321883D01*
X0009753Y0321954D01*
X0009944Y0322021D01*
X0010136Y0322083D01*
X0010330Y0322140D01*
X0010525Y0322193D01*
X0010722Y0322240D01*
X0010919Y0322283D01*
X0011118Y0322321D01*
X0011317Y0322355D01*
X0011517Y0322383D01*
X0011718Y0322406D01*
X0011919Y0322425D01*
X0012121Y0322439D01*
X0012323Y0322447D01*
X0012525Y0322451D01*
X0012525Y0322357D01*
X0012325Y0322353D01*
X0012126Y0322345D01*
X0011926Y0322331D01*
X0011727Y0322313D01*
X0011529Y0322290D01*
X0011331Y0322262D01*
X0011134Y0322229D01*
X0010938Y0322191D01*
X0010742Y0322149D01*
X0010548Y0322102D01*
X0010355Y0322050D01*
X0010164Y0321993D01*
X0009973Y0321932D01*
X0009785Y0321866D01*
X0009598Y0321795D01*
X0009413Y0321720D01*
X0009229Y0321640D01*
X0009048Y0321556D01*
X0008869Y0321468D01*
X0008692Y0321375D01*
X0008517Y0321278D01*
X0008345Y0321176D01*
X0008176Y0321071D01*
X0008008Y0320961D01*
X0007844Y0320847D01*
X0007683Y0320730D01*
X0007524Y0320608D01*
X0007369Y0320483D01*
X0007216Y0320353D01*
X0007067Y0320220D01*
X0006921Y0320084D01*
X0006779Y0319944D01*
X0006640Y0319800D01*
X0006504Y0319653D01*
X0006372Y0319503D01*
X0006444Y0319443D01*
X0006574Y0319591D01*
X0006708Y0319736D01*
X0006846Y0319878D01*
X0006987Y0320016D01*
X0007131Y0320151D01*
X0007278Y0320283D01*
X0007429Y0320410D01*
X0007583Y0320534D01*
X0007739Y0320655D01*
X0007899Y0320771D01*
X0008061Y0320883D01*
X0008226Y0320992D01*
X0008394Y0321096D01*
X0008564Y0321196D01*
X0008737Y0321292D01*
X0008912Y0321384D01*
X0009089Y0321472D01*
X0009268Y0321555D01*
X0009449Y0321633D01*
X0009632Y0321708D01*
X0009817Y0321777D01*
X0010003Y0321842D01*
X0010191Y0321903D01*
X0010381Y0321959D01*
X0010571Y0322010D01*
X0010763Y0322057D01*
X0010956Y0322099D01*
X0011150Y0322136D01*
X0011345Y0322169D01*
X0011541Y0322196D01*
X0011737Y0322219D01*
X0011933Y0322237D01*
X0012130Y0322251D01*
X0012328Y0322259D01*
X0012525Y0322263D01*
X0012525Y0322169D01*
X0012330Y0322165D01*
X0012135Y0322157D01*
X0011940Y0322144D01*
X0011746Y0322126D01*
X0011552Y0322103D01*
X0011359Y0322076D01*
X0011166Y0322044D01*
X0010975Y0322007D01*
X0010784Y0321965D01*
X0010594Y0321919D01*
X0010406Y0321869D01*
X0010219Y0321813D01*
X0010033Y0321753D01*
X0009849Y0321689D01*
X0009666Y0321620D01*
X0009485Y0321547D01*
X0009306Y0321469D01*
X0009129Y0321387D01*
X0008954Y0321300D01*
X0008782Y0321210D01*
X0008611Y0321115D01*
X0008443Y0321016D01*
X0008277Y0320913D01*
X0008114Y0320806D01*
X0007953Y0320695D01*
X0007796Y0320580D01*
X0007641Y0320461D01*
X0007489Y0320338D01*
X0007340Y0320212D01*
X0007194Y0320082D01*
X0007052Y0319949D01*
X0006913Y0319812D01*
X0006777Y0319672D01*
X0006645Y0319528D01*
X0006516Y0319382D01*
X0006588Y0319321D01*
X0006715Y0319466D01*
X0006846Y0319608D01*
X0006980Y0319746D01*
X0007117Y0319881D01*
X0007258Y0320013D01*
X0007402Y0320141D01*
X0007549Y0320266D01*
X0007699Y0320387D01*
X0007852Y0320504D01*
X0008008Y0320618D01*
X0008167Y0320728D01*
X0008328Y0320834D01*
X0008492Y0320935D01*
X0008658Y0321033D01*
X0008826Y0321127D01*
X0008997Y0321217D01*
X0009170Y0321302D01*
X0009345Y0321383D01*
X0009522Y0321460D01*
X0009700Y0321532D01*
X0009881Y0321601D01*
X0010063Y0321664D01*
X0010246Y0321723D01*
X0010431Y0321778D01*
X0010617Y0321828D01*
X0010805Y0321874D01*
X0010993Y0321915D01*
X0011183Y0321951D01*
X0011373Y0321983D01*
X0011564Y0322010D01*
X0011755Y0322032D01*
X0011947Y0322050D01*
X0012140Y0322063D01*
X0012332Y0322071D01*
X0012525Y0322075D01*
X0012525Y0321981D01*
X0012335Y0321977D01*
X0012144Y0321969D01*
X0011954Y0321956D01*
X0011765Y0321939D01*
X0011575Y0321917D01*
X0011387Y0321890D01*
X0011199Y0321859D01*
X0011012Y0321823D01*
X0010826Y0321782D01*
X0010641Y0321737D01*
X0010457Y0321688D01*
X0010274Y0321633D01*
X0010093Y0321575D01*
X0009913Y0321512D01*
X0009735Y0321445D01*
X0009558Y0321373D01*
X0009383Y0321297D01*
X0009211Y0321217D01*
X0009040Y0321133D01*
X0008871Y0321044D01*
X0008705Y0320952D01*
X0008540Y0320855D01*
X0008379Y0320755D01*
X0008219Y0320650D01*
X0008063Y0320542D01*
X0007909Y0320429D01*
X0007758Y0320313D01*
X0007609Y0320194D01*
X0007464Y0320071D01*
X0007322Y0319944D01*
X0007183Y0319814D01*
X0007047Y0319680D01*
X0006914Y0319544D01*
X0006785Y0319404D01*
X0006659Y0319260D01*
X0006731Y0319200D01*
X0006855Y0319341D01*
X0006983Y0319479D01*
X0007114Y0319614D01*
X0007248Y0319746D01*
X0007385Y0319875D01*
X0007526Y0320000D01*
X0007670Y0320122D01*
X0007816Y0320240D01*
X0007965Y0320354D01*
X0008117Y0320465D01*
X0008272Y0320572D01*
X0008429Y0320675D01*
X0008589Y0320775D01*
X0008751Y0320870D01*
X0008916Y0320962D01*
X0009082Y0321049D01*
X0009251Y0321132D01*
X0009422Y0321212D01*
X0009594Y0321287D01*
X0009769Y0321357D01*
X0009945Y0321424D01*
X0010122Y0321486D01*
X0010302Y0321544D01*
X0010482Y0321597D01*
X0010664Y0321646D01*
X0010846Y0321690D01*
X0011030Y0321730D01*
X0011215Y0321766D01*
X0011401Y0321797D01*
X0011587Y0321823D01*
X0011774Y0321845D01*
X0011961Y0321862D01*
X0012149Y0321875D01*
X0012337Y0321883D01*
X0012525Y0321887D01*
X0012525Y0321793D01*
X0012339Y0321789D01*
X0012154Y0321781D01*
X0011968Y0321769D01*
X0011783Y0321752D01*
X0011599Y0321730D01*
X0011415Y0321704D01*
X0011231Y0321673D01*
X0011049Y0321638D01*
X0010867Y0321599D01*
X0010687Y0321555D01*
X0010507Y0321506D01*
X0010329Y0321454D01*
X0010152Y0321397D01*
X0009977Y0321335D01*
X0009803Y0321270D01*
X0009631Y0321200D01*
X0009460Y0321126D01*
X0009292Y0321048D01*
X0009125Y0320965D01*
X0008961Y0320879D01*
X0008798Y0320789D01*
X0008638Y0320694D01*
X0008480Y0320596D01*
X0008325Y0320494D01*
X0008172Y0320389D01*
X0008022Y0320279D01*
X0007874Y0320166D01*
X0007730Y0320049D01*
X0007588Y0319929D01*
X0007449Y0319806D01*
X0007313Y0319679D01*
X0007181Y0319549D01*
X0007052Y0319415D01*
X0006925Y0319279D01*
X0006803Y0319139D01*
X0006116Y0308741D02*
X0006808Y0309318D01*
X0006807Y0309317D02*
X0006926Y0309180D01*
X0007047Y0309046D01*
X0007172Y0308915D01*
X0007300Y0308787D01*
X0007431Y0308663D01*
X0007565Y0308541D01*
X0007702Y0308422D01*
X0007841Y0308307D01*
X0007984Y0308196D01*
X0008129Y0308087D01*
X0008276Y0307982D01*
X0008426Y0307881D01*
X0008578Y0307784D01*
X0008733Y0307690D01*
X0008890Y0307599D01*
X0009049Y0307513D01*
X0009210Y0307430D01*
X0009373Y0307352D01*
X0009538Y0307277D01*
X0009704Y0307206D01*
X0009872Y0307139D01*
X0010042Y0307077D01*
X0010213Y0307018D01*
X0010386Y0306963D01*
X0010559Y0306913D01*
X0010734Y0306867D01*
X0010910Y0306825D01*
X0011087Y0306787D01*
X0011265Y0306754D01*
X0011444Y0306724D01*
X0011623Y0306699D01*
X0011803Y0306679D01*
X0011983Y0306662D01*
X0012163Y0306650D01*
X0012344Y0306643D01*
X0012525Y0306639D01*
X0012526Y0305740D01*
X0012525Y0305739D01*
X0012322Y0305743D01*
X0012120Y0305751D01*
X0011917Y0305765D01*
X0011715Y0305783D01*
X0011514Y0305806D01*
X0011313Y0305834D01*
X0011113Y0305867D01*
X0010913Y0305904D01*
X0010715Y0305946D01*
X0010517Y0305993D01*
X0010321Y0306045D01*
X0010127Y0306102D01*
X0009933Y0306163D01*
X0009741Y0306228D01*
X0009551Y0306299D01*
X0009362Y0306374D01*
X0009176Y0306453D01*
X0008991Y0306537D01*
X0008808Y0306625D01*
X0008628Y0306718D01*
X0008450Y0306814D01*
X0008274Y0306916D01*
X0008101Y0307021D01*
X0007930Y0307130D01*
X0007762Y0307244D01*
X0007596Y0307361D01*
X0007434Y0307483D01*
X0007274Y0307608D01*
X0007118Y0307737D01*
X0006965Y0307870D01*
X0006815Y0308007D01*
X0006668Y0308147D01*
X0006525Y0308290D01*
X0006385Y0308437D01*
X0006248Y0308587D01*
X0006116Y0308741D01*
X0006188Y0308801D01*
X0006319Y0308649D01*
X0006454Y0308501D01*
X0006592Y0308356D01*
X0006734Y0308214D01*
X0006879Y0308075D01*
X0007027Y0307940D01*
X0007179Y0307809D01*
X0007334Y0307681D01*
X0007491Y0307557D01*
X0007652Y0307437D01*
X0007815Y0307321D01*
X0007982Y0307209D01*
X0008150Y0307101D01*
X0008322Y0306996D01*
X0008496Y0306896D01*
X0008672Y0306801D01*
X0008850Y0306709D01*
X0009031Y0306622D01*
X0009214Y0306539D01*
X0009398Y0306460D01*
X0009584Y0306386D01*
X0009773Y0306317D01*
X0009962Y0306252D01*
X0010154Y0306192D01*
X0010346Y0306136D01*
X0010540Y0306085D01*
X0010735Y0306038D01*
X0010931Y0305996D01*
X0011128Y0305959D01*
X0011326Y0305927D01*
X0011525Y0305899D01*
X0011724Y0305876D01*
X0011924Y0305858D01*
X0012124Y0305845D01*
X0012325Y0305837D01*
X0012525Y0305833D01*
X0012525Y0305927D01*
X0012327Y0305931D01*
X0012129Y0305939D01*
X0011931Y0305952D01*
X0011733Y0305970D01*
X0011536Y0305993D01*
X0011340Y0306020D01*
X0011144Y0306052D01*
X0010950Y0306088D01*
X0010756Y0306130D01*
X0010563Y0306176D01*
X0010371Y0306226D01*
X0010181Y0306282D01*
X0009992Y0306341D01*
X0009804Y0306406D01*
X0009618Y0306474D01*
X0009434Y0306547D01*
X0009251Y0306625D01*
X0009071Y0306707D01*
X0008892Y0306793D01*
X0008716Y0306884D01*
X0008542Y0306978D01*
X0008370Y0307077D01*
X0008200Y0307180D01*
X0008033Y0307287D01*
X0007869Y0307398D01*
X0007708Y0307513D01*
X0007549Y0307632D01*
X0007393Y0307754D01*
X0007240Y0307880D01*
X0007090Y0308010D01*
X0006943Y0308144D01*
X0006800Y0308281D01*
X0006660Y0308421D01*
X0006523Y0308564D01*
X0006390Y0308711D01*
X0006260Y0308861D01*
X0006332Y0308921D01*
X0006461Y0308773D01*
X0006592Y0308628D01*
X0006727Y0308486D01*
X0006866Y0308348D01*
X0007008Y0308212D01*
X0007153Y0308080D01*
X0007301Y0307952D01*
X0007452Y0307827D01*
X0007606Y0307706D01*
X0007763Y0307589D01*
X0007923Y0307475D01*
X0008085Y0307366D01*
X0008250Y0307260D01*
X0008418Y0307158D01*
X0008588Y0307060D01*
X0008760Y0306967D01*
X0008934Y0306877D01*
X0009111Y0306792D01*
X0009289Y0306711D01*
X0009469Y0306634D01*
X0009652Y0306562D01*
X0009835Y0306494D01*
X0010021Y0306431D01*
X0010208Y0306372D01*
X0010396Y0306317D01*
X0010585Y0306267D01*
X0010776Y0306222D01*
X0010968Y0306181D01*
X0011160Y0306144D01*
X0011354Y0306113D01*
X0011548Y0306086D01*
X0011743Y0306064D01*
X0011938Y0306046D01*
X0012133Y0306033D01*
X0012329Y0306025D01*
X0012525Y0306021D01*
X0012525Y0306115D01*
X0012331Y0306119D01*
X0012138Y0306127D01*
X0011945Y0306140D01*
X0011752Y0306157D01*
X0011559Y0306179D01*
X0011367Y0306206D01*
X0011176Y0306237D01*
X0010986Y0306273D01*
X0010796Y0306313D01*
X0010608Y0306358D01*
X0010421Y0306408D01*
X0010235Y0306462D01*
X0010050Y0306520D01*
X0009867Y0306583D01*
X0009685Y0306650D01*
X0009505Y0306721D01*
X0009327Y0306797D01*
X0009150Y0306877D01*
X0008976Y0306961D01*
X0008804Y0307050D01*
X0008634Y0307142D01*
X0008466Y0307239D01*
X0008300Y0307340D01*
X0008137Y0307444D01*
X0007977Y0307552D01*
X0007819Y0307665D01*
X0007664Y0307781D01*
X0007511Y0307900D01*
X0007362Y0308024D01*
X0007215Y0308150D01*
X0007072Y0308281D01*
X0006932Y0308414D01*
X0006795Y0308551D01*
X0006662Y0308692D01*
X0006531Y0308835D01*
X0006405Y0308982D01*
X0006477Y0309042D01*
X0006602Y0308897D01*
X0006731Y0308755D01*
X0006863Y0308617D01*
X0006998Y0308481D01*
X0007137Y0308349D01*
X0007278Y0308220D01*
X0007423Y0308095D01*
X0007570Y0307973D01*
X0007721Y0307855D01*
X0007874Y0307740D01*
X0008030Y0307630D01*
X0008189Y0307522D01*
X0008350Y0307419D01*
X0008514Y0307320D01*
X0008680Y0307224D01*
X0008848Y0307133D01*
X0009018Y0307046D01*
X0009190Y0306962D01*
X0009365Y0306883D01*
X0009541Y0306808D01*
X0009719Y0306738D01*
X0009898Y0306671D01*
X0010079Y0306609D01*
X0010262Y0306552D01*
X0010446Y0306498D01*
X0010631Y0306449D01*
X0010817Y0306405D01*
X0011004Y0306365D01*
X0011192Y0306330D01*
X0011381Y0306299D01*
X0011571Y0306272D01*
X0011761Y0306251D01*
X0011951Y0306233D01*
X0012142Y0306221D01*
X0012334Y0306213D01*
X0012525Y0306209D01*
X0012525Y0306303D01*
X0012336Y0306307D01*
X0012147Y0306315D01*
X0011958Y0306327D01*
X0011770Y0306344D01*
X0011582Y0306366D01*
X0011395Y0306392D01*
X0011208Y0306422D01*
X0011022Y0306457D01*
X0010837Y0306497D01*
X0010653Y0306541D01*
X0010471Y0306589D01*
X0010289Y0306642D01*
X0010109Y0306699D01*
X0009930Y0306760D01*
X0009752Y0306826D01*
X0009576Y0306895D01*
X0009402Y0306969D01*
X0009230Y0307047D01*
X0009060Y0307130D01*
X0008892Y0307216D01*
X0008726Y0307306D01*
X0008562Y0307401D01*
X0008400Y0307499D01*
X0008241Y0307601D01*
X0008084Y0307707D01*
X0007930Y0307816D01*
X0007778Y0307930D01*
X0007630Y0308046D01*
X0007484Y0308167D01*
X0007341Y0308290D01*
X0007201Y0308418D01*
X0007064Y0308548D01*
X0006930Y0308682D01*
X0006800Y0308819D01*
X0006673Y0308959D01*
X0006549Y0309102D01*
X0006621Y0309162D01*
X0006744Y0309021D01*
X0006869Y0308883D01*
X0006998Y0308747D01*
X0007130Y0308615D01*
X0007265Y0308486D01*
X0007404Y0308361D01*
X0007545Y0308238D01*
X0007689Y0308119D01*
X0007836Y0308004D01*
X0007985Y0307892D01*
X0008138Y0307784D01*
X0008293Y0307679D01*
X0008450Y0307579D01*
X0008610Y0307482D01*
X0008771Y0307388D01*
X0008936Y0307299D01*
X0009102Y0307214D01*
X0009270Y0307133D01*
X0009440Y0307055D01*
X0009612Y0306982D01*
X0009786Y0306913D01*
X0009961Y0306849D01*
X0010138Y0306788D01*
X0010316Y0306732D01*
X0010495Y0306680D01*
X0010676Y0306632D01*
X0010858Y0306589D01*
X0011040Y0306550D01*
X0011224Y0306515D01*
X0011408Y0306485D01*
X0011593Y0306459D01*
X0011779Y0306438D01*
X0011965Y0306421D01*
X0012152Y0306409D01*
X0012338Y0306401D01*
X0012525Y0306397D01*
X0012525Y0306491D01*
X0012341Y0306495D01*
X0012156Y0306502D01*
X0011972Y0306515D01*
X0011788Y0306531D01*
X0011605Y0306552D01*
X0011422Y0306578D01*
X0011240Y0306608D01*
X0011059Y0306642D01*
X0010878Y0306680D01*
X0010699Y0306723D01*
X0010520Y0306770D01*
X0010343Y0306822D01*
X0010167Y0306877D01*
X0009992Y0306937D01*
X0009819Y0307001D01*
X0009648Y0307069D01*
X0009478Y0307141D01*
X0009310Y0307218D01*
X0009144Y0307298D01*
X0008980Y0307382D01*
X0008817Y0307470D01*
X0008657Y0307562D01*
X0008500Y0307658D01*
X0008344Y0307758D01*
X0008191Y0307861D01*
X0008041Y0307968D01*
X0007893Y0308078D01*
X0007748Y0308192D01*
X0007606Y0308310D01*
X0007466Y0308431D01*
X0007330Y0308555D01*
X0007196Y0308682D01*
X0007066Y0308813D01*
X0006938Y0308946D01*
X0006814Y0309083D01*
X0006694Y0309222D01*
X0006766Y0309283D01*
X0006885Y0309145D01*
X0007008Y0309010D01*
X0007133Y0308878D01*
X0007262Y0308749D01*
X0007394Y0308623D01*
X0007529Y0308501D01*
X0007667Y0308381D01*
X0007807Y0308265D01*
X0007951Y0308153D01*
X0008097Y0308044D01*
X0008245Y0307938D01*
X0008396Y0307836D01*
X0008550Y0307738D01*
X0008705Y0307643D01*
X0008863Y0307552D01*
X0009024Y0307465D01*
X0009186Y0307382D01*
X0009350Y0307303D01*
X0009516Y0307228D01*
X0009684Y0307156D01*
X0009853Y0307089D01*
X0010024Y0307026D01*
X0010196Y0306967D01*
X0010370Y0306912D01*
X0010545Y0306861D01*
X0010721Y0306814D01*
X0010899Y0306772D01*
X0011077Y0306734D01*
X0011256Y0306700D01*
X0011436Y0306671D01*
X0011616Y0306646D01*
X0011797Y0306625D01*
X0011979Y0306608D01*
X0012161Y0306596D01*
X0012343Y0306589D01*
X0012525Y0306585D01*
X0015503Y0123228D02*
X0016253Y0123228D01*
X0016504Y0122978D01*
X0016504Y0122478D01*
X0016253Y0122228D01*
X0015503Y0122228D01*
X0016003Y0122228D02*
X0016504Y0121727D01*
X0016976Y0121977D02*
X0017226Y0121727D01*
X0017727Y0121727D01*
X0017977Y0121977D01*
X0017977Y0122228D01*
X0017727Y0122478D01*
X0017476Y0122478D01*
X0017727Y0122478D02*
X0017977Y0122728D01*
X0017977Y0122978D01*
X0017727Y0123228D01*
X0017226Y0123228D01*
X0016976Y0122978D01*
X0015503Y0123228D02*
X0015503Y0121727D01*
X0039399Y0115707D02*
X0039399Y0114206D01*
X0039399Y0114706D02*
X0040149Y0114706D01*
X0040400Y0114957D01*
X0040400Y0115457D01*
X0040149Y0115707D01*
X0039399Y0115707D01*
X0039899Y0114706D02*
X0040400Y0114206D01*
X0040872Y0114957D02*
X0041873Y0114957D01*
X0041623Y0115707D02*
X0040872Y0114957D01*
X0041623Y0115707D02*
X0041623Y0114206D01*
X0054400Y0122121D02*
X0054400Y0123622D01*
X0055151Y0123622D01*
X0055401Y0123372D01*
X0055401Y0122872D01*
X0055151Y0122621D01*
X0054400Y0122621D01*
X0054901Y0122621D02*
X0055401Y0122121D01*
X0055874Y0122371D02*
X0056124Y0122121D01*
X0056624Y0122121D01*
X0056874Y0122371D01*
X0056874Y0122872D01*
X0056624Y0123122D01*
X0056374Y0123122D01*
X0055874Y0122872D01*
X0055874Y0123622D01*
X0056874Y0123622D01*
X0070778Y0123425D02*
X0070778Y0121924D01*
X0070778Y0122424D02*
X0071529Y0122424D01*
X0071779Y0122675D01*
X0071779Y0123175D01*
X0071529Y0123425D01*
X0070778Y0123425D01*
X0071279Y0122424D02*
X0071779Y0121924D01*
X0072252Y0122174D02*
X0072502Y0121924D01*
X0073002Y0121924D01*
X0073252Y0122174D01*
X0073252Y0123175D01*
X0073002Y0123425D01*
X0072502Y0123425D01*
X0072252Y0123175D01*
X0072252Y0122925D01*
X0072502Y0122675D01*
X0073252Y0122675D01*
X0072582Y0096560D02*
X0072832Y0096309D01*
X0072832Y0095809D01*
X0072582Y0095559D01*
X0072582Y0095086D02*
X0072832Y0094836D01*
X0072832Y0094336D01*
X0072582Y0094085D01*
X0071581Y0094085D01*
X0071331Y0094336D01*
X0071331Y0094836D01*
X0071581Y0095086D01*
X0071581Y0095559D02*
X0071331Y0095809D01*
X0071331Y0096309D01*
X0071581Y0096560D01*
X0071831Y0096560D01*
X0072081Y0096309D01*
X0072331Y0096560D01*
X0072582Y0096560D01*
X0072081Y0096309D02*
X0072081Y0096059D01*
X0057281Y0095941D02*
X0055779Y0095941D01*
X0056280Y0095441D01*
X0056030Y0094968D02*
X0055779Y0094718D01*
X0055779Y0094218D01*
X0056030Y0093967D01*
X0057030Y0093967D01*
X0057281Y0094218D01*
X0057281Y0094718D01*
X0057030Y0094968D01*
X0057281Y0095441D02*
X0057281Y0096441D01*
X0121564Y0070024D02*
X0121564Y0069023D01*
X0121814Y0068773D01*
X0122315Y0068773D01*
X0122565Y0069023D01*
X0123037Y0069023D02*
X0123288Y0068773D01*
X0123788Y0068773D01*
X0124038Y0069023D01*
X0124038Y0070024D01*
X0123788Y0070274D01*
X0123288Y0070274D01*
X0123037Y0070024D01*
X0123037Y0069774D01*
X0123288Y0069523D01*
X0124038Y0069523D01*
X0122565Y0070024D02*
X0122315Y0070274D01*
X0121814Y0070274D01*
X0121564Y0070024D01*
X0126842Y0049434D02*
X0127093Y0049434D01*
X0128093Y0048433D01*
X0128344Y0048433D01*
X0128093Y0047960D02*
X0128344Y0047710D01*
X0128344Y0047210D01*
X0128093Y0046959D01*
X0127093Y0046959D01*
X0126842Y0047210D01*
X0126842Y0047710D01*
X0127093Y0047960D01*
X0126842Y0048433D02*
X0126842Y0049434D01*
X0146644Y0040551D02*
X0146644Y0039050D01*
X0146644Y0039550D02*
X0147395Y0039550D01*
X0147645Y0039801D01*
X0147645Y0040301D01*
X0147395Y0040551D01*
X0146644Y0040551D01*
X0147145Y0039550D02*
X0147645Y0039050D01*
X0148118Y0039050D02*
X0149119Y0039050D01*
X0149591Y0039050D02*
X0150592Y0040051D01*
X0150592Y0040301D01*
X0150342Y0040551D01*
X0149841Y0040551D01*
X0149591Y0040301D01*
X0148618Y0040551D02*
X0148618Y0039050D01*
X0149591Y0039050D02*
X0150592Y0039050D01*
X0148618Y0040551D02*
X0148118Y0040051D01*
X0171941Y0033227D02*
X0171941Y0031726D01*
X0171941Y0032226D02*
X0172692Y0032226D01*
X0172942Y0032476D01*
X0172942Y0032977D01*
X0172692Y0033227D01*
X0171941Y0033227D01*
X0172442Y0032226D02*
X0172942Y0031726D01*
X0173415Y0031726D02*
X0174415Y0031726D01*
X0173915Y0031726D02*
X0173915Y0033227D01*
X0173415Y0032726D01*
X0174888Y0032977D02*
X0175138Y0033227D01*
X0175638Y0033227D01*
X0175889Y0032977D01*
X0175889Y0032726D01*
X0175638Y0032476D01*
X0175889Y0032226D01*
X0175889Y0031976D01*
X0175638Y0031726D01*
X0175138Y0031726D01*
X0174888Y0031976D01*
X0175388Y0032476D02*
X0175638Y0032476D01*
X0178667Y0051251D02*
X0179668Y0051251D01*
X0179919Y0051501D01*
X0179919Y0052001D01*
X0179668Y0052252D01*
X0179668Y0052724D02*
X0179418Y0052724D01*
X0179168Y0052974D01*
X0179168Y0053475D01*
X0179418Y0053725D01*
X0179668Y0053725D01*
X0179919Y0053475D01*
X0179919Y0052974D01*
X0179668Y0052724D01*
X0179168Y0052974D02*
X0178918Y0052724D01*
X0178667Y0052724D01*
X0178417Y0052974D01*
X0178417Y0053475D01*
X0178667Y0053725D01*
X0178918Y0053725D01*
X0179168Y0053475D01*
X0178667Y0052252D02*
X0178417Y0052001D01*
X0178417Y0051501D01*
X0178667Y0051251D01*
X0155719Y0084286D02*
X0155969Y0084536D01*
X0155969Y0084787D01*
X0155719Y0085037D01*
X0154968Y0085037D01*
X0154968Y0084536D01*
X0155218Y0084286D01*
X0155719Y0084286D01*
X0154968Y0085037D02*
X0155469Y0085537D01*
X0155969Y0085788D01*
X0154496Y0085537D02*
X0154246Y0085788D01*
X0153745Y0085788D01*
X0153495Y0085537D01*
X0153495Y0084536D01*
X0153745Y0084286D01*
X0154246Y0084286D01*
X0154496Y0084536D01*
D13*
X0157122Y0215527D02*
X0159622Y0215527D01*
X0162122Y0215527D01*
X0162122Y0218027D02*
X0159622Y0218027D01*
X0157122Y0218027D01*
X0157555Y0294228D02*
X0160055Y0294228D01*
X0162555Y0294228D01*
X0162555Y0296728D02*
X0160055Y0296728D01*
X0157555Y0296728D01*
D14*
X0160055Y0296728D02*
X0160055Y0301528D01*
X0160055Y0294228D02*
X0160055Y0289528D01*
X0151055Y0281028D02*
X0150995Y0281030D01*
X0150934Y0281035D01*
X0150875Y0281044D01*
X0150816Y0281057D01*
X0150757Y0281073D01*
X0150700Y0281093D01*
X0150645Y0281116D01*
X0150590Y0281143D01*
X0150538Y0281172D01*
X0150487Y0281205D01*
X0150438Y0281241D01*
X0150392Y0281279D01*
X0150348Y0281321D01*
X0150306Y0281365D01*
X0150268Y0281411D01*
X0150232Y0281460D01*
X0150199Y0281511D01*
X0150170Y0281563D01*
X0150143Y0281618D01*
X0150120Y0281673D01*
X0150100Y0281730D01*
X0150084Y0281789D01*
X0150071Y0281848D01*
X0150062Y0281907D01*
X0150057Y0281968D01*
X0150055Y0282028D01*
X0150055Y0309028D01*
X0150057Y0309088D01*
X0150062Y0309149D01*
X0150071Y0309208D01*
X0150084Y0309267D01*
X0150100Y0309326D01*
X0150120Y0309383D01*
X0150143Y0309438D01*
X0150170Y0309493D01*
X0150199Y0309545D01*
X0150232Y0309596D01*
X0150268Y0309645D01*
X0150306Y0309691D01*
X0150348Y0309735D01*
X0150392Y0309777D01*
X0150438Y0309815D01*
X0150487Y0309851D01*
X0150538Y0309884D01*
X0150590Y0309913D01*
X0150645Y0309940D01*
X0150700Y0309963D01*
X0150757Y0309983D01*
X0150816Y0309999D01*
X0150875Y0310012D01*
X0150934Y0310021D01*
X0150995Y0310026D01*
X0151055Y0310028D01*
X0169055Y0310028D01*
X0169115Y0310026D01*
X0169176Y0310021D01*
X0169235Y0310012D01*
X0169294Y0309999D01*
X0169353Y0309983D01*
X0169410Y0309963D01*
X0169465Y0309940D01*
X0169520Y0309913D01*
X0169572Y0309884D01*
X0169623Y0309851D01*
X0169672Y0309815D01*
X0169718Y0309777D01*
X0169762Y0309735D01*
X0169804Y0309691D01*
X0169842Y0309645D01*
X0169878Y0309596D01*
X0169911Y0309545D01*
X0169940Y0309493D01*
X0169967Y0309438D01*
X0169990Y0309383D01*
X0170010Y0309326D01*
X0170026Y0309267D01*
X0170039Y0309208D01*
X0170048Y0309149D01*
X0170053Y0309088D01*
X0170055Y0309028D01*
X0170055Y0282028D01*
X0170053Y0281968D01*
X0170048Y0281907D01*
X0170039Y0281848D01*
X0170026Y0281789D01*
X0170010Y0281730D01*
X0169990Y0281673D01*
X0169967Y0281618D01*
X0169940Y0281563D01*
X0169911Y0281511D01*
X0169878Y0281460D01*
X0169842Y0281411D01*
X0169804Y0281365D01*
X0169762Y0281321D01*
X0169718Y0281279D01*
X0169672Y0281241D01*
X0169623Y0281205D01*
X0169572Y0281172D01*
X0169520Y0281143D01*
X0169465Y0281116D01*
X0169410Y0281093D01*
X0169353Y0281073D01*
X0169294Y0281057D01*
X0169235Y0281044D01*
X0169176Y0281035D01*
X0169115Y0281030D01*
X0169055Y0281028D01*
X0151055Y0281028D01*
X0150622Y0231327D02*
X0168622Y0231327D01*
X0168682Y0231325D01*
X0168743Y0231320D01*
X0168802Y0231311D01*
X0168861Y0231298D01*
X0168920Y0231282D01*
X0168977Y0231262D01*
X0169032Y0231239D01*
X0169087Y0231212D01*
X0169139Y0231183D01*
X0169190Y0231150D01*
X0169239Y0231114D01*
X0169285Y0231076D01*
X0169329Y0231034D01*
X0169371Y0230990D01*
X0169409Y0230944D01*
X0169445Y0230895D01*
X0169478Y0230844D01*
X0169507Y0230792D01*
X0169534Y0230737D01*
X0169557Y0230682D01*
X0169577Y0230625D01*
X0169593Y0230566D01*
X0169606Y0230507D01*
X0169615Y0230448D01*
X0169620Y0230387D01*
X0169622Y0230327D01*
X0169622Y0203327D01*
X0169620Y0203267D01*
X0169615Y0203206D01*
X0169606Y0203147D01*
X0169593Y0203088D01*
X0169577Y0203029D01*
X0169557Y0202972D01*
X0169534Y0202917D01*
X0169507Y0202862D01*
X0169478Y0202810D01*
X0169445Y0202759D01*
X0169409Y0202710D01*
X0169371Y0202664D01*
X0169329Y0202620D01*
X0169285Y0202578D01*
X0169239Y0202540D01*
X0169190Y0202504D01*
X0169139Y0202471D01*
X0169087Y0202442D01*
X0169032Y0202415D01*
X0168977Y0202392D01*
X0168920Y0202372D01*
X0168861Y0202356D01*
X0168802Y0202343D01*
X0168743Y0202334D01*
X0168682Y0202329D01*
X0168622Y0202327D01*
X0150622Y0202327D01*
X0150562Y0202329D01*
X0150501Y0202334D01*
X0150442Y0202343D01*
X0150383Y0202356D01*
X0150324Y0202372D01*
X0150267Y0202392D01*
X0150212Y0202415D01*
X0150157Y0202442D01*
X0150105Y0202471D01*
X0150054Y0202504D01*
X0150005Y0202540D01*
X0149959Y0202578D01*
X0149915Y0202620D01*
X0149873Y0202664D01*
X0149835Y0202710D01*
X0149799Y0202759D01*
X0149766Y0202810D01*
X0149737Y0202862D01*
X0149710Y0202917D01*
X0149687Y0202972D01*
X0149667Y0203029D01*
X0149651Y0203088D01*
X0149638Y0203147D01*
X0149629Y0203206D01*
X0149624Y0203267D01*
X0149622Y0203327D01*
X0149622Y0230327D01*
X0149624Y0230387D01*
X0149629Y0230448D01*
X0149638Y0230507D01*
X0149651Y0230566D01*
X0149667Y0230625D01*
X0149687Y0230682D01*
X0149710Y0230737D01*
X0149737Y0230792D01*
X0149766Y0230844D01*
X0149799Y0230895D01*
X0149835Y0230944D01*
X0149873Y0230990D01*
X0149915Y0231034D01*
X0149959Y0231076D01*
X0150005Y0231114D01*
X0150054Y0231150D01*
X0150105Y0231183D01*
X0150157Y0231212D01*
X0150212Y0231239D01*
X0150267Y0231262D01*
X0150324Y0231282D01*
X0150383Y0231298D01*
X0150442Y0231311D01*
X0150501Y0231320D01*
X0150562Y0231325D01*
X0150622Y0231327D01*
X0159622Y0222827D02*
X0159622Y0218027D01*
X0159622Y0215527D02*
X0159622Y0210827D01*
X0095752Y0067614D02*
X0095752Y0018614D01*
X0092252Y0018614D01*
X0092252Y0012614D01*
X0095752Y0012614D01*
X0095752Y0005114D01*
X0054752Y0005114D01*
X0054752Y0012614D01*
X0058252Y0012614D01*
X0058252Y0018614D01*
X0054752Y0018614D01*
X0054752Y0067614D01*
X0095752Y0067614D01*
X0068152Y0018614D02*
X0068154Y0018788D01*
X0068161Y0018962D01*
X0068171Y0019136D01*
X0068186Y0019310D01*
X0068205Y0019483D01*
X0068229Y0019656D01*
X0068257Y0019828D01*
X0068288Y0019999D01*
X0068325Y0020170D01*
X0068365Y0020339D01*
X0068409Y0020508D01*
X0068458Y0020675D01*
X0068510Y0020841D01*
X0068567Y0021006D01*
X0068628Y0021169D01*
X0068692Y0021331D01*
X0068761Y0021491D01*
X0068834Y0021650D01*
X0068910Y0021806D01*
X0068990Y0021961D01*
X0069074Y0022114D01*
X0069162Y0022264D01*
X0069254Y0022412D01*
X0069349Y0022559D01*
X0069447Y0022702D01*
X0069549Y0022843D01*
X0069655Y0022982D01*
X0069764Y0023118D01*
X0069876Y0023252D01*
X0069991Y0023382D01*
X0070110Y0023510D01*
X0070232Y0023634D01*
X0070356Y0023756D01*
X0070484Y0023875D01*
X0070614Y0023990D01*
X0070748Y0024102D01*
X0070884Y0024211D01*
X0071023Y0024317D01*
X0071164Y0024419D01*
X0071307Y0024517D01*
X0071454Y0024612D01*
X0071602Y0024704D01*
X0071752Y0024792D01*
X0071905Y0024876D01*
X0072060Y0024956D01*
X0072216Y0025032D01*
X0072375Y0025105D01*
X0072535Y0025174D01*
X0072697Y0025238D01*
X0072860Y0025299D01*
X0073025Y0025356D01*
X0073191Y0025408D01*
X0073358Y0025457D01*
X0073527Y0025501D01*
X0073696Y0025541D01*
X0073867Y0025578D01*
X0074038Y0025609D01*
X0074210Y0025637D01*
X0074383Y0025661D01*
X0074556Y0025680D01*
X0074730Y0025695D01*
X0074904Y0025705D01*
X0075078Y0025712D01*
X0075252Y0025714D01*
X0075426Y0025712D01*
X0075600Y0025705D01*
X0075774Y0025695D01*
X0075948Y0025680D01*
X0076121Y0025661D01*
X0076294Y0025637D01*
X0076466Y0025609D01*
X0076637Y0025578D01*
X0076808Y0025541D01*
X0076977Y0025501D01*
X0077146Y0025457D01*
X0077313Y0025408D01*
X0077479Y0025356D01*
X0077644Y0025299D01*
X0077807Y0025238D01*
X0077969Y0025174D01*
X0078129Y0025105D01*
X0078288Y0025032D01*
X0078444Y0024956D01*
X0078599Y0024876D01*
X0078752Y0024792D01*
X0078902Y0024704D01*
X0079050Y0024612D01*
X0079197Y0024517D01*
X0079340Y0024419D01*
X0079481Y0024317D01*
X0079620Y0024211D01*
X0079756Y0024102D01*
X0079890Y0023990D01*
X0080020Y0023875D01*
X0080148Y0023756D01*
X0080272Y0023634D01*
X0080394Y0023510D01*
X0080513Y0023382D01*
X0080628Y0023252D01*
X0080740Y0023118D01*
X0080849Y0022982D01*
X0080955Y0022843D01*
X0081057Y0022702D01*
X0081155Y0022559D01*
X0081250Y0022412D01*
X0081342Y0022264D01*
X0081430Y0022114D01*
X0081514Y0021961D01*
X0081594Y0021806D01*
X0081670Y0021650D01*
X0081743Y0021491D01*
X0081812Y0021331D01*
X0081876Y0021169D01*
X0081937Y0021006D01*
X0081994Y0020841D01*
X0082046Y0020675D01*
X0082095Y0020508D01*
X0082139Y0020339D01*
X0082179Y0020170D01*
X0082216Y0019999D01*
X0082247Y0019828D01*
X0082275Y0019656D01*
X0082299Y0019483D01*
X0082318Y0019310D01*
X0082333Y0019136D01*
X0082343Y0018962D01*
X0082350Y0018788D01*
X0082352Y0018614D01*
X0082350Y0018440D01*
X0082343Y0018266D01*
X0082333Y0018092D01*
X0082318Y0017918D01*
X0082299Y0017745D01*
X0082275Y0017572D01*
X0082247Y0017400D01*
X0082216Y0017229D01*
X0082179Y0017058D01*
X0082139Y0016889D01*
X0082095Y0016720D01*
X0082046Y0016553D01*
X0081994Y0016387D01*
X0081937Y0016222D01*
X0081876Y0016059D01*
X0081812Y0015897D01*
X0081743Y0015737D01*
X0081670Y0015578D01*
X0081594Y0015422D01*
X0081514Y0015267D01*
X0081430Y0015114D01*
X0081342Y0014964D01*
X0081250Y0014816D01*
X0081155Y0014669D01*
X0081057Y0014526D01*
X0080955Y0014385D01*
X0080849Y0014246D01*
X0080740Y0014110D01*
X0080628Y0013976D01*
X0080513Y0013846D01*
X0080394Y0013718D01*
X0080272Y0013594D01*
X0080148Y0013472D01*
X0080020Y0013353D01*
X0079890Y0013238D01*
X0079756Y0013126D01*
X0079620Y0013017D01*
X0079481Y0012911D01*
X0079340Y0012809D01*
X0079197Y0012711D01*
X0079050Y0012616D01*
X0078902Y0012524D01*
X0078752Y0012436D01*
X0078599Y0012352D01*
X0078444Y0012272D01*
X0078288Y0012196D01*
X0078129Y0012123D01*
X0077969Y0012054D01*
X0077807Y0011990D01*
X0077644Y0011929D01*
X0077479Y0011872D01*
X0077313Y0011820D01*
X0077146Y0011771D01*
X0076977Y0011727D01*
X0076808Y0011687D01*
X0076637Y0011650D01*
X0076466Y0011619D01*
X0076294Y0011591D01*
X0076121Y0011567D01*
X0075948Y0011548D01*
X0075774Y0011533D01*
X0075600Y0011523D01*
X0075426Y0011516D01*
X0075252Y0011514D01*
X0075078Y0011516D01*
X0074904Y0011523D01*
X0074730Y0011533D01*
X0074556Y0011548D01*
X0074383Y0011567D01*
X0074210Y0011591D01*
X0074038Y0011619D01*
X0073867Y0011650D01*
X0073696Y0011687D01*
X0073527Y0011727D01*
X0073358Y0011771D01*
X0073191Y0011820D01*
X0073025Y0011872D01*
X0072860Y0011929D01*
X0072697Y0011990D01*
X0072535Y0012054D01*
X0072375Y0012123D01*
X0072216Y0012196D01*
X0072060Y0012272D01*
X0071905Y0012352D01*
X0071752Y0012436D01*
X0071602Y0012524D01*
X0071454Y0012616D01*
X0071307Y0012711D01*
X0071164Y0012809D01*
X0071023Y0012911D01*
X0070884Y0013017D01*
X0070748Y0013126D01*
X0070614Y0013238D01*
X0070484Y0013353D01*
X0070356Y0013472D01*
X0070232Y0013594D01*
X0070110Y0013718D01*
X0069991Y0013846D01*
X0069876Y0013976D01*
X0069764Y0014110D01*
X0069655Y0014246D01*
X0069549Y0014385D01*
X0069447Y0014526D01*
X0069349Y0014669D01*
X0069254Y0014816D01*
X0069162Y0014964D01*
X0069074Y0015114D01*
X0068990Y0015267D01*
X0068910Y0015422D01*
X0068834Y0015578D01*
X0068761Y0015737D01*
X0068692Y0015897D01*
X0068628Y0016059D01*
X0068567Y0016222D01*
X0068510Y0016387D01*
X0068458Y0016553D01*
X0068409Y0016720D01*
X0068365Y0016889D01*
X0068325Y0017058D01*
X0068288Y0017229D01*
X0068257Y0017400D01*
X0068229Y0017572D01*
X0068205Y0017745D01*
X0068186Y0017918D01*
X0068171Y0018092D01*
X0068161Y0018266D01*
X0068154Y0018440D01*
X0068152Y0018614D01*
X0016725Y0135537D02*
X0016723Y0135581D01*
X0016717Y0135624D01*
X0016708Y0135666D01*
X0016695Y0135708D01*
X0016678Y0135748D01*
X0016658Y0135787D01*
X0016635Y0135824D01*
X0016608Y0135858D01*
X0016579Y0135891D01*
X0016546Y0135920D01*
X0016512Y0135947D01*
X0016475Y0135970D01*
X0016436Y0135990D01*
X0016396Y0136007D01*
X0016354Y0136020D01*
X0016312Y0136029D01*
X0016269Y0136035D01*
X0016225Y0136037D01*
X0016181Y0136035D01*
X0016138Y0136029D01*
X0016096Y0136020D01*
X0016054Y0136007D01*
X0016014Y0135990D01*
X0015975Y0135970D01*
X0015938Y0135947D01*
X0015904Y0135920D01*
X0015871Y0135891D01*
X0015842Y0135858D01*
X0015815Y0135824D01*
X0015792Y0135787D01*
X0015772Y0135748D01*
X0015755Y0135708D01*
X0015742Y0135666D01*
X0015733Y0135624D01*
X0015727Y0135581D01*
X0015725Y0135537D01*
X0015727Y0135493D01*
X0015733Y0135450D01*
X0015742Y0135408D01*
X0015755Y0135366D01*
X0015772Y0135326D01*
X0015792Y0135287D01*
X0015815Y0135250D01*
X0015842Y0135216D01*
X0015871Y0135183D01*
X0015904Y0135154D01*
X0015938Y0135127D01*
X0015975Y0135104D01*
X0016014Y0135084D01*
X0016054Y0135067D01*
X0016096Y0135054D01*
X0016138Y0135045D01*
X0016181Y0135039D01*
X0016225Y0135037D01*
X0016269Y0135039D01*
X0016312Y0135045D01*
X0016354Y0135054D01*
X0016396Y0135067D01*
X0016436Y0135084D01*
X0016475Y0135104D01*
X0016512Y0135127D01*
X0016546Y0135154D01*
X0016579Y0135183D01*
X0016608Y0135216D01*
X0016635Y0135250D01*
X0016658Y0135287D01*
X0016678Y0135326D01*
X0016695Y0135366D01*
X0016708Y0135408D01*
X0016717Y0135450D01*
X0016723Y0135493D01*
X0016725Y0135537D01*
X0020725Y0142137D02*
X0020725Y0157737D01*
X0048125Y0157737D01*
X0048125Y0142137D01*
X0020725Y0142137D01*
D15*
X0034203Y0068276D02*
X0034837Y0068276D01*
X0034520Y0068276D02*
X0034520Y0066691D01*
X0034203Y0066374D01*
X0033886Y0066374D01*
X0033569Y0066691D01*
X0035779Y0066374D02*
X0037046Y0066374D01*
X0036413Y0066374D02*
X0036413Y0068276D01*
X0035779Y0067642D01*
X0108323Y0129334D02*
X0108640Y0129018D01*
X0108957Y0129018D01*
X0109274Y0129334D01*
X0109274Y0129968D01*
X0109591Y0130285D01*
X0109908Y0130285D01*
X0110225Y0129968D01*
X0110225Y0129334D01*
X0109908Y0129018D01*
X0108323Y0129334D02*
X0108323Y0129968D01*
X0108640Y0130285D01*
X0108323Y0131227D02*
X0108323Y0132178D01*
X0108640Y0132495D01*
X0109908Y0132495D01*
X0110225Y0132178D01*
X0110225Y0131227D01*
X0108323Y0131227D01*
X0108640Y0133437D02*
X0109908Y0133437D01*
X0110225Y0133754D01*
X0110225Y0134388D01*
X0109908Y0134705D01*
X0110225Y0135647D02*
X0108957Y0135647D01*
X0108323Y0136281D01*
X0108957Y0136915D01*
X0110225Y0136915D01*
X0110225Y0137857D02*
X0108323Y0137857D01*
X0108323Y0138808D01*
X0108640Y0139125D01*
X0109274Y0139125D01*
X0109591Y0138808D01*
X0109591Y0137857D01*
X0109591Y0138491D02*
X0110225Y0139125D01*
X0110225Y0140067D02*
X0110225Y0141018D01*
X0109908Y0141335D01*
X0108640Y0141335D01*
X0108323Y0141018D01*
X0108323Y0140067D01*
X0110225Y0140067D01*
X0110542Y0142277D02*
X0110542Y0143545D01*
X0110225Y0144487D02*
X0108323Y0144487D01*
X0108323Y0145437D01*
X0108640Y0145754D01*
X0109274Y0145754D01*
X0109591Y0145437D01*
X0109591Y0144487D01*
X0109591Y0145121D02*
X0110225Y0145754D01*
X0110225Y0146697D02*
X0110225Y0147964D01*
X0110225Y0148906D02*
X0108957Y0148906D01*
X0108323Y0149540D01*
X0108957Y0150174D01*
X0110225Y0150174D01*
X0110225Y0151116D02*
X0110225Y0152067D01*
X0109908Y0152384D01*
X0108640Y0152384D01*
X0108323Y0152067D01*
X0108323Y0151116D01*
X0110225Y0151116D01*
X0109274Y0150174D02*
X0109274Y0148906D01*
X0108323Y0147964D02*
X0108323Y0146697D01*
X0110225Y0146697D01*
X0109274Y0146697D02*
X0109274Y0147330D01*
X0109274Y0153326D02*
X0109274Y0153960D01*
X0108323Y0153326D02*
X0110225Y0153326D01*
X0110225Y0154594D01*
X0110225Y0155536D02*
X0108323Y0155536D01*
X0108323Y0156487D01*
X0108640Y0156804D01*
X0109274Y0156804D01*
X0109591Y0156487D01*
X0109591Y0155536D01*
X0109591Y0156170D02*
X0110225Y0156804D01*
X0108323Y0154594D02*
X0108323Y0153326D01*
X0109274Y0136915D02*
X0109274Y0135647D01*
X0108640Y0134705D02*
X0108323Y0134388D01*
X0108323Y0133754D01*
X0108640Y0133437D01*
X0131801Y0187852D02*
X0131801Y0189754D01*
X0131801Y0188803D02*
X0133069Y0188803D01*
X0133069Y0189754D02*
X0133069Y0187852D01*
X0134011Y0188169D02*
X0134328Y0187852D01*
X0134962Y0187852D01*
X0135279Y0188169D01*
X0136221Y0188803D02*
X0137489Y0188803D01*
X0138431Y0188169D02*
X0139699Y0189437D01*
X0139699Y0188169D01*
X0139382Y0187852D01*
X0138748Y0187852D01*
X0138431Y0188169D01*
X0138431Y0189437D01*
X0138748Y0189754D01*
X0139382Y0189754D01*
X0139699Y0189437D01*
X0140641Y0189754D02*
X0140641Y0188803D01*
X0141275Y0189120D01*
X0141592Y0189120D01*
X0141908Y0188803D01*
X0141908Y0188169D01*
X0141592Y0187852D01*
X0140958Y0187852D01*
X0140641Y0188169D01*
X0140641Y0189754D02*
X0141908Y0189754D01*
X0135279Y0189437D02*
X0134962Y0189754D01*
X0134328Y0189754D01*
X0134011Y0189437D01*
X0134011Y0188169D01*
X0154583Y0252725D02*
X0154583Y0253993D01*
X0154900Y0254935D02*
X0155217Y0254935D01*
X0155534Y0255252D01*
X0155534Y0255886D01*
X0155851Y0256203D01*
X0156168Y0256203D01*
X0156485Y0255886D01*
X0156485Y0255252D01*
X0156168Y0254935D01*
X0154900Y0254935D02*
X0154583Y0255252D01*
X0154583Y0255886D01*
X0154900Y0256203D01*
X0154583Y0257145D02*
X0154583Y0258096D01*
X0154900Y0258413D01*
X0155534Y0258413D01*
X0155851Y0258096D01*
X0155851Y0257145D01*
X0156485Y0257145D02*
X0154583Y0257145D01*
X0155851Y0257779D02*
X0156485Y0258413D01*
X0156485Y0259355D02*
X0156485Y0260623D01*
X0156485Y0259989D02*
X0154583Y0259989D01*
X0155217Y0259355D01*
X0155534Y0253359D02*
X0155534Y0252725D01*
X0156485Y0252725D02*
X0154583Y0252725D01*
X0171368Y0228225D02*
X0173620Y0225973D01*
X0173620Y0228975D01*
X0175872Y0228225D02*
X0171368Y0228225D01*
X0172119Y0224371D02*
X0171368Y0223621D01*
X0171368Y0222120D01*
X0172119Y0221369D01*
X0175121Y0221369D01*
X0175872Y0222120D01*
X0175872Y0223621D01*
X0175121Y0224371D01*
X0175554Y0300070D02*
X0172552Y0300070D01*
X0171801Y0300820D01*
X0171801Y0302322D01*
X0172552Y0303072D01*
X0171801Y0304674D02*
X0174053Y0304674D01*
X0173303Y0306175D01*
X0173303Y0306926D01*
X0174053Y0307676D01*
X0175554Y0307676D01*
X0176305Y0306926D01*
X0176305Y0305424D01*
X0175554Y0304674D01*
X0175554Y0303072D02*
X0176305Y0302322D01*
X0176305Y0300820D01*
X0175554Y0300070D01*
X0171801Y0304674D02*
X0171801Y0307676D01*
X0156918Y0331977D02*
X0155016Y0331977D01*
X0155016Y0333245D01*
X0155333Y0334187D02*
X0155016Y0334504D01*
X0155016Y0335138D01*
X0155333Y0335455D01*
X0155967Y0335138D02*
X0156284Y0335455D01*
X0156601Y0335455D01*
X0156918Y0335138D01*
X0156918Y0334504D01*
X0156601Y0334187D01*
X0155967Y0334504D02*
X0155967Y0335138D01*
X0155967Y0334504D02*
X0155650Y0334187D01*
X0155333Y0334187D01*
X0155967Y0332611D02*
X0155967Y0331977D01*
X0156284Y0336397D02*
X0156284Y0337348D01*
X0155967Y0337665D01*
X0155333Y0337665D01*
X0155016Y0337348D01*
X0155016Y0336397D01*
X0156918Y0336397D01*
X0156284Y0337031D02*
X0156918Y0337665D01*
X0156918Y0338607D02*
X0155650Y0339875D01*
X0155333Y0339875D01*
X0155016Y0339558D01*
X0155016Y0338924D01*
X0155333Y0338607D01*
X0156918Y0338607D02*
X0156918Y0339875D01*
X0100241Y0336004D02*
X0098973Y0336004D01*
X0099607Y0336004D02*
X0099607Y0334102D01*
X0098031Y0334102D02*
X0097397Y0334736D01*
X0097714Y0334736D02*
X0096763Y0334736D01*
X0096763Y0334102D02*
X0096763Y0336004D01*
X0097714Y0336004D01*
X0098031Y0335687D01*
X0098031Y0335053D01*
X0097714Y0334736D01*
X0095821Y0335053D02*
X0094553Y0335053D01*
X0094553Y0335370D02*
X0095187Y0336004D01*
X0095821Y0335370D01*
X0095821Y0334102D01*
X0094553Y0334102D02*
X0094553Y0335370D01*
X0093611Y0336004D02*
X0092343Y0336004D01*
X0092977Y0336004D02*
X0092977Y0334102D01*
X0091401Y0334419D02*
X0091084Y0334102D01*
X0090451Y0334102D01*
X0090134Y0334419D01*
X0090451Y0335053D02*
X0091084Y0335053D01*
X0091401Y0334736D01*
X0091401Y0334419D01*
X0090451Y0335053D02*
X0090134Y0335370D01*
X0090134Y0335687D01*
X0090451Y0336004D01*
X0091084Y0336004D01*
X0091401Y0335687D01*
X0089191Y0336004D02*
X0087924Y0334102D01*
X0086982Y0334102D02*
X0086348Y0334736D01*
X0086665Y0334736D02*
X0085714Y0334736D01*
X0085714Y0334102D02*
X0085714Y0336004D01*
X0086665Y0336004D01*
X0086982Y0335687D01*
X0086982Y0335053D01*
X0086665Y0334736D01*
X0084874Y0334102D02*
X0084241Y0334102D01*
X0084558Y0334102D02*
X0084558Y0336004D01*
X0084874Y0336004D02*
X0084241Y0336004D01*
X0083298Y0335370D02*
X0083298Y0334102D01*
X0083298Y0335053D02*
X0082031Y0335053D01*
X0082031Y0335370D02*
X0082665Y0336004D01*
X0083298Y0335370D01*
X0082031Y0335370D02*
X0082031Y0334102D01*
X0081089Y0335053D02*
X0080772Y0334736D01*
X0079821Y0334736D01*
X0079821Y0334102D02*
X0079821Y0336004D01*
X0080772Y0336004D01*
X0081089Y0335687D01*
X0081089Y0335053D01*
X0080393Y0304077D02*
X0080393Y0302175D01*
X0081661Y0302175D01*
X0082603Y0302175D02*
X0083871Y0302175D01*
X0084813Y0302175D02*
X0084813Y0304077D01*
X0085764Y0304077D01*
X0086081Y0303760D01*
X0086081Y0303126D01*
X0085764Y0302809D01*
X0084813Y0302809D01*
X0085447Y0302809D02*
X0086081Y0302175D01*
X0083871Y0304077D02*
X0082603Y0304077D01*
X0082603Y0302175D01*
X0082603Y0303126D02*
X0083237Y0303126D01*
X0079451Y0302175D02*
X0078183Y0302175D01*
X0078183Y0304077D01*
X0077241Y0303760D02*
X0077241Y0302492D01*
X0076924Y0302175D01*
X0076290Y0302175D01*
X0075973Y0302492D01*
X0075973Y0303760D01*
X0076290Y0304077D01*
X0076924Y0304077D01*
X0077241Y0303760D01*
X0075031Y0303760D02*
X0075031Y0303126D01*
X0074714Y0302809D01*
X0073763Y0302809D01*
X0073763Y0302175D02*
X0073763Y0304077D01*
X0074714Y0304077D01*
X0075031Y0303760D01*
X0074397Y0302809D02*
X0075031Y0302175D01*
X0072187Y0302175D02*
X0072187Y0304077D01*
X0071553Y0304077D02*
X0072821Y0304077D01*
X0070611Y0304077D02*
X0070611Y0302175D01*
X0069344Y0304077D01*
X0069344Y0302175D01*
X0068401Y0302492D02*
X0068401Y0303760D01*
X0068085Y0304077D01*
X0067451Y0304077D01*
X0067134Y0303760D01*
X0067134Y0302492D01*
X0067451Y0302175D01*
X0068085Y0302175D01*
X0068401Y0302492D01*
X0066192Y0302492D02*
X0065875Y0302175D01*
X0065241Y0302175D01*
X0064924Y0302492D01*
X0064924Y0303760D01*
X0065241Y0304077D01*
X0065875Y0304077D01*
X0066192Y0303760D01*
X0063982Y0303760D02*
X0063982Y0302492D01*
X0063665Y0302175D01*
X0063031Y0302175D01*
X0062714Y0302492D01*
X0062714Y0303760D01*
X0063031Y0304077D01*
X0063665Y0304077D01*
X0063982Y0303760D01*
X0061772Y0303760D02*
X0061772Y0303126D01*
X0061455Y0302809D01*
X0060504Y0302809D01*
X0060504Y0302175D02*
X0060504Y0304077D01*
X0061455Y0304077D01*
X0061772Y0303760D01*
X0061138Y0302809D02*
X0061772Y0302175D01*
X0059562Y0302492D02*
X0059245Y0302175D01*
X0058611Y0302175D01*
X0058294Y0302492D01*
X0058294Y0303760D01*
X0058611Y0304077D01*
X0059245Y0304077D01*
X0059562Y0303760D01*
X0057455Y0304077D02*
X0056821Y0304077D01*
X0057138Y0304077D02*
X0057138Y0302175D01*
X0056821Y0302175D02*
X0057455Y0302175D01*
X0055879Y0302175D02*
X0055879Y0304077D01*
X0055245Y0303443D01*
X0054611Y0304077D01*
X0054611Y0302175D01*
X0036694Y0314921D02*
X0036377Y0314604D01*
X0035743Y0314604D01*
X0035426Y0314921D01*
X0035426Y0315555D02*
X0036060Y0315872D01*
X0036377Y0315872D01*
X0036694Y0315555D01*
X0036694Y0314921D01*
X0035426Y0315555D02*
X0035426Y0316506D01*
X0036694Y0316506D01*
X0033850Y0316506D02*
X0033850Y0314604D01*
X0033216Y0314604D02*
X0034484Y0314604D01*
X0033216Y0315872D02*
X0033850Y0316506D01*
X0032274Y0316189D02*
X0032274Y0315555D01*
X0031957Y0315238D01*
X0031006Y0315238D01*
X0031006Y0314604D02*
X0031006Y0316506D01*
X0031957Y0316506D01*
X0032274Y0316189D01*
X0031640Y0315238D02*
X0032274Y0314604D01*
X0032150Y0326612D02*
X0032150Y0328514D01*
X0033101Y0328514D01*
X0033418Y0328197D01*
X0033418Y0327563D01*
X0033101Y0327246D01*
X0032150Y0327246D01*
X0032784Y0327246D02*
X0033418Y0326612D01*
X0034360Y0326612D02*
X0035628Y0326612D01*
X0034994Y0326612D02*
X0034994Y0328514D01*
X0034360Y0327880D01*
X0042300Y0334102D02*
X0042300Y0336004D01*
X0043251Y0336004D01*
X0043568Y0335687D01*
X0043568Y0335053D01*
X0043251Y0334736D01*
X0042300Y0334736D01*
X0042934Y0334736D02*
X0043568Y0334102D01*
X0044510Y0334102D02*
X0045778Y0334102D01*
X0046720Y0334419D02*
X0047037Y0334102D01*
X0047671Y0334102D01*
X0047988Y0334419D01*
X0047988Y0334736D01*
X0047671Y0335053D01*
X0047037Y0335053D01*
X0046720Y0335370D01*
X0046720Y0335687D01*
X0047037Y0336004D01*
X0047671Y0336004D01*
X0047988Y0335687D01*
X0048930Y0336004D02*
X0048930Y0334102D01*
X0050197Y0334102D01*
X0049564Y0335053D02*
X0048930Y0335053D01*
X0048930Y0336004D02*
X0050197Y0336004D01*
X0051140Y0336004D02*
X0052407Y0336004D01*
X0051773Y0336004D02*
X0051773Y0334102D01*
X0045778Y0336004D02*
X0044510Y0336004D01*
X0044510Y0334102D01*
X0044510Y0335053D02*
X0045144Y0335053D01*
X0014093Y0304624D02*
X0014093Y0304307D01*
X0013776Y0303990D01*
X0014093Y0303673D01*
X0014093Y0303356D01*
X0013776Y0303039D01*
X0013142Y0303039D01*
X0012825Y0303356D01*
X0013459Y0303990D02*
X0013776Y0303990D01*
X0014093Y0304624D02*
X0013776Y0304941D01*
X0013142Y0304941D01*
X0012825Y0304624D01*
X0011883Y0304624D02*
X0011883Y0303356D01*
X0011566Y0303039D01*
X0010615Y0303039D01*
X0010615Y0304941D01*
X0011566Y0304941D01*
X0011883Y0304624D01*
X0012510Y0326661D02*
X0013778Y0326661D01*
X0013144Y0326661D02*
X0013144Y0328563D01*
X0012510Y0327929D01*
X0011568Y0328246D02*
X0011251Y0328563D01*
X0010300Y0328563D01*
X0010300Y0326661D01*
X0011251Y0326661D01*
X0011568Y0326978D01*
X0011568Y0328246D01*
X0146354Y0066551D02*
X0146354Y0065370D01*
X0146354Y0066551D02*
X0147535Y0066551D01*
X0146354Y0051197D02*
X0146354Y0050016D01*
X0147535Y0050016D01*
X0161381Y0051276D02*
X0161383Y0051307D01*
X0161389Y0051338D01*
X0161398Y0051368D01*
X0161412Y0051396D01*
X0161429Y0051422D01*
X0161448Y0051446D01*
X0161471Y0051468D01*
X0161497Y0051486D01*
X0161524Y0051501D01*
X0161553Y0051513D01*
X0161583Y0051521D01*
X0161614Y0051525D01*
X0161646Y0051525D01*
X0161677Y0051521D01*
X0161707Y0051513D01*
X0161736Y0051501D01*
X0161763Y0051486D01*
X0161789Y0051468D01*
X0161812Y0051446D01*
X0161831Y0051422D01*
X0161848Y0051396D01*
X0161862Y0051368D01*
X0161871Y0051338D01*
X0161877Y0051307D01*
X0161879Y0051276D01*
X0161877Y0051245D01*
X0161871Y0051214D01*
X0161862Y0051184D01*
X0161848Y0051156D01*
X0161831Y0051130D01*
X0161812Y0051106D01*
X0161789Y0051084D01*
X0161763Y0051066D01*
X0161736Y0051051D01*
X0161707Y0051039D01*
X0161677Y0051031D01*
X0161646Y0051027D01*
X0161614Y0051027D01*
X0161583Y0051031D01*
X0161553Y0051039D01*
X0161524Y0051051D01*
X0161497Y0051066D01*
X0161471Y0051084D01*
X0161448Y0051106D01*
X0161429Y0051130D01*
X0161412Y0051156D01*
X0161398Y0051184D01*
X0161389Y0051214D01*
X0161383Y0051245D01*
X0161381Y0051276D01*
X0161709Y0050016D02*
X0162890Y0051197D01*
X0162890Y0065370D02*
X0162890Y0066551D01*
X0161709Y0066551D01*
X0162676Y0012181D02*
X0163310Y0011547D01*
X0163943Y0012181D01*
X0163943Y0010279D01*
X0164886Y0010279D02*
X0164886Y0012181D01*
X0165836Y0012181D01*
X0166153Y0011864D01*
X0166153Y0011230D01*
X0165836Y0010913D01*
X0164886Y0010913D01*
X0162676Y0010279D02*
X0162676Y0012181D01*
X0167095Y0012181D02*
X0167095Y0010596D01*
X0167412Y0010279D01*
X0168046Y0010279D01*
X0168363Y0010596D01*
X0168363Y0012181D01*
X0169305Y0009962D02*
X0170573Y0009962D01*
X0171515Y0010279D02*
X0171515Y0012181D01*
X0172466Y0012181D01*
X0172783Y0011864D01*
X0172783Y0011547D01*
X0172466Y0011230D01*
X0171515Y0011230D01*
X0171515Y0010279D02*
X0172466Y0010279D01*
X0172783Y0010596D01*
X0172783Y0010913D01*
X0172466Y0011230D01*
X0173725Y0011864D02*
X0173725Y0010596D01*
X0174042Y0010279D01*
X0174676Y0010279D01*
X0174993Y0010596D01*
X0174993Y0011864D01*
X0174676Y0012181D01*
X0174042Y0012181D01*
X0173725Y0011864D01*
D16*
X0056067Y0301925D02*
X0056069Y0302014D01*
X0056075Y0302103D01*
X0056085Y0302192D01*
X0056099Y0302280D01*
X0056116Y0302367D01*
X0056138Y0302453D01*
X0056164Y0302539D01*
X0056193Y0302623D01*
X0056226Y0302706D01*
X0056262Y0302787D01*
X0056303Y0302867D01*
X0056346Y0302944D01*
X0056393Y0303020D01*
X0056444Y0303093D01*
X0056497Y0303164D01*
X0056554Y0303233D01*
X0056614Y0303299D01*
X0056677Y0303363D01*
X0056742Y0303423D01*
X0056810Y0303481D01*
X0056881Y0303535D01*
X0056954Y0303586D01*
X0057029Y0303634D01*
X0057106Y0303679D01*
X0057185Y0303720D01*
X0057266Y0303757D01*
X0057348Y0303791D01*
X0057432Y0303822D01*
X0057517Y0303848D01*
X0057603Y0303871D01*
X0057690Y0303889D01*
X0057778Y0303904D01*
X0057867Y0303915D01*
X0057956Y0303922D01*
X0058045Y0303925D01*
X0058134Y0303924D01*
X0058223Y0303919D01*
X0058311Y0303910D01*
X0058400Y0303897D01*
X0058487Y0303880D01*
X0058574Y0303860D01*
X0058660Y0303835D01*
X0058744Y0303807D01*
X0058827Y0303775D01*
X0058909Y0303739D01*
X0058989Y0303700D01*
X0059067Y0303657D01*
X0059143Y0303611D01*
X0059217Y0303561D01*
X0059289Y0303508D01*
X0059358Y0303452D01*
X0059425Y0303393D01*
X0059489Y0303331D01*
X0059550Y0303267D01*
X0059609Y0303199D01*
X0059664Y0303129D01*
X0059716Y0303057D01*
X0059765Y0302982D01*
X0059810Y0302906D01*
X0059852Y0302827D01*
X0059890Y0302747D01*
X0059925Y0302665D01*
X0059956Y0302581D01*
X0059984Y0302496D01*
X0060007Y0302410D01*
X0060027Y0302323D01*
X0060043Y0302236D01*
X0060055Y0302147D01*
X0060063Y0302059D01*
X0060067Y0301970D01*
X0060067Y0301880D01*
X0060063Y0301791D01*
X0060055Y0301703D01*
X0060043Y0301614D01*
X0060027Y0301527D01*
X0060007Y0301440D01*
X0059984Y0301354D01*
X0059956Y0301269D01*
X0059925Y0301185D01*
X0059890Y0301103D01*
X0059852Y0301023D01*
X0059810Y0300944D01*
X0059765Y0300868D01*
X0059716Y0300793D01*
X0059664Y0300721D01*
X0059609Y0300651D01*
X0059550Y0300583D01*
X0059489Y0300519D01*
X0059425Y0300457D01*
X0059358Y0300398D01*
X0059289Y0300342D01*
X0059217Y0300289D01*
X0059143Y0300239D01*
X0059067Y0300193D01*
X0058989Y0300150D01*
X0058909Y0300111D01*
X0058827Y0300075D01*
X0058744Y0300043D01*
X0058660Y0300015D01*
X0058574Y0299990D01*
X0058487Y0299970D01*
X0058400Y0299953D01*
X0058311Y0299940D01*
X0058223Y0299931D01*
X0058134Y0299926D01*
X0058045Y0299925D01*
X0057956Y0299928D01*
X0057867Y0299935D01*
X0057778Y0299946D01*
X0057690Y0299961D01*
X0057603Y0299979D01*
X0057517Y0300002D01*
X0057432Y0300028D01*
X0057348Y0300059D01*
X0057266Y0300093D01*
X0057185Y0300130D01*
X0057106Y0300171D01*
X0057029Y0300216D01*
X0056954Y0300264D01*
X0056881Y0300315D01*
X0056810Y0300369D01*
X0056742Y0300427D01*
X0056677Y0300487D01*
X0056614Y0300551D01*
X0056554Y0300617D01*
X0056497Y0300686D01*
X0056444Y0300757D01*
X0056393Y0300830D01*
X0056346Y0300906D01*
X0056303Y0300983D01*
X0056262Y0301063D01*
X0056226Y0301144D01*
X0056193Y0301227D01*
X0056164Y0301311D01*
X0056138Y0301397D01*
X0056116Y0301483D01*
X0056099Y0301570D01*
X0056085Y0301658D01*
X0056075Y0301747D01*
X0056069Y0301836D01*
X0056067Y0301925D01*
X0006375Y0309089D02*
X0006375Y0311089D01*
X0006375Y0317489D02*
X0006375Y0319289D01*
X0006060Y0332711D02*
X0006060Y0334711D01*
X0006060Y0341111D02*
X0006060Y0342911D01*
D17*
X0032705Y0341315D02*
X0032705Y0353626D01*
X0062445Y0353626D01*
X0062445Y0341315D01*
X0055449Y0336878D02*
X0039701Y0336878D01*
X0060567Y0299425D02*
X0066567Y0299425D01*
X0066569Y0299299D01*
X0066575Y0299174D01*
X0066585Y0299049D01*
X0066599Y0298924D01*
X0066616Y0298799D01*
X0066638Y0298675D01*
X0066663Y0298552D01*
X0066693Y0298430D01*
X0066726Y0298309D01*
X0066763Y0298189D01*
X0066803Y0298070D01*
X0066848Y0297953D01*
X0066896Y0297836D01*
X0066948Y0297722D01*
X0067003Y0297609D01*
X0067062Y0297498D01*
X0067124Y0297389D01*
X0067190Y0297282D01*
X0067259Y0297177D01*
X0067331Y0297074D01*
X0067406Y0296973D01*
X0067485Y0296875D01*
X0067567Y0296780D01*
X0067651Y0296687D01*
X0067739Y0296597D01*
X0067829Y0296509D01*
X0067922Y0296425D01*
X0068017Y0296343D01*
X0068115Y0296264D01*
X0068216Y0296189D01*
X0068319Y0296117D01*
X0068424Y0296048D01*
X0068531Y0295982D01*
X0068640Y0295920D01*
X0068751Y0295861D01*
X0068864Y0295806D01*
X0068978Y0295754D01*
X0069095Y0295706D01*
X0069212Y0295661D01*
X0069331Y0295621D01*
X0069451Y0295584D01*
X0069572Y0295551D01*
X0069694Y0295521D01*
X0069817Y0295496D01*
X0069941Y0295474D01*
X0070066Y0295457D01*
X0070191Y0295443D01*
X0070316Y0295433D01*
X0070441Y0295427D01*
X0070567Y0295425D01*
X0070693Y0295427D01*
X0070818Y0295433D01*
X0070943Y0295443D01*
X0071068Y0295457D01*
X0071193Y0295474D01*
X0071317Y0295496D01*
X0071440Y0295521D01*
X0071562Y0295551D01*
X0071683Y0295584D01*
X0071803Y0295621D01*
X0071922Y0295661D01*
X0072039Y0295706D01*
X0072156Y0295754D01*
X0072270Y0295806D01*
X0072383Y0295861D01*
X0072494Y0295920D01*
X0072603Y0295982D01*
X0072710Y0296048D01*
X0072815Y0296117D01*
X0072918Y0296189D01*
X0073019Y0296264D01*
X0073117Y0296343D01*
X0073212Y0296425D01*
X0073305Y0296509D01*
X0073395Y0296597D01*
X0073483Y0296687D01*
X0073567Y0296780D01*
X0073649Y0296875D01*
X0073728Y0296973D01*
X0073803Y0297074D01*
X0073875Y0297177D01*
X0073944Y0297282D01*
X0074010Y0297389D01*
X0074072Y0297498D01*
X0074131Y0297609D01*
X0074186Y0297722D01*
X0074238Y0297836D01*
X0074286Y0297953D01*
X0074331Y0298070D01*
X0074371Y0298189D01*
X0074408Y0298309D01*
X0074441Y0298430D01*
X0074471Y0298552D01*
X0074496Y0298675D01*
X0074518Y0298799D01*
X0074535Y0298924D01*
X0074549Y0299049D01*
X0074559Y0299174D01*
X0074565Y0299299D01*
X0074567Y0299425D01*
X0080567Y0299425D01*
X0080567Y0159425D01*
X0060567Y0159425D01*
X0060567Y0299425D01*
X0082378Y0336878D02*
X0098126Y0336878D01*
X0105122Y0341315D02*
X0105122Y0353626D01*
X0075382Y0353626D01*
X0075382Y0341315D01*
X0144268Y0338067D02*
X0144268Y0333067D01*
X0146768Y0330567D01*
X0144268Y0328067D01*
X0144268Y0323067D01*
X0146768Y0320567D01*
X0151768Y0320567D01*
X0154268Y0323067D01*
X0154268Y0328067D01*
X0151768Y0330567D01*
X0154268Y0333067D01*
X0154268Y0338067D01*
X0151768Y0340567D01*
X0146768Y0340567D01*
X0144268Y0338067D01*
X0146335Y0261315D02*
X0143835Y0258815D01*
X0143835Y0253815D01*
X0146335Y0251315D01*
X0143835Y0248815D01*
X0143835Y0243815D01*
X0146335Y0241315D01*
X0151335Y0241315D01*
X0153835Y0243815D01*
X0153835Y0248815D01*
X0151335Y0251315D01*
X0153835Y0253815D01*
X0153835Y0258815D01*
X0151335Y0261315D01*
X0146335Y0261315D01*
X0144051Y0187102D02*
X0141551Y0184602D01*
X0139051Y0187102D01*
X0134051Y0187102D01*
X0131551Y0184602D01*
X0131551Y0179602D01*
X0134051Y0177102D01*
X0139051Y0177102D01*
X0141551Y0179602D01*
X0144051Y0177102D01*
X0149051Y0177102D01*
X0151551Y0179602D01*
X0154051Y0177102D01*
X0159051Y0177102D01*
X0161551Y0179602D01*
X0164051Y0177102D01*
X0169051Y0177102D01*
X0171551Y0179602D01*
X0171551Y0184602D01*
X0169051Y0187102D01*
X0164051Y0187102D01*
X0161551Y0184602D01*
X0159051Y0187102D01*
X0154051Y0187102D01*
X0151551Y0184602D01*
X0149051Y0187102D01*
X0144051Y0187102D01*
X0107575Y0154996D02*
X0107575Y0149996D01*
X0105075Y0147496D01*
X0107575Y0144996D01*
X0107575Y0139996D01*
X0105075Y0137496D01*
X0107575Y0134996D01*
X0107575Y0129996D01*
X0105075Y0127496D01*
X0107575Y0124996D01*
X0107575Y0119996D01*
X0105075Y0117496D01*
X0107575Y0114996D01*
X0107575Y0109996D01*
X0105075Y0107496D01*
X0107575Y0104996D01*
X0107575Y0099996D01*
X0105075Y0097496D01*
X0107575Y0094996D01*
X0107575Y0089996D01*
X0105075Y0087496D01*
X0100075Y0087496D01*
X0097575Y0089996D01*
X0097575Y0094996D01*
X0100075Y0097496D01*
X0097575Y0099996D01*
X0097575Y0104996D01*
X0100075Y0107496D01*
X0097575Y0109996D01*
X0097575Y0114996D01*
X0100075Y0117496D01*
X0097575Y0119996D01*
X0097575Y0124996D01*
X0100075Y0127496D01*
X0097575Y0129996D01*
X0097575Y0134996D01*
X0100075Y0137496D01*
X0097575Y0139996D01*
X0097575Y0144996D01*
X0100075Y0147496D01*
X0097575Y0149996D01*
X0097575Y0154996D01*
X0100075Y0157496D01*
X0105075Y0157496D01*
X0107575Y0154996D01*
X0050055Y0063913D02*
X0014622Y0063913D01*
X0014622Y0043047D01*
X0014622Y0024543D02*
X0014622Y0021787D01*
X0022890Y0021787D01*
X0041787Y0021787D02*
X0050055Y0021787D01*
X0050055Y0063913D01*
X0125685Y0020429D02*
X0125685Y0015429D01*
X0128185Y0012929D01*
X0133185Y0012929D01*
X0135685Y0015429D01*
X0138185Y0012929D01*
X0143185Y0012929D01*
X0145685Y0015429D01*
X0148185Y0012929D01*
X0153185Y0012929D01*
X0155685Y0015429D01*
X0158185Y0012929D01*
X0163185Y0012929D01*
X0165685Y0015429D01*
X0168185Y0012929D01*
X0173185Y0012929D01*
X0175685Y0015429D01*
X0175685Y0020429D01*
X0173185Y0022929D01*
X0168185Y0022929D01*
X0165685Y0020429D01*
X0163185Y0022929D01*
X0158185Y0022929D01*
X0155685Y0020429D01*
X0153185Y0022929D01*
X0148185Y0022929D01*
X0145685Y0020429D01*
X0143185Y0022929D01*
X0138185Y0022929D01*
X0135685Y0020429D01*
X0133185Y0022929D01*
X0128185Y0022929D01*
X0125685Y0020429D01*
D18*
X0037839Y0147587D02*
X0036271Y0147587D01*
X0035487Y0148371D01*
X0034019Y0148371D02*
X0034019Y0151507D01*
X0033235Y0152291D01*
X0031667Y0152291D01*
X0030883Y0151507D01*
X0030883Y0148371D01*
X0031667Y0147587D01*
X0033235Y0147587D01*
X0034019Y0148371D01*
X0036271Y0149939D02*
X0035487Y0150723D01*
X0035487Y0151507D01*
X0036271Y0152291D01*
X0037839Y0152291D01*
X0038623Y0151507D01*
X0037839Y0149939D02*
X0038623Y0149155D01*
X0038623Y0148371D01*
X0037839Y0147587D01*
X0037839Y0149939D02*
X0036271Y0149939D01*
X0029415Y0152291D02*
X0029415Y0147587D01*
X0026279Y0147587D02*
X0026279Y0152291D01*
X0027847Y0150723D01*
X0029415Y0152291D01*
X0024811Y0152291D02*
X0024811Y0147587D01*
X0021675Y0152291D01*
X0021675Y0147587D01*
D19*
X0166394Y0243283D03*
X0165882Y0260370D03*
X0166394Y0321591D03*
X0166118Y0339740D03*
D20*
X0083008Y0322496D03*
X0061354Y0322614D03*
X0057850Y0119071D03*
X0074228Y0118874D03*
X0038795Y0118756D03*
X0018953Y0118677D03*
X0150094Y0036000D03*
X0172811Y0036276D03*
D21*
X0093252Y0032614D02*
X0093252Y0065114D01*
X0057252Y0065114D01*
X0057252Y0032614D01*
X0093252Y0032614D01*
D22*
X0088360Y0037015D02*
X0088360Y0039117D01*
X0086258Y0039117D01*
X0084156Y0041219D02*
X0084156Y0037015D01*
X0085207Y0035964D01*
X0087309Y0035964D01*
X0088360Y0037015D01*
X0088360Y0041219D02*
X0087309Y0042270D01*
X0085207Y0042270D01*
X0084156Y0041219D01*
X0081915Y0042270D02*
X0077711Y0042270D01*
X0077711Y0035964D01*
X0081915Y0035964D01*
X0079813Y0039117D02*
X0077711Y0039117D01*
X0075469Y0039117D02*
X0074418Y0038066D01*
X0071265Y0038066D01*
X0071265Y0035964D02*
X0071265Y0042270D01*
X0074418Y0042270D01*
X0075469Y0041219D01*
X0075469Y0039117D01*
X0073367Y0038066D02*
X0075469Y0035964D01*
X0069024Y0034913D02*
X0064820Y0034913D01*
X0062578Y0038066D02*
X0062578Y0042270D01*
X0062578Y0038066D02*
X0060476Y0035964D01*
X0058374Y0038066D01*
X0058374Y0042270D01*
D23*
X0070179Y0031417D02*
X0069012Y0030249D01*
X0069012Y0027914D01*
X0069012Y0029666D02*
X0071347Y0029666D01*
X0071347Y0030249D02*
X0071347Y0027914D01*
X0072603Y0027914D02*
X0074938Y0027914D01*
X0073770Y0027914D02*
X0073770Y0031417D01*
X0072603Y0030249D01*
X0071347Y0030249D02*
X0070179Y0031417D01*
X0076194Y0031417D02*
X0076194Y0029666D01*
X0077361Y0030249D01*
X0077945Y0030249D01*
X0078529Y0029666D01*
X0078529Y0028498D01*
X0077945Y0027914D01*
X0076777Y0027914D01*
X0076194Y0028498D01*
X0076194Y0031417D02*
X0078529Y0031417D01*
X0080369Y0028498D02*
X0080369Y0027914D01*
X0080952Y0027914D01*
X0080952Y0028498D01*
X0080369Y0028498D01*
X0080952Y0027914D02*
X0079785Y0026747D01*
X0082179Y0027914D02*
X0084514Y0030249D01*
X0084514Y0030833D01*
X0083930Y0031417D01*
X0082763Y0031417D01*
X0082179Y0030833D01*
X0082179Y0027914D02*
X0084514Y0027914D01*
X0085770Y0027914D02*
X0085770Y0030249D01*
X0086354Y0030249D01*
X0086937Y0029666D01*
X0087521Y0030249D01*
X0088105Y0029666D01*
X0088105Y0027914D01*
X0086937Y0027914D02*
X0086937Y0029666D01*
X0089361Y0030249D02*
X0089361Y0027914D01*
X0090529Y0027914D02*
X0090529Y0029666D01*
X0091112Y0030249D01*
X0091696Y0029666D01*
X0091696Y0027914D01*
X0090529Y0029666D02*
X0089945Y0030249D01*
X0089361Y0030249D01*
D24*
X0085252Y0069364D03*
X0075252Y0069364D03*
X0065252Y0069364D03*
M02*
