%
M48
M72
T01C0.02362
T02C0.02756
T03C0.03150
T04C0.03200
T05C0.04000
T06C0.04724
T07C0.11800
T08C0.13000
%
T01
X52181Y107299
X39386Y128953
X83087Y137417
X99425Y111236
X107299Y111236
X107299Y138795
X126984Y193913
X134858Y213598
X142732Y213598
X142732Y233283
X134858Y233283
X162417Y249031
X166736Y268717
X170291Y276591
X142732Y284465
X126984Y284465
X123047Y312024
X119110Y319898
X123047Y327772
X95488Y312024
X99425Y241157
X99425Y225409
X46472Y213402
X46472Y240961
X154543Y323835
X189976Y351394
X201787Y276591
X201787Y268717
X205724Y83677
X201787Y76984
X193913Y75803
X197850Y58047
X199819Y47063
X205146Y24240
X171276Y74031
X163008Y84661
X158677Y78362
X159071Y38402
X143373Y36433
X119110Y67929
T02
X60055Y191787
X60055Y211787
T03
X61354Y345252
X81039Y345252
X104031Y345252
X123717Y345252
T04
X109189Y294425
X109189Y284425
X109189Y274425
X109189Y264425
X109189Y254425
X109189Y244425
X109189Y234425
X109189Y224425
X109189Y214425
X109189Y204425
X109189Y194425
X109189Y184425
X109189Y174425
X109189Y164425
X79189Y164425
X79189Y174425
X79189Y184425
X79189Y194425
X79189Y204425
X79189Y214425
X79189Y224425
X79189Y234425
X79189Y244425
X79189Y254425
X79189Y264425
X79189Y274425
X79189Y284425
X79189Y294425
X41197Y314189
X31197Y314189
X30882Y337811
X40882Y337811
X183677Y305528
X183677Y285528
X183244Y226827
X183244Y206827
T05
X180173Y182102
X170173Y182102
X160173Y182102
X190173Y182102
X172457Y246315
X172457Y256315
X172890Y325567
X172890Y335567
X126197Y152496
X126197Y142496
X126197Y132496
X126197Y122496
X126197Y112496
X126197Y102496
X126197Y92496
X108874Y77614
X98874Y77614
X88874Y77614
X154307Y17929
X164307Y17929
X174307Y17929
X184307Y17929
X194307Y17929
T06
X127654Y335409
X100094Y335409
X84976Y335409
X57417Y335409
T07
X37457Y33598
X55961Y21787
X55961Y45409
T08
X98874Y18614
M30
